<?xml version="1.0" encoding="utf-8"?>
<svg viewBox="0 0 64 64" xmlns="http://www.w3.org/2000/svg">
  <g id="g8360" transform="matrix(1.333333, 0, 0, -1.333333, -329.788147, 182.522095)" style="display: inline;">
    <path d="m 273.3456,130.4276 c 0.015,1.044 -0.561,1.702 -1.441,1.711 -0.904,0.009 -1.83,-0.657 -1.838,-1.323 -0.01,-0.796 1.196,-1.845 2.106,-1.817 0.973,0.031 1.092,0.751 1.173,1.429 m -3.798,-8.314 c -2.201,0.009 -4.479,0.019 -6.842,0.028 0.003,0.735 0.006,1.39 0.01,2.251 2.372,-0.009 4.751,-0.019 7.058,-0.029 0.53,1.53 -0.074,2.361 -1.093,3.178 -1.537,1.233 -1.897,2.917 -1.206,4.626 0.698,1.724 2.678,2.769 4.977,2.628 1.811,-0.112 3.204,-1.171 3.676,-2.794 0.531,-1.825 0.041,-3.564 -1.544,-4.633 -1.078,-0.727 -1.299,-1.587 -0.96,-2.941 2.248,-0.009 4.555,-0.019 6.937,-0.029 -0.004,-0.868 -0.006,-1.524 -0.009,-2.29 -2.278,0.009 -4.516,0.018 -6.83,0.027 -0.026,-0.45 -0.064,-0.797 -0.063,-1.145 0.037,-6.695 0.076,-13.391 0.125,-20.086 0.003,-0.462 0.075,-0.927 0.146,-1.385 0.331,-2.141 0.607,-2.384 2.79,-2.132 0.73,0.084 1.477,0.315 2.139,0.637 2.411,1.173 2.963,2.739 1.989,4.852 2.453,1.926 4.855,3.815 7.304,5.739 0.497,-1.436 0.532,-2.967 0.108,-4.438 -0.423,-1.464 -1.089,-2.859 -1.658,-4.281 -0.218,-0.546 -0.528,-0.805 -1.156,-0.453 -0.159,0.088 -0.632,-0.095 -0.762,-0.287 -1.811,-2.693 -4.474,-4.274 -7.296,-5.65 -0.803,-0.392 -1.699,-0.638 -2.421,-1.141 -2.185,-1.519 -4.283,-1.341 -6.517,-0.076 -1.829,1.036 -3.816,1.792 -5.657,2.811 -1.68,0.931 -3.044,2.271 -3.947,3.997 -0.47,0.899 -1.107,0.502 -1.823,0.31 -1.946,2.936 -3.024,6.023 -1.852,9.755 2.162,-2.368 4.298,-4.577 7.23,-5.819 -0.084,-0.274 -0.112,-0.489 -0.211,-0.666 -0.843,-1.511 -0.658,-2.633 1.06,-3.984 1.305,-1.026 2.797,-1.59 4.504,-1.288 0.816,0.145 1.339,0.5 1.365,1.468 0.089,3.256 0.303,6.509 0.359,9.765 0.076,4.436 0.051,8.874 0.07,13.475" style="fill:#231f20;fill-opacity:1;fill-rule:nonzero;stroke:none" id="path746"/>
  </g>
</svg>