<?xml version="1.0" encoding="utf-8"?>
<svg viewBox="0 0 64 64" xmlns="http://www.w3.org/2000/svg">
  <g transform="matrix(1, 0, 0, 1, 0, -0.000003)">
    <path d="M 12.921 44.37 C 12.941 44.377 12.941 44.403 12.96 44.435 C 12.948 44.413 12.934 44.392 12.921 44.37 M 4.766 46.067 C 4.766 45.417 4.696 44.725 4.748 44.08 C 4.846 43.06 5.296 42.071 5.814 41.429 C 6.076 41.223 6.357 41.049 6.654 40.729 C 6.93 40.532 7.208 40.333 7.486 40.131 C 7.511 40.143 7.535 40.156 7.56 40.168 C 7.838 39.784 8.655 39.651 8.871 39.422 C 8.963 39.466 9.585 39.324 9.785 39.16 C 9.968 39.116 10.138 39.188 10.322 39.168 C 10.507 39.13 10.692 39.09 10.877 39.05 C 11.425 39.274 11.808 38.926 12.413 38.978 C 12.637 38.912 13.262 38.939 13.569 39.045 C 13.742 39.104 13.915 39.163 14.088 39.221 C 14.261 39.28 14.454 39.343 14.631 39.526 C 14.657 39.534 14.682 39.543 14.708 39.551 C 15.733 39.88 16.499 40.914 16.579 41.013 C 16.579 41.013 16.642 41.155 16.739 41.183 C 16.819 41.313 16.901 41.443 16.982 41.574 C 17.201 41.809 17.511 42.44 17.583 42.883 C 17.578 42.923 17.572 42.964 17.567 43.004 C 17.685 43.034 17.717 43.518 17.798 43.614 C 17.819 43.661 17.84 43.708 17.861 43.755 C 17.828 43.973 18.115 44.468 18.1 44.64 C 18.083 44.71 17.951 44.878 17.936 45.023 C 17.903 45.015 17.871 45.008 17.838 45 C 17.761 45.056 17.743 45.076 17.743 45.1 C 17.744 45.127 17.765 45.157 17.805 45.217 C 17.839 45.267 17.872 45.317 17.907 45.368 C 17.997 45.765 18.08 45.961 18.066 46.158 C 18.049 46.279 17.939 46.477 17.923 46.622 C 17.906 46.693 17.968 46.834 17.954 47.005 C 17.879 47.787 17.722 48.477 17.173 48.957 C 17.095 48.936 16.981 49.005 16.886 49.104 C 16.854 49.095 16.821 49.086 16.789 49.077 C 16.219 49.445 16.269 49.832 16.224 50.296 C 16.04 50.617 16.027 50.865 15.783 51.067 C 15.788 50.993 15.792 50.92 15.796 50.846 L 15.684 50.938 C 15.67 51.159 15.592 51.135 15.417 51.083 C 15.421 51.009 15.426 50.935 15.431 50.861 C 15.451 50.867 15.47 50.872 15.489 50.853 C 15.488 50.803 15.465 50.696 15.462 50.621 C 15.425 50.651 15.388 50.682 15.35 50.712 C 15.314 50.124 15.248 49.881 15.168 49.731 C 15.152 49.851 15.156 49.976 15.061 50.046 C 14.843 49.729 14.885 49.19 14.788 49.159 C 14.708 49.034 14.607 48.877 14.563 48.636 C 14.292 48.549 13.916 48.698 13.914 48.646 C 13.818 48.615 13.818 48.614 13.758 48.493 C 13.794 48.456 13.831 48.418 13.83 48.393 C 13.83 48.368 13.81 48.337 13.789 48.254 C 13.751 48.283 13.714 48.312 13.677 48.34 C 13.197 48.174 13.245 47.138 13.248 47.263 C 13.245 47.165 13.337 47.072 13.337 47.071 C 13.39 47.165 13.444 47.258 13.497 47.352 C 13.51 47.132 13.466 46.891 13.367 46.756 C 13.478 46.67 13.478 46.67 13.494 46.551 C 13.498 46.477 13.503 46.404 13.507 46.331 C 13.57 46.578 13.747 46.763 13.809 46.909 C 13.81 46.944 13.81 46.977 13.811 47.011 C 13.908 47.044 13.984 47.07 13.981 46.968 C 13.986 46.928 13.992 46.888 13.997 46.848 C 14.015 46.779 14.032 46.735 14.031 46.685 C 14.063 46.47 13.925 46.323 13.805 46.107 C 13.806 46.141 13.807 46.175 13.808 46.209 C 13.792 46.329 13.68 46.39 13.68 46.389 C 13.584 46.357 13.511 45.806 13.392 45.614 C 13.469 45.641 13.468 45.641 13.567 45.774 C 13.615 45.875 13.662 45.975 13.709 46.075 C 13.714 46.035 13.719 45.995 13.724 45.955 C 13.485 45.548 13.244 44.412 12.901 44.288 L 12.921 44.37 C 12.763 44.139 12.416 43.886 12.207 43.805 C 12.035 43.741 11.865 43.674 11.694 43.607 C 10.962 43.648 10.04 43.857 9.453 44.617 C 9.362 44.676 9.257 44.855 9.059 45.013 C 8.785 45.114 8.286 45.552 8.246 46.108 C 8.308 46.362 8.295 46.583 8.283 46.801 C 8.268 46.92 8.252 47.013 8.145 47.086 C 8.146 47.128 8.146 47.17 8.148 47.212 C 8.089 47.734 8.172 50.15 8.337 50.831 C 8.459 51.34 8.566 51.942 9.06 52.546 C 9.044 52.667 9.886 53.848 10.263 54.006 C 10.319 54.029 10.375 54.054 10.432 54.078 C 10.585 54.241 10.755 54.312 10.943 54.39 C 11.227 54.506 11.486 53.709 11.713 53.798 C 11.745 53.811 11.777 53.822 11.808 53.835 C 11.834 53.42 12.268 53.512 12.267 53.436 C 12.297 53.174 12.942 52.61 12.905 52.648 C 13.224 52.762 13.544 52.874 13.865 52.983 C 14.024 53.238 14.353 53.398 14.374 53.479 C 14.575 53.847 14.63 54.439 14.586 54.924 C 14.476 55.114 14.429 55.45 14.243 55.613 C 14.212 55.645 14.181 55.676 14.15 55.707 C 14.151 55.742 14.152 55.775 14.152 55.809 C 13.929 55.984 13.917 56.204 13.839 56.178 C 13.615 56.301 13.542 56.4 13.369 56.34 C 13.363 56.379 13.358 56.419 13.353 56.459 C 13.161 56.392 12.849 56.73 12.792 56.709 C 12.753 56.669 12.733 56.637 12.733 56.637 C 12.695 56.623 12.659 56.711 12.585 56.758 C 12.451 56.711 11.562 57.195 11.474 57.357 C 11.415 57.285 11.376 57.219 11.319 57.196 C 11.187 57.142 11.045 57.434 11.083 57.424 C 10.944 57.368 10.806 57.311 10.668 57.254 C 10.668 57.253 10.574 57.214 10.577 57.316 L 10.482 57.276 C 10.408 57.244 10.313 57.203 10.297 57.322 C 10.273 57.311 10.247 57.3 10.223 57.29 C 10.227 57.25 10.233 57.211 10.238 57.171 C 10.054 57.217 9.96 57.178 9.777 57.222 C 9.683 57.181 9.699 57.061 9.713 56.944 C 9.689 56.933 9.664 56.921 9.639 56.91 C 9.529 56.937 9.436 56.919 9.362 56.887 C 9.138 56.786 8.924 56.361 8.795 56.301 C 8.759 56.335 8.741 56.326 8.703 56.31 C 8.574 56.248 8.495 56.061 8.384 56.008 C 8.242 55.94 8.1 55.872 7.959 55.803 C 7.861 55.53 7.402 55.303 7.175 54.936 C 7.068 54.773 6.962 54.611 6.856 54.446 C 5.981 53.31 6.335 53.069 5.982 52.607 C 5.987 52.568 5.992 52.529 5.997 52.49 C 5.907 52.44 5.921 52.347 5.846 52.181 C 5.777 52.035 5.708 51.889 5.639 51.742 C 5.421 50.871 5.379 50.646 5.242 50.142 C 5.083 49.452 5.152 48.741 4.937 47.916 L 4.966 47.684 C 4.892 47.566 4.855 47.521 4.855 47.47 C 4.855 47.47 4.871 47.454 4.888 47.414 C 4.847 47.166 4.858 46.946 4.798 46.687 C 4.835 46.708 4.871 46.728 4.871 46.728 C 4.871 46.702 4.833 46.656 4.796 46.559 C 4.801 46.528 4.806 46.498 4.811 46.468 C 4.79 46.356 4.77 46.244 4.767 46.092 C 4.786 46.145 4.804 46.197 4.823 46.25 C 4.823 46.25 4.837 46.133 4.767 46.092 C 4.766 46.084 4.766 46.075 4.766 46.067" style="fill-opacity: 1; fill-rule: nonzero; stroke: none; display: inline;" id="path754"/>
    <path d="M 26.619 54.671 C 26.616 54.545 26.733 54.428 26.733 54.428 C 27.078 53.877 27.345 53.418 27.509 52.826 C 27.525 52.668 27.54 52.51 27.556 52.352 C 27.831 49.472 26.173 48.413 26.254 48.412 C 26.26 48.371 26.265 48.329 26.271 48.289 C 26.237 48.252 26.202 48.216 26.167 48.18 C 26.006 48.167 25.751 47.694 25.551 47.676 C 25.517 47.673 25.485 47.67 25.45 47.666 C 25.169 47.64 24.606 46.804 24.47 46.937 C 24.273 47.039 24.172 47.027 24.052 47.012 C 23.872 46.99 23.692 46.966 23.513 46.942 C 23.48 46.971 23.447 47 23.415 47.029 C 23.295 47.013 23.196 46.999 23.099 47.11 C 22.979 47.093 22.914 46.883 22.793 46.865 C 22.754 46.86 22.694 46.876 22.656 46.92 C 22.616 46.914 22.576 46.908 22.536 46.902 C 21.699 46.773 21.049 48.853 20.834 49.612 C 20.779 50.193 20.723 50.776 20.668 51.358 C 20.603 51.844 20.675 52.31 20.694 52.939 C 20.827 53.464 20.979 53.943 21.137 54.597 C 21.219 54.713 21.387 55.043 21.499 55.488 C 21.789 55.965 22.434 56.321 22.594 56.343 C 22.657 56.479 22.658 56.479 22.757 56.492 C 22.878 56.511 22.996 56.528 23.116 56.545 C 24.035 56.674 24.509 55.776 25.004 55.603 C 25.1 55.496 25.197 55.389 25.295 55.282 C 25.311 55.183 25.411 55.193 25.488 55.076 C 25.676 54.884 25.865 54.693 26.052 54.5 C 26.053 54.542 26.054 54.584 26.056 54.626 C 26.234 54.515 26.33 54.398 26.469 54.335 C 26.463 54.359 26.457 54.383 26.451 54.407 C 26.276 54.569 26.028 55.024 26.043 54.876 C 26.044 54.9 26.065 54.927 26.107 54.981 C 26.204 54.864 26.439 54.657 26.535 54.538 C 26.563 54.583 26.591 54.627 26.619 54.671 M 23.207 41.27 C 23.29 41.407 23.29 41.407 23.37 41.418 C 23.47 41.432 23.55 41.443 23.667 41.333 C 23.926 41.366 24.187 41.399 24.447 41.429 C 24.426 41.376 24.602 41.247 24.622 41.249 C 24.661 41.253 24.747 41.438 24.767 41.44 C 24.807 41.443 24.827 41.421 24.845 41.374 C 24.926 41.383 24.926 41.382 25.008 41.492 C 25.042 41.495 25.075 41.499 25.109 41.502 C 25.636 41.73 26.123 41.922 26.312 42.212 C 26.339 42.214 26.365 42.215 26.393 42.217 C 26.345 42.665 27.039 43.067 26.918 43.006 C 26.901 43.105 27.274 43.506 27.317 43.582 C 27.38 43.71 27.501 43.718 27.602 43.723 C 27.663 43.727 27.723 43.729 27.784 43.732 C 27.747 43.83 27.727 43.88 27.73 43.93 C 27.712 44.03 27.752 44.031 27.754 44.107 C 27.81 44.193 27.867 44.278 27.923 44.365 C 28.003 44.369 28.107 44.474 28.09 44.573 C 28.131 44.575 28.171 44.577 28.21 44.579 C 28.171 44.627 28.152 44.651 28.134 44.7 C 28.137 44.802 28.716 45.3 28.777 45.35 C 28.882 45.479 28.986 45.581 29.067 45.584 C 29.089 45.618 29.109 45.652 29.131 45.685 C 29.317 45.864 29.299 45.964 29.381 45.965 C 29.478 46.084 29.576 46.203 29.674 46.321 C 29.856 47.025 30.149 47.351 30.11 47.401 C 30.111 47.434 30.112 47.468 30.113 47.501 C 30.334 47.503 30.56 48.979 30.563 49.079 C 30.702 49.729 30.808 50.528 30.743 51.104 C 30.739 51.179 30.736 51.254 30.731 51.329 C 30.714 51.479 30.699 51.606 30.601 51.706 C 30.59 51.823 30.581 51.94 30.571 52.057 C 30.557 52.282 30.4 52.43 30.384 52.556 C 30.406 52.631 30.429 52.706 30.431 52.756 C 30.431 52.756 30.21 53.507 30.113 53.607 C 30.103 53.732 30.093 53.857 30.083 53.982 C 30.083 53.982 30.065 54.083 29.948 54.206 C 29.829 54.48 29.709 54.753 29.588 55.027 C 29.584 55.068 29.577 55.11 29.572 55.153 C 28.019 58.522 27.985 57.299 27.94 57.853 C 27.61 58.288 27.414 58.453 26.949 59.021 C 26.776 59.285 26.441 59.489 25.996 60.026 C 25.839 60.163 25.695 60.049 25.681 60.223 L 25.583 60.34 C 25.366 60.445 25.266 60.435 25.188 60.501 C 25.148 60.497 25.107 60.493 25.068 60.488 C 24.757 60.807 24.444 61.048 23.864 60.975 C 23.61 60.943 23.357 60.908 23.104 60.872 C 22.944 60.85 22.583 60.72 22.458 60.551 L 22.359 60.535 C 22.3 60.551 22.261 60.57 22.201 60.561 C 21.522 60.455 20.461 59.203 20.213 58.798 C 19.877 58.73 19.759 58.055 19.305 57.307 C 19.202 57.084 18.956 56.754 18.956 56.754 C 18.987 56.46 18.679 55.964 18.692 55.716 C 18.295 54.798 18.096 53.997 18.171 53.213 C 17.974 52.441 18.155 51.96 18.074 51.163 C 18.099 50.936 18.125 50.71 18.152 50.483 C 18.099 49.994 18.142 49.505 18.188 49.04 C 18.218 48.721 18.248 48.404 18.278 48.085 C 18.323 47.646 18.451 47.327 18.496 46.862 C 18.993 45.778 19.359 44.913 20.263 43.521 C 20.437 43.406 20.455 43.334 20.818 42.902 C 20.822 42.862 20.827 42.821 20.833 42.781 C 21.029 42.718 21.14 42.488 21.316 42.42 C 21.491 42.302 21.845 42.236 21.858 42.013 C 21.892 42.019 21.925 42.024 21.958 42.029 C 22.133 41.909 22.362 41.619 22.562 41.65 C 22.759 41.607 23.118 41.632 23.131 41.385 C 23.149 41.336 23.128 41.309 23.086 41.253 C 23.086 41.253 23.104 41.155 23.224 41.173 C 23.218 41.205 23.212 41.238 23.207 41.27" style="fill-opacity: 1; fill-rule: nonzero; stroke: none; display: inline;" id="path758"/>
    <path d="M 39.738 53.964 C 39.734 53.839 39.85 53.693 39.85 53.693 C 40.194 53.055 40.46 52.526 40.621 51.894 C 40.636 51.733 40.652 51.57 40.667 51.409 C 40.942 48.458 39.295 47.82 39.374 47.798 C 39.379 47.756 39.385 47.713 39.39 47.67 C 39.356 47.642 39.322 47.615 39.288 47.588 C 39.127 47.615 38.873 47.209 38.672 47.241 C 38.639 47.247 38.605 47.252 38.572 47.257 C 38.291 47.303 37.726 46.61 37.59 46.778 C 37.392 46.93 37.292 46.944 37.17 46.959 C 36.99 46.984 36.808 47.006 36.628 47.028 L 36.53 47.14 C 36.409 47.153 36.309 47.165 36.212 47.301 C 36.09 47.315 36.025 47.122 35.903 47.134 C 35.863 47.139 35.803 47.171 35.765 47.225 C 35.725 47.229 35.685 47.233 35.644 47.237 C 34.797 47.324 34.136 49.57 33.917 50.385 C 33.86 50.981 33.804 51.578 33.748 52.174 C 33.682 52.678 33.756 53.123 33.775 53.748 C 33.91 54.239 34.064 54.679 34.225 55.293 C 34.309 55.386 34.479 55.674 34.592 56.09 C 34.887 56.492 35.54 56.682 35.702 56.664 C 35.766 56.782 35.765 56.782 35.866 56.772 C 35.987 56.76 36.108 56.746 36.229 56.733 C 37.155 56.626 37.63 55.606 38.126 55.308 C 38.222 55.177 38.32 55.044 38.416 54.912 C 38.433 54.809 38.533 54.795 38.61 54.657 C 38.798 54.418 38.986 54.179 39.173 53.938 C 39.174 53.98 39.176 54.021 39.177 54.063 C 39.354 53.907 39.451 53.764 39.588 53.667 C 39.582 53.693 39.576 53.718 39.57 53.744 C 39.395 53.95 39.15 54.467 39.164 54.315 C 39.165 54.34 39.186 54.361 39.228 54.405 C 39.324 54.263 39.557 53.998 39.653 53.853 C 39.681 53.891 39.709 53.927 39.738 53.964 M 36.32 41.434 C 36.404 41.548 36.405 41.549 36.486 41.54 C 36.585 41.528 36.666 41.518 36.783 41.38 C 37.044 41.347 37.307 41.313 37.568 41.276 C 37.546 41.229 37.723 41.054 37.743 41.05 C 37.784 41.045 37.869 41.208 37.889 41.205 C 37.929 41.199 37.948 41.171 37.967 41.119 C 38.047 41.108 38.047 41.108 38.13 41.196 L 38.231 41.179 C 38.758 41.274 39.242 41.342 39.431 41.583 C 39.458 41.578 39.485 41.574 39.512 41.569 C 39.465 42.029 40.155 42.252 40.034 42.224 C 40.018 42.329 40.388 42.632 40.43 42.699 C 40.493 42.811 40.614 42.788 40.714 42.767 C 40.773 42.755 40.833 42.742 40.892 42.73 C 40.856 42.838 40.838 42.893 40.84 42.942 C 40.822 43.045 40.861 43.037 40.864 43.112 C 40.92 43.184 40.975 43.256 41.031 43.327 C 41.111 43.312 41.214 43.389 41.196 43.493 C 41.236 43.485 41.276 43.476 41.316 43.468 C 41.278 43.527 41.259 43.555 41.24 43.609 C 41.243 43.71 41.815 44.061 41.876 44.096 C 41.979 44.197 42.081 44.274 42.161 44.256 C 42.181 44.285 42.203 44.313 42.223 44.342 C 42.407 44.474 42.391 44.577 42.471 44.558 C 42.566 44.653 42.662 44.746 42.758 44.839 C 42.937 45.497 43.224 45.751 43.186 45.81 C 43.187 45.843 43.188 45.876 43.19 45.91 C 43.407 45.854 43.627 47.272 43.631 47.371 C 43.768 47.987 43.871 48.76 43.809 49.352 C 43.804 49.428 43.801 49.504 43.796 49.58 C 43.78 49.734 43.763 49.864 43.668 49.991 L 43.639 50.348 C 43.625 50.576 43.471 50.766 43.456 50.895 C 43.478 50.963 43.498 51.034 43.5 51.083 C 43.5 51.084 43.284 51.889 43.189 52.014 L 43.159 52.397 C 43.159 52.397 43.143 52.502 43.028 52.656 C 42.91 52.96 42.793 53.265 42.675 53.568 C 42.669 53.61 42.665 53.654 42.659 53.697 C 41.128 57.46 41.091 56.247 41.047 56.811 C 40.722 57.329 40.528 57.544 40.064 58.232 C 39.893 58.54 39.561 58.827 39.115 59.478 C 38.96 59.655 38.816 59.578 38.801 59.756 C 38.77 59.803 38.736 59.85 38.704 59.897 C 38.489 60.057 38.388 60.073 38.31 60.159 C 38.27 60.165 38.229 60.171 38.189 60.178 C 37.878 60.574 37.564 60.895 36.982 60.971 C 36.727 61.002 36.472 61.033 36.217 61.062 C 36.056 61.08 35.69 61.045 35.565 60.906 C 35.531 60.909 35.498 60.912 35.464 60.916 C 35.405 60.947 35.364 60.977 35.304 60.981 C 34.619 61.05 33.538 60.072 33.285 59.732 C 32.942 59.75 32.822 59.106 32.358 58.475 C 32.251 58.279 32.001 58.012 32.001 58.012 C 32.033 57.71 31.717 57.293 31.729 57.044 C 31.321 56.228 31.117 55.479 31.194 54.676 C 30.99 53.955 31.177 53.427 31.094 52.651 L 31.174 51.95 C 31.119 51.476 31.165 50.975 31.212 50.498 C 31.242 50.172 31.272 49.847 31.303 49.521 C 31.351 49.069 31.481 48.717 31.528 48.24 C 32.039 47.027 32.414 46.067 33.336 44.44 C 33.514 44.282 33.531 44.205 33.899 43.68 C 33.905 43.638 33.911 43.596 33.917 43.554 C 34.115 43.441 34.23 43.182 34.408 43.069 C 34.584 42.905 34.944 42.75 34.957 42.523 C 34.992 42.519 35.025 42.516 35.059 42.514 C 35.236 42.348 35.469 42.001 35.67 41.98 C 35.869 41.884 36.231 41.82 36.242 41.567 C 36.262 41.516 36.242 41.492 36.2 41.449 C 36.2 41.449 36.217 41.345 36.337 41.332 C 36.331 41.366 36.326 41.4 36.32 41.434" style="fill-opacity: 1; fill-rule: nonzero; stroke: none; display: inline;" id="path762"/>
    <path d="M 44.138 55.869 C 44.135 55.945 44.13 56.021 44.126 56.097 C 44.208 56.2 44.208 56.2 44.307 56.172 C 44.346 56.121 44.384 56.068 44.421 56.016 C 44.42 55.917 44.32 55.944 44.337 55.814 C 44.271 55.832 44.205 55.85 44.138 55.869 M 52.647 54.546 C 52.557 55.464 52.185 55.836 52.033 55.904 C 51.995 55.922 51.958 55.938 51.918 55.931 C 51.577 56.084 51.234 56.234 50.89 56.38 C 50.377 56.602 49.482 57.26 48.921 57.471 C 48.786 57.521 48.649 57.547 48.59 57.52 C 47.918 57.768 47.244 58.002 46.567 58.222 C 46.39 58.28 46.179 58.472 45.983 58.533 C 45.69 58.625 45.316 58.739 45.014 58.575 C 44.758 58.65 44.255 57.814 44.058 57.868 C 43.832 57.602 43.82 57.255 43.864 56.694 C 43.906 56.299 43.947 55.904 43.989 55.509 C 43.989 55.509 44.005 55.38 44.081 55.258 C 44.082 55.292 44.082 55.324 44.083 55.358 C 44.126 55.422 44.186 55.43 44.225 55.42 C 44.324 55.393 44.413 55.042 44.43 54.913 C 44.46 54.605 44.322 53.942 44.322 53.942 C 44.331 53.814 44.341 53.686 44.35 53.559 C 44.366 53.429 44.366 53.429 44.247 53.462 C 44.233 53.633 44.218 53.803 44.203 53.975 C 44.246 54.088 44.251 54.237 44.235 54.416 C 44.223 54.645 44.079 55.134 44.019 55.15 L 44.035 55.021 C 43.964 54.64 43.96 53.84 43.977 53.735 C 43.975 53.661 44.011 53.601 44.07 53.51 C 44.117 53.047 44.162 52.584 44.208 52.121 C 44.284 51.349 44.326 50.712 44.487 50.043 C 44.72 47.6 44.952 45.157 45.185 42.711 C 45.212 42.277 45.3 41.227 45.631 40.951 L 45.646 40.846 C 45.757 40.563 45.87 40.402 46.047 40.347 L 46.146 40.316 C 46.511 40 46.52 39.62 46.637 39.582 C 46.657 39.576 46.696 39.588 46.776 39.612 C 46.809 39.601 46.841 39.591 46.874 39.58 C 47.597 39.34 48.217 39.792 48.613 39.945 C 49.048 40.135 49.391 40.575 49.331 41.173 C 49.293 41.639 49.254 42.104 49.216 42.569 C 48.965 43.391 48.962 44.619 48.785 45.235 C 48.711 46.114 48.604 47.155 48.613 48.127 C 48.586 48.537 48.377 50.141 48.331 50.558 C 48.353 50.65 48.337 50.731 48.338 50.805 C 48.308 51.117 48.181 51.463 48.151 51.774 C 48.151 51.773 48.064 52.881 48.375 52.769 C 48.471 52.734 48.568 52.697 48.63 52.801 C 48.65 52.793 48.707 52.746 48.766 52.725 C 49.331 52.53 51.43 52.089 51.788 51.986 C 52.168 51.817 52.493 51.791 52.869 51.612 C 53.02 51.542 53.512 51.428 53.482 51.693 C 53.463 51.953 53.446 52.212 53.427 52.471 C 53.19 52.812 53.308 53.632 52.667 53.936 C 52.497 54.014 52.516 53.981 52.251 54.103 C 52.251 54.103 52.141 54.278 52.046 54.321 C 52.019 54.71 52.662 54.414 52.647 54.546" style="fill-opacity: 1; fill-rule: nonzero; stroke: none; display: inline;" id="path766"/>
    <path d="M 57.828 45.782 C 57.809 45.793 57.792 45.804 57.774 45.816 C 57.756 45.827 57.736 45.812 57.719 45.823 C 57.682 45.846 57.666 45.906 57.65 45.965 C 57.611 46.131 57.573 46.295 57.534 46.46 C 57.515 46.471 57.533 46.411 57.496 46.434 C 57.478 46.444 57.444 46.515 57.426 46.525 C 57.407 46.537 57.388 46.522 57.352 46.545 C 57.123 46.956 57.167 47.206 56.75 47.548 C 56.623 47.646 56.446 47.975 56.373 48.015 C 56.335 48.036 56.316 47.997 56.28 48.017 C 56.243 48.039 56.189 48.143 56.137 48.248 C 56.008 48.319 55.88 48.392 55.75 48.464 C 55.731 48.473 55.696 48.518 55.678 48.528 C 54.753 49.03 54.764 48.14 54.724 48.037 C 54.663 47.194 54.745 46.051 54.828 44.98 C 55 43.015 55.315 40.794 55.414 39.639 C 55.529 38.352 55.665 37.225 55.643 36.387 C 55.699 35.755 55.835 35.231 56.14 34.784 C 56.273 34.651 56.406 34.519 56.538 34.384 C 56.827 34.044 57.115 33.775 57.406 33.602 C 59.304 32.44 58.892 35.845 58.869 36.221 C 58.857 36.454 58.828 36.699 58.816 36.933 C 58.852 36.935 58.815 38.259 58.732 39.263 C 58.678 39.996 58.579 40.36 58.562 40.396 C 58.493 40.565 58.461 40.71 58.447 40.845 C 58.449 40.919 58.469 40.98 58.452 41.066 C 58.441 41.275 58.409 41.493 58.379 41.738 C 58.355 42.002 58.333 42.267 58.309 42.532 C 58.311 42.606 58.296 42.716 58.262 42.811 C 58.234 43.129 58.383 43.236 58.354 43.531 C 58.31 43.934 58.121 44.401 58.095 44.793 C 58.097 44.841 58.08 44.901 58.081 44.975 C 58.066 45.06 58.05 45.145 58.033 45.231 C 57.8 45.423 57.913 45.506 57.828 45.782 M 54.031 52.346 C 53.971 52.226 53.835 52.095 53.849 51.913 C 53.92 51.028 54.493 50.585 54.523 50.293 C 54.702 49.976 54.749 49.602 55.176 49.375 C 55.212 49.355 55.25 49.335 55.325 49.346 C 55.27 49.375 55.271 49.4 55.234 49.42 C 55.275 49.548 55.346 49.434 55.329 49.519 C 55.331 49.543 55.259 49.681 55.205 49.785 C 55.207 49.835 55.302 49.883 55.395 49.833 C 55.467 49.769 55.542 49.679 55.593 49.55 C 55.635 49.486 55.678 49.422 55.719 49.356 C 55.864 49.177 56.045 49.001 56.228 48.897 C 56.523 48.732 56.84 48.847 57.025 48.789 C 57.247 48.761 57.838 48.88 57.822 48.988 C 57.856 49.076 57.888 49.165 57.923 49.253 C 57.909 49.461 58.111 49.486 58.097 49.619 C 58.099 49.644 58.099 49.669 58.1 49.694 C 58.1 49.694 58.117 49.683 58.153 49.685 C 58.218 50.02 58.228 50.414 58.185 50.818 C 58.144 51.343 58.012 51.875 57.786 52.363 C 57.749 52.386 57.749 52.362 57.731 52.372 C 57.725 52.376 57.719 52.379 57.713 52.383 C 57.378 52.911 57.348 53.178 57.187 53.424 C 56.801 54.127 56.263 54.862 55.821 55.105 C 55.065 55.521 54.695 55.134 54.472 55.249 C 54.227 55.301 54.051 55.064 53.957 55.111 C 53.951 55.115 53.945 55.118 53.939 55.121 C 53.565 55.308 53.394 54.714 53.439 54.217 C 53.482 53.745 53.657 53.21 53.891 52.742 C 53.92 52.661 53.95 52.579 53.979 52.498 C 53.996 52.448 54.014 52.397 54.031 52.346" style="fill-opacity: 1; fill-rule: nonzero; stroke: none; display: inline;" id="path770"/>
    <path d="M 22.932 7.41 C 22.879 7.421 22.853 7.426 22.8 7.437 C 22.273 7.55 22.405 8.127 22.142 8.186 C 22.115 8.192 22.063 8.204 22.011 8.189 C 21.984 8.379 21.8 8.421 21.774 8.612 C 21.625 9.594 21.477 10.577 21.328 11.561 C 21.459 11.529 21.59 11.497 21.722 11.467 C 21.748 11.513 21.774 11.533 21.774 11.533 C 21.878 11.508 21.957 10.675 22.089 10.645 C 22.142 10.633 22.169 10.679 22.22 10.799 C 22.405 10.758 22.589 10.718 22.615 10.529 C 22.747 10.5 22.879 10.472 23.011 10.446 C 23.538 9.943 24.146 9.91 24.465 9.593 C 25.18 9.156 25.659 8.929 26.138 8.365 C 26.351 8.153 26.564 8.127 26.778 7.916 C 26.919 7.776 27.062 7.638 27.203 7.5 C 27.231 7.313 27.23 7.313 27.097 7.116 C 26.901 7.139 26.706 7.161 26.511 7.186 C 26.217 6.9 24.835 7.045 24.095 7.185 C 23.706 7.255 23.318 7.33 22.932 7.41 M 20.778 19.119 C 20.839 19.104 20.901 19.088 20.961 19.072 C 21.092 19.039 21.197 19.092 21.328 19.06 C 21.38 19.047 21.459 19.001 21.512 18.937 C 21.582 18.919 21.652 18.903 21.722 18.887 C 22.142 18.604 22.562 18.325 23.169 18.018 C 23.09 17.954 23.881 17.505 24.465 16.803 L 24.492 16.614 C 24.942 16.534 25.951 15.597 26.138 15.417 C 26.351 15.204 26.671 14.77 26.884 14.561 C 26.91 14.374 26.91 14.373 26.724 14.396 C 25.499 14.543 24.277 14.74 23.064 14.987 C 23.037 14.991 22.088 15.398 21.354 15.58 C 20.516 15.788 20.543 15.262 20.439 15.287 C 20.413 15.295 20.413 15.347 20.386 15.433 C 20.178 15.489 20.178 15.49 20.152 15.681 L 20.1 16.064 C 20.073 16.254 19.813 16.721 19.788 16.913 C 19.752 17.178 19.718 17.442 19.683 17.706 C 19.398 18.156 19.371 18.375 19.345 18.566 C 19.337 18.639 19.328 18.712 19.32 18.784 C 19.112 19.031 19.086 19.222 19.085 19.222 C 19.112 19.268 19.138 19.312 19.138 19.338 C 19.138 19.338 19.007 19.797 18.801 19.861 C 18.913 19.897 19.026 19.934 19.138 19.97 C 19.371 19.69 19.398 19.499 19.605 19.254 C 19.587 19.382 19.57 19.51 19.553 19.637 C 19.527 19.856 19.527 19.856 19.735 19.797 C 19.796 19.779 19.857 19.762 19.917 19.745 C 20.204 19.533 20.491 19.325 20.778 19.119 M 16.027 23.679 C 16.001 23.873 16.001 23.872 15.798 24.134 C 15.84 23.802 15.882 23.471 15.925 23.139 C 15.924 23.138 15.722 23.216 15.773 22.987 C 15.781 22.922 15.789 22.857 15.798 22.793 C 15.824 22.624 15.366 22.566 15.392 22.425 C 15.392 22.398 15.417 22.388 15.519 22.349 C 15.527 22.284 15.535 22.219 15.543 22.154 C 15.595 21.925 15.619 21.73 15.824 21.467 C 15.959 20.529 16.095 19.592 16.231 18.655 C 16.307 18.048 16.434 17.238 16.333 16.723 C 16.528 15.379 16.724 14.035 16.921 12.695 C 16.973 12.307 17.049 11.912 16.921 11.564 C 16.947 11.369 16.972 11.176 16.997 10.983 C 17.024 10.921 17.024 8.764 17.177 7.658 C 17.229 7.297 17.28 7.069 17.382 7.033 C 17.391 7.032 17.399 7.028 17.408 7.025 C 17.433 6.832 17.459 6.639 17.305 6.508 C 17.331 6.297 17.357 6.087 17.382 5.876 C 17.51 5.012 18.515 4.421 18.672 4.377 C 18.774 4.424 19.059 4.336 19.371 4.245 C 19.579 4.184 19.813 4.118 20.022 4.06 C 20.673 3.881 20.831 3.923 21.25 3.818 C 22.14 3.596 23.22 3.313 24.173 3.145 C 25.1 2.98 25.925 2.92 26.218 3.092 C 26.963 2.991 28.031 3.409 28.725 3.781 C 29.314 3.922 29.368 4.34 29.93 4.495 C 30.277 4.69 30.036 5.384 30.412 5.553 C 30.545 5.733 30.52 5.918 30.68 6.123 C 31.027 6.295 31.189 6.662 31.081 7.242 C 31.295 7.238 31.295 7.58 31.269 7.791 C 31.269 7.844 31.214 7.923 31.162 7.978 C 31.107 8.303 31.055 8.629 31 8.955 C 30.974 9.14 30.947 9.35 30.759 9.357 C 30.706 9.665 30.652 9.973 30.599 10.283 C 30.17 10.666 30.251 11.242 29.849 11.262 C 29.635 11.466 29.421 11.671 29.207 11.877 C 29.074 11.991 29.02 12.022 29.02 12.074 C 28.966 12.284 30.144 12.979 30.332 13.16 C 30.706 13.352 31.644 13.493 31.536 14.075 C 31.527 14.137 31.518 14.199 31.51 14.26 C 31.831 14.625 31.751 15.021 31.885 15.572 C 31.876 15.642 31.867 15.712 31.858 15.782 C 31.617 15.969 31.59 16.154 31.59 16.154 C 31.554 16.347 31.518 16.54 31.483 16.733 C 30.84 17.536 30.652 17.615 29.661 18.507 C 29.43 18.713 29.198 18.92 28.967 19.129 C 28.753 19.144 28.298 19.626 27.924 19.952 C 27.39 20.417 26.297 21.101 26.031 21.142 C 25.819 21.355 25.607 21.568 25.367 21.604 C 25.287 21.687 25.208 21.77 25.128 21.852 C 24.73 22.099 24.544 22.131 24.121 22.389 C 24.112 22.452 24.104 22.515 24.095 22.578 C 23.644 22.658 23.196 23.116 22.905 23.176 C 22.721 23.215 22.326 23.51 22.115 23.742 C 21.905 23.791 21.722 23.833 21.485 24.074 C 21.039 24.182 20.595 24.296 20.152 24.417 C 20.022 24.269 19.839 24.318 19.475 24.239 C 19.293 24.29 18.93 24.399 18.774 24.237 C 18.706 24.259 18.637 24.279 18.568 24.301 C 18.283 24.047 17.768 23.821 17.562 23.892 C 17.408 23.76 17.279 23.592 16.895 23.728 C 16.903 23.664 16.912 23.6 16.921 23.536 L 16.716 23.608 C 16.614 23.514 16.511 23.42 16.41 23.325 C 16.256 23.198 16.256 23.198 16.078 23.265 C 16.06 23.403 16.044 23.541 16.027 23.679" style="fill-opacity: 1; fill-rule: nonzero; stroke: none; display: inline;" id="path774"/>
    <path d="M 36.003 21.786 C 35.816 21.77 35.441 21.741 35.201 21.909 C 35.068 21.9 34.933 21.892 34.8 21.883 C 34.371 21.252 33.622 21.224 33.676 20.912 C 33.372 20.901 33.068 20.895 32.764 20.89 C 32.39 20.883 31.639 20.361 31.666 20.152 C 31.693 20.099 31.719 20.047 31.773 19.993 C 31.845 19.922 31.916 19.852 31.987 19.782 C 32.174 19.781 32.47 19.203 32.497 19.071 C 32.871 19.075 33.005 18.71 33.273 18.717 C 33.515 17.24 33.755 15.765 33.996 14.293 C 34.077 14.296 34.077 14.269 34.077 14.244 C 34.103 14.166 34.05 14.032 34.05 13.926 C 34.059 13.865 34.068 13.805 34.077 13.743 C 34.345 13.545 34.371 13.362 34.398 13.18 C 34.719 11.196 35.039 9.216 35.361 7.238 C 35.415 6.847 35.469 6.509 35.361 5.949 C 35.361 5.818 35.468 5.72 35.494 5.59 C 35.495 5.537 35.522 5.46 35.441 5.402 C 35.557 4.683 35.674 3.963 35.79 3.245 C 35.913 3.255 36.038 3.266 36.163 3.276 C 36.35 3.476 36.698 3.51 36.856 3.711 C 37.043 3.731 37.043 3.731 37.07 3.55 C 37.08 3.489 37.088 3.429 37.098 3.368 C 37.337 3.184 37.337 3.184 37.497 3.203 C 37.497 3.203 37.656 3.433 37.817 3.454 C 37.949 3.47 38.243 3.455 38.615 3.192 C 39.465 3.314 40.314 3.46 41.159 3.631 C 41.29 3.604 41.423 3.606 41.527 3.628 C 42.318 3.795 43.052 4.206 43.836 4.413 C 44.863 4.686 45.883 4.996 46.893 5.341 C 46.893 5.341 47.099 5.412 47.072 5.614 C 47.304 5.694 47.534 5.777 47.764 5.86 C 47.918 5.916 48.301 6.243 48.427 6.476 C 48.419 6.526 48.41 6.575 48.401 6.625 C 48.376 6.799 48.377 6.799 48.529 7.041 C 48.512 7.105 48.495 7.169 48.477 7.233 C 48.631 7.449 48.579 7.771 48.91 8.112 C 48.884 8.286 48.858 8.46 48.834 8.634 C 48.834 8.633 48.631 8.739 48.605 8.914 C 48.588 9.021 48.571 9.128 48.555 9.236 C 47.944 9.578 47.279 9.313 46.687 9.113 C 46.302 8.983 45.939 9.052 45.759 8.996 C 44.802 8.696 43.838 8.429 42.868 8.194 C 42.685 8.228 42.448 8.199 42.291 8.162 C 41.923 8.079 41.66 7.918 41.423 7.869 C 41.167 7.816 40.912 7.764 40.656 7.716 C 40.498 7.686 40.286 7.647 40.259 7.853 C 40.092 8.848 39.924 9.845 39.756 10.843 C 39.73 11.023 39.914 11.265 40.074 11.293 C 40.259 11.326 40.26 11.326 40.445 11.15 C 40.868 11.228 41.211 11.297 41.607 11.196 C 41.728 11.222 41.852 11.248 41.975 11.276 C 42.896 11.484 43.105 11.352 44.019 11.593 C 44.679 11.771 45.337 11.965 45.992 12.174 C 45.992 12.174 46.146 12.224 46.353 12.475 C 46.405 12.621 47.201 13.051 47.149 13.298 C 47.534 13.432 47.943 14.135 47.866 14.475 C 47.713 14.419 47.687 14.621 47.662 14.769 C 47.482 14.705 47.482 14.705 47.278 14.816 C 47.217 14.795 47.158 14.774 47.098 14.754 C 46.845 14.838 45.039 14.436 44.175 14.214 C 43.16 13.931 41.767 13.978 40.815 13.798 C 40.288 13.902 39.279 13.814 39.253 14.05 C 39.172 14.432 39.358 14.619 39.306 14.979 C 39.287 15.099 39.271 15.219 39.253 15.34 C 39.385 15.57 39.358 15.724 39.306 15.9 C 39.147 16.269 39.04 16.542 38.987 16.851 C 38.986 16.885 38.986 16.921 38.987 16.956 C 38.986 16.921 38.986 16.885 38.987 16.851 C 38.97 17.005 38.952 17.16 38.934 17.316 L 38.987 16.956 C 38.961 17.004 39.014 17.011 39.12 17.029 C 39.739 17.124 40.358 17.233 40.973 17.355 C 41.689 17.484 43.501 17.749 44.384 18.008 C 44.565 18.217 44.93 18.32 45.293 18.43 C 45.345 18.516 45.396 18.602 45.448 18.688 C 45.449 18.688 45.526 18.711 45.526 18.764 C 45.527 18.791 45.499 18.809 45.422 18.838 C 45.405 18.955 45.388 19.073 45.371 19.19 C 45.37 19.14 45.371 20.316 46.25 20.598 C 46.533 20.981 46.636 20.805 46.584 21.051 C 46.043 21.188 46.327 21.65 46.12 21.451 C 46.094 21.628 46.095 21.627 45.914 21.57 C 45.862 21.895 45.656 22.04 45.448 22.135 C 45.388 22.117 45.327 22.098 45.267 22.08 C 45.129 22.161 44.99 22.243 44.852 22.325 C 44.826 22.319 44.437 22.385 43.653 22.547 C 43.487 22.505 43.321 22.462 43.156 22.42 C 42.764 22.323 42.579 22.28 42.212 22.353 C 41.677 22.233 41.141 22.121 40.603 22.02 C 40.234 21.95 39.863 21.884 39.464 22.056 C 39.349 22.038 39.235 22.02 39.12 22.001 C 39.093 22.156 38.881 22.123 38.881 22.124 C 37.924 21.98 36.965 21.868 36.003 21.786" style="fill-opacity: 1; fill-rule: nonzero; stroke: none; display: inline;" id="path778"/>
  </g>
</svg>