<?xml version="1.0" encoding="utf-8"?>
<svg viewBox="0 0 64 64" xmlns="http://www.w3.org/2000/svg">
  <g transform="matrix(0.594079, 0, 0, 0.594079, 11.946565, 9.509059)">
    <path id="path1556" style="fill-opacity: 1; fill-rule: nonzero; stroke: none;" d="M -8.266 32.536 C -2.526 30.975 1.112 27.177 1.078 24.8 C 1.078 24.056 0.483 23.595 -0.113 23.595 C -1.058 23.595 -2.493 24.127 -4.766 24.907 C -4.733 25.688 -4.977 26.717 -5.817 28.313 C -6.201 29.059 -6.69 29.909 -8.266 32.536 M -3.926 36.227 C -3.926 35.587 -4.557 35.019 -6.13 34.879 C -7.461 35.163 -8.792 35.232 -9.525 35.019 C -10.401 36.759 -11.24 38.568 -11.73 40.128 C -12.045 41.123 -11.765 41.477 -11.03 41.371 C -9.001 41.123 -6.097 39.704 -4.662 37.895 C -4.206 37.327 -3.926 36.723 -3.926 36.227 M -14.181 38.001 C -12.85 34.275 -10.226 29.129 -7.777 25.333 C -9.001 25.156 -9.666 24.376 -9.946 23.808 C -10.156 23.311 -9.981 22.992 -9.281 22.956 C -7.146 22.813 -4.068 21.111 -1.373 20.863 C 1.078 20.649 3.211 21.961 3.211 26.043 C 3.211 27.285 2.582 28.739 1.707 29.875 C 0.832 31.081 -1.092 32.785 -3.366 33.92 C -2.317 34.559 -1.477 35.693 -1.477 37.077 C -1.477 38.071 -1.862 39.241 -2.842 40.272 C -4.277 41.868 -7.112 43.145 -9.072 43.607 C -9.561 43.713 -10.121 43.748 -10.541 43.748 C -11.17 43.748 -11.661 43.641 -12.185 43.395 C -13.656 42.683 -14.705 41.264 -14.705 40.128 C -14.705 39.704 -14.496 38.816 -14.181 38.001" />
    <path id="path1560" style="fill-opacity: 1; fill-rule: nonzero; stroke: none;" d="M 8.564 26.966 C 9.019 27.923 8.704 28.988 8.284 29.486 C 7.69 30.23 6.36 30.159 5.73 28.952 C 5.484 28.491 5.379 28.03 5.379 27.639 C 5.379 27.071 5.591 26.575 5.939 26.184 C 6.71 25.332 8.004 25.795 8.564 26.966 M 13.848 28.03 C 13.848 28.811 13.568 29.946 13.114 31.116 C 14.128 30.868 14.932 30.442 16.158 29.591 C 16.788 29.164 17.314 28.988 17.732 29.52 C 18.292 30.266 18.748 30.975 18.748 31.896 C 18.748 32.324 18.536 32.82 18.152 33.316 C 16.612 35.091 14.932 37.503 14.372 39.314 C 14.199 39.844 14.092 40.378 14.092 40.91 C 14.092 41.796 14.372 42.399 14.864 42.399 C 16.088 42.399 18.047 40.2 19.132 37.716 C 19.412 37.006 19.972 36.971 20.322 37.716 C 20.496 38.106 20.567 39.03 20.147 40.094 C 19.272 42.259 16.683 43.748 14.618 43.748 C 12.414 43.748 11.19 42.222 11.19 40.164 C 11.19 39.598 11.294 38.958 11.538 38.214 C 12.343 36.119 13.603 34.239 15.003 32.571 C 14.023 33.032 13.079 33.211 12.274 33.246 C 9.755 39.064 6.184 43.714 2.335 43.714 C 0.446 43.714 -0.429 42.364 -0.429 40.626 C -0.429 39.988 -0.289 39.207 -0.044 38.355 C 1.006 35.091 3.7 30.868 4.4 29.875 C 4.89 29.202 5.311 29.13 5.8 29.662 C 6.15 30.052 6.36 30.62 6.36 31.4 C 6.36 32.571 5.555 34.416 4.646 35.978 C 3.595 37.787 2.406 40.2 2.406 41.442 C 2.406 41.975 2.65 42.259 2.895 42.259 C 4.4 42.259 8.39 38.106 10.244 32.927 C 9.543 32.571 9.299 32.003 9.299 31.366 C 9.299 29.555 11.608 26.859 12.834 26.859 C 13.568 26.859 13.848 27.284 13.848 28.03" />
    <path id="path1564" style="fill-opacity: 1; fill-rule: nonzero; stroke: none;" d="M 19.41 36.794 C 20.108 35.055 21.438 32.253 22.838 29.698 C 21.754 29.555 21.124 29.165 20.843 28.739 C 20.354 27.994 20.704 27.639 21.508 27.675 C 22.314 27.711 23.259 27.675 24.028 27.603 C 25.112 25.689 25.848 24.517 26.654 23.346 C 27.178 22.566 27.598 22.601 27.983 23.275 C 28.227 23.702 28.368 24.305 28.368 24.73 C 28.368 25.369 28.227 26.185 27.808 27.178 C 28.892 27.321 29.488 27.887 29.732 28.314 C 30.083 28.953 29.836 29.378 28.996 29.271 C 28.368 29.202 27.458 29.271 26.688 29.378 C 25.358 31.685 23.364 35.198 22.139 37.894 C 21.718 38.853 21.508 39.774 21.508 40.555 C 21.508 41.619 21.859 42.365 22.454 42.365 C 23.819 42.365 25.638 40.129 26.863 37.469 C 27.248 36.617 28.052 36.545 28.298 37.503 C 28.472 38.249 28.332 38.781 27.947 39.598 C 27.458 40.661 25.112 43.713 22.174 43.713 C 20.319 43.713 18.71 42.187 18.71 39.739 C 18.71 38.958 18.919 37.965 19.41 36.794" />
    <path id="path1568" style="fill-opacity: 1; fill-rule: nonzero; stroke: none;" d="M 35.154 43.748 C 32.845 43.748 31.794 42.578 31.794 40.732 C 31.794 38.498 33.51 35.41 34.84 33.316 C 35.505 32.146 36.029 31.294 35.785 31.294 C 35.469 31.294 32.145 33.53 30.292 36.582 C 29.101 38.568 27.841 41.016 27.001 43.146 C 26.721 43.783 26.196 43.89 25.777 43.358 C 25.217 42.683 24.726 41.832 25.601 39.491 C 27.001 35.766 33.929 23.879 36.764 20.188 C 37.324 19.479 37.849 19.62 38.164 20.331 C 38.34 20.72 38.444 21.182 38.444 21.678 C 38.444 22.636 38.024 23.948 37.184 25.44 C 36.484 26.61 34.314 29.91 33.964 30.407 C 35.016 29.626 36.238 29.202 36.904 29.202 C 37.918 29.202 38.934 30.3 38.934 31.684 C 38.934 32.18 38.829 32.678 38.549 33.175 C 36.625 36.652 35.749 38.142 35.364 38.994 C 35.049 39.775 34.909 40.519 34.909 41.087 C 34.909 41.832 35.084 42.294 35.574 42.294 C 36.798 42.294 38.654 39.775 39.704 37.61 C 39.949 37.078 40.509 37.006 40.789 37.61 C 40.962 38.036 41.208 38.852 40.682 39.916 C 39.669 41.975 37.394 43.748 35.154 43.748" />
    <path id="path1572" style="fill-opacity: 1; fill-rule: nonzero; stroke: none;" d="M 48.976 31.294 C 47.996 31.259 45.687 33.423 43.832 36.403 C 42.781 38.071 42.223 39.845 42.223 41.017 C 42.223 41.655 42.361 42.115 42.747 42.115 C 43.867 42.115 45.547 40.129 47.121 37.043 C 49.011 33.387 49.64 31.329 48.976 31.294 M 49.607 39.349 C 49.185 40.271 48.976 41.051 48.976 41.619 C 48.976 42.153 49.115 42.399 49.431 42.399 C 50.656 42.399 52.371 40.058 53.56 37.717 C 53.909 37.043 54.365 37.078 54.679 37.717 C 54.855 38.037 54.995 39.03 54.54 40.023 C 53.595 41.938 51.425 43.783 49.395 43.783 C 47.681 43.783 46.527 43.181 46.247 41.619 C 45.161 42.755 43.796 43.678 42.257 43.678 C 40.227 43.678 39.108 42.153 39.108 40.058 C 39.108 38.569 39.737 36.617 40.963 34.807 C 43.692 30.798 46.596 29.13 48.416 29.13 C 49.607 29.13 50.376 29.626 50.656 30.549 C 52.405 27.214 54.679 23.205 55.835 21.538 C 56.464 20.65 56.953 20.721 57.304 21.573 C 57.479 21.998 57.619 22.459 57.619 22.957 C 57.619 23.914 57.165 25.298 56.255 26.966 C 54.225 30.869 51.251 35.835 49.607 39.349" />
    <path id="path1576" style="fill-opacity: 1; fill-rule: nonzero; stroke: none;" d="M 61.571 36.971 C 62.935 34.558 63.566 32.82 63.566 31.896 C 63.566 31.472 63.495 31.223 63.146 31.223 C 62.446 31.223 60.031 33.459 58.247 36.368 C 57.198 38.036 56.602 39.916 56.602 41.052 C 56.602 41.691 56.742 42.115 57.092 42.115 C 58.247 42.115 59.856 39.951 61.571 36.971 M 62.796 29.023 C 64.055 29.023 64.824 29.663 65.14 30.584 L 65.806 29.486 C 66.224 28.775 66.82 28.739 67.24 29.236 C 67.835 29.946 68.151 31.507 67.24 33.352 C 66.33 35.303 63.39 39.171 63.39 41.548 C 63.39 42.08 63.531 42.399 63.88 42.399 C 65.14 42.399 66.89 39.988 68.044 37.68 C 68.43 36.971 68.744 36.936 69.095 37.68 C 69.235 38 69.444 38.958 68.955 39.988 C 68.044 41.939 65.806 43.819 63.671 43.819 C 61.922 43.819 60.906 42.896 60.626 41.584 C 59.611 42.578 58.038 43.678 56.638 43.678 C 54.572 43.678 53.452 42.152 53.452 40.058 C 53.452 38.532 54.083 36.546 55.342 34.772 C 58.142 30.691 61.011 29.023 62.796 29.023" />
    <path id="path1580" style="fill-opacity: 1; fill-rule: nonzero; stroke: none;" d="M 67.308 50.277 C 66.435 51.945 66.188 53.4 66.539 53.718 C 66.783 53.932 67.519 52.902 68.499 51.164 C 69.233 49.852 70.072 48.113 70.913 46.196 C 69.233 47.368 68.044 48.893 67.308 50.277 M 81.552 39.704 C 80.151 41.868 77.841 43.181 74.972 44.386 C 73.048 49.072 70.668 54.749 67.623 55.918 C 66.819 56.238 66.084 56.238 65.244 55.102 C 64.72 54.358 64.195 53.293 64.195 52.157 C 64.195 51.732 64.299 51.129 64.508 50.49 C 65.593 47.438 68.428 45.274 71.823 43.89 L 72.347 42.648 C 71.439 43.322 70.528 43.641 69.479 43.641 C 67.728 43.641 66.959 42.294 66.959 40.804 C 66.959 40.058 67.099 39.206 67.413 38.32 C 68.219 36.084 69.933 32.501 72.103 29.485 C 72.559 28.881 73.083 28.846 73.467 29.414 C 73.817 29.91 74.132 30.549 74.132 31.117 C 74.132 32.004 73.713 33.032 72.907 34.346 C 71.719 36.261 70.983 37.717 70.319 39.384 C 69.828 40.661 69.512 42.081 70.423 42.081 C 71.333 42.081 72.907 39.988 74.621 37.042 C 76.967 33.032 77.911 30.868 78.752 29.59 C 79.241 28.953 79.696 28.881 80.081 29.272 C 80.607 29.805 80.745 30.337 80.745 31.082 C 80.745 31.792 80.571 32.572 80.116 33.46 C 79.101 35.446 77.281 38.888 75.847 42.258 C 77.981 40.945 79.801 39.137 80.921 37.538 C 81.376 36.901 81.9 36.829 82.041 37.29 C 82.216 37.858 82.145 38.781 81.552 39.704" />
  </g>
</svg>
