<?xml version="1.0" encoding="utf-8"?>
<svg viewBox="0 0 64 64" xmlns="http://www.w3.org/2000/svg">
  <g transform="matrix(1, 0, 0, 1, -0.007002, 0.000004)">
    <path id="path52" style="fill: rgb(0, 173, 239); fill-opacity: 1; fill-rule: nonzero; stroke: none; display: inline;" d="M 64.066 4.057 L -0.052 4.057 L -0.052 -0.242 L 64.066 -0.242 Z"/>
    <path id="path54" style="fill: rgb(0, 173, 239); fill-opacity: 1; fill-rule: nonzero; stroke: none; display: inline;" d="M 64.066 12.655 L -0.052 12.655 L -0.052 8.356 L 64.066 8.356 Z"/>
    <path id="path56" style="fill: rgb(0, 173, 239); fill-opacity: 1; fill-rule: nonzero; stroke: none; display: inline;" d="M 64.066 21.253 L -0.052 21.253 L -0.052 16.954 L 64.066 16.954 Z"/>
    <path id="path58" style="fill: rgb(0, 173, 239); fill-opacity: 1; fill-rule: nonzero; stroke: none; display: inline;" d="M 64.066 29.851 L -0.052 29.851 L -0.052 25.552 L 64.066 25.552 Z"/>
    <path id="path60" style="fill: rgb(0, 173, 239); fill-opacity: 1; fill-rule: nonzero; stroke: none; display: inline;" d="M 64.066 38.448 L -0.052 38.448 L -0.052 34.149 L 64.066 34.149 Z"/>
    <path id="path62" style="fill: rgb(0, 173, 239); fill-opacity: 1; fill-rule: nonzero; stroke: none; display: inline;" d="M 64.066 47.046 L -0.052 47.046 L -0.052 42.747 L 64.066 42.747 Z"/>
    <path id="path64" style="fill: rgb(0, 173, 239); fill-opacity: 1; fill-rule: nonzero; stroke: none; display: inline;" d="M 64.066 55.644 L -0.052 55.644 L -0.052 51.345 L 64.066 51.345 Z"/>
    <path id="path66" style="fill: rgb(0, 173, 239); fill-opacity: 1; fill-rule: nonzero; stroke: none; display: inline;" d="M 64.066 64.242 L -0.052 64.242 L -0.052 59.943 L 64.066 59.943 Z"/>
  </g>
</svg>