<?xml version="1.0" encoding="utf-8"?>
<svg viewBox="0 0 64 64" xmlns="http://www.w3.org/2000/svg">
  <g transform="matrix(1.309946, 0, 0, 1.309946, -9.055675, -7.191117)">
    <path id="path204" style="fill:#5ec8ad;fill-opacity:1;fill-rule:nonzero;stroke:none" d="M 32.975 51.706 C 32.975 51.706 27.403 54.261 27.403 48.35 L 27.403 33.104 C 27.403 33.104 22.892 35.748 22.892 22.992 C 22.892 19.258 23.047 17.08 25.537 17.08 C 28.025 17.08 26.003 25.792 26.781 26.726 C 26.781 26.726 27.17 27.99 28.045 27.99 C 28.92 27.99 29.562 16.964 28.687 13.405 C 27.812 9.846 29.095 7.396 30.904 7.396 C 32.712 7.396 33.626 8.096 33.626 12.413 C 33.626 16.73 31.312 33.648 33.062 34.29 C 34.812 34.932 35.804 32.365 35.921 27.523 C 36.037 22.681 39.946 23.147 40.005 25.656 C 40.062 28.165 39.246 38.899 34.229 39.832 C 34.229 39.832 34.509 51.217 32.975 51.706"/>
    <path id="path208" style="fill:#181210;fill-opacity:1;fill-rule:nonzero;stroke:none" d="M 29.981 47.2 L 29.973 47.2 C 29.815 47.196 29.691 47.064 29.695 46.906 L 29.763 44.282 C 29.767 44.124 29.89 43.992 30.056 44.003 C 30.214 44.007 30.339 44.139 30.335 44.297 L 30.267 46.921 C 30.263 47.076 30.136 47.2 29.981 47.2"/>
    <path id="path212" style="fill:#181210;fill-opacity:1;fill-rule:nonzero;stroke:none" d="M 27.961 48.685 C 27.902 48.685 27.842 48.667 27.79 48.628 L 25.687 47.057 C 25.561 46.962 25.534 46.783 25.629 46.656 C 25.724 46.53 25.903 46.503 26.03 46.598 L 28.133 48.17 C 28.26 48.265 28.286 48.444 28.191 48.571 C 28.135 48.646 28.049 48.685 27.961 48.685"/>
    <path id="path216" style="fill:#181210;fill-opacity:1;fill-rule:nonzero;stroke:none" d="M 31.622 49.979 C 31.51 49.979 31.404 49.913 31.358 49.803 C 31.297 49.657 31.365 49.489 31.511 49.428 L 33.932 48.413 C 34.077 48.352 34.245 48.42 34.307 48.566 C 34.368 48.712 34.299 48.879 34.153 48.941 L 31.733 49.956 C 31.696 49.971 31.659 49.979 31.622 49.979"/>
    <path id="path220" style="fill:#181210;fill-opacity:1;fill-rule:nonzero;stroke:none" d="M 25.883 35.824 C 25.772 35.824 25.665 35.758 25.619 35.649 C 25.558 35.503 25.627 35.335 25.772 35.274 L 28.193 34.259 C 28.339 34.198 28.507 34.266 28.568 34.412 C 28.629 34.558 28.561 34.725 28.415 34.786 L 25.994 35.802 C 25.958 35.817 25.92 35.824 25.883 35.824"/>
    <path id="path224" style="fill:#181210;fill-opacity:1;fill-rule:nonzero;stroke:none" d="M 24.85 27.561 C 24.738 27.561 24.632 27.495 24.586 27.386 C 24.525 27.24 24.593 27.072 24.739 27.011 L 27.16 25.996 C 27.305 25.934 27.473 26.003 27.535 26.149 C 27.596 26.295 27.527 26.462 27.382 26.524 L 24.961 27.539 C 24.924 27.554 24.887 27.561 24.85 27.561"/>
    <path id="path228" style="fill:#181210;fill-opacity:1;fill-rule:nonzero;stroke:none" d="M 30.848 29.403 C 30.736 29.403 30.63 29.337 30.583 29.227 C 30.523 29.082 30.591 28.913 30.737 28.853 L 33.158 27.837 C 33.304 27.776 33.471 27.844 33.533 27.99 C 33.594 28.136 33.525 28.304 33.379 28.365 L 30.959 29.381 C 30.922 29.395 30.885 29.403 30.848 29.403"/>
    <path id="path232" style="fill:#181210;fill-opacity:1;fill-rule:nonzero;stroke:none" d="M 23.462 31.127 C 23.351 31.127 23.244 31.061 23.198 30.952 C 23.137 30.806 23.206 30.638 23.352 30.577 L 25.772 29.562 C 25.918 29.501 26.086 29.568 26.148 29.715 C 26.208 29.861 26.14 30.028 25.994 30.09 L 23.573 31.105 C 23.537 31.12 23.5 31.127 23.462 31.127"/>
    <path id="path236" style="fill:#181210;fill-opacity:1;fill-rule:nonzero;stroke:none" d="M 41.072 32.402 C 41.014 32.402 40.956 32.384 40.905 32.348 L 38.774 30.814 C 38.646 30.722 38.617 30.543 38.709 30.415 C 38.801 30.286 38.98 30.257 39.109 30.35 L 41.24 31.883 C 41.368 31.975 41.398 32.154 41.305 32.283 C 41.249 32.36 41.162 32.402 41.072 32.402"/>
    <path id="path240" style="fill:#181210;fill-opacity:1;fill-rule:nonzero;stroke:none" d="M 39.438 36.591 C 39.381 36.591 39.322 36.573 39.272 36.537 L 37.141 35.004 C 37.012 34.911 36.983 34.732 37.075 34.604 C 37.167 34.476 37.346 34.446 37.475 34.539 L 39.606 36.072 C 39.734 36.164 39.764 36.343 39.671 36.472 C 39.615 36.55 39.528 36.591 39.438 36.591"/>
    <path id="path244" style="fill:#181210;fill-opacity:1;fill-rule:nonzero;stroke:none" d="M 32.058 44.576 C 32.007 44.576 31.956 44.562 31.91 44.534 C 31.774 44.452 31.731 44.276 31.813 44.141 L 33.175 41.896 C 33.257 41.761 33.433 41.718 33.568 41.8 C 33.704 41.882 33.746 42.058 33.665 42.193 L 32.303 44.438 C 32.249 44.527 32.155 44.576 32.058 44.576"/>
    <path id="path248" style="fill:#181210;fill-opacity:1;fill-rule:nonzero;stroke:none" d="M 30.015 40.652 C 29.887 40.652 29.77 40.565 29.737 40.435 L 29.096 37.89 C 29.057 37.737 29.15 37.581 29.304 37.542 C 29.458 37.505 29.613 37.597 29.651 37.75 L 30.293 40.296 C 30.331 40.449 30.238 40.605 30.085 40.643 C 30.061 40.649 30.038 40.652 30.015 40.652"/>
    <path id="path252" style="fill:#181210;fill-opacity:1;fill-rule:nonzero;stroke:none" d="M 35.782 40.652 C 35.653 40.652 35.536 40.565 35.504 40.435 L 34.863 37.89 C 34.824 37.737 34.917 37.581 35.07 37.542 C 35.224 37.505 35.379 37.597 35.418 37.75 L 36.059 40.296 C 36.098 40.449 36.005 40.605 35.852 40.643 C 35.828 40.649 35.805 40.652 35.782 40.652"/>
    <path id="path256" style="fill:#181210;fill-opacity:1;fill-rule:nonzero;stroke:none" d="M 32.832 35.824 C 32.789 35.824 32.745 35.815 32.704 35.794 C 32.563 35.723 32.506 35.551 32.576 35.41 L 33.752 33.062 C 33.823 32.921 33.995 32.864 34.136 32.935 C 34.278 33.006 34.335 33.178 34.264 33.319 L 33.088 35.666 C 33.038 35.767 32.937 35.824 32.832 35.824"/>
    <path id="path260" style="fill:#181210;fill-opacity:1;fill-rule:nonzero;stroke:none" d="M 30.523 24.191 L 30.516 24.191 C 30.358 24.187 30.233 24.056 30.237 23.898 L 30.305 21.273 C 30.309 21.115 30.441 20.984 30.599 20.994 C 30.757 20.999 30.881 21.13 30.877 21.288 L 30.809 23.912 C 30.806 24.068 30.678 24.191 30.523 24.191"/>
    <path id="path264" style="fill:#181210;fill-opacity:1;fill-rule:nonzero;stroke:none" d="M 27.452 23.995 C 27.393 23.995 27.333 23.977 27.281 23.939 L 25.178 22.367 C 25.051 22.272 25.025 22.093 25.12 21.966 C 25.214 21.841 25.394 21.814 25.521 21.909 L 27.624 23.48 C 27.751 23.575 27.776 23.754 27.682 23.881 C 27.625 23.956 27.54 23.995 27.452 23.995"/>
    <path id="path268" style="fill:#181210;fill-opacity:1;fill-rule:nonzero;stroke:none" d="M 32.058 20.534 C 31.946 20.534 31.84 20.468 31.794 20.358 C 31.733 20.212 31.801 20.044 31.947 19.983 L 32.941 19.567 C 33.087 19.506 33.254 19.574 33.316 19.72 C 33.377 19.866 33.308 20.033 33.162 20.095 L 32.169 20.511 C 32.132 20.526 32.095 20.534 32.058 20.534"/>
    <path id="path272" style="fill:#181210;fill-opacity:1;fill-rule:nonzero;stroke:none" d="M 33.052 20.117 C 32.94 20.117 32.834 20.051 32.788 19.941 C 32.727 19.796 32.795 19.627 32.941 19.567 L 34.368 18.968 C 34.514 18.907 34.682 18.975 34.743 19.121 C 34.804 19.267 34.736 19.434 34.59 19.496 L 33.163 20.094 C 33.126 20.109 33.089 20.117 33.052 20.117"/>
    <path id="path276" style="fill:#181210;fill-opacity:1;fill-rule:nonzero;stroke:none" d="M 26.426 12.816 C 26.315 12.816 26.208 12.75 26.162 12.64 C 26.101 12.494 26.17 12.326 26.315 12.265 L 28.736 11.25 C 28.882 11.189 29.05 11.257 29.111 11.403 C 29.172 11.549 29.103 11.717 28.958 11.778 L 26.537 12.793 C 26.501 12.808 26.463 12.816 26.426 12.816"/>
    <path id="path280" style="fill:#181210;fill-opacity:1;fill-rule:nonzero;stroke:none" d="M 35.352 15.596 C 35.344 15.596 35.337 15.596 35.329 15.596 L 32.712 15.389 C 32.554 15.377 32.436 15.239 32.449 15.081 C 32.461 14.924 32.604 14.808 32.757 14.819 L 35.374 15.025 C 35.531 15.037 35.65 15.175 35.637 15.332 C 35.625 15.483 35.5 15.596 35.352 15.596"/>
    <path id="path284" style="fill:#181210;fill-opacity:1;fill-rule:nonzero;stroke:none" d="M 30.557 17.643 C 30.429 17.643 30.312 17.557 30.28 17.427 L 29.639 14.881 C 29.6 14.728 29.693 14.572 29.846 14.533 C 30 14.496 30.155 14.588 30.194 14.741 L 30.835 17.287 C 30.874 17.44 30.781 17.596 30.628 17.634 C 30.604 17.64 30.581 17.643 30.557 17.643"/>
    <path id="path288" style="fill:#181210;fill-opacity:1;fill-rule:nonzero;stroke:none" d="M 38.171 28.243 C 38.043 28.243 37.926 28.156 37.893 28.026 L 37.252 25.481 C 37.213 25.327 37.306 25.172 37.459 25.133 C 37.613 25.095 37.769 25.187 37.807 25.341 L 38.448 27.887 C 38.487 28.04 38.394 28.196 38.241 28.234 C 38.217 28.24 38.194 28.243 38.171 28.243"/>
    <path id="path292" style="fill:#181210;fill-opacity:1;fill-rule:nonzero;stroke:none" d="M 35.275 11.664 L 35.271 11.664 L 32.646 11.62 C 32.488 11.617 32.362 11.487 32.364 11.329 C 32.367 11.171 32.519 11.044 32.655 11.048 L 35.28 11.091 C 35.438 11.094 35.564 11.224 35.562 11.382 C 35.559 11.539 35.431 11.664 35.275 11.664"/>
    <path id="path296" style="fill:#181210;fill-opacity:1;fill-rule:nonzero;stroke:none" d="M 24.195 23.868 C 24.183 23.868 24.17 23.867 24.159 23.866 L 21.554 23.542 C 21.396 23.522 21.285 23.38 21.304 23.222 C 21.325 23.065 21.469 22.954 21.624 22.974 L 24.23 23.298 C 24.386 23.317 24.498 23.46 24.478 23.617 C 24.46 23.762 24.337 23.868 24.195 23.868"/>
  </g>
</svg>