<?xml version="1.0" encoding="utf-8"?>
<svg viewBox="0 0 64 64" xmlns="http://www.w3.org/2000/svg">
  <defs>
    <linearGradient x1="0" y1="0" x2="1" y2="0" gradientUnits="userSpaceOnUse" gradientTransform="matrix(31.35504, 0, 0, 31.355061, 24.217505, 48.842907)" spreadMethod="pad" id="linearGradient2408">
      <stop style="stop-opacity:1;stop-color:#fff761" offset="0" id="stop2404"/>
      <stop style="stop-opacity:1;stop-color:#f7f795" offset="1" id="stop2406"/>
    </linearGradient>
    <clipPath clipPathUnits="userSpaceOnUse" id="clipPath2418">
      <path d="M 0,641.896 H 870.236 V 0 H 0 Z" id="path2416"/>
    </clipPath>
    <linearGradient x1="0" y1="0" x2="1" y2="0" gradientUnits="userSpaceOnUse" gradientTransform="matrix(43.440097, 0, 0, 43.440056, 6.470982, 43.83477)" spreadMethod="pad" id="linearGradient2440">
      <stop style="stop-opacity:1;stop-color:#9daadd" offset="0" id="stop2436"/>
      <stop style="stop-opacity:1;stop-color:#bfe8fa" offset="1" id="stop2438"/>
    </linearGradient>
    <clipPath clipPathUnits="userSpaceOnUse" id="clipPath2450">
      <path d="M 0,641.896 H 870.236 V 0 H 0 Z" id="path2448"/>
    </clipPath>
    <linearGradient x1="0" y1="0" x2="1" y2="0" gradientUnits="userSpaceOnUse" gradientTransform="matrix(35.549666, 0, 0, 35.549648, 9.954171, 33.181263)" spreadMethod="pad" id="linearGradient2474">
      <stop style="stop-opacity:1;stop-color:#f147ac" offset="0" id="stop2468"/>
      <stop style="stop-opacity:1;stop-color:#f147ac" offset="0.779" id="stop2470"/>
      <stop style="stop-opacity:1;stop-color:#733fa3" offset="1" id="stop2472"/>
    </linearGradient>
    <clipPath clipPathUnits="userSpaceOnUse" id="clipPath2484">
      <path d="M 0,641.896 H 870.236 V 0 H 0 Z" id="path2482"/>
    </clipPath>
    <linearGradient x1="0" y1="0" x2="1" y2="0" gradientUnits="userSpaceOnUse" gradientTransform="matrix(22.477165, 0, 0, 22.477165, 15.531639, 22.266682)" spreadMethod="pad" id="linearGradient2508">
      <stop style="stop-opacity:1;stop-color:#fbcde9" offset="0" id="stop2502"/>
      <stop style="stop-opacity:1;stop-color:#f361b8" offset="0.9997" id="stop2504"/>
      <stop style="stop-opacity:1;stop-color:#f361b8" offset="1" id="stop2506"/>
    </linearGradient>
  </defs>
  <g>
    <path id="path2410" style="fill: url(#linearGradient2408); stroke: none; display: inline;" d="M 24.218 57.287 C 24.213 57.567 49.063 61.09 53.977 52.693 L 53.977 52.693 C 58.893 44.297 51.069 39.477 49.029 39.429 L 49.029 39.429 C 49.024 39.429 49.018 39.429 49.013 39.429 L 49.013 39.429 C 46.876 39.428 24.364 48.802 24.218 57.287"/>
    <path id="path2422" style="fill: none; stroke: rgb(35, 31, 32); stroke-width: 0.75; stroke-linecap: round; stroke-linejoin: round; stroke-miterlimit: 10; stroke-dasharray: none; stroke-opacity: 1; display: inline;" d="M 24.217 57.287 C 24.212 57.567 49.062 61.09 53.977 52.693 C 58.893 44.297 51.069 39.477 49.028 39.429 C 46.989 39.382 24.364 48.781 24.217 57.287 Z" clip-path="url(#clipPath2418)"/>
    <path id="path2442" style="fill: url(#linearGradient2440); stroke: none; display: inline;" d="M 12.012 44.603 C 11.874 44.529 5.107 46.446 6.719 53.003 L 6.719 53.003 C 8.234 59.165 14.418 59.754 19.925 58.569 L 19.925 58.569 C 25.433 57.384 41.125 48.407 46.335 41.36 L 46.335 41.36 C 51.546 34.313 50.883 29.637 45.504 28.663 L 45.504 28.663 C 45.283 28.623 45.038 28.603 44.773 28.603 L 44.773 28.603 C 37.141 28.603 12.012 44.603 12.012 44.603"/>
    <path id="path2454" style="fill: none; stroke: rgb(35, 31, 32); stroke-width: 0.75; stroke-linecap: round; stroke-linejoin: round; stroke-miterlimit: 10; stroke-dasharray: none; stroke-opacity: 1; display: inline;" d="M 12.012 44.603 C 11.874 44.529 5.107 46.446 6.719 53.003 C 8.234 59.165 14.418 59.754 19.925 58.569 C 25.433 57.385 41.125 48.408 46.335 41.36 C 51.546 34.313 50.883 29.636 45.504 28.663 C 38.921 27.47 12.012 44.603 12.012 44.603 Z" clip-path="url(#clipPath2450)"/>
    <path id="path2476" style="fill: url(#linearGradient2474); stroke: none; display: inline;" d="M 34.144 22.821 C 29.405 27.102 21.179 33.952 16.181 34.83 L 16.181 34.83 C 15.885 34.881 15.596 34.939 15.308 35.029 L 15.308 35.029 C 13.743 35.517 9.302 37.317 10.035 41.869 L 10.035 41.869 C 10.923 47.376 20.576 44.652 20.576 44.652 L 20.576 44.652 C 20.576 44.652 36.211 41.395 43.199 33.044 L 43.199 33.044 C 45.529 30.261 45.858 27.744 45.214 25.648 L 45.214 25.648 C 44.304 22.695 41.588 21.036 38.794 21.036 L 38.794 21.036 C 37.155 21.036 35.488 21.607 34.144 22.821"/>
    <path id="path2488" style="fill: none; stroke: rgb(35, 31, 32); stroke-width: 0.75; stroke-linecap: round; stroke-linejoin: round; stroke-miterlimit: 10; stroke-dasharray: none; stroke-opacity: 1; display: inline;" d="M 16.181 34.83 C 15.885 34.881 15.595 34.939 15.308 35.028 C 13.743 35.517 9.301 37.318 10.035 41.869 C 10.923 47.376 20.577 44.652 20.577 44.652 C 20.577 44.652 36.211 41.395 43.199 33.044 C 45.529 30.261 45.859 27.744 45.213 25.648 C 43.771 20.963 37.781 19.536 34.144 22.821 C 29.404 27.102 21.179 33.952 16.181 34.83 Z" clip-path="url(#clipPath2484)"/>
    <path id="path2510" style="fill: url(#linearGradient2508); stroke: none; display: inline;" d="M 25.077 15.575 C 20.636 18.417 23.005 23.747 23.005 23.747 L 23.005 23.747 C 19.629 23.214 17.438 25.11 16.195 28.189 L 16.195 28.189 C 14.95 31.268 15.839 34.881 15.839 34.881 L 15.839 34.881 C 29.282 30.853 37.1 24.34 37.928 18.799 L 37.928 18.799 C 38.757 13.259 32.954 10.541 30.822 10.541 L 30.822 10.541 C 28.69 10.541 28.276 9.771 27.98 9.652 L 27.98 9.652 C 27.98 9.652 29.519 12.733 25.077 15.575"/>
    <path id="path2522" style="fill: none; stroke: rgb(35, 31, 32); stroke-width: 0.75; stroke-linecap: round; stroke-linejoin: round; stroke-miterlimit: 10; stroke-dasharray: none; stroke-opacity: 1; display: inline;" d="M 27.98 9.653 C 28.276 9.771 28.69 10.541 30.822 10.541 C 32.954 10.541 38.757 13.259 37.928 18.799 C 37.099 24.339 29.282 30.854 15.839 34.881 C 15.839 34.881 14.951 31.268 16.195 28.189 C 17.438 25.109 19.629 23.214 23.005 23.747 C 23.005 23.747 20.636 18.418 25.077 15.575 C 29.519 12.732 27.98 9.653 27.98 9.653 Z"/>
    <path id="path2526" style="fill: rgb(255, 255, 255); fill-opacity: 1; fill-rule: nonzero; stroke: none; display: inline;" d="M 28.538 17.991 L 31.791 10.067 L 32.38 8.633 L 34.48 3.52 C 34.729 2.91 35.641 3.121 35.597 3.779 L 35.299 8.259 L 34.651 17.991 C 34.651 17.991 31.189 21.216 28.538 17.991"/>
    <path id="path2530" style="fill: none; stroke: rgb(35, 31, 32); stroke-width: 0.75; stroke-linecap: round; stroke-linejoin: round; stroke-miterlimit: 10; stroke-dasharray: none; stroke-opacity: 1; display: inline;" d="M 28.538 17.991 L 31.791 10.067 L 32.38 8.633 L 34.48 3.52 C 34.729 2.91 35.641 3.121 35.597 3.779 L 35.299 8.259 L 34.651 17.991 C 34.651 17.991 31.189 21.216 28.538 17.991 Z"/>
    <path id="path2534" style="fill: rgb(255, 255, 255); fill-opacity: 1; fill-rule: nonzero; stroke: rgb(35, 31, 32); stroke-width: 0.75; stroke-linecap: round; stroke-linejoin: round; stroke-miterlimit: 10; stroke-dasharray: none; stroke-opacity: 1; display: inline;" d="M 30.569 13.045 C 30.584 13.008 32.883 14.449 35.01 12.594"/>
    <path id="path2538" style="fill: rgb(255, 255, 255); fill-opacity: 1; fill-rule: nonzero; stroke: rgb(35, 31, 32); stroke-width: 0.75; stroke-linecap: round; stroke-linejoin: round; stroke-miterlimit: 10; stroke-dasharray: none; stroke-opacity: 1; display: inline;" d="M 32.633 8.205 C 32.645 8.178 33.824 8.908 35.274 8.646"/>
    <path id="path2542" style="fill: rgb(255, 255, 255); fill-opacity: 1; fill-rule: nonzero; stroke: none; display: inline;" d="M 28.928 39.657 C 28.928 43.103 26.784 45.898 24.14 45.898 C 21.495 45.898 19.351 43.103 19.351 39.657 C 19.351 36.21 21.495 33.416 24.14 33.416 C 26.784 33.416 28.928 36.21 28.928 39.657"/>
    <path id="path2546" style="fill: rgb(4, 6, 6); fill-opacity: 1; fill-rule: nonzero; stroke: none; display: inline;" d="M 26.666 40.578 C 26.666 41.995 25.517 43.143 24.1 43.143 C 22.684 43.143 21.536 41.995 21.536 40.578 C 21.536 39.161 22.684 38.013 24.1 38.013 C 25.517 38.013 26.666 39.161 26.666 40.578"/>
    <path id="path2550" style="fill: rgb(255, 255, 255); fill-opacity: 1; fill-rule: nonzero; stroke: none; display: inline;" d="M 41.946 39.657 C 41.946 43.103 39.803 45.898 37.157 45.898 C 34.514 45.898 32.369 43.103 32.369 39.657 C 32.369 36.21 34.514 33.416 37.157 33.416 C 39.803 33.416 41.946 36.21 41.946 39.657"/>
    <path id="path2554" style="fill: rgb(4, 6, 6); fill-opacity: 1; fill-rule: nonzero; stroke: none; display: inline;" d="M 39.683 40.578 C 39.683 41.995 38.535 43.143 37.119 43.143 C 35.702 43.143 34.554 41.995 34.554 40.578 C 34.554 39.161 35.702 38.013 37.119 38.013 C 38.535 38.013 39.683 39.161 39.683 40.578"/>
    <path id="path2558" style="fill: rgb(255, 255, 255); fill-opacity: 1; fill-rule: nonzero; stroke: none; display: inline;" d="M 20.846 48.161 C 27.436 49.01 34.026 49.01 40.617 48.161 C 41.365 48.161 41.633 49.15 40.987 49.528 L 36.652 52.06 C 32.993 54.196 28.469 54.196 24.812 52.06 L 20.476 49.528 C 19.83 49.15 20.097 48.161 20.846 48.161"/>
  </g>
</svg>