<?xml version="1.0" encoding="utf-8"?>
<svg viewBox="0 0 64 64" xmlns="http://www.w3.org/2000/svg">
  <g transform="matrix(0.773688, 0, 0, 0.773688, 8.193603, 4.474483)">
    <path id="path588" style="fill-opacity: 1; fill-rule: nonzero; stroke: none;" d="M 23.983 35.213 L 23.983 35.209 C 24.073 34.396 24.395 34.061 24.514 34.06 C 24.586 34.06 24.809 34.269 24.906 34.945 C 25.035 35.93 24.993 37.133 24.787 38.393 C 24.121 37.62 23.83 36.498 23.983 35.213 M 24.147 40.93 C 23.802 42.157 23.202 43.609 22.278 45.461 C 20.181 49.57 17.879 51.392 16.423 51.726 C 15.901 51.846 15.465 51.784 15.141 51.537 C 13.823 50.532 14.309 45.408 16.753 40.858 C 17.807 38.917 19.114 37.166 20.413 35.94 C 20.801 38.137 22.497 39.984 24.147 40.93 M 45.071 37.905 C 44.506 37.081 44.121 35.896 44.307 34.736 C 44.43 33.905 44.746 33.625 44.821 33.625 C 44.858 33.632 45.073 33.816 45.175 34.52 C 45.266 35.22 45.31 36.342 45.071 37.905 M 44.391 40.608 C 43.949 42.024 43.315 43.545 42.547 45.032 C 40.387 49.266 37.999 51.088 36.61 51.361 C 36.123 51.457 35.723 51.38 35.427 51.125 C 34.174 50.05 34.673 44.798 37.021 40.432 C 38.074 38.492 39.382 36.741 40.681 35.512 C 41.014 37.424 42.309 39.181 43.579 40.05 C 43.834 40.29 44.105 40.477 44.391 40.608 M 50.791 39.652 C 50.719 39.525 50.483 39.246 49.961 39.378 C 49.789 39.41 49.609 39.428 49.418 39.437 C 49.435 39.278 49.446 39.125 49.455 38.973 C 49.465 38.834 49.474 38.693 49.491 38.524 C 49.651 35.105 48.597 34.052 47.479 32.936 C 47.15 32.608 46.809 32.268 46.49 31.853 C 45.227 30.198 44.099 29.674 42.211 29.84 C 39.651 30.064 36.953 31.886 34.611 34.972 C 33.334 36.641 31.395 38.685 29.209 39.298 C 29.218 39.174 29.225 39.054 29.222 38.95 C 29.381 35.576 28.337 34.522 27.231 33.408 C 26.894 33.068 26.546 32.716 26.227 32.286 C 24.955 30.564 23.831 30.033 21.934 30.268 C 17.953 30.69 14.457 34.701 12.513 38.316 C 11.149 40.893 10.409 43.405 10.266 45.678 C 8.354 48.48 4.659 52.841 0.146 52.882 L 0.134 52.882 C -0.803 52.882 -1.571 52.46 -2.091 51.657 C -3.086 50.118 -3.369 46.752 -1.175 41.918 C 0.934 37.35 4.315 33.953 5.718 33.621 C 5.874 33.582 5.947 33.604 5.967 33.621 C 6.25 33.838 5.629 35.294 5.257 36.164 C 4.926 36.937 4.585 37.737 4.371 38.505 C 3.499 41.578 4.683 43.393 6.071 44.062 C 6.425 44.245 6.833 44.409 7.211 44.249 C 7.575 44.096 7.737 43.713 7.851 43.336 C 8.139 42.493 8.515 41.638 8.879 40.813 C 9.927 38.428 10.918 36.176 9.902 34.216 L 9.899 34.209 C 9.134 32.798 8.146 31.836 6.491 30.888 C 5.493 30.309 4.213 30.237 2.786 30.68 C -0.573 31.722 -4.071 35.346 -6.346 40.14 C -8.458 44.629 -8.541 49.093 -6.565 52.082 C -5.167 54.196 -2.838 55.345 0.022 55.345 C 0.157 55.345 0.291 55.342 0.427 55.338 C 4.177 55.209 8.309 52.99 10.831 49.88 C 11.115 50.645 11.471 51.366 11.965 51.994 C 13.765 54.268 15.778 54.852 17.373 54.852 C 18.362 54.852 19.191 54.628 19.71 54.44 C 24.089 52.896 27.527 47.005 28.733 41.864 C 29.647 41.817 30.505 41.65 31.289 41.369 C 29.97 45.464 30.294 49.058 32.23 51.562 C 35.102 55.281 38.647 54.514 40.038 54.01 C 44.327 52.478 47.825 46.462 49.01 41.464 C 49.702 41.34 50.245 41.052 50.575 40.641 C 50.874 40.326 50.958 39.938 50.791 39.652"/>
    <path id="path592" style="fill-opacity: 1; fill-rule: nonzero; stroke: none;" d="M 66.698 22.51 C 66.565 24.18 64.03 31.176 58.074 36.961 C 58.245 36.61 58.422 36.258 58.606 35.909 C 62.33 28.532 65.608 23.484 66.698 22.51 M 69.382 23.248 C 70.081 20.198 69.56 17.964 67.79 16.421 C 67.333 16.008 66.849 15.809 66.368 15.84 C 65.809 15.872 65.273 16.185 64.73 16.796 C 59.085 23.006 52.51 33.945 50.553 44.384 C 49.884 47.949 50.225 50.586 51.569 52.22 C 52.553 53.417 54.028 54.032 55.956 54.048 L 55.985 54.048 C 60.796 54.046 65 49.066 65.864 47.076 C 66.534 45.504 66.713 44.14 66.381 43.141 C 66.156 42.405 65.688 42.288 65.498 42.273 C 65.032 42.226 64.633 42.548 64.349 43.113 C 62.108 47.856 58.253 51.741 55.834 51.59 C 55.413 51.561 55.1 51.378 54.877 51.032 C 54.005 49.673 54.536 45.982 56.261 41.385 C 61.442 37.761 67.726 30.574 69.382 23.248"/>
  </g>
</svg>