<?xml version="1.0" encoding="utf-8"?>
<svg viewBox="0 0 64 64" xmlns="http://www.w3.org/2000/svg">
  <g transform="matrix(1.571337, 0, 0, 1.571337, -17.998739, -14.449451)">
    <path id="path1962" style="fill:#fcf4ac;fill-opacity:1;fill-rule:nonzero;stroke:none" d="M 39.008 47.78 L 43.689 44.575 L 42.812 32.367 L 37.01 34.935 Z" transform="matrix(0.981519, 0.191364, -0.191364, 0.981519, 8.414322, -6.98085)"/>
    <path id="path1966" style="fill:#facbbf;fill-opacity:1;fill-rule:nonzero;stroke:none" d="M 32.756 48.64 C 32.756 48.64 36.335 47.859 38.928 46.279 L 38.037 34.898 L 28.508 36.876 Z" transform="matrix(0.981519, 0.191364, -0.191364, 0.981519, 8.616219, -5.680484)"/>
    <path id="path1970" style="fill:#fcf4ac;fill-opacity:1;fill-rule:nonzero;stroke:none" d="M 25.442 47.818 L 22.698 36.21 L 29.356 35.131 L 32.725 47.231 C 32.725 47.231 27.356 48.17 25.442 47.818" transform="matrix(0.981519, 0.191364, -0.191364, 0.981519, 8.456414, -4.535769)"/>
    <path id="path1974" style="fill:#facbbf;fill-opacity:1;fill-rule:nonzero;stroke:none" d="M 17.845 35.728 L 20.913 45.728 C 20.913 45.728 24.91 46.632 26.166 46.77 L 21.95 32.893 Z" transform="matrix(0.981519, 0.191364, -0.191364, 0.981519, 8.028997, -3.474941)"/>
    <path id="path1978" style="fill:none;stroke:#010101;stroke-width:0.48500001;stroke-linecap:butt;stroke-linejoin:miter;stroke-miterlimit:10;stroke-dasharray:none;stroke-opacity:1" d="M 17.934 37.796 L 20.919 47.401 C 20.919 47.401 32.295 52.073 43.403 42.732 L 42.475 32.7 Z" transform="matrix(0.981519, 0.191364, -0.191364, 0.981519, 8.342798, -5.117883)"/>
    <path id="path1982" style="fill:#d0e8dd;fill-opacity:1;fill-rule:nonzero;stroke:none" d="M 18.843 28.989 C 18.843 28.989 15.352 26.764 17.105 23.405 C 18.168 21.367 21.519 21.992 21.519 21.992 C 21.519 21.992 18.197 18.719 24.049 16.677 C 29.901 14.636 29.408 12.261 29.047 10.52 C 29.047 10.52 31.479 13.484 35.547 14.785 C 39.616 16.088 37.923 18.669 37.923 18.669 C 37.923 18.669 44.721 16.017 45.284 23.499 C 45.284 23.499 50.593 24.891 49.855 30.645 C 49.52 33.255 45.567 35.992 42.672 34.776 C 42.672 34.776 43.987 38.004 39.472 39.652 C 34.867 41.333 33.119 38.081 33.119 38.081 C 33.119 38.081 32.279 41.991 27.555 42.312 C 22.832 42.631 22.497 38.635 22.497 38.635 C 22.497 38.635 17.481 42.32 15.283 36.5 C 13.084 30.681 18.843 28.989 18.843 28.989" transform="matrix(0.981519, 0.191364, -0.191364, 0.981519, 5.654735, -5.703019)"/>
    <path id="path1986" style="fill:none;stroke:#010101;stroke-width:0.48500001;stroke-linecap:round;stroke-linejoin:round;stroke-miterlimit:10;stroke-dasharray:none;stroke-opacity:1" d="M 18.843 28.989 C 18.843 28.989 15.352 26.764 17.105 23.405 C 18.168 21.367 21.519 21.992 21.519 21.992 C 21.519 21.992 18.197 18.719 24.049 16.677 C 29.901 14.636 29.408 12.261 29.047 10.52 C 29.047 10.52 31.479 13.484 35.547 14.785 C 39.616 16.088 37.923 18.669 37.923 18.669 C 37.923 18.669 44.721 16.017 45.284 23.499 C 45.284 23.499 50.593 24.891 49.855 30.645 C 49.52 33.255 45.567 35.992 42.672 34.776 C 42.672 34.776 43.987 38.004 39.472 39.652 C 34.867 41.333 33.119 38.081 33.119 38.081 C 33.119 38.081 32.279 41.991 27.555 42.312 C 22.832 42.631 22.497 38.635 22.497 38.635 C 22.497 38.635 17.481 42.32 15.283 36.5 C 13.084 30.681 18.843 28.989 18.843 28.989 Z" transform="matrix(0.981519, 0.191364, -0.191364, 0.981519, 5.654735, -5.703019)"/>
    <path id="path1990" style="fill:none;stroke:#010101;stroke-width:0.37900001;stroke-linecap:round;stroke-linejoin:round;stroke-miterlimit:10;stroke-dasharray:none;stroke-opacity:1" d="M 26.989 22.038 L 28.592 20.844" transform="matrix(0.981519, 0.191364, -0.191364, 0.981519, 4.616629, -4.921854)"/>
    <path id="path1994" style="fill:none;stroke:#010101;stroke-width:0.37900001;stroke-linecap:round;stroke-linejoin:round;stroke-miterlimit:10;stroke-dasharray:none;stroke-opacity:1" d="M 31.936 23.166 L 31.666 21.186" transform="matrix(0.981519, 0.191364, -0.191364, 0.981519, 4.831399, -5.675736)"/>
    <path id="path1998" style="fill:none;stroke:#010101;stroke-width:0.37900001;stroke-linecap:round;stroke-linejoin:round;stroke-miterlimit:10;stroke-dasharray:none;stroke-opacity:1" d="M 24.311 23.021 L 22.981 21.529" transform="matrix(0.981519, 0.191364, -0.191364, 0.981519, 4.699632, -4.113332)"/>
    <path id="path2002" style="fill:none;stroke:#010101;stroke-width:0.37900001;stroke-linecap:round;stroke-linejoin:round;stroke-miterlimit:10;stroke-dasharray:none;stroke-opacity:1" d="M 20.982 23.243 L 19.651 21.752" transform="matrix(0.981519, 0.191364, -0.191364, 0.981519, 4.680678, -3.472074)"/>
    <path id="path2006" style="fill:none;stroke:#010101;stroke-width:0.37900001;stroke-linecap:round;stroke-linejoin:round;stroke-miterlimit:10;stroke-dasharray:none;stroke-opacity:1" d="M 30.447 27.465 L 29.116 25.975" transform="matrix(0.981519, 0.191364, -0.191364, 0.981519, 5.663635, -5.205299)"/>
    <path id="path2010" style="fill:none;stroke:#010101;stroke-width:0.37900001;stroke-linecap:round;stroke-linejoin:round;stroke-miterlimit:10;stroke-dasharray:none;stroke-opacity:1" d="M 28.556 30.458 L 27.226 28.967" transform="matrix(0.981519, 0.191364, -0.191364, 0.981519, 6.201353, -4.78822)"/>
    <path id="path2014" style="fill:none;stroke:#010101;stroke-width:0.37900001;stroke-linecap:round;stroke-linejoin:round;stroke-miterlimit:10;stroke-dasharray:none;stroke-opacity:1" d="M 24.66 26.601 L 25.594 24.836" transform="matrix(0.981519, 0.191364, -0.191364, 0.981519, 5.385964, -4.333103)"/>
    <path id="path2018" style="fill:none;stroke:#010101;stroke-width:0.37900001;stroke-linecap:round;stroke-linejoin:round;stroke-miterlimit:10;stroke-dasharray:none;stroke-opacity:1" d="M 34.223 23.991 L 36.214 24.171" transform="matrix(0.981519, 0.191364, -0.191364, 0.981519, 5.259105, -6.294515)"/>
    <path id="path2022" style="fill:none;stroke:#010101;stroke-width:0.37900001;stroke-linecap:round;stroke-linejoin:round;stroke-miterlimit:10;stroke-dasharray:none;stroke-opacity:1" d="M 23.146 28.958 L 24.33 30.568" transform="matrix(0.981519, 0.191364, -0.191364, 0.981519, 6.134266, -3.992553)"/>
    <path id="path2026" style="fill:none;stroke:#010101;stroke-width:0.37900001;stroke-linecap:round;stroke-linejoin:round;stroke-miterlimit:10;stroke-dasharray:none;stroke-opacity:1" d="M 42.303 23.893 L 44.294 24.073" transform="matrix(0.981519, 0.191364, -0.191364, 0.981519, 5.389677, -7.842547)"/>
    <path id="path2030" style="fill:none;stroke:#010101;stroke-width:0.37900001;stroke-linecap:round;stroke-linejoin:round;stroke-miterlimit:10;stroke-dasharray:none;stroke-opacity:1" d="M 34.596 30.646 L 36.018 32.048" transform="matrix(0.981519, 0.191364, -0.191364, 0.981519, 6.651191, -6.17717)"/>
    <path id="path2034" style="fill:none;stroke:#010101;stroke-width:0.37900001;stroke-linecap:round;stroke-linejoin:round;stroke-miterlimit:10;stroke-dasharray:none;stroke-opacity:1" d="M 28.186 18.372 L 30.176 18.552" transform="matrix(0.981519, 0.191364, -0.191364, 0.981519, 4.072253, -5.243)"/>
    <path id="path2038" style="fill:none;stroke:#010101;stroke-width:0.37900001;stroke-linecap:round;stroke-linejoin:round;stroke-miterlimit:10;stroke-dasharray:none;stroke-opacity:1" d="M 22.62 17.322 L 24.559 17.807" transform="matrix(0.981519, 0.191364, -0.191364, 0.981519, 3.797167, -4.189574)"/>
    <path id="path2042" style="fill:none;stroke:#010101;stroke-width:0.37900001;stroke-linecap:round;stroke-linejoin:round;stroke-miterlimit:10;stroke-dasharray:none;stroke-opacity:1" d="M 18.605 29.724 L 20.596 29.904" transform="matrix(0.981519, 0.191364, -0.191364, 0.981519, 6.067561, -3.199842)"/>
    <path id="path2046" style="fill:none;stroke:#010101;stroke-width:0.37900001;stroke-linecap:round;stroke-linejoin:round;stroke-miterlimit:10;stroke-dasharray:none;stroke-opacity:1" d="M 32.945 17.782 L 34.934 17.962" transform="matrix(0.981519, 0.191364, -0.191364, 0.981519, 4.047288, -6.164508)"/>
    <path id="path2050" style="fill:none;stroke:#010101;stroke-width:0.37900001;stroke-linecap:round;stroke-linejoin:round;stroke-miterlimit:10;stroke-dasharray:none;stroke-opacity:1" d="M 32.01 14.498 L 31.159 16.306" transform="matrix(0.981519, 0.191364, -0.191364, 0.981519, 3.531097, -5.759493)"/>
    <path id="path2054" style="fill:none;stroke:#010101;stroke-width:0.37900001;stroke-linecap:round;stroke-linejoin:round;stroke-miterlimit:10;stroke-dasharray:none;stroke-opacity:1" d="M 35.548 21.306 L 36.644 19.636" transform="matrix(0.981519, 0.191364, -0.191364, 0.981519, 4.584498, -6.529154)"/>
    <path id="path2058" style="fill:none;stroke:#010101;stroke-width:0.37900001;stroke-linecap:round;stroke-linejoin:round;stroke-miterlimit:10;stroke-dasharray:none;stroke-opacity:1" d="M 37.567 22.447 L 39.197 23.601" transform="matrix(0.981519, 0.191364, -0.191364, 0.981519, 5.115298, -6.91943)"/>
    <path id="path2062" style="fill:none;stroke:#010101;stroke-width:0.37900001;stroke-linecap:round;stroke-linejoin:round;stroke-miterlimit:10;stroke-dasharray:none;stroke-opacity:1" d="M 33.209 27.94 L 34.536 26.445" transform="matrix(0.981519, 0.191364, -0.191364, 0.981519, 5.829658, -5.979435)"/>
    <path id="path2066" style="fill:none;stroke:#010101;stroke-width:0.37900001;stroke-linecap:round;stroke-linejoin:round;stroke-miterlimit:10;stroke-dasharray:none;stroke-opacity:1" d="M 36.326 28.767 L 37.652 27.273" transform="matrix(0.981519, 0.191364, -0.191364, 0.981519, 6.045608, -6.560529)"/>
    <path id="path2070" style="fill:none;stroke:#010101;stroke-width:0.37900001;stroke-linecap:round;stroke-linejoin:round;stroke-miterlimit:10;stroke-dasharray:none;stroke-opacity:1" d="M 38.859 32.825 L 39.589 30.965" transform="matrix(0.981519, 0.191364, -0.191364, 0.981519, 6.82845, -6.916616)"/>
    <path id="path2074" style="fill:none;stroke:#010101;stroke-width:0.37900001;stroke-linecap:round;stroke-linejoin:round;stroke-miterlimit:10;stroke-dasharray:none;stroke-opacity:1" d="M 43.331 29.017 L 45.065 30.009" transform="matrix(0.981519, 0.191364, -0.191364, 0.981519, 6.464543, -7.91248)"/>
    <path id="path2078" style="fill:none;stroke:#010101;stroke-width:0.37900001;stroke-linecap:round;stroke-linejoin:round;stroke-miterlimit:10;stroke-dasharray:none;stroke-opacity:1" d="M 30.58 31.853 L 31.907 30.358" transform="matrix(0.981519, 0.191364, -0.191364, 0.981519, 6.52988, -5.404025)"/>
    <path id="path2082" style="fill:none;stroke:#010101;stroke-width:0.37900001;stroke-linecap:round;stroke-linejoin:round;stroke-miterlimit:10;stroke-dasharray:none;stroke-opacity:1" d="M 40.88 28.573 L 40.61 26.593" transform="matrix(0.981519, 0.191364, -0.191364, 0.981519, 6.031397, -7.287369)"/>
    <path id="path2086" style="fill:#fcf4ac;fill-opacity:1;fill-rule:nonzero;stroke:none" d="M 42.729 16.696 C 43.101 18.488 41.95 20.244 40.157 20.615 C 38.365 20.988 36.61 19.836 36.238 18.044 C 35.866 16.252 37.017 14.498 38.81 14.124 C 40.602 13.752 42.357 14.904 42.729 16.696" transform="matrix(0.981519, 0.191364, -0.191364, 0.981519, 4.053618, -7.234714)"/>
    <path id="path2090" style="fill:none;stroke:#010101;stroke-width:0.48500001;stroke-linecap:round;stroke-linejoin:round;stroke-miterlimit:10;stroke-dasharray:none;stroke-opacity:1" d="M 42.729 16.696 C 43.101 18.488 41.95 20.244 40.157 20.615 C 38.365 20.988 36.61 19.836 36.238 18.044 C 35.866 16.252 37.017 14.498 38.81 14.124 C 40.602 13.752 42.357 14.904 42.729 16.696 Z" transform="matrix(0.981519, 0.191364, -0.191364, 0.981519, 4.053618, -7.234714)"/>
  </g>
</svg>