<?xml version="1.0" encoding="utf-8"?>
<svg viewBox="0 0 64 64" xmlns="http://www.w3.org/2000/svg">
  <g transform="matrix(1, 0, 0, 1, 5.0855, 23.373171)">
    <path id="path1686" style="fill:#fcf4ac;fill-opacity:1;fill-rule:nonzero;stroke:none" d="M 35.628 36.006 L 43.591 32.679 L 46.059 14.228 L 36.627 16.258 Z"/>
    <path id="path1690" style="fill:#facbbf;fill-opacity:1;fill-rule:nonzero;stroke:none" d="M 26.335 37.334 C 26.335 37.334 31.906 37.276 36.258 35.728 L 38.45 18.501 L 23.647 18.501 Z"/>
    <path id="path1694" style="fill:#fcf4ac;fill-opacity:1;fill-rule:nonzero;stroke:none" d="M 15.434 35.586 L 14.936 17.451 L 25.184 17.903 L 26.462 36.964 C 26.462 36.964 18.175 36.702 15.434 35.586"/>
    <path id="path1698" style="fill:#facbbf;fill-opacity:1;fill-rule:nonzero;stroke:none" d="M 7.189 16.837 L 8.665 32.678 C 8.665 32.678 14.339 35.26 16.167 35.856 L 14.18 13.885 Z"/>
    <path id="path1702" style="fill:none;stroke:#010101;stroke-width:0.73799998;stroke-linecap:butt;stroke-linejoin:miter;stroke-miterlimit:10;stroke-dasharray:none;stroke-opacity:1" d="M 7.189 17.451 L 8.665 32.678 C 8.665 32.678 24.16 43.154 43.591 32.678 L 45.312 17.451 Z"/>
    <path id="path1706" style="fill:#92a2cc;fill-opacity:1;fill-rule:nonzero;stroke:none" d="M 7.189 3.678 C 7.189 3.678 2.679 -0.715 6.329 -5.177 C 8.543 -7.882 13.339 -5.914 13.339 -5.914 C 13.339 -5.914 9.403 -11.818 18.749 -13.047 C 28.096 -14.277 28.096 -17.966 28.096 -20.671 C 28.096 -20.671 30.801 -15.506 36.459 -12.309 C 42.115 -9.111 38.795 -5.791 38.795 -5.791 C 38.795 -5.791 49.74 -7.635 48.264 3.678 C 48.264 3.678 55.74 7.394 52.86 15.735 C 51.555 19.518 44.821 22.371 40.885 19.665 C 40.885 19.665 41.847 24.879 34.613 25.937 C 27.235 27.017 25.636 21.633 25.636 21.633 C 25.636 21.633 23.176 27.195 16.044 26.211 C 8.911 25.229 9.649 19.174 9.649 19.174 C 9.649 19.174 1.04 23.109 -0.436 13.762 C -1.911 4.415 7.189 3.678 7.189 3.678"/>
    <path id="path1710" style="fill:none;stroke:#010101;stroke-width:0.73799998;stroke-linecap:round;stroke-linejoin:round;stroke-miterlimit:10;stroke-dasharray:none;stroke-opacity:1" d="M 7.189 3.678 C 7.189 3.678 2.679 -0.715 6.329 -5.177 C 8.543 -7.882 13.339 -5.914 13.339 -5.914 C 13.339 -5.914 9.403 -11.818 18.749 -13.047 C 28.096 -14.277 28.096 -17.966 28.096 -20.671 C 28.096 -20.671 30.801 -15.506 36.459 -12.309 C 42.115 -9.111 38.795 -5.791 38.795 -5.791 C 38.795 -5.791 49.74 -7.635 48.264 3.678 C 48.264 3.678 55.74 7.394 52.86 15.735 C 51.555 19.518 44.821 22.371 40.885 19.665 C 40.885 19.665 41.847 24.879 34.613 25.937 C 27.235 27.017 25.636 21.633 25.636 21.633 C 25.636 21.633 23.176 27.195 16.044 26.211 C 8.911 25.229 9.649 19.174 9.649 19.174 C 9.649 19.174 1.04 23.109 -0.436 13.762 C -1.911 4.415 7.189 3.678 7.189 3.678 Z"/>
    <path id="path1714" style="fill:none;stroke:#010101;stroke-width:0.57700002;stroke-linecap:round;stroke-linejoin:round;stroke-miterlimit:10;stroke-dasharray:none;stroke-opacity:1" d="M 19.877 -2.987 L 22.632 -4.268"/>
    <path id="path1718" style="fill:none;stroke:#010101;stroke-width:0.57700002;stroke-linecap:round;stroke-linejoin:round;stroke-miterlimit:10;stroke-dasharray:none;stroke-opacity:1" d="M 27.236 -0.92 L 27.446 -3.952"/>
    <path id="path1722" style="fill:none;stroke:#010101;stroke-width:0.57700002;stroke-linecap:round;stroke-linejoin:round;stroke-miterlimit:10;stroke-dasharray:none;stroke-opacity:1" d="M 15.697 -1.119 L 14.177 -3.751"/>
    <path id="path1726" style="fill:none;stroke:#010101;stroke-width:0.57700002;stroke-linecap:round;stroke-linejoin:round;stroke-miterlimit:10;stroke-dasharray:none;stroke-opacity:1" d="M 10.628 -0.843 L 9.108 -3.475"/>
    <path id="path1730" style="fill:none;stroke:#010101;stroke-width:0.57700002;stroke-linecap:round;stroke-linejoin:round;stroke-miterlimit:10;stroke-dasharray:none;stroke-opacity:1" d="M 24.945 5.754 L 23.425 3.122"/>
    <path id="path1734" style="fill:none;stroke:#010101;stroke-width:0.57700002;stroke-linecap:round;stroke-linejoin:round;stroke-miterlimit:10;stroke-dasharray:none;stroke-opacity:1" d="M 22.014 10.27 L 20.494 7.638"/>
    <path id="path1738" style="fill:none;stroke:#010101;stroke-width:0.57700002;stroke-linecap:round;stroke-linejoin:round;stroke-miterlimit:10;stroke-dasharray:none;stroke-opacity:1" d="M 16.156 3.999 L 18.095 1.658"/>
    <path id="path1742" style="fill:none;stroke:#010101;stroke-width:0.57700002;stroke-linecap:round;stroke-linejoin:round;stroke-miterlimit:10;stroke-dasharray:none;stroke-opacity:1" d="M 31.049 0.084 L 33.957 0.968"/>
    <path id="path1746" style="fill:none;stroke:#010101;stroke-width:0.57700002;stroke-linecap:round;stroke-linejoin:round;stroke-miterlimit:10;stroke-dasharray:none;stroke-opacity:1" d="M 14.304 7.573 L 15.569 10.335"/>
    <path id="path1750" style="fill:none;stroke:#010101;stroke-width:0.57700002;stroke-linecap:round;stroke-linejoin:round;stroke-miterlimit:10;stroke-dasharray:none;stroke-opacity:1" d="M 43.339 0.084 L 46.247 0.968"/>
    <path id="path1754" style="fill:none;stroke:#010101;stroke-width:0.57700002;stroke-linecap:round;stroke-linejoin:round;stroke-miterlimit:10;stroke-dasharray:none;stroke-opacity:1" d="M 31.661 10.313 L 33.345 12.842"/>
    <path id="path1758" style="fill:none;stroke:#010101;stroke-width:0.57700002;stroke-linecap:round;stroke-linejoin:round;stroke-miterlimit:10;stroke-dasharray:none;stroke-opacity:1" d="M 21.971 -8.575 L 24.879 -7.691"/>
    <path id="path1762" style="fill:none;stroke:#010101;stroke-width:0.57700002;stroke-linecap:round;stroke-linejoin:round;stroke-miterlimit:10;stroke-dasharray:none;stroke-opacity:1" d="M 13.568 -10.262 L 16.306 -8.941"/>
    <path id="path1766" style="fill:none;stroke:#010101;stroke-width:0.57700002;stroke-linecap:round;stroke-linejoin:round;stroke-miterlimit:10;stroke-dasharray:none;stroke-opacity:1" d="M 7.189 8.512 L 10.097 9.396"/>
    <path id="path1770" style="fill:none;stroke:#010101;stroke-width:0.57700002;stroke-linecap:round;stroke-linejoin:round;stroke-miterlimit:10;stroke-dasharray:none;stroke-opacity:1" d="M 29.219 -9.383 L 32.127 -8.499"/>
    <path id="path1774" style="fill:none;stroke:#010101;stroke-width:0.57700002;stroke-linecap:round;stroke-linejoin:round;stroke-miterlimit:10;stroke-dasharray:none;stroke-opacity:1" d="M 28.049 -13.956 L 26.224 -11.527"/>
    <path id="path1778" style="fill:none;stroke:#010101;stroke-width:0.57700002;stroke-linecap:round;stroke-linejoin:round;stroke-miterlimit:10;stroke-dasharray:none;stroke-opacity:1" d="M 32.829 -3.874 L 34.977 -6.023"/>
    <path id="path1782" style="fill:none;stroke:#010101;stroke-width:0.57700002;stroke-linecap:round;stroke-linejoin:round;stroke-miterlimit:10;stroke-dasharray:none;stroke-opacity:1" d="M 36.298 -2.136 L 38.369 0.088"/>
    <path id="path1786" style="fill:none;stroke:#010101;stroke-width:0.57700002;stroke-linecap:round;stroke-linejoin:round;stroke-miterlimit:10;stroke-dasharray:none;stroke-opacity:1" d="M 29.179 6.14 L 31.618 4.326"/>
    <path id="path1790" style="fill:none;stroke:#010101;stroke-width:0.57700002;stroke-linecap:round;stroke-linejoin:round;stroke-miterlimit:10;stroke-dasharray:none;stroke-opacity:1" d="M 33.904 7.457 L 36.342 5.642"/>
    <path id="path1794" style="fill:none;stroke:#010101;stroke-width:0.57700002;stroke-linecap:round;stroke-linejoin:round;stroke-miterlimit:10;stroke-dasharray:none;stroke-opacity:1" d="M 37.618 13.756 L 39.282 11.214"/>
    <path id="path1798" style="fill:none;stroke:#010101;stroke-width:0.57700002;stroke-linecap:round;stroke-linejoin:round;stroke-miterlimit:10;stroke-dasharray:none;stroke-opacity:1" d="M 44.921 7.947 L 47.197 9.962"/>
    <path id="path1802" style="fill:none;stroke:#010101;stroke-width:0.57700002;stroke-linecap:round;stroke-linejoin:round;stroke-miterlimit:10;stroke-dasharray:none;stroke-opacity:1" d="M 25.109 12.043 L 27.547 10.229"/>
    <path id="path1806" style="fill:none;stroke:#010101;stroke-width:0.57700002;stroke-linecap:round;stroke-linejoin:round;stroke-miterlimit:10;stroke-dasharray:none;stroke-opacity:1" d="M 40.739 7.47 L 40.948 4.438"/>
    <path id="path1810" style="fill:#fcf4ac;fill-opacity:1;fill-rule:nonzero;stroke:none" d="M 44.156 -9.601 C 44.156 -6.817 41.898 -4.56 39.114 -4.56 C 36.329 -4.56 34.073 -6.817 34.073 -9.601 C 34.073 -12.385 36.329 -14.643 39.114 -14.643 C 41.898 -14.643 44.156 -12.385 44.156 -9.601"/>
    <path id="path1814" style="fill:none;stroke:#010101;stroke-width:0.73799998;stroke-linecap:round;stroke-linejoin:round;stroke-miterlimit:10;stroke-dasharray:none;stroke-opacity:1" d="M 44.156 -9.601 C 44.156 -6.817 41.898 -4.56 39.114 -4.56 C 36.329 -4.56 34.073 -6.817 34.073 -9.601 C 34.073 -12.385 36.329 -14.643 39.114 -14.643 C 41.898 -14.643 44.156 -12.385 44.156 -9.601 Z"/>
  </g>
</svg>