<?xml version="1.0" encoding="utf-8"?>
<svg viewBox="0 0 64 64" xmlns="http://www.w3.org/2000/svg">
  <g transform="matrix(0.979068, 0, 0, 0.979068, 5.156404, 5.265706)">
    <path id="path194" style="fill:#d0e8dd;fill-opacity:1;fill-rule:nonzero;stroke:none" d="M 36.132 54.535 L 44.094 51.208 L 46.561 32.756 L 37.129 34.787 Z"/>
    <path id="path198" style="fill:#92a2cc;fill-opacity:1;fill-rule:nonzero;stroke:none" d="M 26.839 55.863 C 26.839 55.863 32.409 55.806 36.76 54.257 L 38.953 37.03 L 24.151 37.03 Z"/>
    <path id="path202" style="fill:#d0e8dd;fill-opacity:1;fill-rule:nonzero;stroke:none" d="M 15.936 54.115 L 15.439 35.981 L 25.687 36.432 L 26.964 55.493 C 26.964 55.493 18.678 55.231 15.936 54.115"/>
    <path id="path206" style="fill:#92a2cc;fill-opacity:1;fill-rule:nonzero;stroke:none" d="M 7.692 35.366 L 9.168 51.207 C 9.168 51.207 14.842 53.79 16.67 54.385 L 14.683 32.415 Z"/>
    <path id="path210" style="fill:none;stroke:#010101;stroke-width:0.73799998;stroke-linecap:butt;stroke-linejoin:miter;stroke-miterlimit:10;stroke-dasharray:none;stroke-opacity:1" d="M 7.692 35.981 L 9.168 51.208 C 9.168 51.208 24.663 61.684 44.094 51.208 L 45.815 35.981 Z"/>
    <path id="path214" style="fill:#fad9e7;fill-opacity:1;fill-rule:nonzero;stroke:none" d="M 7.692 22.207 C 7.692 22.207 3.182 17.814 6.831 13.352 C 9.046 10.647 13.842 12.615 13.842 12.615 C 13.842 12.615 9.906 6.712 19.252 5.483 C 28.599 4.252 28.599 0.563 28.599 -2.142 C 28.599 -2.142 31.303 3.023 36.962 6.22 C 42.619 9.418 39.298 12.738 39.298 12.738 C 39.298 12.738 50.243 10.894 48.767 22.207 C 48.767 22.207 56.243 25.923 53.363 34.264 C 52.058 38.047 45.323 40.9 41.388 38.195 C 41.388 38.195 42.35 43.408 35.116 44.466 C 27.738 45.546 26.139 40.162 26.139 40.162 C 26.139 40.162 23.679 45.724 16.547 44.74 C 9.414 43.758 10.152 37.703 10.152 37.703 C 10.152 37.703 1.543 41.638 0.067 32.291 C -1.408 22.946 7.692 22.207 7.692 22.207"/>
    <path id="path218" style="fill:none;stroke:#010101;stroke-width:0.73799998;stroke-linecap:round;stroke-linejoin:round;stroke-miterlimit:10;stroke-dasharray:none;stroke-opacity:1" d="M 7.692 22.207 C 7.692 22.207 3.182 17.814 6.831 13.352 C 9.046 10.647 13.842 12.615 13.842 12.615 C 13.842 12.615 9.906 6.712 19.252 5.483 C 28.599 4.252 28.599 0.563 28.599 -2.142 C 28.599 -2.142 31.303 3.023 36.962 6.22 C 42.619 9.418 39.298 12.738 39.298 12.738 C 39.298 12.738 50.243 10.894 48.767 22.207 C 48.767 22.207 56.243 25.923 53.363 34.264 C 52.058 38.047 45.323 40.9 41.388 38.195 C 41.388 38.195 42.35 43.408 35.116 44.466 C 27.738 45.546 26.139 40.162 26.139 40.162 C 26.139 40.162 23.679 45.724 16.547 44.74 C 9.414 43.758 10.152 37.703 10.152 37.703 C 10.152 37.703 1.543 41.638 0.067 32.291 C -1.408 22.946 7.692 22.207 7.692 22.207 Z"/>
    <path id="path222" style="fill:none;stroke:#010101;stroke-width:0.57700002;stroke-linecap:round;stroke-linejoin:round;stroke-miterlimit:10;stroke-dasharray:none;stroke-opacity:1" d="M 20.38 15.542 L 23.134 14.261"/>
    <path id="path226" style="fill:none;stroke:#010101;stroke-width:0.57700002;stroke-linecap:round;stroke-linejoin:round;stroke-miterlimit:10;stroke-dasharray:none;stroke-opacity:1" d="M 27.74 17.61 L 27.948 14.578"/>
    <path id="path230" style="fill:none;stroke:#010101;stroke-width:0.57700002;stroke-linecap:round;stroke-linejoin:round;stroke-miterlimit:10;stroke-dasharray:none;stroke-opacity:1" d="M 16.199 17.41 L 14.679 14.778"/>
    <path id="path234" style="fill:none;stroke:#010101;stroke-width:0.57700002;stroke-linecap:round;stroke-linejoin:round;stroke-miterlimit:10;stroke-dasharray:none;stroke-opacity:1" d="M 11.131 17.686 L 9.611 15.054"/>
    <path id="path238" style="fill:none;stroke:#010101;stroke-width:0.57700002;stroke-linecap:round;stroke-linejoin:round;stroke-miterlimit:10;stroke-dasharray:none;stroke-opacity:1" d="M 25.448 24.283 L 23.929 21.651"/>
    <path id="path242" style="fill:none;stroke:#010101;stroke-width:0.57700002;stroke-linecap:round;stroke-linejoin:round;stroke-miterlimit:10;stroke-dasharray:none;stroke-opacity:1" d="M 22.517 28.799 L 20.997 26.167"/>
    <path id="path246" style="fill:none;stroke:#010101;stroke-width:0.57700002;stroke-linecap:round;stroke-linejoin:round;stroke-miterlimit:10;stroke-dasharray:none;stroke-opacity:1" d="M 16.659 22.528 L 18.598 20.188"/>
    <path id="path250" style="fill:none;stroke:#010101;stroke-width:0.57700002;stroke-linecap:round;stroke-linejoin:round;stroke-miterlimit:10;stroke-dasharray:none;stroke-opacity:1" d="M 31.552 18.613 L 34.46 19.497"/>
    <path id="path254" style="fill:none;stroke:#010101;stroke-width:0.57700002;stroke-linecap:round;stroke-linejoin:round;stroke-miterlimit:10;stroke-dasharray:none;stroke-opacity:1" d="M 14.807 26.102 L 16.073 28.864"/>
    <path id="path258" style="fill:none;stroke:#010101;stroke-width:0.57700002;stroke-linecap:round;stroke-linejoin:round;stroke-miterlimit:10;stroke-dasharray:none;stroke-opacity:1" d="M 43.841 18.613 L 46.749 19.497"/>
    <path id="path262" style="fill:none;stroke:#010101;stroke-width:0.57700002;stroke-linecap:round;stroke-linejoin:round;stroke-miterlimit:10;stroke-dasharray:none;stroke-opacity:1" d="M 32.163 28.842 L 33.848 31.371"/>
    <path id="path266" style="fill:none;stroke:#010101;stroke-width:0.57700002;stroke-linecap:round;stroke-linejoin:round;stroke-miterlimit:10;stroke-dasharray:none;stroke-opacity:1" d="M 22.474 9.955 L 25.382 10.839"/>
    <path id="path270" style="fill:none;stroke:#010101;stroke-width:0.57700002;stroke-linecap:round;stroke-linejoin:round;stroke-miterlimit:10;stroke-dasharray:none;stroke-opacity:1" d="M 14.072 8.267 L 16.808 9.588"/>
    <path id="path274" style="fill:none;stroke:#010101;stroke-width:0.57700002;stroke-linecap:round;stroke-linejoin:round;stroke-miterlimit:10;stroke-dasharray:none;stroke-opacity:1" d="M 7.692 27.041 L 10.6 27.925"/>
    <path id="path278" style="fill:none;stroke:#010101;stroke-width:0.57700002;stroke-linecap:round;stroke-linejoin:round;stroke-miterlimit:10;stroke-dasharray:none;stroke-opacity:1" d="M 29.722 9.146 L 32.63 10.03"/>
    <path id="path282" style="fill:none;stroke:#010101;stroke-width:0.57700002;stroke-linecap:round;stroke-linejoin:round;stroke-miterlimit:10;stroke-dasharray:none;stroke-opacity:1" d="M 28.552 4.573 L 26.727 7.002"/>
    <path id="path286" style="fill:none;stroke:#010101;stroke-width:0.57700002;stroke-linecap:round;stroke-linejoin:round;stroke-miterlimit:10;stroke-dasharray:none;stroke-opacity:1" d="M 33.332 14.655 L 35.48 12.506"/>
    <path id="path290" style="fill:none;stroke:#010101;stroke-width:0.57700002;stroke-linecap:round;stroke-linejoin:round;stroke-miterlimit:10;stroke-dasharray:none;stroke-opacity:1" d="M 36.801 16.394 L 38.872 18.618"/>
    <path id="path294" style="fill:none;stroke:#010101;stroke-width:0.57700002;stroke-linecap:round;stroke-linejoin:round;stroke-miterlimit:10;stroke-dasharray:none;stroke-opacity:1" d="M 29.683 24.67 L 32.12 22.855"/>
    <path id="path298" style="fill:none;stroke:#010101;stroke-width:0.57700002;stroke-linecap:round;stroke-linejoin:round;stroke-miterlimit:10;stroke-dasharray:none;stroke-opacity:1" d="M 34.407 25.986 L 36.844 24.171"/>
    <path id="path302" style="fill:none;stroke:#010101;stroke-width:0.57700002;stroke-linecap:round;stroke-linejoin:round;stroke-miterlimit:10;stroke-dasharray:none;stroke-opacity:1" d="M 38.121 32.285 L 39.785 29.743"/>
    <path id="path306" style="fill:none;stroke:#010101;stroke-width:0.57700002;stroke-linecap:round;stroke-linejoin:round;stroke-miterlimit:10;stroke-dasharray:none;stroke-opacity:1" d="M 45.423 26.476 L 47.699 28.491"/>
    <path id="path310" style="fill:none;stroke:#010101;stroke-width:0.57700002;stroke-linecap:round;stroke-linejoin:round;stroke-miterlimit:10;stroke-dasharray:none;stroke-opacity:1" d="M 25.612 30.572 L 28.05 28.758"/>
    <path id="path314" style="fill:none;stroke:#010101;stroke-width:0.57700002;stroke-linecap:round;stroke-linejoin:round;stroke-miterlimit:10;stroke-dasharray:none;stroke-opacity:1" d="M 41.242 26 L 41.45 22.968"/>
    <path id="path318" style="fill:#fcf4ac;fill-opacity:1;fill-rule:nonzero;stroke:none" d="M 44.659 8.928 C 44.659 11.712 42.402 13.969 39.618 13.969 C 36.832 13.969 34.576 11.712 34.576 8.928 C 34.576 6.144 36.832 3.886 39.618 3.886 C 42.402 3.886 44.659 6.144 44.659 8.928"/>
    <path id="path322" style="fill:none;stroke:#010101;stroke-width:0.73799998;stroke-linecap:round;stroke-linejoin:round;stroke-miterlimit:10;stroke-dasharray:none;stroke-opacity:1" d="M 44.659 8.928 C 44.659 11.712 42.402 13.969 39.618 13.969 C 36.832 13.969 34.576 11.712 34.576 8.928 C 34.576 6.144 36.832 3.886 39.618 3.886 C 42.402 3.886 44.659 6.144 44.659 8.928 Z"/>
  </g>
</svg>