<?xml version="1.0" encoding="utf-8"?>
<svg viewBox="0 0 64 64" xmlns="http://www.w3.org/2000/svg">
  <g transform="matrix(1.373557, 0, 0, 1.373557, -11.115952, -6.053022)">
    <path id="path114" style="fill:#ffe9b1;fill-opacity:1;fill-rule:nonzero;stroke:none" d="M 52.461 27.704 C 52.461 39.647 42.885 49.329 31.071 49.329 C 19.259 49.329 9.683 39.647 9.683 27.704 C 9.683 15.76 19.259 6.078 31.071 6.078 C 42.885 6.078 52.461 15.76 52.461 27.704"/>
    <path id="path118" style="fill:#ffffff;fill-opacity:1;fill-rule:nonzero;stroke:none" d="M 31.072 6.446 C 19.48 6.446 10.05 15.982 10.05 27.704 C 10.05 39.425 19.48 48.963 31.072 48.963 C 42.663 48.963 52.093 39.425 52.093 27.704 C 52.093 15.982 42.663 6.446 31.072 6.446 M 31.072 49.697 C 19.075 49.697 9.315 39.831 9.315 27.704 C 9.315 15.577 19.075 5.711 31.072 5.711 C 43.068 5.711 52.828 15.577 52.828 27.704 C 52.828 39.831 43.068 49.697 31.072 49.697"/>
    <path id="path122" style="fill:#92a2cc;fill-opacity:1;fill-rule:nonzero;stroke:none" d="M 12.042 23.943 C 13.181 22.603 13.622 20.796 13.35 19.051 C 13.175 17.932 13.337 16.587 14.433 15.294 C 17.007 12.258 18.58 14.86 20.438 12.981 C 22.297 11.102 22.011 7.343 25.657 7.705 C 29.303 8.066 28.933 10.09 31.906 9.078 C 34.879 8.066 37.452 6.621 39.882 9.512 C 42.313 12.402 44.314 14.474 47.031 14.667 C 49.747 14.86 49.461 18.185 48.318 21.654 C 47.174 25.123 53.465 22.857 52.321 27.532 C 51.177 32.206 48.747 31.484 47.889 33.941 C 47.031 36.398 50.748 37.411 48.89 39.579 C 47.031 41.747 44.886 40.446 42.599 41.747 C 40.312 43.048 42.67 47.023 39.167 47.385 C 35.664 47.746 34.366 46.084 31.906 46.084 C 29.446 46.084 29.303 48.211 25.585 47.436 C 21.868 46.662 22.558 44.375 20.484 42.279 C 18.412 40.183 12.718 44.499 13.29 36.69 C 13.862 28.882 12.575 32.351 11.288 29.605 C 10.323 27.544 10.283 26.013 12.042 23.943"/>
    <path id="path126" style="fill:#ffffff;fill-opacity:1;fill-rule:nonzero;stroke:none" d="M 18.257 41.192 C 19.212 41.192 20.129 41.313 20.788 41.979 C 21.573 42.773 21.987 43.596 22.352 44.322 C 22.983 45.573 23.481 46.562 25.673 47.018 C 27.704 47.445 28.54 46.957 29.425 46.444 C 30.091 46.058 30.78 45.657 31.906 45.657 C 33.025 45.657 33.894 45.97 34.814 46.3 C 35.99 46.723 37.203 47.161 39.124 46.96 C 40.659 46.802 40.815 45.948 40.958 44.451 C 41.065 43.331 41.186 42.06 42.388 41.377 C 43.443 40.777 44.479 40.687 45.394 40.608 C 46.584 40.504 47.612 40.415 48.566 39.302 C 49.307 38.438 49.002 37.929 48.3 36.952 C 47.727 36.152 47.013 35.158 47.486 33.8 C 47.877 32.68 48.584 32.133 49.267 31.604 C 50.249 30.842 51.265 30.055 51.908 27.431 C 52.425 25.313 51.32 24.934 49.92 24.454 C 48.793 24.067 47.248 23.538 47.913 21.52 C 48.82 18.77 48.965 16.73 48.325 15.774 C 48.046 15.359 47.613 15.136 47.001 15.092 C 44.062 14.884 41.977 12.665 39.557 9.786 C 37.606 7.466 35.616 8.189 33.096 9.107 C 32.75 9.232 32.399 9.36 32.043 9.482 C 30.212 10.106 29.452 9.653 28.575 9.131 C 27.906 8.733 27.148 8.281 25.614 8.129 C 23.508 7.925 22.945 9.199 22.221 10.816 C 21.832 11.686 21.43 12.585 20.742 13.281 C 19.785 14.247 18.839 14.192 18.01 14.146 C 17.009 14.086 16.059 14.035 14.76 15.569 C 13.907 16.575 13.574 17.724 13.771 18.985 C 14.071 20.908 13.559 22.816 12.367 24.22 L 12.367 24.219 C 10.67 26.216 10.815 27.589 11.674 29.423 C 12.046 30.216 12.384 30.387 12.711 30.553 C 13.684 31.045 14.099 31.483 13.715 36.721 C 13.573 38.665 13.812 39.929 14.445 40.588 C 15.126 41.294 16.247 41.254 17.431 41.211 C 17.706 41.202 17.983 41.192 18.257 41.192 M 27.071 48.032 C 26.618 48.032 26.1 47.979 25.499 47.853 C 22.904 47.313 22.266 46.047 21.591 44.706 C 21.238 44.003 20.872 43.277 20.181 42.578 C 19.595 41.986 18.556 42.025 17.462 42.064 C 16.2 42.107 14.776 42.161 13.832 41.179 C 13.02 40.336 12.703 38.858 12.865 36.659 C 13.223 31.767 12.847 31.577 12.327 31.314 C 11.935 31.116 11.398 30.845 10.903 29.785 C 9.941 27.732 9.741 25.993 11.718 23.668 L 11.718 23.667 C 12.75 22.453 13.19 20.794 12.928 19.116 C 12.692 17.6 13.089 16.221 14.108 15.018 C 15.684 13.16 17.001 13.235 18.058 13.294 C 18.838 13.339 19.45 13.374 20.135 12.681 C 20.715 12.095 21.085 11.268 21.443 10.467 C 22.168 8.848 22.98 7.016 25.699 7.28 C 27.421 7.451 28.303 7.976 29.012 8.399 C 29.821 8.88 30.31 9.169 31.768 8.674 C 32.119 8.555 32.464 8.43 32.804 8.306 C 35.411 7.357 37.876 6.461 40.209 9.237 C 42.498 11.96 44.456 14.057 47.061 14.242 C 47.941 14.305 48.604 14.66 49.033 15.299 C 49.847 16.512 49.743 18.695 48.723 21.787 C 48.338 22.956 48.896 23.202 50.197 23.647 C 51.564 24.116 53.438 24.759 52.735 27.633 C 52.022 30.547 50.784 31.507 49.789 32.277 C 49.125 32.792 48.599 33.2 48.291 34.081 C 47.964 35.02 48.441 35.684 48.993 36.455 C 49.629 37.342 50.421 38.446 49.213 39.856 C 48.033 41.234 46.729 41.347 45.468 41.457 C 44.6 41.532 43.703 41.61 42.81 42.118 C 41.993 42.583 41.906 43.486 41.807 44.532 C 41.678 45.886 41.516 47.572 39.212 47.809 C 37.105 48.028 35.734 47.536 34.526 47.102 C 33.678 46.798 32.876 46.51 31.906 46.51 C 31.009 46.51 30.473 46.821 29.851 47.182 C 29.153 47.586 28.385 48.032 27.071 48.032"/>
    <path id="path130" style="fill:#aed6e8;fill-opacity:1;fill-rule:nonzero;stroke:none" d="M 37.445 26.923 C 37.871 30.482 35.363 33.716 31.844 34.147 C 28.324 34.578 25.125 32.043 24.699 28.484 C 24.272 24.925 26.78 21.691 30.3 21.26 C 33.819 20.829 37.018 23.364 37.445 26.923"/>
    <path id="path134" style="fill:#ffffff;fill-opacity:1;fill-rule:nonzero;stroke:none" d="M 31.083 21.579 C 30.838 21.579 30.591 21.594 30.345 21.624 C 27.031 22.03 24.662 25.088 25.063 28.441 C 25.26 30.077 26.077 31.535 27.365 32.545 C 28.632 33.538 30.206 33.977 31.799 33.783 C 35.112 33.377 37.481 30.32 37.08 26.967 C 36.884 25.331 36.066 23.873 34.778 22.863 C 33.708 22.024 32.417 21.579 31.083 21.579 M 31.059 34.563 C 29.561 34.563 28.114 34.065 26.912 33.123 C 25.469 31.991 24.554 30.36 24.334 28.527 C 23.884 24.774 26.54 21.35 30.256 20.896 C 32.042 20.676 33.81 21.169 35.231 22.285 C 36.675 23.416 37.59 25.048 37.809 26.88 C 38.258 30.633 35.602 34.057 31.888 34.512 C 31.611 34.545 31.335 34.563 31.059 34.563"/>
    <path id="path138" style="fill:#ffe9b1;fill-opacity:1;fill-rule:nonzero;stroke:none" d="M 41.762 23.88 C 41.667 23.88 41.572 23.843 41.5 23.77 L 38.914 21.155 C 38.772 21.011 38.774 20.779 38.917 20.636 C 39.06 20.493 39.294 20.494 39.436 20.639 L 42.022 23.254 C 42.165 23.398 42.164 23.631 42.019 23.773 C 41.949 23.844 41.855 23.88 41.762 23.88"/>
    <path id="path142" style="fill:#ffffff;fill-opacity:1;fill-rule:nonzero;stroke:none" d="M 43.609 30.977 C 43.406 30.977 43.242 30.812 43.242 30.61 L 43.242 27.746 C 43.242 27.544 43.406 27.379 43.609 27.379 C 43.812 27.379 43.976 27.544 43.976 27.746 L 43.976 30.61 C 43.976 30.812 43.812 30.977 43.609 30.977"/>
    <path id="path146" style="fill:#7788b5;fill-opacity:1;fill-rule:nonzero;stroke:none" d="M 41.023 35.336 L 37.451 35.336 C 37.248 35.336 37.083 35.171 37.083 34.968 C 37.083 34.766 37.248 34.601 37.451 34.601 L 41.023 34.601 C 41.225 34.601 41.39 34.766 41.39 34.968 C 41.39 35.171 41.225 35.336 41.023 35.336"/>
    <path id="path150" style="fill:#ffffff;fill-opacity:1;fill-rule:nonzero;stroke:none" d="M 33.509 40.192 C 33.366 40.192 33.228 40.107 33.169 39.965 C 33.093 39.777 33.182 39.562 33.37 39.485 L 37.311 37.866 C 37.499 37.79 37.713 37.878 37.791 38.066 C 37.868 38.254 37.778 38.469 37.59 38.546 L 33.65 40.165 C 33.604 40.183 33.556 40.192 33.509 40.192"/>
    <path id="path154" style="fill:#efdb00;fill-opacity:1;fill-rule:nonzero;stroke:none" d="M 27.474 40.192 C 27.382 40.192 27.287 40.156 27.217 40.086 C 27.072 39.943 27.071 39.711 27.214 39.567 L 29.751 37.002 C 29.893 36.856 30.126 36.856 30.27 36.998 C 30.414 37.141 30.415 37.373 30.273 37.517 L 27.735 40.083 C 27.664 40.156 27.569 40.192 27.474 40.192"/>
    <path id="path158" style="fill:#84cac2;fill-opacity:1;fill-rule:nonzero;stroke:none" d="M 23.411 38.91 C 23.208 38.91 23.043 38.745 23.043 38.542 L 23.043 34.968 C 23.043 34.766 23.208 34.601 23.411 34.601 C 23.613 34.601 23.778 34.766 23.778 34.968 L 23.778 38.542 C 23.778 38.745 23.613 38.91 23.411 38.91"/>
    <path id="path162" style="fill:#41bfe7;fill-opacity:1;fill-rule:nonzero;stroke:none" d="M 20.208 33.717 C 20.113 33.717 20.018 33.681 19.946 33.608 L 17.175 30.806 C 17.033 30.661 17.034 30.429 17.178 30.287 C 17.322 30.144 17.556 30.145 17.697 30.29 L 20.468 33.092 C 20.611 33.236 20.61 33.468 20.465 33.611 C 20.395 33.681 20.301 33.717 20.208 33.717"/>
    <path id="path166" style="fill:#ffffff;fill-opacity:1;fill-rule:nonzero;stroke:none" d="M 21.07 27.241 L 17.867 27.241 C 17.665 27.241 17.5 27.076 17.5 26.874 C 17.5 26.671 17.665 26.506 17.867 26.506 L 21.07 26.506 C 21.273 26.506 21.437 26.671 21.437 26.874 C 21.437 27.076 21.273 27.241 21.07 27.241"/>
    <path id="path170" style="fill:#84cac2;fill-opacity:1;fill-rule:nonzero;stroke:none" d="M 20.208 23.132 C 20.113 23.132 20.018 23.096 19.946 23.023 L 17.607 20.657 C 17.464 20.512 17.465 20.281 17.609 20.138 C 17.752 19.995 17.986 19.996 18.128 20.141 L 20.468 22.507 C 20.611 22.651 20.61 22.883 20.465 23.026 C 20.395 23.097 20.301 23.132 20.208 23.132"/>
    <path id="path174" style="fill:#7788b5;fill-opacity:1;fill-rule:nonzero;stroke:none" d="M 22.548 21.264 C 22.497 21.264 22.445 21.254 22.395 21.231 C 22.211 21.147 22.13 20.929 22.214 20.745 L 23.692 17.506 C 23.776 17.322 23.994 17.241 24.178 17.324 C 24.363 17.409 24.445 17.627 24.36 17.811 L 22.882 21.049 C 22.821 21.184 22.687 21.264 22.548 21.264"/>
    <path id="path178" style="fill:#ffe9b1;fill-opacity:1;fill-rule:nonzero;stroke:none" d="M 27.474 18.026 C 27.271 18.026 27.107 17.861 27.107 17.658 L 27.107 13.799 C 27.107 13.596 27.271 13.431 27.474 13.431 C 27.677 13.431 27.841 13.596 27.841 13.799 L 27.841 17.658 C 27.841 17.861 27.677 18.026 27.474 18.026"/>
    <path id="path182" style="fill:#41bfe7;fill-opacity:1;fill-rule:nonzero;stroke:none" d="M 33.509 16.096 L 30.332 16.096 C 30.13 16.096 29.965 15.931 29.965 15.729 C 29.965 15.526 30.13 15.362 30.332 15.362 L 33.509 15.362 C 33.712 15.362 33.877 15.526 33.877 15.729 C 33.877 15.931 33.712 16.096 33.509 16.096"/>
    <path id="path186" style="fill:#efdb00;fill-opacity:1;fill-rule:nonzero;stroke:none" d="M 36.465 19.645 C 36.373 19.645 36.279 19.61 36.208 19.539 C 36.063 19.396 36.062 19.164 36.205 19.02 L 38.421 16.778 C 38.563 16.633 38.795 16.632 38.94 16.775 C 39.084 16.918 39.086 17.15 38.943 17.294 L 36.726 19.536 C 36.655 19.609 36.56 19.645 36.465 19.645"/>
  </g>
</svg>