<?xml version="1.0" encoding="utf-8"?>
<svg viewBox="0 0 64 64" xmlns="http://www.w3.org/2000/svg">
  <g transform="matrix(1.581538, 0, 0, 1.581538, -13.938943, -11.289078)">
    <path id="path38" style="fill:#ffe9b1;fill-opacity:1;fill-rule:nonzero;stroke:none" d="M 47.369 27.371 C 47.369 37.757 39.042 46.175 28.771 46.175 C 18.499 46.175 10.172 37.757 10.172 27.371 C 10.172 16.986 18.499 8.567 28.771 8.567 C 39.042 8.567 47.369 16.986 47.369 27.371"/>
    <path id="path42" style="fill:#ffffff;fill-opacity:1;fill-rule:nonzero;stroke:none" d="M 28.771 8.886 C 18.691 8.886 10.492 17.179 10.492 27.372 C 10.492 37.564 18.691 45.857 28.771 45.857 C 38.851 45.857 47.05 37.564 47.05 27.372 C 47.05 17.179 38.851 8.886 28.771 8.886 M 28.771 46.496 C 18.339 46.496 9.852 37.916 9.852 27.372 C 9.852 16.827 18.339 8.247 28.771 8.247 C 39.202 8.247 47.689 16.827 47.689 27.372 C 47.689 37.916 39.202 46.496 28.771 46.496"/>
    <path id="path46" style="fill:#f39eb1;fill-opacity:1;fill-rule:nonzero;stroke:none" d="M 12.224 24.101 C 13.214 22.936 13.598 21.365 13.361 19.847 C 13.209 18.875 13.35 17.705 14.303 16.581 C 16.541 13.941 17.909 16.204 19.525 14.569 C 21.141 12.935 20.892 9.667 24.062 9.981 C 27.232 10.296 26.911 12.055 29.496 11.175 C 32.081 10.296 34.319 9.039 36.432 11.553 C 38.545 14.066 40.286 15.868 42.648 16.036 C 45.01 16.204 44.761 19.094 43.767 22.111 C 42.772 25.127 48.242 23.157 47.248 27.222 C 46.253 31.287 44.14 30.658 43.394 32.795 C 42.648 34.932 45.88 35.812 44.264 37.697 C 42.648 39.583 40.783 38.451 38.794 39.583 C 36.805 40.714 38.856 44.17 35.811 44.485 C 32.765 44.799 31.635 43.354 29.496 43.354 C 27.357 43.354 27.232 45.203 24 44.53 C 20.768 43.857 21.367 41.868 19.564 40.045 C 17.762 38.223 12.811 41.975 13.309 35.186 C 13.806 28.396 12.687 31.412 11.568 29.024 C 10.729 27.233 10.694 25.902 12.224 24.101"/>
    <path id="path50" style="fill:#ffffff;fill-opacity:1;fill-rule:nonzero;stroke:none" d="M 17.628 39.1 C 18.458 39.1 19.256 39.205 19.828 39.784 C 20.512 40.475 20.872 41.19 21.189 41.822 C 21.737 42.91 22.17 43.77 24.076 44.167 C 25.843 44.537 26.569 44.113 27.338 43.667 C 27.918 43.331 28.517 42.983 29.496 42.983 C 30.469 42.983 31.225 43.254 32.025 43.542 C 33.048 43.909 34.101 44.291 35.773 44.116 C 37.107 43.979 37.243 43.236 37.368 41.934 C 37.46 40.96 37.566 39.855 38.611 39.261 C 39.528 38.739 40.43 38.661 41.225 38.592 C 42.259 38.502 43.152 38.424 43.982 37.456 C 44.627 36.706 44.361 36.263 43.752 35.413 C 43.253 34.718 42.632 33.853 43.043 32.673 C 43.384 31.699 43.998 31.223 44.592 30.762 C 45.446 30.101 46.33 29.416 46.889 27.134 C 47.339 25.292 46.377 24.963 45.16 24.546 C 44.18 24.209 42.837 23.749 43.415 21.994 C 44.204 19.603 44.33 17.829 43.773 16.998 C 43.53 16.637 43.155 16.443 42.622 16.405 C 40.067 16.224 38.253 14.294 36.149 11.791 C 34.453 9.774 32.722 10.402 30.531 11.201 C 30.23 11.309 29.925 11.42 29.615 11.526 C 28.022 12.069 27.363 11.675 26.6 11.222 C 26.019 10.875 25.359 10.483 24.025 10.35 C 22.194 10.173 21.704 11.281 21.075 12.687 C 20.736 13.443 20.387 14.225 19.788 14.83 C 18.957 15.67 18.134 15.622 17.413 15.583 C 16.542 15.53 15.717 15.486 14.586 16.82 C 13.845 17.695 13.556 18.694 13.727 19.79 C 13.988 21.462 13.543 23.121 12.506 24.342 L 12.506 24.341 C 11.031 26.078 11.156 27.271 11.903 28.867 C 12.227 29.556 12.52 29.705 12.805 29.849 C 13.652 30.277 14.012 30.658 13.678 35.212 C 13.555 36.903 13.762 38.003 14.313 38.575 C 14.905 39.189 15.88 39.154 16.91 39.117 C 17.149 39.109 17.39 39.1 17.628 39.1 M 25.292 45.048 C 24.899 45.048 24.448 45.001 23.924 44.893 C 21.669 44.423 21.114 43.321 20.527 42.155 C 20.22 41.545 19.902 40.913 19.301 40.305 C 18.792 39.79 17.887 39.824 16.937 39.858 C 15.839 39.896 14.601 39.942 13.779 39.089 C 13.074 38.356 12.799 37.071 12.939 35.158 C 13.251 30.905 12.924 30.739 12.471 30.511 C 12.131 30.338 11.664 30.103 11.232 29.181 C 10.396 27.396 10.222 25.884 11.941 23.862 L 11.941 23.861 C 12.838 22.805 13.222 21.363 12.994 19.904 C 12.789 18.586 13.134 17.387 14.021 16.34 C 15.39 14.725 16.536 14.79 17.455 14.842 C 18.133 14.881 18.665 14.911 19.261 14.309 C 19.765 13.799 20.087 13.08 20.398 12.383 C 21.028 10.975 21.735 9.382 24.099 9.612 C 25.596 9.761 26.363 10.217 26.979 10.585 C 27.684 11.003 28.109 11.255 29.376 10.824 C 29.682 10.721 29.981 10.612 30.278 10.504 C 32.545 9.679 34.688 8.9 36.716 11.314 C 38.706 13.681 40.409 15.505 42.675 15.666 C 43.439 15.72 44.016 16.029 44.389 16.585 C 45.096 17.64 45.006 19.538 44.119 22.227 C 43.784 23.243 44.27 23.456 45.401 23.844 C 46.59 24.253 48.219 24.811 47.608 27.31 C 46.988 29.844 45.911 30.678 45.046 31.349 C 44.468 31.796 44.012 32.15 43.743 32.917 C 43.459 33.733 43.874 34.311 44.354 34.981 C 44.907 35.752 45.596 36.712 44.546 37.938 C 43.519 39.136 42.385 39.235 41.289 39.33 C 40.534 39.396 39.754 39.464 38.977 39.905 C 38.267 40.309 38.192 41.094 38.105 42.004 C 37.993 43.182 37.853 44.647 35.849 44.854 C 34.017 45.044 32.825 44.616 31.774 44.239 C 31.037 43.975 30.34 43.724 29.496 43.724 C 28.716 43.724 28.25 43.994 27.71 44.308 C 27.102 44.66 26.435 45.048 25.292 45.048"/>
    <path id="path54" style="fill:#fbdeec;fill-opacity:1;fill-rule:nonzero;stroke:none" d="M 34.312 26.693 C 34.683 29.787 32.503 32.599 29.442 32.974 C 26.381 33.349 23.6 31.144 23.229 28.05 C 22.859 24.955 25.039 22.143 28.1 21.769 C 31.16 21.394 33.942 23.598 34.312 26.693"/>
    <path id="path58" style="fill:#ffffff;fill-opacity:1;fill-rule:nonzero;stroke:none" d="M 28.781 22.046 C 28.568 22.046 28.353 22.059 28.138 22.085 C 25.257 22.438 23.197 25.097 23.546 28.012 C 23.717 29.435 24.428 30.702 25.548 31.581 C 26.649 32.444 28.018 32.826 29.403 32.658 C 32.284 32.305 34.344 29.646 33.995 26.731 C 33.825 25.308 33.114 24.04 31.994 23.162 C 31.063 22.432 29.941 22.046 28.781 22.046 M 28.76 33.335 C 27.457 33.335 26.199 32.902 25.153 32.083 C 23.899 31.1 23.103 29.681 22.912 28.087 C 22.521 24.824 24.831 21.846 28.061 21.451 C 29.614 21.26 31.152 21.689 32.388 22.66 C 33.643 23.643 34.439 25.062 34.629 26.655 C 35.02 29.919 32.71 32.896 29.48 33.291 C 29.239 33.32 28.999 33.335 28.76 33.335"/>
    <path id="path62" style="fill:#ffe9b1;fill-opacity:1;fill-rule:nonzero;stroke:none" d="M 38.066 24.046 C 37.984 24.046 37.901 24.015 37.839 23.951 L 35.59 21.677 C 35.466 21.551 35.468 21.35 35.593 21.226 C 35.717 21.101 35.92 21.102 36.044 21.228 L 38.293 23.502 C 38.417 23.627 38.416 23.83 38.29 23.954 C 38.229 24.015 38.147 24.046 38.066 24.046"/>
    <path id="path66" style="fill:#ffffff;fill-opacity:1;fill-rule:nonzero;stroke:none" d="M 39.672 30.218 C 39.496 30.218 39.353 30.074 39.353 29.898 L 39.353 27.408 C 39.353 27.232 39.496 27.088 39.672 27.088 C 39.849 27.088 39.992 27.232 39.992 27.408 L 39.992 29.898 C 39.992 30.074 39.849 30.218 39.672 30.218"/>
    <path id="path70" style="fill:#7788b5;fill-opacity:1;fill-rule:nonzero;stroke:none" d="M 37.423 34.008 L 34.318 34.008 C 34.142 34.008 33.998 33.864 33.998 33.689 C 33.998 33.512 34.142 33.369 34.318 33.369 L 37.423 33.369 C 37.599 33.369 37.743 33.512 37.743 33.689 C 37.743 33.864 37.599 34.008 37.423 34.008"/>
    <path id="path74" style="fill:#ffffff;fill-opacity:1;fill-rule:nonzero;stroke:none" d="M 30.891 38.231 C 30.766 38.231 30.646 38.156 30.595 38.032 C 30.528 37.869 30.606 37.683 30.769 37.616 L 34.196 36.208 C 34.359 36.142 34.546 36.219 34.613 36.382 C 34.68 36.545 34.602 36.732 34.439 36.799 L 31.012 38.207 C 30.972 38.223 30.931 38.231 30.891 38.231"/>
    <path id="path78" style="fill:#efdb00;fill-opacity:1;fill-rule:nonzero;stroke:none" d="M 25.643 38.231 C 25.562 38.231 25.48 38.2 25.419 38.138 C 25.293 38.014 25.292 37.812 25.416 37.687 L 27.622 35.456 C 27.746 35.329 27.949 35.329 28.074 35.453 C 28.199 35.577 28.2 35.779 28.076 35.904 L 25.869 38.136 C 25.807 38.199 25.725 38.231 25.643 38.231"/>
    <path id="path82" style="fill:#84cac2;fill-opacity:1;fill-rule:nonzero;stroke:none" d="M 22.109 37.115 C 21.932 37.115 21.789 36.972 21.789 36.796 L 21.789 33.688 C 21.789 33.512 21.932 33.369 22.109 33.369 C 22.285 33.369 22.429 33.512 22.429 33.688 L 22.429 36.796 C 22.429 36.972 22.285 37.115 22.109 37.115"/>
    <path id="path86" style="fill:#41bfe7;fill-opacity:1;fill-rule:nonzero;stroke:none" d="M 19.324 32.6 C 19.242 32.6 19.159 32.569 19.097 32.505 L 16.688 30.069 C 16.563 29.943 16.565 29.741 16.69 29.617 C 16.815 29.493 17.018 29.494 17.141 29.62 L 19.551 32.056 C 19.675 32.182 19.674 32.384 19.548 32.508 C 19.486 32.569 19.405 32.6 19.324 32.6"/>
    <path id="path90" style="fill:#ffffff;fill-opacity:1;fill-rule:nonzero;stroke:none" d="M 20.074 26.969 L 17.289 26.969 C 17.113 26.969 16.969 26.826 16.969 26.65 C 16.969 26.474 17.113 26.33 17.289 26.33 L 20.074 26.33 C 20.25 26.33 20.394 26.474 20.394 26.65 C 20.394 26.826 20.25 26.969 20.074 26.969"/>
    <path id="path94" style="fill:#84cac2;fill-opacity:1;fill-rule:nonzero;stroke:none" d="M 19.324 23.396 C 19.242 23.396 19.159 23.365 19.097 23.301 L 17.062 21.244 C 16.938 21.118 16.939 20.917 17.065 20.793 C 17.189 20.669 17.392 20.669 17.516 20.795 L 19.551 22.853 C 19.675 22.978 19.674 23.18 19.548 23.304 C 19.486 23.365 19.405 23.396 19.324 23.396"/>
    <path id="path98" style="fill:#7788b5;fill-opacity:1;fill-rule:nonzero;stroke:none" d="M 21.359 21.772 C 21.315 21.772 21.27 21.763 21.226 21.743 C 21.066 21.67 20.995 21.481 21.069 21.32 L 22.354 18.504 C 22.427 18.344 22.616 18.274 22.777 18.346 C 22.937 18.419 23.008 18.609 22.935 18.769 L 21.649 21.585 C 21.596 21.702 21.48 21.772 21.359 21.772"/>
    <path id="path102" style="fill:#ffe9b1;fill-opacity:1;fill-rule:nonzero;stroke:none" d="M 25.643 18.956 C 25.467 18.956 25.323 18.813 25.323 18.637 L 25.323 15.28 C 25.323 15.104 25.467 14.961 25.643 14.961 C 25.819 14.961 25.962 15.104 25.962 15.28 L 25.962 18.637 C 25.962 18.813 25.819 18.956 25.643 18.956"/>
    <path id="path106" style="fill:#41bfe7;fill-opacity:1;fill-rule:nonzero;stroke:none" d="M 30.891 17.278 L 28.128 17.278 C 27.952 17.278 27.808 17.135 27.808 16.958 C 27.808 16.782 27.952 16.639 28.128 16.639 L 30.891 16.639 C 31.067 16.639 31.21 16.782 31.21 16.958 C 31.21 17.135 31.067 17.278 30.891 17.278"/>
    <path id="path110" style="fill:#efdb00;fill-opacity:1;fill-rule:nonzero;stroke:none" d="M 33.461 20.365 C 33.38 20.365 33.299 20.334 33.237 20.272 C 33.111 20.148 33.11 19.946 33.234 19.821 L 35.161 17.871 C 35.285 17.745 35.487 17.744 35.613 17.869 C 35.738 17.993 35.739 18.194 35.615 18.32 L 33.687 20.269 C 33.625 20.333 33.543 20.365 33.461 20.365"/>
  </g>
</svg>