<?xml version="1.0" encoding="utf-8"?>
<svg viewBox="0 0 64 64" xmlns="http://www.w3.org/2000/svg">
  <g transform="matrix(0.453003, 0, 0, -0.453003, 6.581812, 4.457207)" id="g932" style="display: inline;">
    <path id="path934" style="fill-opacity: 1; fill-rule: nonzero; stroke: none;" d="m 0,0 c 0,-3.952 -3.204,-7.155 -7.155,-7.155 -3.952,0 -7.156,3.203 -7.156,7.155 0,3.952 3.204,7.155 7.156,7.155 C -3.204,7.155 0,3.952 0,0"/>
  </g>
  <g transform="matrix(0.453003, 0, 0, -0.453003, 19.228239, 4.457207)" id="g936" style="display: inline;">
    <path id="path938" style="fill-opacity: 1; fill-rule: nonzero; stroke: none;" d="m 0,0 c 0,-3.952 -3.204,-7.155 -7.155,-7.155 -3.952,0 -7.156,3.203 -7.156,7.155 0,3.952 3.204,7.155 7.156,7.155 C -3.204,7.155 0,3.952 0,0"/>
  </g>
  <g transform="matrix(0.453003, 0, 0, -0.453003, 31.874332, 4.457207)" id="g940" style="display: inline;">
    <path id="path942" style="fill-opacity: 1; fill-rule: nonzero; stroke: none;" d="m 0,0 c 0,-3.952 -3.203,-7.155 -7.155,-7.155 -3.951,0 -7.156,3.203 -7.156,7.155 0,3.952 3.205,7.155 7.156,7.155 C -3.203,7.155 0,3.952 0,0"/>
  </g>
  <g transform="matrix(0.453003, 0, 0, -0.453003, 44.520817, 4.457207)" id="g944" style="display: inline;">
    <path id="path946" style="fill-opacity: 1; fill-rule: nonzero; stroke: none;" d="m 0,0 c 0,-3.952 -3.203,-7.155 -7.155,-7.155 -3.951,0 -7.156,3.203 -7.156,7.155 0,3.952 3.205,7.155 7.156,7.155 C -3.203,7.155 0,3.952 0,0"/>
  </g>
  <g transform="matrix(0.453003, 0, 0, -0.453003, 57.16724, 4.457207)" id="g948" style="display: inline;">
    <path id="path950" style="fill-opacity: 1; fill-rule: nonzero; stroke: none;" d="m 0,0 c 0,-3.952 -3.203,-7.155 -7.155,-7.155 -3.952,0 -7.156,3.203 -7.156,7.155 0,3.952 3.204,7.155 7.156,7.155 C -3.203,7.155 0,3.952 0,0"/>
  </g>
  <g transform="matrix(0.453003, 0, 0, -0.453003, 69.813721, 4.457207)" id="g952" style="display: inline;">
    <path id="path954" style="fill-opacity: 1; fill-rule: nonzero; stroke: none;" d="m 0,0 c 0,-3.952 -3.204,-7.155 -7.155,-7.155 -3.952,0 -7.156,3.203 -7.156,7.155 0,3.952 3.204,7.155 7.156,7.155 C -3.204,7.155 0,3.952 0,0"/>
  </g>
  <g transform="matrix(0.453003, 0, 0, -0.453003, 0.299934, 14.004562)" id="g956" style="display: inline;">
    <path id="path958" style="fill-opacity: 1; fill-rule: nonzero; stroke: none;" d="m 0,0 c 0,-3.952 -3.203,-7.155 -7.154,-7.155 -3.952,0 -7.156,3.203 -7.156,7.155 0,3.952 3.204,7.155 7.156,7.155 C -3.203,7.155 0,3.952 0,0"/>
  </g>
  <g transform="matrix(0.453003, 0, 0, -0.453003, 12.946416, 14.004562)" id="g960" style="display: inline;">
    <path id="path962" style="fill-opacity: 1; fill-rule: nonzero; stroke: none;" d="m 0,0 c 0,-3.952 -3.203,-7.155 -7.155,-7.155 -3.951,0 -7.156,3.203 -7.156,7.155 0,3.952 3.205,7.155 7.156,7.155 C -3.203,7.155 0,3.952 0,0"/>
  </g>
  <g transform="matrix(0.453003, 0, 0, -0.453003, 25.592897, 14.004562)" id="g964" style="display: inline;">
    <path id="path966" style="fill-opacity: 1; fill-rule: nonzero; stroke: none;" d="m 0,0 c 0,-3.952 -3.203,-7.155 -7.155,-7.155 -3.951,0 -7.156,3.203 -7.156,7.155 0,3.952 3.205,7.155 7.156,7.155 C -3.203,7.155 0,3.952 0,0"/>
  </g>
  <g transform="matrix(0.453003, 0, 0, -0.453003, 38.239323, 14.004562)" id="g968" style="display: inline;">
    <path id="path970" style="fill-opacity: 1; fill-rule: nonzero; stroke: none;" d="m 0,0 c 0,-3.952 -3.204,-7.155 -7.155,-7.155 -3.952,0 -7.156,3.203 -7.156,7.155 0,3.952 3.204,7.155 7.156,7.155 C -3.204,7.155 0,3.952 0,0"/>
  </g>
  <g transform="matrix(0.453003, 0, 0, -0.453003, 50.885807, 14.004562)" id="g972" style="display: inline;">
    <path id="path974" style="fill-opacity: 1; fill-rule: nonzero; stroke: none;" d="m 0,0 c 0,-3.952 -3.204,-7.155 -7.155,-7.155 -3.952,0 -7.156,3.203 -7.156,7.155 0,3.952 3.204,7.155 7.156,7.155 C -3.204,7.155 0,3.952 0,0"/>
  </g>
  <g transform="matrix(0.453003, 0, 0, -0.453003, 63.531902, 14.004562)" id="g976" style="display: inline;">
    <path id="path978" style="fill-opacity: 1; fill-rule: nonzero; stroke: none;" d="m 0,0 c 0,-3.952 -3.203,-7.155 -7.155,-7.155 -3.951,0 -7.155,3.203 -7.155,7.155 0,3.952 3.204,7.155 7.155,7.155 C -3.203,7.155 0,3.952 0,0"/>
  </g>
  <g transform="matrix(0.453003, 0, 0, -0.453003, 6.581812, 23.90535)" id="g988" style="display: inline;">
    <path id="path990" style="fill-opacity: 1; fill-rule: nonzero; stroke: none;" d="m 0,0 c 0,-3.952 -3.204,-7.155 -7.155,-7.155 -3.952,0 -7.156,3.203 -7.156,7.155 0,3.952 3.204,7.155 7.156,7.155 C -3.204,7.155 0,3.952 0,0"/>
  </g>
  <g transform="matrix(0.453003, 0, 0, -0.453003, 19.228239, 23.90535)" id="g992" style="display: inline;">
    <path id="path994" style="fill-opacity: 1; fill-rule: nonzero; stroke: none;" d="m 0,0 c 0,-3.952 -3.204,-7.155 -7.155,-7.155 -3.952,0 -7.156,3.203 -7.156,7.155 0,3.952 3.204,7.155 7.156,7.155 C -3.204,7.155 0,3.952 0,0"/>
  </g>
  <g transform="matrix(0.453003, 0, 0, -0.453003, 31.874332, 23.90535)" id="g996" style="display: inline;">
    <path id="path998" style="fill-opacity: 1; fill-rule: nonzero; stroke: none;" d="m 0,0 c 0,-3.952 -3.203,-7.155 -7.155,-7.155 -3.951,0 -7.156,3.203 -7.156,7.155 0,3.952 3.205,7.155 7.156,7.155 C -3.203,7.155 0,3.952 0,0"/>
  </g>
  <g transform="matrix(0.453003, 0, 0, -0.453003, 44.520817, 23.90535)" id="g1000" style="display: inline;">
    <path id="path1002" style="fill-opacity: 1; fill-rule: nonzero; stroke: none;" d="m 0,0 c 0,-3.952 -3.203,-7.155 -7.155,-7.155 -3.951,0 -7.156,3.203 -7.156,7.155 0,3.952 3.205,7.155 7.156,7.155 C -3.203,7.155 0,3.952 0,0"/>
  </g>
  <g transform="matrix(0.453003, 0, 0, -0.453003, 57.16724, 23.90535)" id="g1004" style="display: inline;">
    <path id="path1006" style="fill-opacity: 1; fill-rule: nonzero; stroke: none;" d="m 0,0 c 0,-3.952 -3.203,-7.155 -7.155,-7.155 -3.952,0 -7.156,3.203 -7.156,7.155 0,3.952 3.204,7.155 7.156,7.155 C -3.203,7.155 0,3.952 0,0"/>
  </g>
  <g transform="matrix(0.453003, 0, 0, -0.453003, 69.813721, 23.90535)" id="g1008" style="display: inline;">
    <path id="path1010" style="fill-opacity: 1; fill-rule: nonzero; stroke: none;" d="m 0,0 c 0,-3.952 -3.204,-7.155 -7.155,-7.155 -3.952,0 -7.156,3.203 -7.156,7.155 0,3.952 3.204,7.155 7.156,7.155 C -3.204,7.155 0,3.952 0,0"/>
  </g>
  <g transform="matrix(0.453003, 0, 0, -0.453003, 0.299934, 33.45248)" id="g1012" style="display: inline;">
    <path id="path1014" style="fill-opacity: 1; fill-rule: nonzero; stroke: none;" d="m 0,0 c 0,-3.952 -3.203,-7.155 -7.154,-7.155 -3.952,0 -7.156,3.203 -7.156,7.155 0,3.952 3.204,7.155 7.156,7.155 C -3.203,7.155 0,3.952 0,0"/>
  </g>
  <g transform="matrix(0.453003, 0, 0, -0.453003, 12.946416, 33.45248)" id="g1016" style="display: inline;">
    <path id="path1018" style="fill-opacity: 1; fill-rule: nonzero; stroke: none;" d="m 0,0 c 0,-3.952 -3.203,-7.155 -7.155,-7.155 -3.951,0 -7.156,3.203 -7.156,7.155 0,3.952 3.205,7.155 7.156,7.155 C -3.203,7.155 0,3.952 0,0"/>
  </g>
  <g transform="matrix(0.453003, 0, 0, -0.453003, 25.592897, 33.45248)" id="g1020" style="display: inline;">
    <path id="path1022" style="fill-opacity: 1; fill-rule: nonzero; stroke: none;" d="m 0,0 c 0,-3.952 -3.203,-7.155 -7.155,-7.155 -3.951,0 -7.156,3.203 -7.156,7.155 0,3.952 3.205,7.155 7.156,7.155 C -3.203,7.155 0,3.952 0,0"/>
  </g>
  <g transform="matrix(0.453003, 0, 0, -0.453003, 38.239323, 33.45248)" id="g1024" style="display: inline;">
    <path id="path1026" style="fill-opacity: 1; fill-rule: nonzero; stroke: none;" d="m 0,0 c 0,-3.952 -3.204,-7.155 -7.155,-7.155 -3.952,0 -7.156,3.203 -7.156,7.155 0,3.952 3.204,7.155 7.156,7.155 C -3.204,7.155 0,3.952 0,0"/>
  </g>
  <g transform="matrix(0.453003, 0, 0, -0.453003, 50.885807, 33.45248)" id="g1028" style="display: inline;">
    <path id="path1030" style="fill-opacity: 1; fill-rule: nonzero; stroke: none;" d="m 0,0 c 0,-3.952 -3.204,-7.155 -7.155,-7.155 -3.952,0 -7.156,3.203 -7.156,7.155 0,3.952 3.204,7.155 7.156,7.155 C -3.204,7.155 0,3.952 0,0"/>
  </g>
  <g transform="matrix(0.453003, 0, 0, -0.453003, 63.531902, 33.45248)" id="g1032" style="display: inline;">
    <path id="path1034" style="fill-opacity: 1; fill-rule: nonzero; stroke: none;" d="m 0,0 c 0,-3.952 -3.203,-7.155 -7.155,-7.155 -3.951,0 -7.155,3.203 -7.155,7.155 0,3.952 3.204,7.155 7.155,7.155 C -3.203,7.155 0,3.952 0,0"/>
  </g>
  <g transform="matrix(0.453003, 0, 0, -0.453003, 6.581812, 43.353539)" id="g1044" style="display: inline;">
    <path id="path1046" style="fill-opacity: 1; fill-rule: nonzero; stroke: none;" d="m 0,0 c 0,-3.952 -3.204,-7.155 -7.155,-7.155 -3.952,0 -7.156,3.203 -7.156,7.155 0,3.952 3.204,7.155 7.156,7.155 C -3.204,7.155 0,3.952 0,0"/>
  </g>
  <g transform="matrix(0.453003, 0, 0, -0.453003, 19.228239, 43.353539)" id="g1048" style="display: inline;">
    <path id="path1050" style="fill-opacity: 1; fill-rule: nonzero; stroke: none;" d="m 0,0 c 0,-3.952 -3.204,-7.155 -7.155,-7.155 -3.952,0 -7.156,3.203 -7.156,7.155 0,3.952 3.204,7.155 7.156,7.155 C -3.204,7.155 0,3.952 0,0"/>
  </g>
  <g transform="matrix(0.453003, 0, 0, -0.453003, 31.874332, 43.353539)" id="g1052" style="display: inline;">
    <path id="path1054" style="fill-opacity: 1; fill-rule: nonzero; stroke: none;" d="m 0,0 c 0,-3.952 -3.203,-7.155 -7.155,-7.155 -3.951,0 -7.156,3.203 -7.156,7.155 0,3.952 3.205,7.155 7.156,7.155 C -3.203,7.155 0,3.952 0,0"/>
  </g>
  <g transform="matrix(0.453003, 0, 0, -0.453003, 44.520817, 43.353539)" id="g1056" style="display: inline;">
    <path id="path1058" style="fill-opacity: 1; fill-rule: nonzero; stroke: none;" d="m 0,0 c 0,-3.952 -3.203,-7.155 -7.155,-7.155 -3.951,0 -7.156,3.203 -7.156,7.155 0,3.952 3.205,7.155 7.156,7.155 C -3.203,7.155 0,3.952 0,0"/>
  </g>
  <g transform="matrix(0.453003, 0, 0, -0.453003, 57.16724, 43.353539)" id="g1060" style="display: inline;">
    <path id="path1062" style="fill-opacity: 1; fill-rule: nonzero; stroke: none;" d="m 0,0 c 0,-3.952 -3.203,-7.155 -7.155,-7.155 -3.952,0 -7.156,3.203 -7.156,7.155 0,3.952 3.204,7.155 7.156,7.155 C -3.203,7.155 0,3.952 0,0"/>
  </g>
  <g transform="matrix(0.453003, 0, 0, -0.453003, 69.813721, 43.353539)" id="g1064" style="display: inline;">
    <path id="path1066" style="fill-opacity: 1; fill-rule: nonzero; stroke: none;" d="m 0,0 c 0,-3.952 -3.204,-7.155 -7.155,-7.155 -3.952,0 -7.156,3.203 -7.156,7.155 0,3.952 3.204,7.155 7.156,7.155 C -3.204,7.155 0,3.952 0,0"/>
  </g>
  <g transform="matrix(0.453003, 0, 0, -0.453003, 0.299934, 52.900669)" id="g1068" style="display: inline;">
    <path id="path1070" style="fill-opacity: 1; fill-rule: nonzero; stroke: none;" d="m 0,0 c 0,-3.952 -3.203,-7.155 -7.154,-7.155 -3.952,0 -7.156,3.203 -7.156,7.155 0,3.952 3.204,7.155 7.156,7.155 C -3.203,7.155 0,3.952 0,0"/>
  </g>
  <g transform="matrix(0.453003, 0, 0, -0.453003, 12.946416, 52.900669)" id="g1072" style="display: inline;">
    <path id="path1074" style="fill-opacity: 1; fill-rule: nonzero; stroke: none;" d="m 0,0 c 0,-3.952 -3.203,-7.155 -7.155,-7.155 -3.951,0 -7.156,3.203 -7.156,7.155 0,3.952 3.205,7.155 7.156,7.155 C -3.203,7.155 0,3.952 0,0"/>
  </g>
  <g transform="matrix(0.453003, 0, 0, -0.453003, 25.592897, 52.900669)" id="g1076" style="display: inline;">
    <path id="path1078" style="fill-opacity: 1; fill-rule: nonzero; stroke: none;" d="m 0,0 c 0,-3.952 -3.203,-7.155 -7.155,-7.155 -3.951,0 -7.156,3.203 -7.156,7.155 0,3.952 3.205,7.155 7.156,7.155 C -3.203,7.155 0,3.952 0,0"/>
  </g>
  <g transform="matrix(0.453003, 0, 0, -0.453003, 38.239323, 52.900669)" id="g1080" style="display: inline;">
    <path id="path1082" style="fill-opacity: 1; fill-rule: nonzero; stroke: none;" d="m 0,0 c 0,-3.952 -3.204,-7.155 -7.155,-7.155 -3.952,0 -7.156,3.203 -7.156,7.155 0,3.952 3.204,7.155 7.156,7.155 C -3.204,7.155 0,3.952 0,0"/>
  </g>
  <g transform="matrix(0.453003, 0, 0, -0.453003, 50.885807, 52.900669)" id="g1084" style="display: inline;">
    <path id="path1086" style="fill-opacity: 1; fill-rule: nonzero; stroke: none;" d="m 0,0 c 0,-3.952 -3.204,-7.155 -7.155,-7.155 -3.952,0 -7.156,3.203 -7.156,7.155 0,3.952 3.204,7.155 7.156,7.155 C -3.204,7.155 0,3.952 0,0"/>
  </g>
  <g transform="matrix(0.453003, 0, 0, -0.453003, 63.531902, 52.900669)" id="g1088" style="display: inline;">
    <path id="path1090" style="fill-opacity: 1; fill-rule: nonzero; stroke: none;" d="m 0,0 c 0,-3.952 -3.203,-7.155 -7.155,-7.155 -3.951,0 -7.155,3.203 -7.155,7.155 0,3.952 3.204,7.155 7.155,7.155 C -3.203,7.155 0,3.952 0,0"/>
  </g>
  <g transform="matrix(0.453003, 0, 0, -0.453003, 6.581812, 62.80146)" id="g1100" style="display: inline;">
    <path id="path1102" style="fill-opacity: 1; fill-rule: nonzero; stroke: none;" d="m 0,0 c 0,-3.952 -3.204,-7.155 -7.155,-7.155 -3.952,0 -7.156,3.203 -7.156,7.155 0,3.952 3.204,7.155 7.156,7.155 C -3.204,7.155 0,3.952 0,0"/>
  </g>
  <g transform="matrix(0.453003, 0, 0, -0.453003, 19.228239, 62.80146)" id="g1104" style="display: inline;">
    <path id="path1106" style="fill-opacity: 1; fill-rule: nonzero; stroke: none;" d="m 0,0 c 0,-3.952 -3.204,-7.155 -7.155,-7.155 -3.952,0 -7.156,3.203 -7.156,7.155 0,3.952 3.204,7.155 7.156,7.155 C -3.204,7.155 0,3.952 0,0"/>
  </g>
  <g transform="matrix(0.453003, 0, 0, -0.453003, 31.874332, 62.80146)" id="g1108" style="display: inline;">
    <path id="path1110" style="fill-opacity: 1; fill-rule: nonzero; stroke: none;" d="m 0,0 c 0,-3.952 -3.203,-7.155 -7.155,-7.155 -3.951,0 -7.156,3.203 -7.156,7.155 0,3.952 3.205,7.155 7.156,7.155 C -3.203,7.155 0,3.952 0,0"/>
  </g>
  <g transform="matrix(0.453003, 0, 0, -0.453003, 44.520817, 62.80146)" id="g1112" style="display: inline;">
    <path id="path1114" style="fill-opacity: 1; fill-rule: nonzero; stroke: none;" d="m 0,0 c 0,-3.952 -3.203,-7.155 -7.155,-7.155 -3.951,0 -7.156,3.203 -7.156,7.155 0,3.952 3.205,7.155 7.156,7.155 C -3.203,7.155 0,3.952 0,0"/>
  </g>
  <g transform="matrix(0.453003, 0, 0, -0.453003, 57.16724, 62.80146)" id="g1116" style="display: inline;">
    <path id="path1118" style="fill-opacity: 1; fill-rule: nonzero; stroke: none;" d="m 0,0 c 0,-3.952 -3.203,-7.155 -7.155,-7.155 -3.952,0 -7.156,3.203 -7.156,7.155 0,3.952 3.204,7.155 7.156,7.155 C -3.203,7.155 0,3.952 0,0"/>
  </g>
  <g transform="matrix(0.453003, 0, 0, -0.453003, 69.813721, 62.80146)" id="g1120" style="display: inline;">
    <path id="path1122" style="fill-opacity: 1; fill-rule: nonzero; stroke: none;" d="m 0,0 c 0,-3.952 -3.204,-7.155 -7.155,-7.155 -3.952,0 -7.156,3.203 -7.156,7.155 0,3.952 3.204,7.155 7.156,7.155 C -3.204,7.155 0,3.952 0,0"/>
  </g>
</svg>