<?xml version="1.0" encoding="utf-8"?>
<svg viewBox="0 0 64 64" xmlns="http://www.w3.org/2000/svg">
  <g transform="matrix(1, 0, 0, 1, -3.117207, 1.870324)">
    <path d="M 44.338 38.688 C 44.27 41.811 36.428 48.017 28.884 43.775 C 20.582 39.106 23.22 32.654 28.035 30.245 C 30.79 28.868 33.89 28.992 36.038 29.35 C 37.914 29.662 39.703 30.384 41.238 31.505 C 44.375 33.793 44.395 36.123 44.338 38.688 M 46.889 22.675 C 46.234 22.336 45.547 22.061 44.84 21.848 C 41.33 20.79 30.471 18.157 21.274 22.756 C 10.132 28.326 3.593 44.076 23.236 54.057 C 39.61 62.377 58.636 49.507 58.994 42.289 C 59.293 36.275 59.052 28.944 46.889 22.675" style="fill: rgb(250, 184, 223); fill-opacity: 1; fill-rule: nonzero; stroke: none; display: inline;" id="path2358"/>
    <path d="M 49.239 29.935 C 49.614 30.069 54.173 30.412 54.253 25.796 C 54.333 21.181 52.98 18.714 52.98 17.361 C 52.98 16.008 52.423 8.716 51.309 7.03 C 50.195 5.345 44.863 1.623 37.541 2.887 C 30.219 4.151 29.902 11.716 31.016 16.289 C 32.13 20.863 33.798 23.57 42.313 32.403 C 42.313 32.403 44.12 33.781 44.338 38.688 C 44.449 41.153 57.418 45.869 58.55 43.782 C 60.407 40.36 56.481 35.108 53.696 32.721 C 53.696 32.721 46.932 26.752 43.987 24.841 C 41.043 22.932 36.666 17.202 37.064 13.382 C 37.462 9.562 40.088 9.085 41.838 10.12 C 43.59 11.154 43.103 13.064 44.778 14.098 C 46.454 15.133 49.001 17.122 48.603 20.226 C 48.205 23.33 47.125 29.178 49.239 29.935" style="fill: rgb(251, 207, 233); fill-opacity: 1; fill-rule: nonzero; stroke: none; display: inline;" id="path2362"/>
    <path id="path2366" style="fill: rgb(35, 31, 32); fill-opacity: 1; fill-rule: nonzero; stroke: none; display: inline;" d="M 48.603 20.309 C 48.205 23.412 47.125 29.262 49.24 30.018 C 49.614 30.152 54.173 30.495 54.253 25.88 C 54.333 21.264 52.98 18.797 52.98 17.444 Z"/>
    <path id="path2370" style="fill: rgb(243, 97, 184); fill-opacity: 1; fill-rule: nonzero; stroke: none; display: inline;" d="M 48.434 21.558 C 48.394 21.793 53.589 20.203 53.589 20.203 C 53.589 20.203 53.037 17.057 52.861 15.23 C 52.861 15.23 51.83 17.012 49.842 15.27 C 49.842 15.27 49.125 15.022 48.886 15.747 C 48.648 16.473 48.807 17.593 48.25 17.59 C 48.25 17.59 48.851 19.011 48.434 21.558"/>
    <path id="path2374" style="fill: rgb(255, 255, 255); fill-opacity: 1; fill-rule: nonzero; stroke: none; display: inline;" d="M 49.343 10.562 C 49.343 11.705 48.416 12.631 47.274 12.631 C 46.131 12.631 45.205 11.705 45.205 10.562 C 45.205 9.419 46.131 8.493 47.274 8.493 C 48.416 8.493 49.343 9.419 49.343 10.562"/>
    <path id="path2378" style="fill: rgb(35, 31, 32); fill-opacity: 1; fill-rule: nonzero; stroke: none; display: inline;" d="M 48.652 10.562 C 48.652 11.323 48.036 11.94 47.274 11.94 C 46.513 11.94 45.896 11.323 45.896 10.562 C 45.896 9.802 46.513 9.184 47.274 9.184 C 48.036 9.184 48.652 9.802 48.652 10.562"/>
    <path id="path2382" style="fill: rgb(255, 255, 255); fill-opacity: 1; fill-rule: nonzero; stroke: none; display: inline;" d="M 47.612 10.23 C 47.612 10.416 47.461 10.568 47.275 10.568 C 47.087 10.568 46.937 10.416 46.937 10.23 C 46.937 10.044 47.087 9.893 47.275 9.893 C 47.461 9.893 47.612 10.044 47.612 10.23"/>
    <path d="M 11.629 32.945 C 11.629 32.945 20.755 30.981 23.87 34.688 C 23.87 34.688 24.683 32.121 28.035 30.245 C 28.035 30.245 29.952 29.327 33.137 29.113 L 29.839 20.323 C 29.839 20.323 23.096 20.794 17.745 24.98 C 12.394 29.166 11.629 32.945 11.629 32.945" style="fill: rgb(251, 207, 233); fill-opacity: 1; fill-rule: nonzero; stroke: none; display: inline;" id="path2386"/>
    <path d="M 28.884 43.774 C 28.884 43.774 22.832 48.443 23.237 54.057 C 23.237 54.057 27.938 56.929 35.578 56.762 C 43.218 56.594 48.892 53.137 48.892 53.137 C 48.892 53.137 47.098 42.338 40.801 43.208 C 40.3 43.278 35.346 46.764 28.884 43.774" style="fill: rgb(251, 207, 233); fill-opacity: 1; fill-rule: nonzero; stroke: none; display: inline;" id="path2390"/>
  </g>
</svg>