<?xml version="1.0" encoding="utf-8"?>
<svg viewBox="0 0 64 64" xmlns="http://www.w3.org/2000/svg">
  <g transform="matrix(1, 0, 0, 1, 0.031499, 0.169998)">
    <path id="path1146" style="fill-opacity: 1; fill-rule: nonzero; stroke: none;" d="M 55.662 32.309 C 55.685 32.289 55.706 32.268 55.729 32.248 C 55.706 32.268 55.685 32.289 55.662 32.309"/>
    <path id="path1150" style="fill-opacity: 1; fill-rule: nonzero; stroke: none;" d="M 55.729 32.248 L 55.729 32.249 Z"/>
    <path id="path1154" style="fill-opacity: 1; fill-rule: nonzero; stroke: none;" d="M 27.731 6.151 C 27.582 6.576 27.352 6.978 27.132 7.373 C 26.922 7.749 26.94 8.053 27.233 8.253 C 27.523 8.449 27.843 8.363 28.079 8.001 C 28.805 6.889 29.228 5.699 28.975 4.347 C 28.85 3.67 28.507 3.107 28.02 2.628 C 27.919 2.53 27.813 2.438 27.707 2.344 C 27.19 2.475 26.677 2.624 26.173 2.789 C 26.262 2.797 26.351 2.818 26.42 2.855 C 27.759 3.547 28.233 4.728 27.731 6.151"/>
    <path id="path1158" style="fill-opacity: 1; fill-rule: nonzero; stroke: none;" d="M 43.367 14.634 C 43.986 14.685 44.605 14.748 45.224 14.8 C 46.44 14.902 47.657 15.01 48.875 15.099 C 49.317 15.132 49.554 14.924 49.565 14.483 C 49.606 12.905 49.631 11.328 49.653 9.75 C 49.659 9.425 49.472 9.195 49.17 9.171 C 47.976 9.074 46.78 8.984 45.583 8.907 C 45.265 8.888 45.045 9.077 44.994 9.388 C 44.866 10.164 44.754 10.944 44.654 11.724 C 44.601 12.145 44.806 12.425 45.145 12.458 C 45.489 12.492 45.725 12.261 45.783 11.84 C 45.85 11.346 45.928 10.853 45.986 10.358 C 46.011 10.148 46.101 10.073 46.312 10.094 C 46.664 10.13 47.021 10.144 47.374 10.172 C 47.747 10.201 48.119 10.235 48.469 10.265 L 48.469 13.886 C 48.347 13.895 48.291 13.908 48.238 13.903 C 46.844 13.789 45.451 13.671 44.057 13.561 C 43.869 13.546 43.851 13.439 43.855 13.29 C 43.884 12.268 43.908 11.246 43.934 10.224 C 43.977 8.481 44.027 6.738 44.046 4.993 C 44.049 4.823 43.9 4.586 43.75 4.493 C 43.362 4.25 42.942 4.569 42.929 5.105 C 42.855 8.048 42.784 10.991 42.717 13.935 C 42.706 14.401 42.904 14.598 43.367 14.634"/>
    <path id="path1162" style="fill-opacity: 1; fill-rule: nonzero; stroke: none;" d="M 26.613 52.568 C 27.232 52.619 27.851 52.681 28.47 52.733 C 29.687 52.837 30.903 52.944 32.12 53.033 C 32.563 53.065 32.799 52.858 32.81 52.416 C 32.851 50.84 32.877 49.26 32.899 47.684 C 32.905 47.359 32.717 47.129 32.417 47.104 C 31.221 47.007 30.026 46.917 28.829 46.841 C 28.511 46.822 28.291 47.012 28.24 47.322 C 28.112 48.098 28 48.878 27.9 49.659 C 27.847 50.079 28.052 50.359 28.391 50.393 C 28.736 50.426 28.971 50.195 29.029 49.774 C 29.096 49.279 29.173 48.786 29.232 48.292 C 29.257 48.081 29.347 48.006 29.557 48.028 C 29.91 48.064 30.266 48.077 30.62 48.105 C 30.993 48.135 31.365 48.17 31.715 48.2 L 31.715 51.819 C 31.593 51.829 31.538 51.841 31.484 51.836 C 30.09 51.722 28.698 51.605 27.303 51.494 C 27.115 51.479 27.097 51.373 27.101 51.224 C 27.13 50.202 27.156 49.18 27.18 48.158 C 27.222 46.414 27.273 44.671 27.294 42.926 C 27.295 42.757 27.146 42.519 26.996 42.426 C 26.608 42.183 26.19 42.503 26.176 43.037 C 26.101 45.981 26.03 48.924 25.963 51.868 C 25.952 52.334 26.15 52.531 26.613 52.568"/>
    <path id="path1166" style="fill-opacity: 1; fill-rule: nonzero; stroke: none;" d="M 22.987 16.92 C 25.233 18.646 27.539 20.291 29.825 21.964 C 30.164 22.212 30.51 22.179 30.704 21.899 C 30.904 21.61 30.844 21.306 30.516 21.065 C 27.858 19.112 25.196 17.163 22.539 15.208 C 22.299 15.031 22.072 15.009 21.793 15.111 C 20.293 15.662 18.789 16.2 17.286 16.743 C 16.462 17.039 15.635 17.333 14.813 17.636 C 14.521 17.744 14.368 18.021 14.437 18.296 C 14.508 18.577 14.706 18.718 15.023 18.754 C 15.108 18.726 15.226 18.692 15.34 18.651 C 17.208 17.978 19.096 17.352 20.936 16.61 C 21.748 16.285 22.301 16.393 22.987 16.92"/>
    <path id="path1170" style="fill-opacity: 1; fill-rule: nonzero; stroke: none;" d="M 44.438 39.597 C 44.325 39.19 44.217 38.799 44.109 38.408 C 43.9 37.661 43.698 36.912 43.481 36.169 C 43.407 35.922 43.445 35.818 43.725 35.77 C 44.609 35.617 45.488 35.433 46.369 35.263 C 46.421 35.252 46.475 35.262 46.556 35.262 C 46.87 36.457 47.183 37.65 47.504 38.869 C 46.459 39.117 45.471 39.351 44.438 39.597 M 47.538 34.558 C 47.411 34.086 47.211 33.961 46.741 34.04 C 46.478 34.084 46.217 34.132 45.956 34.183 C 44.878 34.389 43.802 34.591 42.725 34.801 C 42.206 34.904 42.045 35.159 42.17 35.653 C 42.239 35.92 42.313 36.188 42.385 36.455 C 42.742 37.747 43.098 39.041 43.456 40.332 C 43.563 40.715 43.821 40.911 44.161 40.833 C 45.553 40.511 46.944 40.179 48.332 39.843 C 48.611 39.776 48.748 39.566 48.784 39.253 C 48.702 38.948 48.612 38.617 48.525 38.285 C 48.197 37.043 47.872 35.799 47.538 34.558"/>
    <path id="path1174" style="fill-opacity: 1; fill-rule: nonzero; stroke: none;" d="M 9.336 43.013 C 9.222 42.605 9.114 42.216 9.006 41.825 C 8.799 41.078 8.597 40.329 8.378 39.585 C 8.306 39.337 8.342 39.234 8.623 39.186 C 9.508 39.034 10.385 38.848 11.266 38.679 C 11.319 38.669 11.374 38.677 11.453 38.677 C 11.768 39.873 12.082 41.067 12.402 42.286 C 11.358 42.533 10.369 42.768 9.336 43.013 M 12.437 37.974 C 12.31 37.503 12.109 37.378 11.639 37.456 C 11.377 37.5 11.116 37.549 10.855 37.6 C 9.777 37.804 8.699 38.008 7.622 38.218 C 7.105 38.32 6.942 38.575 7.069 39.068 C 7.137 39.337 7.21 39.604 7.284 39.872 C 7.64 41.164 7.995 42.456 8.355 43.749 C 8.46 44.131 8.72 44.328 9.058 44.249 C 10.451 43.927 11.841 43.596 13.231 43.258 C 13.51 43.192 13.646 42.981 13.682 42.668 C 13.601 42.365 13.511 42.034 13.423 41.702 C 13.094 40.459 12.769 39.216 12.437 37.974"/>
    <path id="path1178" style="fill-opacity: 1; fill-rule: nonzero; stroke: none;" d="M 6.439 33.131 C 6.326 32.722 6.218 32.333 6.11 31.942 C 5.902 31.195 5.7 30.446 5.48 29.701 C 5.409 29.454 5.446 29.352 5.726 29.302 C 6.61 29.151 7.489 28.966 8.37 28.795 C 8.422 28.786 8.478 28.794 8.557 28.794 C 8.871 29.991 9.184 31.184 9.505 32.402 C 8.46 32.65 7.472 32.885 6.439 33.131 M 9.539 28.09 C 9.414 27.619 9.211 27.495 8.741 27.573 C 8.479 27.616 8.218 27.666 7.957 27.716 C 6.881 27.921 5.803 28.125 4.726 28.335 C 4.207 28.438 4.046 28.692 4.171 29.186 C 4.241 29.454 4.313 29.722 4.387 29.988 C 4.742 31.281 5.099 32.573 5.457 33.866 C 5.564 34.248 5.822 34.445 6.162 34.367 C 7.554 34.045 8.945 33.713 10.333 33.376 C 10.612 33.308 10.75 33.099 10.785 32.786 C 10.703 32.482 10.613 32.151 10.526 31.819 C 10.198 30.576 9.873 29.332 9.539 28.09"/>
    <path id="path1182" style="fill-opacity: 1; fill-rule: nonzero; stroke: none;" d="M 17.07 35.781 C 15.741 35.778 14.679 34.687 14.69 33.335 C 14.701 32.005 15.762 30.962 17.104 30.968 C 18.421 30.972 19.494 32.051 19.494 33.371 C 19.494 34.703 18.405 35.785 17.07 35.781 M 17.096 29.925 C 15.213 29.923 13.68 31.471 13.682 33.371 C 13.684 35.296 15.18 36.796 17.097 36.792 C 19.005 36.789 20.502 35.274 20.499 33.352 C 20.496 31.473 18.962 29.929 17.096 29.925"/>
    <path id="path1186" style="fill-opacity: 1; fill-rule: nonzero; stroke: none;" d="M 54.795 37.68 C 53.467 37.677 52.405 36.586 52.415 35.235 C 52.425 33.904 53.487 32.861 54.829 32.867 C 56.146 32.871 57.218 33.95 57.218 35.271 C 57.218 36.601 56.129 37.684 54.795 37.68 M 54.82 31.824 C 52.939 31.822 51.405 33.37 51.406 35.27 C 51.409 37.195 52.905 38.694 54.822 38.691 C 56.729 38.688 58.226 37.173 58.224 35.251 C 58.221 33.372 56.687 31.827 54.82 31.824"/>
    <path id="path1190" style="fill-opacity: 1; fill-rule: nonzero; stroke: none;" d="M 10.354 52.638 C 9.024 52.634 7.963 51.543 7.974 50.192 C 7.983 48.861 9.046 47.819 10.386 47.824 C 11.703 47.829 12.776 48.908 12.776 50.228 C 12.776 51.558 11.687 52.64 10.354 52.638 M 10.379 46.782 C 8.497 46.779 6.963 48.326 6.965 50.226 C 6.967 52.151 8.464 53.651 10.379 53.649 C 12.287 53.645 13.786 52.129 13.783 50.207 C 13.78 48.33 12.244 46.785 10.379 46.782"/>
    <path id="path1194" style="fill-opacity: 1; fill-rule: nonzero; stroke: none;" d="M 23.396 13.246 C 23.882 13.578 24.357 13.925 24.837 14.266 C 25.807 14.953 26.773 15.643 27.746 16.326 C 28.086 16.564 28.458 16.494 28.631 16.176 C 28.785 15.891 28.697 15.606 28.374 15.376 C 27.415 14.695 26.455 14.016 25.494 13.334 C 25.401 13.268 25.314 13.194 25.157 13.073 C 26.173 12.916 27.101 12.783 28.024 12.622 C 28.205 12.591 28.421 12.491 28.53 12.353 C 29.639 10.937 30.734 9.51 31.818 8.075 C 31.913 7.949 31.981 7.72 31.929 7.59 C 31.864 7.421 31.69 7.24 31.521 7.175 C 31.257 7.072 31.04 7.229 30.869 7.453 C 29.899 8.724 28.93 9.996 27.942 11.254 C 27.828 11.401 27.617 11.525 27.433 11.556 C 26.165 11.771 24.894 11.959 23.622 12.153 C 23.352 12.194 23.162 12.323 23.106 12.595 C 23.047 12.873 23.157 13.084 23.396 13.246"/>
    <path id="path1198" style="fill-opacity: 1; fill-rule: nonzero; stroke: none;" d="M 39.621 46.64 C 40.079 47.009 40.526 47.393 40.978 47.77 C 41.889 48.531 42.799 49.296 43.714 50.053 C 44.035 50.318 44.41 50.275 44.608 49.974 C 44.785 49.702 44.72 49.411 44.415 49.157 C 43.513 48.401 42.608 47.648 41.706 46.893 C 41.619 46.82 41.537 46.74 41.389 46.606 C 42.415 46.529 43.351 46.47 44.284 46.382 C 44.467 46.365 44.69 46.283 44.809 46.154 C 46.026 44.83 47.23 43.493 48.425 42.148 C 48.529 42.03 48.614 41.808 48.574 41.674 C 48.521 41.499 48.362 41.306 48.198 41.227 C 47.943 41.104 47.715 41.245 47.526 41.454 C 46.46 42.645 45.393 43.836 44.311 45.013 C 44.184 45.149 43.964 45.257 43.779 45.274 C 42.498 45.388 41.215 45.476 39.933 45.567 C 39.661 45.588 39.46 45.701 39.383 45.968 C 39.303 46.241 39.394 46.458 39.621 46.64"/>
    <path id="path1202" style="fill-opacity: 1; fill-rule: nonzero; stroke: none;" d="M 20.073 28.431 C 19.999 28.853 20.175 29.118 20.606 29.182 C 21.505 29.316 22.405 29.44 23.305 29.562 C 24.194 29.682 25.086 29.794 25.975 29.91 C 26.329 29.92 26.601 29.7 26.625 29.383 C 26.647 29.1 26.429 28.827 26.113 28.783 C 24.621 28.577 23.128 28.371 21.632 28.183 C 21.365 28.151 21.27 28.101 21.327 27.801 C 21.533 26.723 21.721 25.642 21.882 24.557 C 21.917 24.313 21.87 24.025 21.768 23.796 C 21.357 22.862 20.912 21.944 20.477 21.019 C 20.285 20.608 20.092 20.195 19.891 19.787 C 19.76 19.517 19.535 19.382 19.237 19.452 C 18.958 19.517 18.796 19.715 18.805 20.006 C 18.811 20.144 18.871 20.287 18.931 20.415 C 19.506 21.642 20.088 22.863 20.659 24.09 C 20.719 24.223 20.76 24.392 20.738 24.531 C 20.525 25.833 20.297 27.131 20.073 28.431"/>
    <path id="path1206" style="fill-opacity: 1; fill-rule: nonzero; stroke: none;" d="M 35.147 34.174 C 35.036 34.225 34.938 34.299 34.837 34.367 C 33.63 35.181 32.425 35.997 31.186 36.834 C 31.127 36.696 31.081 36.597 31.04 36.496 C 30.724 35.7 30.407 34.908 30.094 34.112 C 29.977 33.812 29.784 33.637 29.445 33.644 C 28.012 33.673 26.578 33.687 25.144 33.733 C 24.963 33.739 24.725 33.866 24.624 34.012 C 24.532 34.143 24.521 34.431 24.61 34.557 C 24.714 34.709 24.961 34.844 25.146 34.844 C 26.358 34.848 27.568 34.823 28.779 34.781 C 29.066 34.77 29.183 34.877 29.279 35.125 C 29.609 35.996 29.962 36.859 30.305 37.727 C 30.537 38.314 30.869 38.425 31.383 38.078 C 32.783 37.134 34.182 36.187 35.58 35.24 C 35.662 35.184 35.748 35.125 35.808 35.049 C 35.99 34.823 36.007 34.576 35.828 34.346 C 35.654 34.121 35.416 34.049 35.147 34.174"/>
    <path id="path1210" style="fill-opacity: 1; fill-rule: nonzero; stroke: none;" d="M 32.112 25.958 C 32.727 25.831 33.336 25.653 33.935 25.456 C 34.256 25.351 34.371 25.037 34.265 24.756 C 34.152 24.455 33.86 24.314 33.536 24.406 C 33.483 24.421 33.431 24.44 33.379 24.458 C 32.2 24.858 30.997 25.068 29.749 24.907 C 28.63 24.762 27.669 24.314 26.919 23.449 C 26.369 22.817 26.038 22.074 25.78 21.287 C 25.662 20.929 25.367 20.77 25.064 20.87 C 24.75 20.972 24.599 21.261 24.702 21.617 C 25 22.656 25.482 23.6 26.231 24.387 C 27.415 25.631 28.917 26.093 30.838 26.109 C 31.101 26.079 31.615 26.062 32.112 25.958"/>
    <path id="path1214" style="fill-opacity: 1; fill-rule: nonzero; stroke: none;" d="M 14.9 25.958 C 15.517 25.831 16.125 25.653 16.723 25.456 C 17.044 25.351 17.159 25.037 17.054 24.756 C 16.94 24.455 16.648 24.314 16.324 24.406 C 16.271 24.421 16.219 24.44 16.167 24.458 C 14.988 24.858 13.786 25.068 12.537 24.907 C 11.418 24.762 10.457 24.314 9.707 23.449 C 9.158 22.817 8.826 22.074 8.568 21.287 C 8.45 20.929 8.155 20.77 7.852 20.87 C 7.538 20.972 7.387 21.261 7.49 21.617 C 7.788 22.656 8.27 23.6 9.02 24.387 C 10.205 25.631 11.705 26.093 13.627 26.109 C 13.889 26.079 14.403 26.062 14.9 25.958"/>
    <path id="path1218" style="fill-opacity: 1; fill-rule: nonzero; stroke: none;" d="M 54.785 19.546 C 54.599 19.179 54.278 19.054 53.965 19.221 C 53.678 19.374 53.615 19.692 53.771 20.06 C 54.003 20.61 54.259 21.158 54.432 21.728 C 55.028 23.697 54.883 25.6 53.756 27.354 C 53.406 27.898 52.927 28.36 52.488 28.843 C 52.238 29.121 52.189 29.427 52.406 29.677 C 52.599 29.901 52.95 29.921 53.217 29.72 C 53.315 29.647 53.411 29.57 53.498 29.485 C 55.051 27.957 55.864 26.105 55.916 23.954 C 55.894 22.373 55.483 20.922 54.785 19.546"/>
    <path id="path1222" style="fill-opacity: 1; fill-rule: nonzero; stroke: none;" d="M 31.353 15.904 C 31.047 16.035 30.928 16.341 31.059 16.678 C 31.135 16.875 31.223 17.068 31.308 17.262 C 31.937 18.729 32.567 20.198 33.201 21.665 C 33.377 22.069 33.771 22.203 34.095 21.944 C 35.387 20.911 36.671 19.867 37.952 18.818 C 38.234 18.586 38.253 18.241 38.038 17.991 C 37.827 17.749 37.517 17.723 37.234 17.943 C 36.883 18.215 36.543 18.501 36.197 18.78 C 35.473 19.367 34.749 19.953 33.976 20.58 C 33.713 19.974 33.477 19.426 33.241 18.878 C 32.862 18.001 32.489 17.122 32.107 16.248 C 31.955 15.904 31.656 15.775 31.353 15.904"/>
    <path id="path1226" style="fill-opacity: 1; fill-rule: nonzero; stroke: none;" d="M 47.484 44.627 C 47.178 44.759 47.059 45.065 47.19 45.402 C 47.267 45.599 47.354 45.791 47.437 45.985 C 48.069 47.453 48.698 48.922 49.332 50.389 C 49.507 50.793 49.901 50.927 50.224 50.668 C 51.518 49.633 52.803 48.59 54.083 47.54 C 54.366 47.309 54.385 46.965 54.167 46.715 C 53.958 46.473 53.648 46.447 53.365 46.666 C 53.014 46.939 52.674 47.225 52.328 47.503 C 51.604 48.091 50.88 48.677 50.106 49.304 C 49.845 48.697 49.608 48.148 49.372 47.6 C 48.993 46.725 48.62 45.846 48.237 44.972 C 48.086 44.627 47.786 44.499 47.484 44.627"/>
    <path id="path1230" style="fill-opacity: 1; fill-rule: nonzero; stroke: none;" d="M 15.563 7.191 C 15.257 7.322 15.138 7.628 15.269 7.966 C 15.346 8.163 15.433 8.355 15.517 8.548 C 16.148 10.017 16.778 11.485 17.412 12.953 C 17.586 13.357 17.98 13.491 18.305 13.231 C 19.597 12.197 20.882 11.153 22.162 10.104 C 22.445 9.873 22.464 9.529 22.247 9.279 C 22.038 9.037 21.727 9.011 21.445 9.23 C 21.094 9.503 20.753 9.787 20.408 10.067 C 19.684 10.655 18.959 11.241 18.186 11.868 C 17.924 11.26 17.688 10.712 17.451 10.164 C 17.073 9.288 16.7 8.41 16.316 7.535 C 16.166 7.191 15.866 7.063 15.563 7.191"/>
    <path id="path1234" style="fill-opacity: 1; fill-rule: nonzero; stroke: none;" d="M 49.145 20.466 C 48.708 20.769 48.273 21.074 47.818 21.389 C 47.47 20.904 47.131 20.438 46.798 19.968 C 46.639 19.746 46.414 19.617 46.168 19.717 C 45.999 19.787 45.818 19.965 45.762 20.136 C 45.714 20.278 45.801 20.504 45.895 20.649 C 46.202 21.119 46.541 21.568 46.881 22.045 C 46.37 22.403 45.885 22.732 45.41 23.075 C 45.075 23.314 45.027 23.693 45.281 23.964 C 45.489 24.186 45.765 24.206 46.063 24.004 C 46.559 23.668 47.047 23.324 47.553 22.973 C 47.933 23.501 48.301 24.015 48.671 24.527 C 48.916 24.866 49.278 24.956 49.556 24.751 C 49.832 24.548 49.853 24.23 49.599 23.87 C 49.241 23.363 48.877 22.861 48.488 22.318 C 48.947 21.997 49.372 21.697 49.8 21.4 C 50.197 21.121 50.311 20.785 50.104 20.482 C 49.895 20.175 49.574 20.169 49.145 20.466"/>
    <path id="path1238" style="fill-opacity: 1; fill-rule: nonzero; stroke: none;" d="M 40.536 54.139 C 40.099 54.442 39.663 54.747 39.21 55.063 C 38.86 54.578 38.523 54.112 38.189 53.642 C 38.031 53.419 37.805 53.289 37.559 53.39 C 37.39 53.46 37.21 53.639 37.154 53.809 C 37.106 53.952 37.191 54.177 37.285 54.322 C 37.594 54.792 37.932 55.242 38.273 55.719 C 37.762 56.075 37.277 56.406 36.801 56.749 C 36.466 56.988 36.419 57.366 36.671 57.637 C 36.88 57.859 37.156 57.88 37.454 57.676 C 37.95 57.342 38.438 56.997 38.945 56.645 C 39.325 57.175 39.692 57.689 40.062 58.201 C 40.306 58.54 40.669 58.63 40.946 58.425 C 41.224 58.22 41.243 57.903 40.99 57.544 C 40.632 57.037 40.269 56.534 39.879 55.992 C 40.338 55.669 40.763 55.37 41.19 55.072 C 41.588 54.795 41.702 54.459 41.496 54.156 C 41.287 53.848 40.965 53.843 40.536 54.139"/>
    <path id="path1242" style="fill-opacity: 1; fill-rule: nonzero; stroke: none;" d="M 36.287 41.634 C 35.85 41.937 35.416 42.241 34.961 42.558 C 34.612 42.073 34.275 41.605 33.94 41.137 C 33.782 40.914 33.556 40.784 33.31 40.885 C 33.141 40.954 32.961 41.134 32.905 41.303 C 32.857 41.447 32.943 41.672 33.037 41.817 C 33.345 42.287 33.683 42.737 34.024 43.213 C 33.513 43.57 33.029 43.901 32.552 44.244 C 32.219 44.483 32.17 44.861 32.424 45.132 C 32.631 45.353 32.907 45.375 33.207 45.171 C 33.701 44.836 34.19 44.491 34.696 44.14 C 35.076 44.668 35.443 45.183 35.813 45.696 C 36.058 46.033 36.42 46.123 36.699 45.919 C 36.975 45.715 36.995 45.397 36.741 45.037 C 36.384 44.53 36.02 44.029 35.63 43.487 C 36.089 43.164 36.514 42.865 36.942 42.567 C 37.339 42.288 37.453 41.954 37.247 41.65 C 37.038 41.343 36.716 41.336 36.287 41.634"/>
    <path id="path1246" style="fill-opacity: 1; fill-rule: nonzero; stroke: none;" d="M 20.975 49.998 C 20.539 50.3 20.103 50.605 19.649 50.922 C 19.3 50.437 18.962 49.969 18.629 49.501 C 18.47 49.278 18.245 49.148 17.999 49.249 C 17.828 49.318 17.649 49.498 17.593 49.667 C 17.545 49.811 17.63 50.036 17.724 50.18 C 18.032 50.651 18.371 51.101 18.712 51.577 C 18.201 51.934 17.716 52.265 17.239 52.606 C 16.906 52.847 16.858 53.225 17.112 53.496 C 17.32 53.717 17.596 53.739 17.894 53.535 C 18.388 53.201 18.877 52.855 19.384 52.504 C 19.764 53.034 20.132 53.548 20.502 54.06 C 20.745 54.397 21.109 54.488 21.386 54.283 C 21.663 54.079 21.682 53.761 21.43 53.401 C 21.072 52.895 20.707 52.393 20.319 51.849 C 20.778 51.528 21.203 51.229 21.629 50.931 C 22.028 50.653 22.141 50.318 21.935 50.015 C 21.726 49.707 21.405 49.7 20.975 49.998"/>
    <path id="path1250" style="fill-opacity: 1; fill-rule: nonzero; stroke: none;" d="M 39.043 28.474 C 38.983 28.133 38.699 27.973 38.278 28.043 C 38.223 28.052 38.17 28.065 38.115 28.075 C 35.839 28.556 33.562 29.036 31.286 29.518 C 30.559 29.671 29.833 29.824 29.108 29.981 C 28.768 30.055 28.55 30.32 28.586 30.61 C 28.621 30.915 28.866 31.119 29.216 31.115 C 29.251 31.11 29.318 31.107 29.384 31.093 C 32.418 30.451 35.453 29.811 38.487 29.166 C 38.908 29.076 39.103 28.821 39.043 28.474"/>
    <path id="path1254" style="fill-opacity: 1; fill-rule: nonzero; stroke: none;" d="M 34.076 6.049 C 34.301 6.225 34.558 6.134 34.765 5.937 C 35.419 5.318 36.073 4.702 36.734 4.079 C 36.833 4.151 36.915 4.207 36.992 4.267 C 37.681 4.811 38.366 5.36 39.061 5.895 C 39.338 6.108 39.672 6.061 39.863 5.819 C 40.047 5.589 40.035 5.228 39.796 5.037 C 38.887 4.306 37.971 3.586 37.05 2.87 C 36.808 2.683 36.542 2.703 36.319 2.911 C 35.531 3.646 34.748 4.386 33.972 5.134 C 33.876 5.227 33.767 5.395 33.79 5.501 C 33.832 5.699 33.925 5.931 34.076 6.049"/>
    <path id="path1258" style="fill-opacity: 1; fill-rule: nonzero; stroke: none;" d="M 40.121 32.436 C 40.222 32.368 40.307 32.278 40.394 32.193 C 40.993 31.63 41.588 31.068 42.198 30.491 C 42.3 30.567 42.39 30.629 42.475 30.697 C 43.146 31.227 43.813 31.763 44.489 32.286 C 44.796 32.524 45.105 32.494 45.32 32.237 C 45.525 31.991 45.507 31.645 45.243 31.435 C 44.351 30.719 43.453 30.011 42.549 29.311 C 42.263 29.088 42.024 29.11 41.743 29.365 C 41.251 29.815 40.766 30.272 40.281 30.729 C 39.983 31.012 39.683 31.293 39.396 31.587 C 39.187 31.803 39.187 32.122 39.371 32.344 C 39.557 32.565 39.867 32.609 40.121 32.436"/>
    <path id="path1262" style="fill-opacity: 1; fill-rule: nonzero; stroke: none;" d="M 23.188 60.834 C 23.215 60.716 23.214 60.592 23.219 60.469 C 23.266 59.651 23.311 58.831 23.356 57.995 C 23.484 57.978 23.592 57.962 23.7 57.952 C 24.551 57.874 25.404 57.806 26.255 57.72 C 26.64 57.68 26.845 57.447 26.824 57.113 C 26.803 56.794 26.552 56.556 26.217 56.583 C 25.077 56.678 23.938 56.781 22.8 56.895 C 22.439 56.93 22.281 57.111 22.252 57.489 C 22.204 58.155 22.167 58.82 22.131 59.485 C 22.107 59.895 22.083 60.306 22.077 60.718 C 22.073 61.017 22.293 61.249 22.58 61.283 C 22.867 61.316 23.122 61.134 23.188 60.834"/>
    <path id="path1266" style="fill-opacity: 1; fill-rule: nonzero; stroke: none;" d="M 35.931 9.172 C 35.889 8.795 35.618 8.592 35.301 8.634 C 34.97 8.678 34.776 8.969 34.809 9.343 C 34.849 9.795 34.877 10.249 34.909 10.701 C 35 11.973 35.087 13.244 35.184 14.514 C 35.215 14.913 35.585 15.155 35.95 15.017 C 36.292 14.889 36.341 14.596 36.3 14.227 C 36.233 13.237 36.164 12.197 36.091 11.159 C 36.044 10.496 36.005 9.832 35.931 9.172"/>
    <path id="path1270" style="fill-opacity: 1; fill-rule: nonzero; stroke: none;" d="M 41.639 26.824 C 41.781 26.712 41.864 26.525 41.996 26.34 C 41.871 26.155 41.807 25.973 41.679 25.879 C 40.273 24.846 38.86 23.821 37.441 22.807 C 37.319 22.721 37.1 22.647 36.986 22.699 C 36.805 22.779 36.614 22.945 36.537 23.123 C 36.432 23.37 36.588 23.589 36.804 23.746 C 37.659 24.363 38.514 24.984 39.368 25.603 C 39.908 25.995 40.448 26.387 40.989 26.776 C 41.194 26.924 41.433 26.985 41.639 26.824"/>
    <path id="path1274" style="fill-opacity: 1; fill-rule: nonzero; stroke: none;" d="M 41.74 41.671 C 40.393 40.693 39.046 39.716 37.699 38.74 C 37.367 38.5 37.01 38.522 36.812 38.79 C 36.61 39.061 36.684 39.406 37.017 39.65 C 38.389 40.65 39.763 41.646 41.14 42.64 C 41.252 42.72 41.39 42.764 41.598 42.865 C 41.751 42.727 41.945 42.615 42.046 42.448 C 42.209 42.176 42.091 41.926 41.74 41.671"/>
    <path id="path1278" style="fill-opacity: 1; fill-rule: nonzero; stroke: none;" d="M 39.4 20.575 C 39.277 20.485 39.043 20.44 38.911 20.494 C 38.752 20.56 38.585 20.733 38.528 20.896 C 38.432 21.164 38.585 21.38 38.811 21.546 C 39.898 22.355 40.979 23.169 42.063 23.979 C 42.337 24.187 42.597 24.424 42.897 24.582 C 43.056 24.665 43.315 24.671 43.479 24.597 C 43.63 24.529 43.713 24.31 43.844 24.133 C 43.721 23.947 43.657 23.764 43.529 23.665 C 42.16 22.624 40.785 21.593 39.4 20.575"/>
    <path id="path1282" style="fill-opacity: 1; fill-rule: nonzero; stroke: none;" d="M 19.268 41.454 C 19.145 41.363 18.912 41.32 18.779 41.374 C 18.619 41.44 18.454 41.612 18.395 41.776 C 18.301 42.043 18.454 42.258 18.679 42.426 C 19.766 43.234 20.846 44.048 21.931 44.86 C 22.206 45.066 22.465 45.304 22.766 45.462 C 22.924 45.546 23.184 45.55 23.346 45.476 C 23.498 45.409 23.581 45.189 23.711 45.013 C 23.59 44.826 23.525 44.642 23.397 44.545 C 22.028 43.504 20.652 42.472 19.268 41.454"/>
    <path id="path1286" style="fill-opacity: 1; fill-rule: nonzero; stroke: none;" d="M 17.105 43.615 C 16.984 43.525 16.75 43.481 16.618 43.536 C 16.458 43.601 16.293 43.774 16.234 43.937 C 16.138 44.205 16.293 44.421 16.518 44.588 C 17.604 45.397 18.685 46.211 19.768 47.021 C 20.044 47.227 20.304 47.465 20.604 47.624 C 20.763 47.707 21.022 47.712 21.185 47.639 C 21.337 47.57 21.419 47.352 21.55 47.174 C 21.428 46.987 21.364 46.804 21.236 46.707 C 19.867 45.666 18.491 44.634 17.105 43.615"/>
    <path id="path1290" style="fill-opacity: 1; fill-rule: nonzero; stroke: none;" d="M 55.446 41.454 C 55.323 41.363 55.091 41.32 54.957 41.374 C 54.799 41.44 54.632 41.612 54.573 41.776 C 54.479 42.043 54.632 42.258 54.859 42.426 C 55.944 43.234 57.026 44.048 58.109 44.86 C 58.384 45.066 58.643 45.304 58.944 45.462 C 59.102 45.546 59.362 45.55 59.526 45.476 C 59.676 45.409 59.759 45.189 59.891 45.013 C 59.768 44.826 59.703 44.642 59.575 44.545 C 58.207 43.504 56.832 42.472 55.446 41.454"/>
    <path id="path1294" style="fill-opacity: 1; fill-rule: nonzero; stroke: none;" d="M 39.184 14.454 C 39.187 14.331 39.184 14.21 39.184 14.158 C 39.158 13.709 39.133 13.334 39.113 12.957 C 39.045 11.737 38.982 10.517 38.908 9.298 C 38.882 8.891 38.535 8.648 38.156 8.771 C 37.842 8.873 37.76 9.128 37.778 9.433 C 37.852 10.809 37.923 12.183 37.997 13.559 C 38.013 13.869 38.025 14.181 38.057 14.49 C 38.094 14.86 38.33 15.062 38.678 15.04 C 38.989 15.021 39.176 14.807 39.184 14.454"/>
    <path id="path1298" style="fill-opacity: 1; fill-rule: nonzero; stroke: none;" d="M 49.466 29.451 C 48.144 28.457 46.82 27.462 45.492 26.473 C 45.373 26.384 45.225 26.334 45.156 26.298 C 44.81 26.299 44.609 26.418 44.534 26.666 C 44.453 26.928 44.518 27.161 44.758 27.34 C 46.104 28.343 47.443 29.354 48.786 30.36 C 49.1 30.593 49.45 30.57 49.644 30.315 C 49.862 30.025 49.801 29.704 49.466 29.451"/>
    <path id="path1302" style="fill-opacity: 1; fill-rule: nonzero; stroke: none;" d="M 25.271 38.176 C 23.836 38.059 22.398 37.955 20.946 37.845 C 20.872 37.845 20.782 37.843 20.695 37.845 C 20.368 37.855 20.136 38.064 20.11 38.369 C 20.084 38.665 20.322 38.949 20.65 38.975 C 22.165 39.091 23.678 39.202 25.195 39.305 C 25.564 39.329 25.818 39.098 25.836 38.776 C 25.855 38.433 25.665 38.207 25.271 38.176"/>
    <path id="path1306" style="fill-opacity: 1; fill-rule: nonzero; stroke: none;" d="M 52.96 15.831 C 53.024 15.83 53.094 15.82 53.154 15.797 C 53.43 15.693 53.566 15.412 53.502 15.091 C 53.367 14.421 53.178 14.166 52.79 14.17 C 52.757 14.179 52.691 14.19 52.63 14.215 C 52.348 14.327 52.216 14.595 52.283 14.919 C 52.43 15.626 52.585 15.837 52.96 15.831"/>
    <path id="path1310" style="fill-opacity: 1; fill-rule: nonzero; stroke: none;" d="M 36.572 50.215 C 36.636 50.214 36.706 50.204 36.766 50.181 C 37.042 50.077 37.178 49.795 37.113 49.475 C 36.979 48.805 36.79 48.55 36.402 48.554 C 36.368 48.562 36.302 48.573 36.242 48.598 C 35.96 48.71 35.828 48.979 35.895 49.303 C 36.042 50.009 36.196 50.221 36.572 50.215"/>
    <path id="path1314" style="fill-opacity: 1; fill-rule: nonzero; stroke: none;" d="M 41.606 18.719 C 41.699 19.006 41.968 19.153 42.262 19.097 C 42.517 19.046 42.712 18.793 42.707 18.442 C 42.662 18.274 42.617 18.035 42.533 17.808 C 42.43 17.531 42.151 17.391 41.894 17.456 C 41.606 17.527 41.409 17.807 41.457 18.109 C 41.49 18.315 41.541 18.52 41.606 18.719"/>
    <path id="path1318" style="fill-opacity: 1; fill-rule: nonzero; stroke: none;" d="M 57.751 27.365 C 57.844 27.652 58.114 27.798 58.407 27.741 C 58.662 27.692 58.858 27.437 58.852 27.088 C 58.809 26.92 58.762 26.679 58.677 26.454 C 58.575 26.176 58.296 26.037 58.041 26.101 C 57.751 26.172 57.554 26.452 57.602 26.753 C 57.636 26.961 57.687 27.166 57.751 27.365"/>
    <path id="path1322" style="fill-opacity: 1; fill-rule: nonzero; stroke: none;" d="M 11.802 13.809 C 11.895 14.096 12.165 14.244 12.458 14.186 C 12.714 14.136 12.908 13.883 12.903 13.533 C 12.859 13.365 12.813 13.125 12.728 12.898 C 12.626 12.622 12.347 12.483 12.091 12.545 C 11.802 12.618 11.605 12.898 11.653 13.199 C 11.687 13.405 11.738 13.611 11.802 13.809"/>
    <path id="path1326" style="fill-opacity: 1; fill-rule: nonzero; stroke: none;" d="M 29.915 39.59 C 29.699 39.508 29.474 39.444 29.247 39.403 C 28.971 39.355 28.717 39.533 28.639 39.802 C 28.553 40.098 28.652 40.343 28.921 40.469 C 29.157 40.577 29.423 40.62 29.592 40.668 C 29.975 40.66 30.178 40.526 30.236 40.239 C 30.294 39.952 30.209 39.704 29.915 39.59"/>
    <path id="path1330" style="fill-opacity: 1; fill-rule: nonzero; stroke: none;" d="M 12.13 17.833 C 11.915 17.751 11.69 17.685 11.463 17.646 C 11.186 17.596 10.933 17.774 10.854 18.045 C 10.769 18.34 10.866 18.586 11.136 18.711 C 11.371 18.819 11.639 18.863 11.806 18.911 C 12.19 18.903 12.392 18.769 12.451 18.482 C 12.509 18.195 12.425 17.946 12.13 17.833"/>
    <path id="path1334" style="fill-opacity: 1; fill-rule: nonzero; stroke: none;" d="M 29.888 56.139 C 29.672 56.057 29.447 55.993 29.221 55.954 C 28.944 55.904 28.69 56.082 28.612 56.351 C 28.526 56.648 28.624 56.892 28.893 57.018 C 29.13 57.127 29.396 57.169 29.564 57.217 C 29.948 57.209 30.15 57.075 30.209 56.788 C 30.266 56.501 30.182 56.253 29.888 56.139"/>
    <path id="path1338" style="fill-opacity: 1; fill-rule: nonzero; stroke: none;" d="M 14.165 21 C 13.951 20.918 13.725 20.852 13.499 20.813 C 13.223 20.763 12.969 20.941 12.891 21.211 C 12.805 21.507 12.903 21.753 13.172 21.878 C 13.408 21.986 13.675 22.029 13.843 22.076 C 14.225 22.069 14.428 21.936 14.486 21.649 C 14.545 21.362 14.46 21.112 14.165 21"/>
    <path id="path1342" style="fill-opacity: 1; fill-rule: nonzero; stroke: none;" d="M 37.745 34.92 C 37.441 34.879 37.234 35.041 37.144 35.326 C 37.057 35.61 37.17 35.847 37.421 35.965 C 37.666 36.082 37.943 36.131 38.114 36.183 C 38.491 36.176 38.729 35.979 38.766 35.702 C 38.803 35.418 38.678 35.196 38.415 35.092 C 38.202 35.008 37.972 34.95 37.745 34.92"/>
  </g>
</svg>