<?xml version="1.0" encoding="utf-8"?>
<svg viewBox="0 0 64 64" xmlns="http://www.w3.org/2000/svg">
  <g>
    <path d="M 2.21 24.696 C 8.253 22.924 14.414 21.554 20.639 20.6 C 21.962 20.397 23.334 20.215 24.623 20.577 C 26.011 20.968 27.157 21.954 28.11 23.036 C 29.063 24.12 29.069 24.295 30.078 25.327 C 29.484 25.57 28.864 25.745 28.232 25.849 C 28.074 25.874 27.909 25.896 27.757 25.845 C 27.572 25.783 27.439 25.626 27.315 25.476 C 25.978 23.854 25.859 23.126 23.854 22.498 C 22.494 22.071 20.515 22.244 19.107 22.467 C 18.213 22.608 17.321 22.786 16.452 23.042 C 14.676 23.567 13.004 24.423 11.203 24.854 C 9.062 25.368 6.826 25.263 4.626 25.154 C 3.928 25.12 3.23 25.086 2.531 25.051" style="fill: rgb(244, 111, 169); fill-opacity: 1; fill-rule: nonzero; stroke: none; display: inline;" id="path782"/>
    <path d="M 42.863 33.628 C 47.436 32.044 52.019 30.314 56.016 27.587 C 56.538 27.231 57.204 26.846 57.756 27.153 C 58.03 27.305 58.193 27.594 58.336 27.872 C 59.101 29.374 59.63 30.997 59.897 32.66 C 60.459 32.202 60.91 31.607 61.198 30.941 C 61.293 30.72 61.372 30.483 61.345 30.243 C 61.33 30.099 61.276 29.962 61.224 29.826 C 61.04 29.353 60.857 28.88 60.673 28.407 C 60.386 27.669 60.093 26.919 59.606 26.292 C 59.12 25.667 58.404 25.172 57.612 25.142 C 56.973 25.117 56.365 25.389 55.781 25.648 C 51.556 27.525 47.179 29.062 42.708 30.239 C 42.474 30.3 42.226 30.37 42.066 30.553 C 41.97 30.664 41.917 30.808 41.881 30.951 C 41.677 31.735 41.898 32.616 42.448 33.21" style="fill: rgb(244, 111, 169); fill-opacity: 1; fill-rule: nonzero; stroke: none; display: inline;" id="path786"/>
    <path d="M 44.254 29.817 C 44.254 29.817 39.249 28.449 36.488 27.931 C 33.729 27.413 28.64 26.594 25.449 27.284 C 22.258 27.974 20.663 28.103 19.8 27.845 C 18.938 27.586 15.187 24.928 10.961 24.424 C 6.735 23.921 3.875 23.856 2.48 24.578 C 1.086 25.3 3.716 26.218 3.716 26.218 L 17.205 31.189 L 24.026 30.432 L 44.034 31.381 Z" style="fill: rgb(244, 111, 169); fill-opacity: 1; fill-rule: nonzero; stroke: none; display: inline;" id="path790"/>
    <path d="M 15.844 39.96 C 17.946 39.573 19.197 38.883 19.455 38.065 C 19.714 37.245 19.747 33.771 20.275 32.76 C 20.802 31.75 22.419 31.597 22.419 31.597 C 22.419 31.597 20.533 30.13 20.318 30.13 C 20.103 30.13 17.687 30.518 17.601 30.648 C 17.515 30.777 15.844 39.96 15.844 39.96" style="fill: rgb(244, 111, 169); fill-opacity: 1; fill-rule: nonzero; stroke: none; display: inline;" id="path794"/>
    <path d="M 6.605 25.775 C 5.915 25.775 4.621 26.723 4.621 26.723 C 4.621 26.723 4.191 27.974 4.234 28.578 C 4.277 29.182 4.966 31.165 5.096 31.553 C 5.226 31.941 9.192 37.762 9.969 38.237 C 10.745 38.711 14.195 39.2 15.488 38.783 C 16.782 38.366 17.127 37.149 17.127 37.149 L 17.946 32.846 C 17.946 32.846 18.334 31.51 17.946 30.346 C 17.558 29.182 16.566 28.103 15.963 27.629 C 15.359 27.155 12.122 26.25 11.175 26.077 C 10.227 25.905 6.605 25.775 6.605 25.775" style="fill: rgb(23, 21, 20); fill-opacity: 1; fill-rule: nonzero; stroke: none; display: inline;" id="path798"/>
    <path d="M 32.262 29.052 C 31.314 28.923 28.813 28.794 28.381 28.837 C 27.95 28.88 26.743 28.794 26.14 29.052 C 25.536 29.311 25.665 29.225 25.147 29.655 C 24.629 30.087 23.466 31.208 23.466 32.071 C 23.466 32.933 24.457 38.754 26.657 40.35 C 28.855 41.946 32.219 43.196 33.771 42.938 C 35.324 42.678 37.523 41.902 37.523 41.902 L 39.248 38.783 C 39.248 38.783 39.55 37.288 39.766 35.563 C 39.981 33.839 40.628 33.019 39.766 31.898 C 38.903 30.777 38.515 30.345 38.04 30.173 C 37.567 30 32.262 29.052 32.262 29.052" style="fill: rgb(23, 21, 20); fill-opacity: 1; fill-rule: nonzero; stroke: none; display: inline;" id="path802"/>
    <path d="M 9.839 37.88 L 8.374 37.818 C 8.413 36.9 9.216 35.665 10.035 34.48 C 10.107 34.376 10.172 34.282 10.226 34.202 C 10.364 33.998 10.539 33.78 10.724 33.549 C 11.178 32.983 11.863 32.128 11.732 31.647 C 11.709 31.564 11.542 31.509 11.197 31.423 C 10.741 31.309 9.978 31.118 9.848 30.293 C 9.761 29.739 10.04 29.156 10.243 28.731 C 10.278 28.657 10.311 28.589 10.338 28.528 C 10.51 28.133 10.762 27.742 11.005 27.363 C 11.337 26.846 11.68 26.312 11.745 25.881 L 13.195 26.099 C 13.084 26.84 12.654 27.509 12.239 28.155 C 12.017 28.501 11.808 28.827 11.681 29.116 C 11.649 29.189 11.61 29.273 11.566 29.363 C 11.504 29.493 11.377 29.759 11.323 29.939 C 11.397 29.961 11.485 29.984 11.553 30 C 12.055 30.126 12.894 30.335 13.147 31.261 C 13.474 32.463 12.545 33.62 11.868 34.466 C 11.702 34.673 11.545 34.868 11.44 35.023 C 11.384 35.107 11.317 35.205 11.241 35.314 C 10.864 35.859 9.863 37.308 9.839 37.88" style="fill: rgb(255, 255, 255); fill-opacity: 1; fill-rule: nonzero; stroke: none; display: inline;" id="path806"/>
    <path d="M 28.208 42.075 C 27.642 41.508 28.107 40.754 28.331 40.391 C 28.357 40.35 28.392 40.292 28.402 40.273 C 28.68 39.735 28.977 39.204 29.262 38.69 C 29.652 37.993 30.053 37.272 30.4 36.547 C 30.434 36.476 30.484 36.385 30.545 36.269 C 31.051 35.315 31.226 34.821 31.276 34.567 C 31.243 34.571 31.211 34.577 31.182 34.58 C 30.87 34.628 30.397 34.699 30.003 34.395 C 29.832 34.264 29.619 34.012 29.568 33.559 C 29.488 32.822 29.794 32.069 30.064 31.404 C 30.164 31.158 30.259 30.926 30.316 30.737 C 30.35 30.622 30.389 30.503 30.428 30.379 C 30.552 30.003 30.691 29.576 30.668 29.278 L 32.132 29.171 C 32.175 29.757 31.987 30.329 31.823 30.834 C 31.787 30.944 31.751 31.052 31.721 31.155 C 31.644 31.413 31.537 31.677 31.423 31.958 C 31.263 32.346 31.088 32.775 31.037 33.12 C 31.262 33.087 31.531 33.058 31.813 33.125 C 32.189 33.214 32.481 33.45 32.633 33.79 C 33.01 34.623 32.448 35.811 31.839 36.957 C 31.79 37.05 31.744 37.137 31.723 37.18 C 31.356 37.946 30.942 38.687 30.544 39.404 C 30.262 39.908 29.973 40.429 29.705 40.945 C 29.67 41.015 29.625 41.086 29.578 41.163 C 29.527 41.246 29.42 41.421 29.398 41.489 C 29.422 41.415 29.412 41.207 29.246 41.039 Z" style="fill: rgb(255, 255, 255); fill-opacity: 1; fill-rule: nonzero; stroke: none; display: inline;" id="path810"/>
    <path d="M 38.221 38.938 C 37.983 39.627 37.698 40.318 37.217 40.865 C 36.426 41.766 35.183 42.172 33.984 42.184 C 32.786 42.196 31.612 41.858 30.475 41.478 C 29.231 41.063 27.947 40.555 27.102 39.552 C 26.632 38.993 26.2 38.362 25.902 37.698 C 25.718 37.286 25.365 36.435 25.262 36.152 C 24.5 34.068 23.848 32.441 24.845 30.82 C 25.424 29.88 26.205 29.472 27.217 29.483 C 28.649 29.499 30.203 29.559 31.619 29.785 C 33.294 30.052 34.694 30.505 36.279 31.086 C 37.511 31.536 38.298 32.294 38.662 33.579 C 39.159 35.331 38.813 37.217 38.221 38.938 M 17.335 34.369 C 17.249 35.854 17.051 37.55 15.829 38.396 C 15.197 38.834 14.371 38.818 13.605 38.74 C 12.84 38.663 12.122 38.54 11.397 38.28 C 10.878 38.093 10.353 37.902 9.891 37.599 C 9.216 37.157 8.71 36.501 8.252 35.836 C 7.058 34.108 6.085 32.228 5.36 30.256 C 4.784 28.692 4.338 26.8 6.501 26.351 C 7.155 26.216 7.824 26.195 8.488 26.239 C 10.251 26.354 12.03 26.965 13.664 27.613 C 14.915 28.109 16.128 28.879 16.776 30.057 C 17.485 31.345 17.42 32.902 17.335 34.369 M 42.889 30.158 C 39.263 29.22 35.579 28.503 31.866 28.014 C 30.708 27.861 29.538 27.731 28.374 27.808 C 26.752 27.914 25.237 28.196 23.638 28.492 C 22.04 28.786 20.269 29.078 18.809 28.365 C 18.168 28.051 17.605 27.599 16.997 27.226 C 15.752 26.464 14.335 26.039 12.924 25.67 C 9.68 24.82 6.324 24.211 2.983 24.495 C 2.589 24.528 2.14 24.609 1.939 24.949 C 1.831 25.132 1.821 25.355 1.817 25.567 C 1.81 26.066 1.871 26.56 1.877 27.057 C 1.881 27.396 1.729 27.884 1.859 28.2 C 1.914 28.333 2.023 28.436 2.128 28.535 C 2.69 29.063 3.255 29.612 3.615 30.295 C 4.052 31.119 4.151 32.056 4.428 32.935 C 4.697 33.784 5.162 34.599 5.606 35.368 C 6.512 36.936 7.7 38.423 9.395 39.173 C 10.503 39.664 11.954 40.005 13.159 40.134 C 14.127 40.237 14.886 40.133 15.844 39.96 C 16.801 39.788 17.747 39.297 18.244 38.461 C 18.594 37.872 18.693 37.172 18.785 36.492 C 18.933 35.395 19.082 34.297 19.231 33.201 C 19.329 32.474 19.67 31.538 20.401 31.6 C 20.754 31.631 21.032 31.91 21.248 32.191 C 22.516 33.834 22.816 36.009 23.693 37.89 C 24.97 40.628 27.563 42.716 30.511 43.378 C 31.419 43.583 32.352 43.658 33.282 43.696 C 35.46 43.785 37.962 43.512 39.241 41.744 C 39.819 40.946 40.05 39.955 40.268 38.995 C 40.507 37.948 40.744 36.903 40.982 35.857 C 41.098 35.341 41.222 34.812 41.518 34.376 C 41.815 33.938 42.33 33.607 42.854 33.684 C 43.079 32.524 43.09 31.322 42.889 30.158" style="fill: rgb(236, 6, 118); fill-opacity: 1; fill-rule: nonzero; stroke: none; display: inline;" id="path814"/>
  </g>
</svg>