<?xml version="1.0" encoding="utf-8"?>
<svg viewBox="0 0 64 64" xmlns="http://www.w3.org/2000/svg">
  <defs>
    <clipPath id="clipPath1350" clipPathUnits="userSpaceOnUse">
      <path id="path1348" d="m 609.979,323.945 c -1.246,-0.073 -2.345,-0.548 -3.294,-1.359 v 0 c -1.085,-0.927 -1.799,-2.115 -2.353,-3.408 v 0 c -0.885,-2.065 -1.336,-4.243 -1.627,-6.457 v 0 c -0.143,-1.075 -0.228,-2.159 -0.342,-3.238 v 0 c -0.009,-0.075 -0.043,-0.15 -0.078,-0.218 v 0 c -0.079,-0.156 -0.182,-0.3 -0.249,-0.46 v 0 c -0.443,-1.06 -0.848,-2.137 -1.325,-3.181 v 0 c -0.914,-2.006 -2.071,-3.862 -3.563,-5.495 v 0 c -0.397,-0.433 -0.823,-0.843 -1.391,-1.051 v 0 c -0.347,-0.127 -0.691,-0.112 -0.927,0.286 v 0 c -0.313,0.529 -0.584,1.082 -0.667,1.686 v 0 c -0.113,0.826 -0.193,1.662 -0.202,2.496 v 0 c -0.014,1.401 0.043,2.802 0.059,4.204 v 0 c 0.003,0.333 0.094,0.623 0.316,0.866 v 0 c 0.245,0.271 0.498,0.538 0.76,0.794 v 0 c 1.005,0.991 1.985,2.003 2.779,3.176 v 0 c 0.577,0.853 1.064,1.751 1.283,2.773 v 0 c 0.24,1.117 -0.26,2.065 -1.338,2.449 v 0 c -1.044,0.372 -2.093,0.336 -3.119,-0.072 v 0 c -1.406,-0.561 -2.434,-1.591 -3.297,-2.79 v 0 c -1.267,-1.757 -1.956,-3.756 -2.358,-5.864 v 0 c -0.126,-0.661 -0.191,-1.337 -0.362,-1.986 v 0 c -0.524,-1.988 -1.062,-3.974 -1.841,-5.885 v 0 c -0.53,-1.302 -1.041,-2.614 -1.774,-3.82 v 0 c -0.195,-0.323 -0.442,-0.623 -0.712,-0.885 v 0 c -0.268,-0.258 -0.543,-0.202 -0.729,0.12 v 0 c -0.131,0.226 -0.258,0.472 -0.3,0.725 v 0 c -0.223,1.284 -0.488,2.568 -0.604,3.863 v 0 c -0.132,1.46 -0.177,2.932 -0.159,4.398 v 0 c 0.024,1.759 0.113,3.52 0.25,5.275 v 0 c 0.147,1.901 0.456,3.784 0.824,5.655 v 0 c 0.024,0.12 0.09,0.249 0.174,0.34 v 0 c 0.428,0.463 0.88,0.905 1.302,1.373 v 0 c 0.602,0.668 1.075,1.41 1.225,2.319 v 0 c 0.063,0.376 0.024,0.73 -0.195,1.052 v 0 c -0.386,0.566 -0.961,0.721 -1.595,0.706 v 0 c -1.063,-0.026 -1.853,-0.58 -2.498,-1.371 v 0 c -0.681,-0.836 -1.087,-1.825 -1.449,-2.823 v 0 c -0.291,-0.802 -0.512,-1.631 -0.729,-2.458 v 0 c -0.054,-0.203 -0.126,-0.323 -0.298,-0.433 v 0 c -0.803,-0.514 -1.496,-1.154 -2.084,-1.908 v 0 c -0.822,-1.062 -1.431,-2.247 -2.008,-3.451 v 0 c -0.094,-0.197 -0.186,-0.395 -0.278,-0.59 v 0 c 0.019,0.542 0.067,1.078 0.051,1.611 v 0 c -0.049,1.629 -0.112,3.257 -0.189,4.883 v 0 c -0.049,1.048 -0.147,2.094 -0.197,3.142 v 0 c -0.045,0.958 -0.055,1.919 -0.082,2.877 v 0 c -10e-4,0.042 -0.014,0.095 -0.042,0.121 v 0 c -0.183,0.171 -0.369,0.338 -0.562,0.498 v 0 c -0.017,0.012 -0.046,0.007 -0.077,10e-4 v 0 c -0.023,-0.004 -0.047,-0.008 -0.066,-0.004 v 0 c -0.09,0.016 -0.201,0.019 -0.261,0.074 v 0 c -0.115,0.103 -0.216,0.142 -0.347,0.042 v 0 c -0.04,0.053 -0.077,0.103 -0.135,0.18 v 0 c -0.072,-0.084 -0.148,-0.144 -0.188,-0.222 v 0 c -0.101,-0.195 -0.205,-0.391 -0.274,-0.598 v 0 c -0.529,-1.618 -0.882,-3.28 -1.188,-4.952 v 0 c -0.08,-0.436 -0.137,-0.878 -0.204,-1.317 v 0 c -0.004,0.508 0.02,1.013 0.068,1.516 v 0 c 0.162,1.696 0.391,3.377 1.101,4.953 v 0 c 0.064,0.139 0.079,0.301 0.126,0.496 v 0 c -0.222,-0.061 -0.396,-0.089 -0.554,-0.156 v 0 c -0.556,-0.235 -0.866,-0.696 -1.113,-1.22 v 0 c -1.198,-2.564 -1.729,-5.279 -1.848,-8.089 v 0 c -0.066,-1.528 -10e-4,-3.053 0.186,-4.569 v 0 c 0.13,-1.047 0.268,-2.092 0.608,-3.1 v 0 c 0.523,-1.543 1.11,-3.056 1.992,-4.438 v 0 c 0.618,-0.969 1.065,-1.28 2.17,-1.494 v 0 c 0.257,-0.05 0.515,0 0.777,0.03 v 0 c 0.244,0.029 0.336,0.104 0.387,0.303 v 0 c 0.036,0.142 0.072,0.284 0.091,0.429 v 0 c 0.137,1.002 0.108,2.006 0.059,3.01 v 0 c -0.006,0.145 -0.014,0.299 0.027,0.433 v 0 c 0.317,1.028 0.619,2.063 0.98,3.076 v 0 c 0.575,1.612 1.312,3.15 2.299,4.557 v 0 c 0.104,0.15 0.227,0.289 0.341,0.433 v 0 c 0.039,-0.069 0.043,-0.111 0.039,-0.155 v 0 c -0.056,-0.62 -0.124,-1.24 -0.169,-1.862 v 0 c -0.181,-2.522 -0.203,-5.044 0.079,-7.562 v 0 c 0.177,-1.569 0.467,-3.114 1.059,-4.589 v 0 c 0.509,-1.268 1.287,-2.3 2.552,-2.894 v 0 c 0.595,-0.279 1.21,-0.499 1.888,-0.299 v 0 c 0.395,0.116 0.731,0.329 1.035,0.601 v 0 c 0.626,0.563 1.072,1.261 1.467,1.992 v 0 c 0.863,1.597 1.501,3.288 2.084,5.001 v 0 c 0.023,0.069 0.051,0.135 0.097,0.253 v 0 c 0.042,-0.132 0.063,-0.201 0.087,-0.271 v 0 c 0.386,-1.123 0.937,-2.148 1.786,-2.993 v 0 c 0.932,-0.929 2.063,-1.458 3.346,-1.727 v 0 c 0.966,-0.203 1.842,-0.052 2.68,0.441 v 0 c 0.855,0.502 1.548,1.183 2.17,1.941 v 0 c 1.141,1.391 2.042,2.932 2.824,4.547 v 0 c 0.031,0.066 0.069,0.129 0.111,0.21 v 0 c 0.07,-0.77 0.127,-1.509 0.203,-2.246 v 0 c 0.17,-1.65 0.445,-3.282 0.937,-4.871 v 0 c 0.35,-1.131 0.784,-2.226 1.525,-3.17 v 0 c 0.366,-0.466 0.775,-0.9 1.402,-0.989 v 0 c 0.323,-0.046 0.659,-0.046 0.987,-0.021 v 0 c 0.595,0.045 1.134,0.257 1.536,0.713 v 0 c 0.285,0.323 0.57,0.659 0.784,1.031 v 0 c 0.706,1.232 1.381,2.482 2.07,3.726 v 0 c 0.039,0.071 0.083,0.14 0.145,0.244 v 0 c 0.042,-0.114 0.069,-0.181 0.093,-0.248 v 0 c 0.333,-0.94 0.679,-1.873 1.174,-2.743 v 0 c 0.482,-0.846 1.017,-1.65 1.797,-2.257 v 0 c 0.712,-0.554 1.496,-0.793 2.385,-0.477 v 0 c 0.612,0.216 1.062,0.643 1.454,1.137 v 0 c 0.899,1.135 1.465,2.447 1.948,3.794 v 0 c 0.349,0.976 0.645,1.969 0.968,2.964 v 0 c 0.027,-0.043 0.06,-0.088 0.086,-0.138 v 0 c 0.429,-0.853 1.088,-1.479 1.903,-1.96 v 0 c 1.489,-0.882 3.084,-0.932 4.519,0.179 v 0 c 1.232,0.954 2.029,2.215 2.47,3.703 v 0 c 0.042,0.138 0.101,0.204 0.243,0.23 v 0 c 0.581,0.107 1.133,0.303 1.646,0.594 v 0 c 1.856,1.053 2.982,2.709 3.777,4.628 v 0 c 0.196,0.474 0.024,0.959 -0.365,1.201 v 0 c -0.526,0.33 -1.189,0.09 -1.424,-0.506 v 0 c -0.466,-1.184 -1.131,-2.236 -2.099,-3.076 v 0 c -0.334,-0.29 -0.714,-0.511 -1.132,-0.659 v 0 c 0.045,0.631 0.092,1.244 0.135,1.859 v 0 c 0.09,1.343 0.091,2.677 -0.241,4 v 0 c -0.507,2.032 -1.591,3.629 -3.401,4.716 v 0 c -0.65,0.388 -1.34,0.654 -2.099,0.62 v 0 c -2.517,-0.113 -4.23,-1.66 -4.455,-4.31 v 0 c -0.071,-0.849 0.124,-1.659 0.402,-2.456 v 0 c 0.062,-0.18 0.107,-0.396 0.067,-0.575 v 0 c -0.216,-0.964 -0.482,-1.917 -0.689,-2.882 v 0 c -0.519,-2.408 -1.147,-4.785 -1.946,-7.115 v 0 c -0.329,-0.964 -0.704,-1.911 -1.268,-2.768 v 0 c -0.194,-0.296 -0.412,-0.572 -0.749,-0.758 v 0 c -0.45,0.638 -0.675,1.349 -0.882,2.066 v 0 c -0.31,1.074 -0.49,2.174 -0.61,3.282 v 0 c -0.09,0.83 -0.154,1.665 -0.194,2.499 v 0 c -0.029,0.571 0.007,1.15 0.217,1.691 v 0 c 0.442,1.139 0.889,2.277 1.366,3.402 v 0 c 0.956,2.259 1.854,4.538 2.538,6.899 v 0 c 0.364,1.265 0.578,2.543 0.502,3.862 v 0 c -0.016,0.297 -0.051,0.602 -0.136,0.886 v 0 c -0.226,0.736 -0.683,1.223 -1.498,1.32 v 0 c -1.038,0.125 -1.944,-0.187 -2.746,-0.814 v 0 c -1.122,-0.878 -1.848,-2.038 -2.253,-3.39 v 0 c -0.62,-2.068 -1.229,-4.14 -1.807,-6.221 v 0 c -0.476,-1.718 -0.744,-3.474 -0.687,-5.26 v 0 c 0.033,-1.038 0.173,-2.074 0.258,-3.111 v 0 c 0.01,-0.113 0.006,-0.239 -0.037,-0.34 v 0 c -0.798,-1.874 -1.667,-3.716 -2.719,-5.463 v 0 c -0.289,-0.481 -0.614,-0.94 -0.947,-1.447 v 0 c -0.033,0.103 -0.05,0.15 -0.062,0.197 v 0 c -0.312,1.183 -0.473,2.393 -0.51,3.609 v 0 c -0.058,1.922 -0.045,3.845 -0.076,5.768 v 0 c -0.007,0.423 0.12,0.765 0.386,1.096 v 0 c 1.309,1.625 2.478,3.339 3.397,5.223 v 0 c 0.778,1.593 1.583,3.171 2.121,4.868 v 0 c 0.508,1.608 0.802,3.238 0.588,4.937 v 0 c -0.214,1.725 -1.403,2.841 -3.073,2.841 v 0 c -0.073,0 -0.147,-0.003 -0.222,-0.007 m -2.645,-13.788 c 0.235,1.95 0.525,3.892 0.913,5.818 v 0 c 0.293,1.452 0.642,2.887 1.235,4.251 v 0 c 0.31,0.714 0.713,1.373 1.203,2.006 v 0 c 0.293,-0.332 0.514,-0.692 0.634,-1.1 v 0 c 0.068,-0.236 0.106,-0.49 0.105,-0.736 v 0 c -10e-4,-0.872 0.053,-1.751 -0.142,-2.609 v 0 c -0.333,-1.46 -0.811,-2.873 -1.458,-4.225 v 0 c -0.725,-1.515 -1.559,-2.969 -2.454,-4.389 v 0 c -0.043,-0.065 -0.09,-0.128 -0.17,-0.179 v 0 c 0.045,0.387 0.089,0.775 0.134,1.163 m -25.991,6.864 c 0.004,0.687 0.98,3.096 1.46,3.553 v 0 c -0.174,-0.476 -0.339,-0.911 -0.492,-1.35 v 0 c -0.211,-0.602 -0.405,-1.207 -0.624,-1.805 v 0 c -0.058,-0.16 -0.183,-0.296 -0.276,-0.443 v 0 c -0.023,0.016 -0.045,0.03 -0.068,0.045 m 23.637,-8.426 c 0.043,0.533 0.075,1.067 0.142,1.597 v 0 c 0.183,1.43 0.346,2.863 0.585,4.284 v 0 c 0.151,0.898 0.348,1.807 0.666,2.657 v 0 c 0.35,0.933 0.861,1.807 1.304,2.706 v 0 c 0.026,0.052 0.064,0.097 0.121,0.137 v 0 c -1.565,-3.918 -2.304,-8.023 -2.865,-12.19 v 0 c 0.015,0.27 0.024,0.54 0.047,0.809 m 13.113,10.879 c 0,-0.113 0.004,-0.195 -10e-4,-0.277 v 0 c -0.084,-1.476 -0.503,-2.878 -0.96,-4.269 v 0 c -0.239,-0.729 -0.508,-1.449 -0.763,-2.173 v 0 c -0.019,-0.052 -0.048,-0.1 -0.085,-0.179 v 0 c -0.032,1.274 1.28,6.307 1.809,6.898 m -9.748,-0.132 c -0.88,-2.315 -1.263,-4.75 -1.738,-7.162 v 0 c -0.133,1.139 1.118,6.315 1.738,7.162 m -4.744,-4.761 c 0.457,1.635 1.227,3.141 2.099,4.592 v 0 c -0.089,-0.221 -0.178,-0.443 -0.268,-0.665 v 0 c -0.905,-2.241 -1.551,-4.557 -2.027,-6.923 v 0 c -0.126,-0.625 -0.232,-1.253 -0.353,-1.879 v 0 c -0.012,-0.059 -0.068,-0.11 -0.138,-0.147 v 0 c 0.077,1.705 0.23,3.39 0.687,5.022 m 10.534,-7.109 c 0.054,0.599 0.078,1.201 0.167,1.794 v 0 c 0.276,1.855 0.573,3.707 0.867,5.559 v 0 c 0.212,1.336 0.663,2.592 1.289,3.788 v 0 c 0.053,0.103 0.116,0.2 0.198,0.292 v 0 c -0.686,-1.839 -1.214,-3.721 -1.56,-5.648 v 0 c -0.346,-1.924 -0.628,-3.859 -0.938,-5.788 v 0 c -0.007,0.002 -0.015,0.002 -0.023,0.003 m -1.492,11.389 c -0.179,-2.029 -0.885,-3.894 -1.774,-5.703 v 0 c 0.779,1.843 1.344,3.752 1.774,5.703 m -1.4,-2.933 c 0.303,0.959 0.544,1.938 0.811,2.908 v 0 c -0.18,-2.061 -0.922,-3.941 -1.812,-5.732 v 0 c 0.328,0.915 0.696,1.86 1.001,2.824 m 1.246,-8.8 c 0.109,1.056 0.196,2.117 0.337,3.169 v 0 c 0.22,1.62 0.636,3.202 1.007,4.792 v 0 c 0.283,1.206 0.794,2.304 1.412,3.41 v 0 c 0.006,-0.066 0.014,-0.09 0.008,-0.109 v 0 c -1.331,-3.676 -2.055,-7.499 -2.715,-11.395 v 0 c -0.03,0.079 -0.052,0.107 -0.049,0.133 m 4.527,11.296 c -0.389,-1.43 -0.787,-2.899 -1.186,-4.368 v 0 c 0.262,1.506 0.555,3.004 1.186,4.368 m -1.343,-11.052 c 0.212,0.527 0.408,1.062 0.64,1.58 v 0 c 0.9,2.016 1.608,4.1 2.238,6.212 v 0 c 0.284,0.946 0.503,1.91 0.75,2.866 v 0 c 0.026,0.098 0.047,0.197 0.07,0.294 v 0 c 0.018,-0.003 0.036,-0.006 0.053,-0.008 v 0 c -0.121,-0.701 -0.207,-1.41 -0.369,-2.101 v 0 c -0.443,-1.894 -1.144,-3.703 -1.88,-5.498 v 0 c -0.428,-1.042 -0.875,-2.076 -1.314,-3.114 v 0 c -0.038,-0.087 -0.085,-0.169 -0.126,-0.254 v 0 c -0.021,0.008 -0.041,0.015 -0.062,0.023 m 0.263,2.298 c 0.042,0.156 0.073,0.317 0.127,0.469 v 0 c 0.57,1.591 1.175,3.171 1.706,4.775 v 0 c 0.362,1.095 0.623,2.223 0.93,3.338 v 0 c 0.011,-0.005 0.023,-0.008 0.035,-0.013 v 0 c -0.139,-0.688 -0.246,-1.382 -0.421,-2.061 v 0 c -0.485,-1.89 -1.174,-3.712 -1.906,-5.517 v 0 c -0.136,-0.337 -0.276,-0.672 -0.415,-1.008 v 0 c -0.019,0.005 -0.037,0.011 -0.056,0.017 m 1.102,3.938 c 0.529,1.483 0.915,3.006 1.259,4.541 v 0 c 0.003,0.012 0.015,0.02 0.059,0.024 v 0 c -0.079,-0.415 -0.147,-0.831 -0.238,-1.243 v 0 c -0.29,-1.31 -0.718,-2.576 -1.194,-3.829 v 0 c -0.029,-0.076 -0.077,-0.145 -0.12,-0.216 v 0 c 0.077,0.241 0.15,0.484 0.234,0.723 m -2.826,4.112 c -0.827,-3.121 -1.832,-6.196 -2.359,-9.393 v 0 c 0.365,3.239 1.179,6.362 2.359,9.393 m 5.35,-0.602 c 0.059,-0.6 -1.059,-4.274 -1.569,-5.137 v 0 c 0.515,1.685 1.049,3.434 1.569,5.137 m -25.569,-5.433 c 0.452,1.392 1.033,2.724 1.918,3.902 v 0 c 0.197,0.262 0.437,0.491 0.659,0.735 v 0 c 0.124,0.136 0.216,0.096 0.311,-0.043 v 0 c 0.219,-0.321 0.201,-0.663 0.109,-1.012 v 0 c -0.203,-0.765 -0.61,-1.431 -1.089,-2.04 v 0 c -0.643,-0.817 -1.336,-1.594 -2.009,-2.388 v 0 c -0.032,-0.036 -0.075,-0.063 -0.167,-0.139 v 0 c 0.1,0.372 0.169,0.683 0.268,0.985 m 29.858,2.311 c 0.509,0.731 1.256,0.985 2.145,0.732 v 0 c 0.758,-0.215 1.368,-0.645 1.863,-1.257 v 0 c 0.727,-0.901 1.133,-1.939 1.333,-3.067 v 0 c 0.261,-1.465 0.278,-2.932 0.027,-4.398 v 0 c -0.063,-0.372 -0.173,-0.737 -0.263,-1.11 v 0 c -1.437,0.26 -2.53,1.013 -3.371,2.155 v 0 c -0.04,0.053 -0.045,0.15 -0.03,0.22 v 0 c 0.271,1.364 0.545,2.728 0.823,4.091 v 0 c 0.08,0.388 0.101,0.758 -0.244,1.058 v 0 c -0.043,-0.055 -0.089,-0.116 -0.134,-0.176 v 0 c -0.023,0.015 -0.041,0.021 -0.044,0.03 v 0 c -0.101,0.334 -0.101,0.332 -0.388,0.115 v 0 c -0.087,-0.065 -0.18,-0.121 -0.311,-0.207 v 0 c 0.051,0.195 0.092,0.352 0.133,0.509 v 0 c -0.013,0.019 -0.028,0.036 -0.041,0.056 v 0 c -0.098,-0.049 -0.197,-0.098 -0.297,-0.147 v 0 c -0.105,0.197 -0.134,0.205 -0.316,0.045 v 0 c -0.143,-0.126 -0.28,-0.258 -0.454,-0.418 v 0 c 0.034,0.159 0.058,0.274 0.089,0.421 v 0 c -0.348,-0.153 -0.667,-0.292 -1.003,-0.439 v 0 c 0.037,0.643 0.114,1.256 0.483,1.787 m -30.54,-0.42 c 0,-0.058 0.008,-0.086 0,-0.111 v 0 c -0.449,-1.374 -0.899,-2.749 -1.351,-4.122 v 0 c -0.055,-0.166 -0.125,-0.328 -0.202,-0.486 v 0 c -0.029,-0.062 -0.094,-0.108 -0.143,-0.161 v 0 c 0.12,1.79 0.723,3.383 1.696,4.88 m -3.107,-4.34 c -0.051,0.007 -0.101,0.014 -0.18,0.025 v 0 c 0.339,1.456 0.969,2.771 1.724,3.977 v 0 c -0.459,-1.3 -0.933,-2.646 -1.416,-4.015 v 0 c -0.017,0.002 -0.073,0.007 -0.128,0.013 m -15,-1.951 c 0.018,0.117 0.015,0.241 0.057,0.349 v 0 c 0.516,1.348 1.053,2.687 1.819,3.916 v 0 c 0.267,0.428 0.591,0.819 0.891,1.225 v 0 c 0.027,0.036 0.073,0.058 0.139,0.067 v 0 c -1.216,-1.722 -2.068,-3.625 -2.837,-5.569 v 0 c -0.023,0.004 -0.046,0.008 -0.069,0.012 m 41.266,4.748 c 0.102,0.257 0.203,0.514 0.304,0.771 v 0 c -0.077,-0.264 -0.156,-0.53 -0.233,-0.796 v 0 c -0.023,0.008 -0.046,0.017 -0.071,0.025 m -40.959,-5.988 c 0.15,0.424 0.283,0.853 0.453,1.269 v 0 c 0.433,1.063 0.857,2.133 1.334,3.176 v 0 c 0.33,0.72 0.858,1.319 1.397,1.907 v 0 c -1.473,-1.915 -2.213,-4.187 -3.131,-6.373 v 0 c -0.017,0.007 -0.036,0.015 -0.053,0.021 m 51.148,-5.126 c -0.591,0.975 -1.047,2.009 -1.286,3.131 v 0 c -0.015,0.073 -0.002,0.152 -0.002,0.244 v 0 c 1.673,-1.079 1.673,-1.079 2.912,-1.28 v 0 c -0.136,-0.266 -0.254,-0.533 -0.403,-0.782 v 0 c -0.267,-0.447 -0.539,-0.89 -0.831,-1.319 v 0 c -0.077,-0.112 -0.139,-0.168 -0.199,-0.168 v 0 c -0.061,0 -0.121,0.058 -0.191,0.174"/>
    </clipPath>
    <linearGradient id="linearGradient1364" spreadMethod="pad" gradientTransform="matrix(67.210327,0,0,-67.210327,569.19995,308.46994)" gradientUnits="userSpaceOnUse" y2="0" x2="1" y1="0" x1="0">
      <stop id="stop1356" offset="0" style="stop-opacity:1;stop-color:#2bb8b1"/>
      <stop id="stop1358" offset="0.8649" style="stop-opacity:1;stop-color:#f7f562"/>
      <stop id="stop1360" offset="0.9997" style="stop-opacity:1;stop-color:#f7f562"/>
      <stop id="stop1362" offset="1" style="stop-opacity:1;stop-color:#f7f562"/>
    </linearGradient>
  </defs>
  <g id="g1354" transform="matrix(0.884843, 0, 0, -0.884843, -501.420532, 304.870667)" clip-path="url(#clipPath1350)">
    <path id="path1366" style="fill:url(#linearGradient1364);stroke:none" d="m 609.979,323.945 c -1.246,-0.073 -2.345,-0.548 -3.294,-1.359 v 0 c -1.085,-0.927 -1.799,-2.115 -2.353,-3.408 v 0 c -0.885,-2.065 -1.336,-4.243 -1.627,-6.457 v 0 c -0.143,-1.075 -0.228,-2.159 -0.342,-3.238 v 0 c -0.009,-0.075 -0.043,-0.15 -0.078,-0.218 v 0 c -0.079,-0.156 -0.182,-0.3 -0.249,-0.46 v 0 c -0.443,-1.06 -0.848,-2.137 -1.325,-3.181 v 0 c -0.914,-2.006 -2.071,-3.862 -3.563,-5.495 v 0 c -0.397,-0.433 -0.823,-0.843 -1.391,-1.051 v 0 c -0.347,-0.127 -0.691,-0.112 -0.927,0.286 v 0 c -0.313,0.529 -0.584,1.082 -0.667,1.686 v 0 c -0.113,0.826 -0.193,1.662 -0.202,2.496 v 0 c -0.014,1.401 0.043,2.802 0.059,4.204 v 0 c 0.003,0.333 0.094,0.623 0.316,0.866 v 0 c 0.245,0.271 0.498,0.538 0.76,0.794 v 0 c 1.005,0.991 1.985,2.003 2.779,3.176 v 0 c 0.577,0.853 1.064,1.751 1.283,2.773 v 0 c 0.24,1.117 -0.26,2.065 -1.338,2.449 v 0 c -1.044,0.372 -2.093,0.336 -3.119,-0.072 v 0 c -1.406,-0.561 -2.434,-1.591 -3.297,-2.79 v 0 c -1.267,-1.757 -1.956,-3.756 -2.358,-5.864 v 0 c -0.126,-0.661 -0.191,-1.337 -0.362,-1.986 v 0 c -0.524,-1.988 -1.062,-3.974 -1.841,-5.885 v 0 c -0.53,-1.302 -1.041,-2.614 -1.774,-3.82 v 0 c -0.195,-0.323 -0.442,-0.623 -0.712,-0.885 v 0 c -0.268,-0.258 -0.543,-0.202 -0.729,0.12 v 0 c -0.131,0.226 -0.258,0.472 -0.3,0.725 v 0 c -0.223,1.284 -0.488,2.568 -0.604,3.863 v 0 c -0.132,1.46 -0.177,2.932 -0.159,4.398 v 0 c 0.024,1.759 0.113,3.52 0.25,5.275 v 0 c 0.147,1.901 0.456,3.784 0.824,5.655 v 0 c 0.024,0.12 0.09,0.249 0.174,0.34 v 0 c 0.428,0.463 0.88,0.905 1.302,1.373 v 0 c 0.602,0.668 1.075,1.41 1.225,2.319 v 0 c 0.063,0.376 0.024,0.73 -0.195,1.052 v 0 c -0.386,0.566 -0.961,0.721 -1.595,0.706 v 0 c -1.063,-0.026 -1.853,-0.58 -2.498,-1.371 v 0 c -0.681,-0.836 -1.087,-1.825 -1.449,-2.823 v 0 c -0.291,-0.802 -0.512,-1.631 -0.729,-2.458 v 0 c -0.054,-0.203 -0.126,-0.323 -0.298,-0.433 v 0 c -0.803,-0.514 -1.496,-1.154 -2.084,-1.908 v 0 c -0.822,-1.062 -1.431,-2.247 -2.008,-3.451 v 0 c -0.094,-0.197 -0.186,-0.395 -0.278,-0.59 v 0 c 0.019,0.542 0.067,1.078 0.051,1.611 v 0 c -0.049,1.629 -0.112,3.257 -0.189,4.883 v 0 c -0.049,1.048 -0.147,2.094 -0.197,3.142 v 0 c -0.045,0.958 -0.055,1.919 -0.082,2.877 v 0 c -10e-4,0.042 -0.014,0.095 -0.042,0.121 v 0 c -0.183,0.171 -0.369,0.338 -0.562,0.498 v 0 c -0.017,0.012 -0.046,0.007 -0.077,10e-4 v 0 c -0.023,-0.004 -0.047,-0.008 -0.066,-0.004 v 0 c -0.09,0.016 -0.201,0.019 -0.261,0.074 v 0 c -0.115,0.103 -0.216,0.142 -0.347,0.042 v 0 c -0.04,0.053 -0.077,0.103 -0.135,0.18 v 0 c -0.072,-0.084 -0.148,-0.144 -0.188,-0.222 v 0 c -0.101,-0.195 -0.205,-0.391 -0.274,-0.598 v 0 c -0.529,-1.618 -0.882,-3.28 -1.188,-4.952 v 0 c -0.08,-0.436 -0.137,-0.878 -0.204,-1.317 v 0 c -0.004,0.508 0.02,1.013 0.068,1.516 v 0 c 0.162,1.696 0.391,3.377 1.101,4.953 v 0 c 0.064,0.139 0.079,0.301 0.126,0.496 v 0 c -0.222,-0.061 -0.396,-0.089 -0.554,-0.156 v 0 c -0.556,-0.235 -0.866,-0.696 -1.113,-1.22 v 0 c -1.198,-2.564 -1.729,-5.279 -1.848,-8.089 v 0 c -0.066,-1.528 -10e-4,-3.053 0.186,-4.569 v 0 c 0.13,-1.047 0.268,-2.092 0.608,-3.1 v 0 c 0.523,-1.543 1.11,-3.056 1.992,-4.438 v 0 c 0.618,-0.969 1.065,-1.28 2.17,-1.494 v 0 c 0.257,-0.05 0.515,0 0.777,0.03 v 0 c 0.244,0.029 0.336,0.104 0.387,0.303 v 0 c 0.036,0.142 0.072,0.284 0.091,0.429 v 0 c 0.137,1.002 0.108,2.006 0.059,3.01 v 0 c -0.006,0.145 -0.014,0.299 0.027,0.433 v 0 c 0.317,1.028 0.619,2.063 0.98,3.076 v 0 c 0.575,1.612 1.312,3.15 2.299,4.557 v 0 c 0.104,0.15 0.227,0.289 0.341,0.433 v 0 c 0.039,-0.069 0.043,-0.111 0.039,-0.155 v 0 c -0.056,-0.62 -0.124,-1.24 -0.169,-1.862 v 0 c -0.181,-2.522 -0.203,-5.044 0.079,-7.562 v 0 c 0.177,-1.569 0.467,-3.114 1.059,-4.589 v 0 c 0.509,-1.268 1.287,-2.3 2.552,-2.894 v 0 c 0.595,-0.279 1.21,-0.499 1.888,-0.299 v 0 c 0.395,0.116 0.731,0.329 1.035,0.601 v 0 c 0.626,0.563 1.072,1.261 1.467,1.992 v 0 c 0.863,1.597 1.501,3.288 2.084,5.001 v 0 c 0.023,0.069 0.051,0.135 0.097,0.253 v 0 c 0.042,-0.132 0.063,-0.201 0.087,-0.271 v 0 c 0.386,-1.123 0.937,-2.148 1.786,-2.993 v 0 c 0.932,-0.929 2.063,-1.458 3.346,-1.727 v 0 c 0.966,-0.203 1.842,-0.052 2.68,0.441 v 0 c 0.855,0.502 1.548,1.183 2.17,1.941 v 0 c 1.141,1.391 2.042,2.932 2.824,4.547 v 0 c 0.031,0.066 0.069,0.129 0.111,0.21 v 0 c 0.07,-0.77 0.127,-1.509 0.203,-2.246 v 0 c 0.17,-1.65 0.445,-3.282 0.937,-4.871 v 0 c 0.35,-1.131 0.784,-2.226 1.525,-3.17 v 0 c 0.366,-0.466 0.775,-0.9 1.402,-0.989 v 0 c 0.323,-0.046 0.659,-0.046 0.987,-0.021 v 0 c 0.595,0.045 1.134,0.257 1.536,0.713 v 0 c 0.285,0.323 0.57,0.659 0.784,1.031 v 0 c 0.706,1.232 1.381,2.482 2.07,3.726 v 0 c 0.039,0.071 0.083,0.14 0.145,0.244 v 0 c 0.042,-0.114 0.069,-0.181 0.093,-0.248 v 0 c 0.333,-0.94 0.679,-1.873 1.174,-2.743 v 0 c 0.482,-0.846 1.017,-1.65 1.797,-2.257 v 0 c 0.712,-0.554 1.496,-0.793 2.385,-0.477 v 0 c 0.612,0.216 1.062,0.643 1.454,1.137 v 0 c 0.899,1.135 1.465,2.447 1.948,3.794 v 0 c 0.349,0.976 0.645,1.969 0.968,2.964 v 0 c 0.027,-0.043 0.06,-0.088 0.086,-0.138 v 0 c 0.429,-0.853 1.088,-1.479 1.903,-1.96 v 0 c 1.489,-0.882 3.084,-0.932 4.519,0.179 v 0 c 1.232,0.954 2.029,2.215 2.47,3.703 v 0 c 0.042,0.138 0.101,0.204 0.243,0.23 v 0 c 0.581,0.107 1.133,0.303 1.646,0.594 v 0 c 1.856,1.053 2.982,2.709 3.777,4.628 v 0 c 0.196,0.474 0.024,0.959 -0.365,1.201 v 0 c -0.526,0.33 -1.189,0.09 -1.424,-0.506 v 0 c -0.466,-1.184 -1.131,-2.236 -2.099,-3.076 v 0 c -0.334,-0.29 -0.714,-0.511 -1.132,-0.659 v 0 c 0.045,0.631 0.092,1.244 0.135,1.859 v 0 c 0.09,1.343 0.091,2.677 -0.241,4 v 0 c -0.507,2.032 -1.591,3.629 -3.401,4.716 v 0 c -0.65,0.388 -1.34,0.654 -2.099,0.62 v 0 c -2.517,-0.113 -4.23,-1.66 -4.455,-4.31 v 0 c -0.071,-0.849 0.124,-1.659 0.402,-2.456 v 0 c 0.062,-0.18 0.107,-0.396 0.067,-0.575 v 0 c -0.216,-0.964 -0.482,-1.917 -0.689,-2.882 v 0 c -0.519,-2.408 -1.147,-4.785 -1.946,-7.115 v 0 c -0.329,-0.964 -0.704,-1.911 -1.268,-2.768 v 0 c -0.194,-0.296 -0.412,-0.572 -0.749,-0.758 v 0 c -0.45,0.638 -0.675,1.349 -0.882,2.066 v 0 c -0.31,1.074 -0.49,2.174 -0.61,3.282 v 0 c -0.09,0.83 -0.154,1.665 -0.194,2.499 v 0 c -0.029,0.571 0.007,1.15 0.217,1.691 v 0 c 0.442,1.139 0.889,2.277 1.366,3.402 v 0 c 0.956,2.259 1.854,4.538 2.538,6.899 v 0 c 0.364,1.265 0.578,2.543 0.502,3.862 v 0 c -0.016,0.297 -0.051,0.602 -0.136,0.886 v 0 c -0.226,0.736 -0.683,1.223 -1.498,1.32 v 0 c -1.038,0.125 -1.944,-0.187 -2.746,-0.814 v 0 c -1.122,-0.878 -1.848,-2.038 -2.253,-3.39 v 0 c -0.62,-2.068 -1.229,-4.14 -1.807,-6.221 v 0 c -0.476,-1.718 -0.744,-3.474 -0.687,-5.26 v 0 c 0.033,-1.038 0.173,-2.074 0.258,-3.111 v 0 c 0.01,-0.113 0.006,-0.239 -0.037,-0.34 v 0 c -0.798,-1.874 -1.667,-3.716 -2.719,-5.463 v 0 c -0.289,-0.481 -0.614,-0.94 -0.947,-1.447 v 0 c -0.033,0.103 -0.05,0.15 -0.062,0.197 v 0 c -0.312,1.183 -0.473,2.393 -0.51,3.609 v 0 c -0.058,1.922 -0.045,3.845 -0.076,5.768 v 0 c -0.007,0.423 0.12,0.765 0.386,1.096 v 0 c 1.309,1.625 2.478,3.339 3.397,5.223 v 0 c 0.778,1.593 1.583,3.171 2.121,4.868 v 0 c 0.508,1.608 0.802,3.238 0.588,4.937 v 0 c -0.214,1.725 -1.403,2.841 -3.073,2.841 v 0 c -0.073,0 -0.147,-0.003 -0.222,-0.007 m -2.645,-13.788 c 0.235,1.95 0.525,3.892 0.913,5.818 v 0 c 0.293,1.452 0.642,2.887 1.235,4.251 v 0 c 0.31,0.714 0.713,1.373 1.203,2.006 v 0 c 0.293,-0.332 0.514,-0.692 0.634,-1.1 v 0 c 0.068,-0.236 0.106,-0.49 0.105,-0.736 v 0 c -10e-4,-0.872 0.053,-1.751 -0.142,-2.609 v 0 c -0.333,-1.46 -0.811,-2.873 -1.458,-4.225 v 0 c -0.725,-1.515 -1.559,-2.969 -2.454,-4.389 v 0 c -0.043,-0.065 -0.09,-0.128 -0.17,-0.179 v 0 c 0.045,0.387 0.089,0.775 0.134,1.163 m -25.991,6.864 c 0.004,0.687 0.98,3.096 1.46,3.553 v 0 c -0.174,-0.476 -0.339,-0.911 -0.492,-1.35 v 0 c -0.211,-0.602 -0.405,-1.207 -0.624,-1.805 v 0 c -0.058,-0.16 -0.183,-0.296 -0.276,-0.443 v 0 c -0.023,0.016 -0.045,0.03 -0.068,0.045 m 23.637,-8.426 c 0.043,0.533 0.075,1.067 0.142,1.597 v 0 c 0.183,1.43 0.346,2.863 0.585,4.284 v 0 c 0.151,0.898 0.348,1.807 0.666,2.657 v 0 c 0.35,0.933 0.861,1.807 1.304,2.706 v 0 c 0.026,0.052 0.064,0.097 0.121,0.137 v 0 c -1.565,-3.918 -2.304,-8.023 -2.865,-12.19 v 0 c 0.015,0.27 0.024,0.54 0.047,0.809 m 13.113,10.879 c 0,-0.113 0.004,-0.195 -10e-4,-0.277 v 0 c -0.084,-1.476 -0.503,-2.878 -0.96,-4.269 v 0 c -0.239,-0.729 -0.508,-1.449 -0.763,-2.173 v 0 c -0.019,-0.052 -0.048,-0.1 -0.085,-0.179 v 0 c -0.032,1.274 1.28,6.307 1.809,6.898 m -9.748,-0.132 c -0.88,-2.315 -1.263,-4.75 -1.738,-7.162 v 0 c -0.133,1.139 1.118,6.315 1.738,7.162 m -4.744,-4.761 c 0.457,1.635 1.227,3.141 2.099,4.592 v 0 c -0.089,-0.221 -0.178,-0.443 -0.268,-0.665 v 0 c -0.905,-2.241 -1.551,-4.557 -2.027,-6.923 v 0 c -0.126,-0.625 -0.232,-1.253 -0.353,-1.879 v 0 c -0.012,-0.059 -0.068,-0.11 -0.138,-0.147 v 0 c 0.077,1.705 0.23,3.39 0.687,5.022 m 10.534,-7.109 c 0.054,0.599 0.078,1.201 0.167,1.794 v 0 c 0.276,1.855 0.573,3.707 0.867,5.559 v 0 c 0.212,1.336 0.663,2.592 1.289,3.788 v 0 c 0.053,0.103 0.116,0.2 0.198,0.292 v 0 c -0.686,-1.839 -1.214,-3.721 -1.56,-5.648 v 0 c -0.346,-1.924 -0.628,-3.859 -0.938,-5.788 v 0 c -0.007,0.002 -0.015,0.002 -0.023,0.003 m -1.492,11.389 c -0.179,-2.029 -0.885,-3.894 -1.774,-5.703 v 0 c 0.779,1.843 1.344,3.752 1.774,5.703 m -1.4,-2.933 c 0.303,0.959 0.544,1.938 0.811,2.908 v 0 c -0.18,-2.061 -0.922,-3.941 -1.812,-5.732 v 0 c 0.328,0.915 0.696,1.86 1.001,2.824 m 1.246,-8.8 c 0.109,1.056 0.196,2.117 0.337,3.169 v 0 c 0.22,1.62 0.636,3.202 1.007,4.792 v 0 c 0.283,1.206 0.794,2.304 1.412,3.41 v 0 c 0.006,-0.066 0.014,-0.09 0.008,-0.109 v 0 c -1.331,-3.676 -2.055,-7.499 -2.715,-11.395 v 0 c -0.03,0.079 -0.052,0.107 -0.049,0.133 m 4.527,11.296 c -0.389,-1.43 -0.787,-2.899 -1.186,-4.368 v 0 c 0.262,1.506 0.555,3.004 1.186,4.368 m -1.343,-11.052 c 0.212,0.527 0.408,1.062 0.64,1.58 v 0 c 0.9,2.016 1.608,4.1 2.238,6.212 v 0 c 0.284,0.946 0.503,1.91 0.75,2.866 v 0 c 0.026,0.098 0.047,0.197 0.07,0.294 v 0 c 0.018,-0.003 0.036,-0.006 0.053,-0.008 v 0 c -0.121,-0.701 -0.207,-1.41 -0.369,-2.101 v 0 c -0.443,-1.894 -1.144,-3.703 -1.88,-5.498 v 0 c -0.428,-1.042 -0.875,-2.076 -1.314,-3.114 v 0 c -0.038,-0.087 -0.085,-0.169 -0.126,-0.254 v 0 c -0.021,0.008 -0.041,0.015 -0.062,0.023 m 0.263,2.298 c 0.042,0.156 0.073,0.317 0.127,0.469 v 0 c 0.57,1.591 1.175,3.171 1.706,4.775 v 0 c 0.362,1.095 0.623,2.223 0.93,3.338 v 0 c 0.011,-0.005 0.023,-0.008 0.035,-0.013 v 0 c -0.139,-0.688 -0.246,-1.382 -0.421,-2.061 v 0 c -0.485,-1.89 -1.174,-3.712 -1.906,-5.517 v 0 c -0.136,-0.337 -0.276,-0.672 -0.415,-1.008 v 0 c -0.019,0.005 -0.037,0.011 -0.056,0.017 m 1.102,3.938 c 0.529,1.483 0.915,3.006 1.259,4.541 v 0 c 0.003,0.012 0.015,0.02 0.059,0.024 v 0 c -0.079,-0.415 -0.147,-0.831 -0.238,-1.243 v 0 c -0.29,-1.31 -0.718,-2.576 -1.194,-3.829 v 0 c -0.029,-0.076 -0.077,-0.145 -0.12,-0.216 v 0 c 0.077,0.241 0.15,0.484 0.234,0.723 m -2.826,4.112 c -0.827,-3.121 -1.832,-6.196 -2.359,-9.393 v 0 c 0.365,3.239 1.179,6.362 2.359,9.393 m 5.35,-0.602 c 0.059,-0.6 -1.059,-4.274 -1.569,-5.137 v 0 c 0.515,1.685 1.049,3.434 1.569,5.137 m -25.569,-5.433 c 0.452,1.392 1.033,2.724 1.918,3.902 v 0 c 0.197,0.262 0.437,0.491 0.659,0.735 v 0 c 0.124,0.136 0.216,0.096 0.311,-0.043 v 0 c 0.219,-0.321 0.201,-0.663 0.109,-1.012 v 0 c -0.203,-0.765 -0.61,-1.431 -1.089,-2.04 v 0 c -0.643,-0.817 -1.336,-1.594 -2.009,-2.388 v 0 c -0.032,-0.036 -0.075,-0.063 -0.167,-0.139 v 0 c 0.1,0.372 0.169,0.683 0.268,0.985 m 29.858,2.311 c 0.509,0.731 1.256,0.985 2.145,0.732 v 0 c 0.758,-0.215 1.368,-0.645 1.863,-1.257 v 0 c 0.727,-0.901 1.133,-1.939 1.333,-3.067 v 0 c 0.261,-1.465 0.278,-2.932 0.027,-4.398 v 0 c -0.063,-0.372 -0.173,-0.737 -0.263,-1.11 v 0 c -1.437,0.26 -2.53,1.013 -3.371,2.155 v 0 c -0.04,0.053 -0.045,0.15 -0.03,0.22 v 0 c 0.271,1.364 0.545,2.728 0.823,4.091 v 0 c 0.08,0.388 0.101,0.758 -0.244,1.058 v 0 c -0.043,-0.055 -0.089,-0.116 -0.134,-0.176 v 0 c -0.023,0.015 -0.041,0.021 -0.044,0.03 v 0 c -0.101,0.334 -0.101,0.332 -0.388,0.115 v 0 c -0.087,-0.065 -0.18,-0.121 -0.311,-0.207 v 0 c 0.051,0.195 0.092,0.352 0.133,0.509 v 0 c -0.013,0.019 -0.028,0.036 -0.041,0.056 v 0 c -0.098,-0.049 -0.197,-0.098 -0.297,-0.147 v 0 c -0.105,0.197 -0.134,0.205 -0.316,0.045 v 0 c -0.143,-0.126 -0.28,-0.258 -0.454,-0.418 v 0 c 0.034,0.159 0.058,0.274 0.089,0.421 v 0 c -0.348,-0.153 -0.667,-0.292 -1.003,-0.439 v 0 c 0.037,0.643 0.114,1.256 0.483,1.787 m -30.54,-0.42 c 0,-0.058 0.008,-0.086 0,-0.111 v 0 c -0.449,-1.374 -0.899,-2.749 -1.351,-4.122 v 0 c -0.055,-0.166 -0.125,-0.328 -0.202,-0.486 v 0 c -0.029,-0.062 -0.094,-0.108 -0.143,-0.161 v 0 c 0.12,1.79 0.723,3.383 1.696,4.88 m -3.107,-4.34 c -0.051,0.007 -0.101,0.014 -0.18,0.025 v 0 c 0.339,1.456 0.969,2.771 1.724,3.977 v 0 c -0.459,-1.3 -0.933,-2.646 -1.416,-4.015 v 0 c -0.017,0.002 -0.073,0.007 -0.128,0.013 m -15,-1.951 c 0.018,0.117 0.015,0.241 0.057,0.349 v 0 c 0.516,1.348 1.053,2.687 1.819,3.916 v 0 c 0.267,0.428 0.591,0.819 0.891,1.225 v 0 c 0.027,0.036 0.073,0.058 0.139,0.067 v 0 c -1.216,-1.722 -2.068,-3.625 -2.837,-5.569 v 0 c -0.023,0.004 -0.046,0.008 -0.069,0.012 m 41.266,4.748 c 0.102,0.257 0.203,0.514 0.304,0.771 v 0 c -0.077,-0.264 -0.156,-0.53 -0.233,-0.796 v 0 c -0.023,0.008 -0.046,0.017 -0.071,0.025 m -40.959,-5.988 c 0.15,0.424 0.283,0.853 0.453,1.269 v 0 c 0.433,1.063 0.857,2.133 1.334,3.176 v 0 c 0.33,0.72 0.858,1.319 1.397,1.907 v 0 c -1.473,-1.915 -2.213,-4.187 -3.131,-6.373 v 0 c -0.017,0.007 -0.036,0.015 -0.053,0.021 m 51.148,-5.126 c -0.591,0.975 -1.047,2.009 -1.286,3.131 v 0 c -0.015,0.073 -0.002,0.152 -0.002,0.244 v 0 c 1.673,-1.079 1.673,-1.079 2.912,-1.28 v 0 c -0.136,-0.266 -0.254,-0.533 -0.403,-0.782 v 0 c -0.267,-0.447 -0.539,-0.89 -0.831,-1.319 v 0 c -0.077,-0.112 -0.139,-0.168 -0.199,-0.168 v 0 c -0.061,0 -0.121,0.058 -0.191,0.174"/>
  </g>
</svg>