<?xml version="1.0" encoding="utf-8"?>
<svg viewBox="0 0 64 64" xmlns="http://www.w3.org/2000/svg">
  <g transform="matrix(1, 0, 0, 1, -0.146499, 0.384999)">
    <path d="M 50.478 49.976 C 50.277 49.439 53.323 46.817 53.759 46.262 C 66.744 29.798 51.871 5.26 31.58 4.501 C 30.759 4.47 29.937 4.477 29.116 4.519 C 8.742 5.561 -2.451 27.886 7.706 44.387 C 10.506 48.934 14.72 52.553 19.68 54.799 C 27.362 58.276 36.394 58.302 43.957 54.508 C 48.494 57.321 52.786 58.76 52.786 58.76 C 52.786 58.76 50.48 49.98 50.478 49.976" style="fill: rgb(255, 255, 255); fill-opacity: 1; fill-rule: nonzero; stroke: none; display: inline;" id="path726"/>
    <path d="M 17.131 39.937 C 16.982 39.115 16.939 37.724 16.939 36.734 C 16.939 35.046 16.706 34.84 15.729 34.986 C 14.815 35.123 14.326 35.365 14.326 36.498 C 14.326 37.488 14.432 38.17 14.432 38.87 C 14.432 40.244 14.008 41.634 12.902 41.8 C 12.584 41.848 12.201 41.807 11.819 41.552 C 11.224 41.159 10.82 40.036 10.565 38.749 C 10.246 37.109 10.161 35.144 10.161 33.746 C 10.161 32.564 10.226 30.843 10.353 29.45 C 10.438 28.399 10.565 27.536 10.714 27.201 C 11.011 26.095 11.989 25.635 12.562 25.549 C 13.752 25.371 14.263 26.115 14.263 27.321 L 14.263 29.515 C 14.263 30.72 14.39 31.569 15.389 31.42 C 16.833 31.205 16.961 30.679 16.961 28.244 L 16.961 27.737 C 16.961 25.928 17.811 24.621 19.193 24.414 C 20.383 24.236 21.041 24.691 21.19 26.598 C 21.232 27.122 21.253 27.892 21.253 28.807 C 21.253 31.845 21.041 36.435 20.679 38.78 C 20.509 39.938 20.085 40.87 19.043 41.026 C 18.151 41.16 17.322 41.043 17.131 39.937" style="fill: rgb(141, 25, 143); fill-opacity: 1; fill-rule: nonzero; stroke: none; display: inline;" id="path730"/>
    <path d="M 27.838 29.703 C 29.22 29.52 30.452 29.336 30.452 30.518 C 30.452 32.833 28.348 33.099 26.775 33.527 L 26.775 33.841 C 26.775 34.563 26.988 35.376 27.88 35.412 C 28.093 35.428 28.815 35.343 29.028 35.312 C 29.878 35.185 30.643 34.854 31.429 34.737 C 32.236 34.616 32.725 35.314 32.725 36.086 C 32.725 38.594 30.005 39.507 28.221 39.774 C 26.01 40.104 24.417 39.715 23.694 38.762 C 22.845 37.636 22.526 35.078 22.526 32.668 C 22.526 29.605 23.184 26.035 24.757 24.617 C 25.565 23.894 27.222 23.115 29.007 22.848 C 30.621 22.606 32.449 22.816 32.449 24.769 C 32.449 24.89 32.449 25.252 32.407 25.379 C 31.854 27.462 27.286 26.386 26.861 28.378 C 26.818 28.577 26.797 28.895 26.797 29.184 C 26.797 29.473 26.818 29.734 26.839 29.852 Z" style="fill: rgb(141, 25, 143); fill-opacity: 1; fill-rule: nonzero; stroke: none; display: inline;" id="path734"/>
    <path d="M 33.043 24.101 C 33.043 23.234 33.361 22.655 34.062 22.333 C 34.382 22.189 34.742 22.088 35.103 22.033 C 35.89 21.915 36.613 22.096 37.059 22.68 C 37.993 23.988 38.695 26.15 39.354 27.184 C 39.757 26.401 40.14 25.548 40.586 24.638 C 41.393 22.973 41.839 21.074 43.985 20.753 C 44.9 20.616 45.707 20.784 45.707 21.966 C 45.707 22.762 45.58 23.383 45.282 24.225 C 44.751 25.728 43.943 27.391 43.434 28.504 C 42.456 30.555 41.903 31.915 40.862 34.001 C 39.779 36.163 39.035 38.277 37.016 38.579 C 35.954 38.738 35.486 37.698 35.486 36.758 L 35.486 36.516 C 35.572 35.129 36.867 32.886 37.122 31.81 L 35.231 29.152 C 34.318 27.842 33.34 26.42 33.085 24.698 C 33.063 24.484 33.043 24.295 33.043 24.101" style="fill: rgb(141, 25, 143); fill-opacity: 1; fill-rule: nonzero; stroke: none; display: inline;" id="path738"/>
    <path d="M 50.145 32.949 C 51.017 32.818 51.824 33.278 51.824 34.314 C 51.824 35.737 50.719 36.529 49.615 36.695 C 48.956 36.793 48.106 36.318 48.106 35.329 C 48.106 34.437 48.616 33.709 49.253 33.3 C 49.529 33.115 49.849 32.994 50.145 32.949 M 49.338 19.228 C 50.04 19.123 50.805 19.227 51.251 19.449 C 52.016 19.745 52.441 20.405 52.674 21.309 C 52.823 21.866 52.887 22.556 52.887 23.279 C 52.887 25.957 52.058 29.384 51.463 30.557 C 51.081 31.315 50.528 32.048 49.849 32.15 C 49.615 32.185 49.36 32.199 49.083 32.024 C 47.958 31.324 47.766 29.35 47.766 26.795 C 47.766 25.662 47.808 24.401 47.808 23.075 L 47.766 22.069 C 47.766 21.827 47.745 21.348 47.745 21.131 L 47.745 20.89 C 47.745 20.649 47.766 20.453 47.808 20.253 C 48.042 19.64 48.659 19.33 49.338 19.228" style="fill: rgb(141, 25, 143); fill-opacity: 1; fill-rule: nonzero; stroke: none; display: inline;" id="path742"/>
  </g>
</svg>