<?xml version="1.0" encoding="utf-8"?>
<svg viewBox="0 0 64 64" xmlns="http://www.w3.org/2000/svg">
  <g transform="matrix(0.76449, 0, 0, 0.76449, 11.505553, -3.269364)">
    <path d="M 8.56 65.129 L 45.056 65.129 L 45.056 26.208 C 45.056 16.145 36.869 7.96 26.809 7.96 C 16.747 7.96 8.56 16.145 8.56 26.208 Z M 46.061 66.134 L 7.555 66.134 L 7.555 26.208 C 7.555 15.59 16.191 6.953 26.809 6.953 C 37.424 6.953 46.061 15.59 46.061 26.208 Z" style="fill: rgb(5, 6, 6); fill-opacity: 1; fill-rule: nonzero; stroke: none; display: inline;" id="path2566"/>
    <path d="M 26.808 84.813 L 26.808 84.813 C 23.973 84.813 21.673 82.515 21.673 79.679 L 21.673 65.632 L 31.943 65.632 L 31.943 79.679 C 31.943 82.515 29.644 84.813 26.808 84.813" style="fill: rgb(255, 246, 69); fill-opacity: 1; fill-rule: nonzero; stroke: none; display: inline;" id="path2570"/>
    <path d="M 22.177 66.135 L 22.177 79.679 C 22.177 82.232 24.255 84.311 26.809 84.311 C 29.363 84.311 31.439 82.232 31.439 79.679 L 31.439 66.135 Z M 26.809 85.316 C 23.699 85.316 21.171 82.787 21.171 79.679 L 21.171 65.13 L 32.446 65.13 L 32.446 79.679 C 32.446 82.787 29.917 85.316 26.809 85.316" style="fill: rgb(5, 6, 6); fill-opacity: 1; fill-rule: nonzero; stroke: none; display: inline;" id="path2574"/>
    <path id="path2576" style="fill: rgb(250, 184, 223); fill-opacity: 1; fill-rule: nonzero; stroke: none; display: inline;" d="M 8.058 49.766 L 45.559 49.766 L 45.559 65.632 L 8.058 65.632 Z"/>
    <path d="M 45.559 29.469 L 45.559 49.766 L 8.058 49.766 L 8.058 29.469" style="fill: rgb(255, 255, 255); fill-opacity: 1; fill-rule: nonzero; stroke: none; display: inline;" id="path2580"/>
    <path d="M 8.057 25.636 L 8.057 34.156 C 8.057 31.524 10.228 29.398 12.877 29.471 C 15.431 29.54 17.433 31.7 17.433 34.254 L 17.433 36.852 C 17.433 39.406 19.436 41.566 21.989 41.635 C 24.639 41.708 26.808 39.582 26.808 36.95 L 26.808 34.254 C 26.808 31.7 28.811 29.54 31.364 29.471 C 34.013 29.398 36.184 31.524 36.184 34.156 L 36.184 36.852 C 36.184 39.406 38.187 41.566 40.74 41.635 C 43.389 41.708 45.559 39.582 45.559 36.95 L 45.559 31.994 L 45.559 26.207 L 45.559 25.636 C 45.559 15.596 37.42 7.456 27.38 7.456 L 26.237 7.456 C 16.196 7.456 8.057 15.596 8.057 25.636" style="fill: rgb(195, 234, 215); fill-opacity: 1; fill-rule: nonzero; stroke: none; display: inline;" id="path2584"/>
    <path d="M 8.56 49.263 L 8.56 34.157 C 8.56 33.017 9.011 31.953 9.827 31.158 C 10.643 30.363 11.712 29.943 12.864 29.974 C 15.105 30.035 16.929 31.955 16.929 34.254 L 16.929 36.851 C 16.929 39.69 19.193 42.063 21.976 42.138 C 23.403 42.195 24.729 41.657 25.74 40.671 C 26.755 39.685 27.311 38.363 27.311 36.949 L 27.311 34.254 C 27.311 31.955 29.137 30.035 31.379 29.974 C 32.525 29.949 33.597 30.363 34.413 31.157 C 35.229 31.953 35.68 33.017 35.68 34.157 L 35.68 36.851 C 35.68 39.69 37.944 42.063 40.725 42.138 C 40.775 42.139 40.823 42.141 40.872 42.141 C 42.233 42.141 43.513 41.622 44.491 40.671 C 44.703 40.463 44.884 40.235 45.056 40.001 L 45.056 49.263 Z M 45.056 65.129 L 8.56 65.129 L 8.56 50.269 L 45.056 50.269 Z M 8.56 29.469 L 8.56 25.635 C 8.56 15.889 16.489 7.959 26.236 7.959 L 27.38 7.959 C 37.127 7.959 45.056 15.889 45.056 25.635 L 45.056 29.469 L 45.056 36.949 C 45.056 38.089 44.605 39.154 43.788 39.949 C 42.972 40.745 41.876 41.182 40.753 41.133 C 38.511 41.07 36.685 39.15 36.685 36.851 L 36.685 34.157 C 36.685 32.743 36.128 31.422 35.115 30.435 C 34.137 29.485 32.859 28.966 31.499 28.966 C 31.449 28.966 31.4 28.967 31.351 28.969 C 28.569 29.043 26.305 31.414 26.305 34.254 L 26.305 36.949 C 26.305 38.089 25.855 39.154 25.037 39.949 C 24.221 40.745 23.144 41.182 22.003 41.133 C 19.761 41.07 17.936 39.15 17.936 36.851 L 17.936 34.254 C 17.936 31.414 15.672 29.043 12.891 28.969 C 11.509 28.942 10.139 29.45 9.125 30.435 C 8.917 30.638 8.729 30.854 8.56 31.082 Z M 27.38 6.954 L 26.236 6.954 C 15.935 6.954 7.555 15.334 7.555 25.635 L 7.555 29.469 L 7.555 34.157 L 7.555 49.263 L 7.555 50.269 L 7.555 66.135 L 46.061 66.135 L 46.061 50.269 L 46.061 49.263 L 46.061 36.949 L 46.061 29.469 L 46.061 25.635 C 46.061 15.334 37.681 6.954 27.38 6.954" style="fill: rgb(5, 6, 6); fill-opacity: 1; fill-rule: nonzero; stroke: none; display: inline;" id="path2588"/>
    <path d="M 25.389 18.017 C 25.349 18.017 25.307 18.012 25.269 17.997 L 21.579 16.714 C 21.387 16.649 21.286 16.44 21.354 16.249 C 21.419 16.056 21.627 15.95 21.819 16.022 L 25.509 17.304 C 25.701 17.37 25.802 17.578 25.735 17.77 C 25.682 17.922 25.541 18.017 25.389 18.017" style="fill: rgb(55, 171, 156); fill-opacity: 1; fill-rule: nonzero; stroke: none; display: inline;" id="path2592"/>
    <path d="M 25.389 28.962 C 25.349 28.962 25.307 28.957 25.269 28.942 L 21.579 27.66 C 21.387 27.594 21.286 27.386 21.354 27.194 C 21.419 27.002 21.627 26.896 21.819 26.968 L 25.509 28.249 C 25.701 28.316 25.802 28.524 25.735 28.716 C 25.682 28.868 25.541 28.962 25.389 28.962" style="fill: rgb(55, 171, 156); fill-opacity: 1; fill-rule: nonzero; stroke: none; display: inline;" id="path2596"/>
    <path d="M 16.135 20.693 C 16.095 20.693 16.054 20.688 16.015 20.673 L 12.326 19.391 C 12.134 19.325 12.033 19.116 12.101 18.925 C 12.166 18.733 12.373 18.625 12.567 18.699 L 16.255 19.98 C 16.447 20.047 16.549 20.255 16.482 20.447 C 16.43 20.599 16.287 20.693 16.135 20.693" style="fill: rgb(55, 171, 156); fill-opacity: 1; fill-rule: nonzero; stroke: none; display: inline;" id="path2600"/>
    <path d="M 15.656 25.529 C 15.563 25.529 15.47 25.487 15.41 25.406 C 15.306 25.27 15.331 25.075 15.468 24.971 L 18.295 22.807 C 18.43 22.705 18.627 22.729 18.73 22.866 C 18.834 23.002 18.808 23.197 18.671 23.301 L 15.846 25.465 C 15.79 25.507 15.722 25.529 15.656 25.529" style="fill: rgb(55, 171, 156); fill-opacity: 1; fill-rule: nonzero; stroke: none; display: inline;" id="path2604"/>
    <path d="M 17.07 15.136 C 16.976 15.136 16.883 15.095 16.823 15.014 C 16.719 14.878 16.744 14.683 16.88 14.579 L 19.708 12.415 C 19.842 12.311 20.04 12.335 20.142 12.474 C 20.247 12.61 20.222 12.804 20.084 12.908 L 17.258 15.072 C 17.203 15.115 17.135 15.136 17.07 15.136" style="fill: rgb(55, 171, 156); fill-opacity: 1; fill-rule: nonzero; stroke: none; display: inline;" id="path2608"/>
    <path d="M 33.365 17.32 C 33.207 17.32 33.071 17.2 33.055 17.04 L 32.703 13.499 C 32.689 13.327 32.813 13.175 32.983 13.157 C 33.146 13.151 33.309 13.267 33.323 13.437 L 33.674 16.979 C 33.69 17.151 33.566 17.303 33.395 17.32 C 33.385 17.32 33.375 17.32 33.365 17.32" style="fill: rgb(55, 171, 156); fill-opacity: 1; fill-rule: nonzero; stroke: none; display: inline;" id="path2612"/>
    <path d="M 29.975 22.41 C 29.966 22.41 29.955 22.408 29.946 22.408 C 29.774 22.391 29.65 22.24 29.666 22.07 L 30.006 18.527 C 30.023 18.356 30.161 18.246 30.345 18.246 C 30.517 18.263 30.642 18.415 30.626 18.586 L 30.285 22.128 C 30.27 22.29 30.134 22.41 29.975 22.41" style="fill: rgb(55, 171, 156); fill-opacity: 1; fill-rule: nonzero; stroke: none; display: inline;" id="path2616"/>
    <path d="M 26.638 14.191 C 26.629 14.191 26.619 14.19 26.609 14.19 C 26.438 14.172 26.313 14.02 26.329 13.851 L 26.667 10.307 C 26.685 10.138 26.821 10.036 27.007 10.027 C 27.178 10.044 27.303 10.196 27.287 10.367 L 26.947 13.91 C 26.933 14.071 26.797 14.191 26.638 14.191" style="fill: rgb(55, 171, 156); fill-opacity: 1; fill-rule: nonzero; stroke: none; display: inline;" id="path2620"/>
    <path d="M 38.693 25.382 C 38.683 25.382 38.673 25.382 38.663 25.382 C 38.491 25.364 38.367 25.213 38.383 25.042 L 38.722 21.5 C 38.739 21.329 38.874 21.228 39.062 21.218 C 39.233 21.236 39.358 21.388 39.342 21.558 L 39.002 25.101 C 38.986 25.262 38.851 25.382 38.693 25.382" style="fill: rgb(55, 171, 156); fill-opacity: 1; fill-rule: nonzero; stroke: none; display: inline;" id="path2624"/>
    <path d="M 21.36 35.443 C 21.351 35.443 21.341 35.441 21.331 35.441 C 21.16 35.424 21.035 35.272 21.051 35.103 L 21.389 31.557 C 21.407 31.388 21.551 31.287 21.729 31.277 C 21.9 31.295 22.025 31.447 22.009 31.617 L 21.669 35.161 C 21.655 35.323 21.519 35.443 21.36 35.443" style="fill: rgb(55, 171, 156); fill-opacity: 1; fill-rule: nonzero; stroke: none; display: inline;" id="path2628"/>
    <path d="M 10.709 27.99 C 10.7 27.99 10.689 27.988 10.68 27.988 C 10.508 27.971 10.382 27.82 10.4 27.65 L 10.738 24.107 C 10.756 23.936 10.884 23.832 11.077 23.826 C 11.249 23.843 11.374 23.995 11.358 24.166 L 11.018 27.708 C 11.002 27.87 10.868 27.99 10.709 27.99" style="fill: rgb(55, 171, 156); fill-opacity: 1; fill-rule: nonzero; stroke: none; display: inline;" id="path2632"/>
    <path d="M 40.6 31.851 C 40.52 31.851 40.442 31.816 40.389 31.748 C 40.3 31.631 40.322 31.466 40.438 31.378 L 42.57 29.747 C 42.686 29.658 42.852 29.68 42.941 29.795 C 43.03 29.912 43.009 30.078 42.893 30.167 L 40.761 31.796 C 40.712 31.834 40.656 31.851 40.6 31.851" style="fill: rgb(55, 171, 156); fill-opacity: 1; fill-rule: nonzero; stroke: none; display: inline;" id="path2636"/>
    <path d="M 37.397 30.126 C 37.314 30.126 37.23 30.094 37.171 30.028 C 37.053 29.903 37.058 29.706 37.183 29.59 L 39.775 27.151 C 39.902 27.032 40.101 27.039 40.215 27.163 C 40.333 27.29 40.327 27.486 40.202 27.603 L 37.61 30.04 C 37.55 30.098 37.473 30.126 37.397 30.126" style="fill: rgb(55, 171, 156); fill-opacity: 1; fill-rule: nonzero; stroke: none; display: inline;" id="path2640"/>
    <path d="M 42.761 37.549 C 42.721 37.549 42.679 37.541 42.639 37.524 L 39.363 36.136 C 39.205 36.069 39.131 35.886 39.198 35.729 C 39.265 35.572 39.447 35.497 39.606 35.564 L 42.882 36.952 C 43.039 37.02 43.114 37.202 43.047 37.36 C 42.997 37.478 42.882 37.549 42.761 37.549" style="fill: rgb(55, 171, 156); fill-opacity: 1; fill-rule: nonzero; stroke: none; display: inline;" id="path2644"/>
    <path d="M 33.19 26.748 C 33.107 26.748 33.023 26.715 32.965 26.651 C 32.846 26.524 32.851 26.328 32.977 26.211 L 35.569 23.773 C 35.694 23.655 35.893 23.661 36.009 23.785 C 36.126 23.912 36.121 24.108 35.995 24.224 L 33.403 26.663 C 33.343 26.72 33.266 26.748 33.19 26.748" style="fill: rgb(55, 171, 156); fill-opacity: 1; fill-rule: nonzero; stroke: none; display: inline;" id="path2648"/>
    <path d="M 36.27 17.899 C 36.187 17.899 36.103 17.866 36.043 17.802 C 35.926 17.675 35.931 17.479 36.056 17.361 L 38.65 14.923 C 38.774 14.807 38.972 14.813 39.09 14.937 C 39.207 15.063 39.202 15.259 39.076 15.377 L 36.483 17.815 C 36.423 17.871 36.346 17.899 36.27 17.899" style="fill: rgb(55, 171, 156); fill-opacity: 1; fill-rule: nonzero; stroke: none; display: inline;" id="path2652"/>
    <path d="M 26.739 24.524 C 26.668 24.524 26.595 24.498 26.538 24.448 L 23.835 22.133 C 23.704 22.022 23.69 21.825 23.8 21.694 C 23.912 21.565 24.111 21.55 24.239 21.661 L 26.942 23.976 C 27.072 24.088 27.087 24.284 26.975 24.414 C 26.914 24.486 26.827 24.524 26.739 24.524" style="fill: rgb(55, 171, 156); fill-opacity: 1; fill-rule: nonzero; stroke: none; display: inline;" id="path2656"/>
  </g>
</svg>