<?xml version="1.0" encoding="utf-8"?>
<svg viewBox="0 0 64 64" xmlns="http://www.w3.org/2000/svg">
  <g transform="matrix(0.879975, 0, 0, 0.879975, 4.753774, 13.391171)">
    <path id="path396" style="fill:#ffffff;fill-opacity:1;fill-rule:nonzero;stroke:none" d="M -1.386 10.848 L 10.398 10.848 C 10.398 10.848 10.009 14.336 10.171 14.33 C 10.334 14.324 12.666 19.716 12.666 19.716 L 13.63 21.044 L 10.821 22.205 Z"/>
    <path id="path400" style="fill:#ffffff;fill-opacity:1;fill-rule:nonzero;stroke:none" d="M 52.094 10.868 L 52.462 13.862 L 51.194 17.116 L 47.814 21.151 L 48.644 25.012 C 48.644 25.012 50.16 25.466 50.678 25.012 C 51.194 24.56 63.07 11.458 63.07 11.458 L 61.812 10.328 Z"/>
    <path id="path404" style="fill:#ffffff;fill-opacity:1;fill-rule:nonzero;stroke:none" d="M 51.913 10.421 L 53.033 10.868 L 53.841 9.65 C 53.841 9.65 50.42 3.228 50.29 3.132 C 50.161 3.034 49.405 1.33 49.405 1.33 L 48.826 1.33 L 49.408 6.584 Z"/>
    <path id="path408" style="fill:#ffffff;fill-opacity:1;fill-rule:nonzero;stroke:none" d="M 21.001 -4.079 L 22.979 -1.702 L 24.829 1.486 L 37.553 1.486 L 41.575 -4.4 L 22.891 -5.066 Z"/>
    <path id="path412" style="fill:#ffffff;fill-opacity:1;fill-rule:nonzero;stroke:none" d="M 10.398 10.848 L 11.725 7.342 L 13.63 5.077 L 13.909 4.161 L 13.63 -0.367 C 13.63 -0.367 8.787 5.486 8.819 5.584 C 8.851 5.681 10.398 10.848 10.398 10.848"/>
    <path id="path416" style="fill:#ffffff;fill-opacity:1;fill-rule:nonzero;stroke:none" d="M 40.912 31.864 L 63.31 10.848 L 63.31 53.67 L -1.386 53.67 L -1.386 10.848 L 20.164 31.61"/>
    <path id="path420" style="fill:#ffffff;fill-opacity:1;fill-rule:nonzero;stroke:none" d="M 2.272 50.019 L 22.527 29.803 L 38.795 29.803 L 59.295 49.76"/>
    <path id="path424" style="fill:#ffffff;fill-opacity:1;fill-rule:nonzero;stroke:none" d="M 13.63 -0.367 L -1.386 10.847 L 10.398 10.847"/>
    <path id="path428" style="fill:#ffffff;fill-opacity:1;fill-rule:nonzero;stroke:none" d="M 21.138 -4.4 L 30.963 -11.35 L 41.575 -4.4"/>
    <path id="path432" style="fill:#ffffff;fill-opacity:1;fill-rule:nonzero;stroke:none" d="M 52.42 10.848 L 63.311 10.848 L 48.921 1"/>
    <path id="path436" style="fill:#f8a3d6;fill-opacity:1;fill-rule:nonzero;stroke:none" d="M 31.356 36.615 C 31.356 36.615 33.295 33.458 36.523 35.503 C 36.523 35.503 38.842 37.45 36.523 40.23 C 34.207 43.011 31.356 45.606 31.356 45.606 C 31.356 45.606 26.328 41.766 25.494 40.21 C 24.66 38.655 24.104 35.515 27.07 34.814 C 30.035 34.112 31.356 36.615 31.356 36.615"/>
    <path id="path440" style="fill:#181210;fill-opacity:1;fill-rule:nonzero;stroke:none" d="M 28.089 35.078 C 27.801 35.078 27.493 35.113 27.158 35.191 C 26.315 35.39 25.739 35.821 25.447 36.469 C 24.97 37.529 25.314 39.055 25.834 40.027 C 26.45 41.173 29.795 43.907 31.333 45.099 C 32.063 44.417 34.338 42.249 36.226 39.982 C 38.274 37.526 36.358 35.87 36.275 35.801 C 35.441 35.274 34.593 35.086 33.795 35.27 C 32.473 35.573 31.693 36.806 31.686 36.819 C 31.614 36.937 31.479 37.009 31.343 37.002 C 31.206 36.997 31.079 36.919 31.014 36.798 C 30.971 36.717 30.067 35.078 28.089 35.078 M 31.357 45.994 C 31.274 45.994 31.191 45.967 31.121 45.913 C 30.914 45.755 26.015 42.003 25.153 40.393 C 24.525 39.222 24.153 37.455 24.741 36.151 C 25.138 35.271 25.891 34.695 26.981 34.438 C 29.341 33.883 30.771 35.201 31.369 35.954 C 31.777 35.477 32.539 34.765 33.614 34.517 C 34.625 34.285 35.671 34.505 36.731 35.177 C 36.799 35.229 39.357 37.437 36.821 40.478 C 34.514 43.246 31.645 45.866 31.617 45.893 C 31.543 45.959 31.45 45.994 31.357 45.994"/>
    <path id="path444" style="fill:#181210;fill-opacity:1;fill-rule:nonzero;stroke:none" d="M 17.523 2.522 C 17.344 2.522 17.184 2.399 17.144 2.217 C 17.04 1.739 16.554 -0.695 17.33 -1.601 C 17.551 -1.857 17.84 -1.987 18.195 -1.959 C 19.824 -1.857 21.368 -0.047 21.434 0.031 C 21.571 0.194 21.551 0.439 21.387 0.575 C 21.224 0.713 20.98 0.694 20.842 0.53 C 20.828 0.514 19.446 -1.105 18.147 -1.186 C 18.023 -1.186 17.968 -1.155 17.918 -1.097 C 17.528 -0.643 17.674 1.018 17.902 2.051 C 17.947 2.261 17.815 2.467 17.606 2.513 C 17.579 2.519 17.551 2.522 17.523 2.522"/>
    <path id="path448" style="fill:#181210;fill-opacity:1;fill-rule:nonzero;stroke:none" d="M 46.164 2.986 C 46.15 2.986 46.136 2.985 46.122 2.985 C 45.909 2.961 45.754 2.769 45.778 2.557 C 45.989 0.613 45.897 -1.718 45.38 -2.094 C 45.35 -2.116 45.306 -2.134 45.22 -2.118 C 44.596 -1.988 43.478 -0.523 42.882 0.478 C 42.772 0.662 42.533 0.724 42.352 0.613 C 42.166 0.504 42.108 0.266 42.217 0.082 C 42.485 -0.37 43.885 -2.634 45.064 -2.875 C 45.349 -2.932 45.614 -2.879 45.836 -2.72 C 46.978 -1.888 46.63 1.892 46.549 2.641 C 46.526 2.838 46.358 2.986 46.164 2.986"/>
    <path id="path452" style="fill:#181210;fill-opacity:1;fill-rule:nonzero;stroke:none" d="M 23.1 15.843 C 23.1 15.838 23.095 15.835 23.095 15.83 C 23.095 15.811 23.106 15.792 23.102 15.774 C 23.05 15.472 23.016 15.274 15.392 13.346 C 15.187 13.294 14.975 13.419 14.923 13.626 C 14.871 13.832 14.995 14.043 15.203 14.096 C 17.095 14.575 19.123 15.111 20.56 15.519 L 15.288 15.651 C 15.074 15.656 14.906 15.835 14.911 16.048 C 14.915 16.259 15.088 16.426 15.298 16.426 L 15.308 16.426 L 20.906 16.286 C 19.763 16.812 18.246 17.5 17.13 18.003 C 16.935 18.091 16.848 18.319 16.935 18.515 C 17 18.659 17.142 18.743 17.29 18.743 C 17.343 18.743 17.396 18.732 17.448 18.708 C 18.662 18.163 22.644 16.364 22.928 16.176 C 22.943 16.166 22.948 16.147 22.962 16.134 C 22.983 16.115 22.995 16.096 23.012 16.072 C 23.056 16.011 23.082 15.947 23.088 15.871 C 23.09 15.86 23.1 15.854 23.1 15.843"/>
    <path id="path456" style="fill:#181210;fill-opacity:1;fill-rule:nonzero;stroke:none" d="M 46.27 15.909 L 41 15.777 C 42.437 15.369 44.465 14.833 46.354 14.355 C 46.562 14.303 46.688 14.092 46.636 13.885 C 46.582 13.679 46.373 13.552 46.165 13.604 C 40.172 15.121 38.873 15.567 38.565 15.835 C 38.564 15.836 38.562 15.837 38.561 15.839 C 38.481 15.909 38.466 15.969 38.456 16.032 C 38.452 16.051 38.464 16.069 38.462 16.088 C 38.462 16.093 38.457 16.096 38.457 16.101 C 38.457 16.112 38.468 16.119 38.468 16.129 C 38.476 16.205 38.5 16.271 38.546 16.331 C 38.562 16.353 38.574 16.373 38.596 16.392 C 38.609 16.404 38.614 16.424 38.63 16.433 C 38.913 16.623 42.896 18.42 44.11 18.967 C 44.162 18.991 44.216 19.001 44.27 19.001 C 44.417 19.001 44.558 18.916 44.622 18.773 C 44.71 18.577 44.624 18.349 44.429 18.261 C 43.312 17.759 41.793 17.069 40.652 16.544 L 46.25 16.684 L 46.261 16.684 C 46.47 16.684 46.642 16.517 46.648 16.307 C 46.653 16.093 46.484 15.915 46.27 15.909"/>
    <path id="path460" style="fill:#181210;fill-opacity:1;fill-rule:nonzero;stroke:none" d="M 25.772 12.162 C 25.656 12.162 25.542 12.11 25.465 12.011 C 24.629 10.929 23.708 10.37 22.726 10.35 L 22.67 10.35 C 20.937 10.35 19.524 12.006 19.51 12.023 C 19.373 12.189 19.126 12.209 18.965 12.071 C 18.801 11.934 18.778 11.69 18.916 11.526 C 18.984 11.445 20.594 9.573 22.737 9.575 C 23.966 9.598 25.09 10.258 26.078 11.538 C 26.21 11.707 26.178 11.95 26.009 12.081 C 25.938 12.135 25.854 12.162 25.772 12.162"/>
    <path id="path464" style="fill:#181210;fill-opacity:1;fill-rule:nonzero;stroke:none" d="M 44.645 12.162 C 44.529 12.162 44.415 12.11 44.338 12.011 C 43.502 10.93 42.581 10.37 41.599 10.35 C 39.811 10.305 38.397 12.005 38.382 12.023 C 38.246 12.189 38.001 12.209 37.838 12.071 C 37.673 11.934 37.651 11.69 37.789 11.526 C 37.857 11.446 39.445 9.575 41.543 9.575 L 41.611 9.575 C 42.839 9.599 43.963 10.258 44.951 11.538 C 45.082 11.707 45.051 11.95 44.882 12.081 C 44.811 12.135 44.727 12.162 44.645 12.162"/>
    <path id="path468" style="fill:#fff875;fill-opacity:1;fill-rule:nonzero;stroke:none" d="M 31.889 23.5 L 25.772 20.441 L 25.772 26.559 Z"/>
    <path id="path472" style="fill:#fff875;fill-opacity:1;fill-rule:nonzero;stroke:none" d="M 32.142 23.5 L 38.259 20.441 L 38.259 26.559 Z"/>
    <path id="path476" style="fill:#181210;fill-opacity:1;fill-rule:nonzero;stroke:none" d="M 33.008 23.5 L 37.872 25.932 L 37.872 21.067 Z M 38.259 26.945 C 38.2 26.945 38.141 26.933 38.087 26.905 L 31.968 23.845 C 31.837 23.78 31.755 23.645 31.755 23.5 C 31.755 23.353 31.837 23.22 31.968 23.153 L 38.087 20.095 C 38.204 20.032 38.347 20.04 38.463 20.111 C 38.577 20.181 38.647 20.307 38.647 20.441 L 38.647 26.559 C 38.647 26.693 38.577 26.817 38.463 26.889 C 38.4 26.927 38.331 26.945 38.259 26.945"/>
    <path id="path480" style="fill:#fff875;fill-opacity:1;fill-rule:nonzero;stroke:none" d="M 33.453 23.536 C 33.453 24.352 32.792 25.013 31.976 25.013 C 31.16 25.013 30.499 24.352 30.499 23.536 C 30.499 22.72 31.16 22.058 31.976 22.058 C 32.792 22.058 33.453 22.72 33.453 23.536"/>
    <path id="path484" style="fill:#181210;fill-opacity:1;fill-rule:nonzero;stroke:none" d="M 31.976 24.625 C 31.665 24.625 31.389 24.492 31.189 24.282 C 31.011 24.094 30.9 23.844 30.892 23.565 C 30.892 23.556 30.887 23.546 30.887 23.536 C 30.887 23.502 30.903 23.474 30.905 23.441 C 30.931 23.165 31.048 22.921 31.24 22.742 C 31.435 22.562 31.691 22.446 31.976 22.446 C 32.577 22.446 33.067 22.934 33.067 23.536 C 33.067 24.137 32.577 24.625 31.976 24.625 M 26.159 25.932 L 26.159 21.068 L 30.176 23.076 C 30.139 23.224 30.112 23.376 30.112 23.536 C 30.112 23.673 30.128 23.805 30.156 23.933 Z M 31.976 21.672 C 31.385 21.672 30.864 21.953 30.521 22.384 L 25.945 20.096 C 25.827 20.033 25.683 20.041 25.568 20.112 C 25.453 20.181 25.384 20.306 25.384 20.441 L 25.384 26.558 C 25.384 26.693 25.453 26.818 25.568 26.889 C 25.631 26.928 25.701 26.946 25.772 26.946 C 25.832 26.946 25.891 26.933 25.945 26.905 L 30.48 24.637 C 30.819 25.097 31.361 25.4 31.976 25.4 C 33.005 25.4 33.841 24.564 33.841 23.536 C 33.841 22.508 33.005 21.672 31.976 21.672"/>
    <path id="path488" style="fill:#181210;fill-opacity:1;fill-rule:nonzero;stroke:none" d="M 34.568 17.291 C 34.402 17.16 34.159 17.183 34.023 17.351 C 33.418 18.108 32.668 17.896 32.331 17.744 L 32.254 16.131 L 33.482 15.167 C 33.65 15.035 33.679 14.792 33.546 14.624 C 33.414 14.455 33.171 14.427 33.003 14.558 L 31.838 15.474 L 30.631 14.678 C 30.455 14.56 30.214 14.607 30.095 14.786 C 29.978 14.964 30.026 15.204 30.204 15.322 L 31.479 16.166 L 31.558 17.782 C 31.29 17.915 30.696 18.068 29.974 17.415 C 29.816 17.272 29.571 17.282 29.428 17.442 C 29.283 17.599 29.295 17.846 29.454 17.988 C 30.016 18.499 30.572 18.67 31.047 18.67 C 31.432 18.67 31.734 18.55 31.97 18.415 C 32.243 18.547 32.584 18.664 32.983 18.664 C 33.526 18.664 34.126 18.46 34.628 17.836 C 34.762 17.67 34.735 17.426 34.568 17.291"/>
    <path id="path492" style="fill:#181210;fill-opacity:1;fill-rule:nonzero;stroke:none" d="M 62.923 52.752 L 41.473 31.868 L 62.923 11.742 Z M -0.45 53.283 L 22.687 30.19 L 38.638 30.19 L 62.358 53.283 Z M -0.998 11.758 L 19.893 31.886 L -0.998 52.736 Z M 9.925 11.235 C 9.922 11.252 9.917 11.267 9.913 11.284 C 9.135 15.383 12.079 19.662 13.043 20.927 L 10.879 22.127 L -0.426 11.235 Z M 13.283 0.375 C 13.274 2.271 13.487 3.992 13.579 4.631 C 12.911 5.092 11.034 6.714 10.111 10.46 L -0.221 10.46 Z M 15.171 -4.782 C 15.543 -5.284 15.997 -5.564 16.555 -5.637 C 20.797 -6.216 24.441 1.568 24.478 1.647 C 24.541 1.784 24.678 1.874 24.83 1.874 L 37.554 1.874 C 37.711 1.874 37.854 1.778 37.913 1.631 C 37.937 1.57 40.406 -4.44 45.466 -6.193 C 45.823 -6.198 46.941 -5.437 47.826 -1.761 C 48.57 1.33 48.705 3.494 48.794 4.926 C 48.853 5.85 48.886 6.408 49.061 6.758 C 49.146 6.928 49.325 7.155 49.593 7.498 C 50.646 8.836 52.833 11.623 51.913 14.53 C 51.255 16.6 49.966 17.958 48.931 19.048 C 48.075 19.95 47.401 20.66 47.353 21.483 C 47.277 22.774 47.867 23.988 48.173 24.52 L 40.917 31.328 L 39.065 29.526 C 38.993 29.455 38.895 29.416 38.795 29.416 L 22.527 29.416 C 22.425 29.416 22.326 29.456 22.254 29.528 L 20.438 31.342 C 20.434 31.338 20.435 31.334 20.433 31.331 L 11.463 22.69 L 13.818 21.383 C 13.919 21.326 13.99 21.228 14.011 21.114 C 14.031 21 14.002 20.883 13.926 20.795 C 13.886 20.747 9.837 15.847 10.673 11.43 C 11.581 6.647 14.159 5.176 14.186 5.163 C 14.329 5.084 14.409 4.922 14.382 4.76 C 14.371 4.691 13.277 -2.232 15.171 -4.782 M 30.971 -10.882 L 41.059 -4.276 C 38.867 -2.177 37.647 0.311 37.297 1.099 L 25.075 1.099 C 24.694 0.315 23.373 -2.241 21.471 -4.162 Z M 62.059 10.46 L 52.421 10.46 C 52.397 10.46 52.383 10.48 52.362 10.484 C 51.762 9.012 50.809 7.791 50.202 7.019 C 49.998 6.759 49.806 6.512 49.754 6.411 C 49.65 6.202 49.614 5.616 49.567 4.876 C 49.517 4.066 49.449 3.015 49.27 1.707 Z M 52.63 11.235 L 62.331 11.235 L 48.757 23.971 C 48.483 23.454 48.067 22.502 48.125 21.53 C 48.157 20.988 48.746 20.368 49.493 19.583 C 50.583 18.434 51.941 17.003 52.65 14.764 C 53.043 13.524 52.954 12.324 52.63 11.235 M 63.677 10.78 C 63.671 10.746 63.665 10.716 63.649 10.684 C 63.63 10.643 63.602 10.612 63.57 10.58 C 63.554 10.564 63.549 10.54 63.53 10.528 L 49.141 0.68 C 49.131 0.674 49.121 0.679 49.111 0.674 C 48.979 -0.117 48.811 -0.98 48.579 -1.942 C 47.35 -7.044 45.678 -7.014 45.295 -6.944 C 43.886 -6.458 42.679 -5.688 41.653 -4.812 L 31.174 -11.676 C 31.041 -11.764 30.869 -11.76 30.739 -11.666 L 20.914 -4.716 C 20.909 -4.712 20.909 -4.704 20.905 -4.701 C 19.615 -5.837 18.101 -6.62 16.451 -6.406 C 15.686 -6.304 15.046 -5.913 14.549 -5.244 C 13.723 -4.132 13.398 -2.362 13.309 -0.612 L -1.618 10.536 C -1.635 10.551 -1.641 10.574 -1.655 10.588 C -1.685 10.619 -1.707 10.65 -1.726 10.688 C -1.741 10.722 -1.749 10.751 -1.755 10.786 C -1.759 10.808 -1.773 10.826 -1.773 10.847 L -1.773 53.67 C -1.773 53.722 -1.737 53.756 -1.718 53.802 C -1.701 53.85 -1.699 53.904 -1.661 53.943 C -1.661 53.943 -1.659 53.943 -1.659 53.944 C -1.615 53.988 -1.547 53.999 -1.485 54.016 C -1.45 54.027 -1.422 54.058 -1.386 54.058 L -1.386 54.058 L 63.311 54.058 C 63.419 54.058 63.515 54.012 63.586 53.942 C 63.586 53.94 63.587 53.942 63.589 53.94 C 63.625 53.903 63.623 53.851 63.642 53.806 C 63.661 53.759 63.698 53.723 63.698 53.67 L 63.698 10.847 C 63.698 10.823 63.682 10.803 63.677 10.78"/>
  </g>
</svg>