<?xml version="1.0" encoding="utf-8"?>
<svg viewBox="0 0 64 64" xmlns="http://www.w3.org/2000/svg">
  <g>
    <path d="M 32.968 15.393 C 32.652 14.757 32.338 14.118 31.963 13.531 C 30.294 10.786 27.791 8.567 24.701 7.902 C 21.636 7.172 18.245 7.9 15.266 9.425 C 12.27 10.961 9.579 13.269 7.672 16.182 C 5.776 19.074 4.735 22.591 5.292 26.192 C 5.591 28.712 6.624 31.239 7.983 33.622 C 9.349 36.013 11.123 38.243 13.046 40.329 C 16.913 44.5 21.421 48.083 25.803 51.139 C 20.642 47.479 15.65 43.367 11.555 38.49 C 9.537 36.045 7.735 33.397 6.562 30.518 C 5.374 27.659 4.87 24.542 5.459 21.593 C 5.694 20.106 6.318 18.713 7.001 17.374 C 7.408 16.733 7.751 16.057 8.242 15.466 L 8.93 14.552 C 9.18 14.267 9.421 13.976 9.684 13.701 C 11.772 11.501 14.36 9.733 17.15 8.709 C 19.926 7.674 22.948 7.41 25.56 8.329 C 28.19 9.204 30.283 11.212 31.737 13.617 C 30.363 11.803 28.446 9.9 25.732 8.912 C 22.464 7.672 18.573 8.398 15.28 10.154 C 13.624 11.039 12.081 12.16 10.739 13.465 C 10.078 14.127 9.446 14.802 8.909 15.571 C 8.315 16.301 7.865 17.104 7.4 17.895 C 7.331 17.859 7.195 17.788 7.128 17.753 C 6.177 19.599 5.647 21.593 5.593 23.608 C 5.532 25.623 5.932 27.648 6.642 29.581 C 8.073 33.467 10.64 36.953 13.508 40.092 C 16.39 43.245 19.655 46.07 23.089 48.69 C 24.809 49.999 26.577 51.254 28.389 52.455 C 29.296 53.053 30.212 53.641 31.138 54.218 L 32.358 54.96 L 32.581 55.092 L 32.693 55.158 L 32.733 55.035 C 33.542 54.402 34.352 53.768 35.166 53.133 C 36.125 52.37 37.085 51.606 38.05 50.837 C 39.963 49.289 41.851 47.7 43.684 46.038 C 43.043 46.538 43.365 46.175 43.46 46.028 C 43.502 45.991 43.542 45.956 43.581 45.922 C 43.542 45.956 43.502 45.991 43.46 46.028 C 43.546 45.896 43.452 45.931 42.378 46.858 C 43.452 45.931 43.546 45.896 43.46 46.028 C 41.625 47.647 39.741 49.196 37.841 50.713 C 36.105 52.072 34.381 53.422 32.669 54.763 L 32.646 54.833 L 32.584 54.797 L 32.458 54.723 L 31.318 54.029 C 30.408 53.466 29.509 52.89 28.616 52.306 C 26.835 51.132 25.094 49.91 23.399 48.637 C 20.009 46.094 16.793 43.341 13.928 40.289 C 11.069 37.251 8.549 33.854 7.036 30.105 C 6.293 28.235 5.838 26.277 5.819 24.327 C 5.794 22.378 6.217 20.447 7.049 18.649 C 6.232 20.425 5.814 22.336 5.836 24.269 C 5.854 26.205 6.301 28.152 7.042 30.016 C 8.544 33.755 11.072 37.157 13.947 40.198 C 16.828 43.255 20.066 46.011 23.47 48.554 C 25.171 49.826 26.916 51.045 28.696 52.214 C 29.588 52.798 30.487 53.369 31.394 53.93 L 32.505 54.605 L 32.584 54.651 L 32.622 54.672 L 32.636 54.628 C 34.16 53.438 35.685 52.247 37.21 51.054 C 38.926 49.702 40.609 48.322 42.261 46.909 C 45.554 44.08 48.712 41.091 51.411 37.76 C 52.771 36.105 54.001 34.355 55.025 32.51 C 56.031 30.677 56.858 28.79 57.254 26.757 C 57.68 24.747 57.802 22.673 57.562 20.639 C 57.291 18.611 56.639 16.646 55.622 14.899 C 55.316 14.282 54.686 13.472 54.042 12.676 C 53.68 12.313 53.319 11.951 52.988 11.617 C 52.641 11.304 52.282 11.066 52.017 10.849 C 50.974 9.961 49.745 9.293 48.458 8.744 C 47.824 8.444 47.12 8.308 46.452 8.078 C 45.779 7.861 45.156 7.791 44.448 7.735 C 41.665 7.566 38.663 8.104 36.093 9.22 C 36.669 8.762 35.571 8.92 35.637 8.649 C 35.681 8.523 36.004 8.231 37.073 7.796 C 38.139 7.392 39.981 6.768 43.005 6.653 C 43.003 6.576 42.996 6.421 42.993 6.344 C 39.923 6.394 37.339 6.97 35.443 7.637 C 33.526 8.274 32.318 9.106 31.724 9.417 C 31.456 9.557 31.325 9.562 31.346 9.421 C 31.354 9.286 31.55 8.987 32 8.497 C 32.886 7.56 34.81 6.217 38.007 5.304 C 39.807 4.796 41.726 4.489 43.778 4.465 C 44.8 4.468 45.894 4.535 46.98 4.785 C 47.489 4.923 48.001 5.062 48.515 5.202 C 48.772 5.277 49.032 5.337 49.287 5.426 L 50.042 5.735 C 54.105 7.273 57.856 10.656 59.642 15.028 C 61.549 19.355 61.601 24.355 60.347 28.859 C 59.683 31.098 58.696 33.287 57.522 35.203 C 56.339 37.136 55.016 38.94 53.627 40.642 C 50.784 44.034 47.605 47.054 44.313 49.876 C 42.663 51.281 40.989 52.651 39.301 53.984 L 36.765 55.967 L 35.495 56.948 L 34.815 57.474 L 34.498 57.719 L 34.339 57.841 C 34.29 57.899 34.223 57.877 34.199 58.04 L 33.806 59.535 L 33.806 59.535 C 32.716 58.889 30.233 57.42 29.873 57.181 C 29.055 56.673 28.243 56.16 27.441 55.628 C 25.835 54.571 24.253 53.477 22.709 52.324 C 19.252 49.747 15.831 46.926 12.671 43.711 C 9.525 40.504 6.568 36.898 4.564 32.611 C 3.574 30.474 2.848 28.152 2.629 25.73 C 2.399 23.316 2.721 20.823 3.565 18.569 C 5.287 14.06 8.588 10.503 12.43 8.173 C 13.821 7.312 15.571 6.418 17.562 5.819 C 19.538 5.197 21.781 4.914 23.913 5.157 C 26.048 5.387 28.015 6.167 29.439 7.122 C 30.885 8.057 31.833 9.079 32.344 9.735 C 33.112 10.662 33.374 11.227 33.483 11.484 C 33.58 11.749 33.468 11.743 33.288 11.654 C 31.775 9.496 29.721 7.582 27.19 6.558 C 24.681 5.505 21.864 5.36 19.269 5.889 C 16.664 6.424 14.238 7.538 12.071 8.986 C 9.917 10.448 7.982 12.268 6.49 14.408 C 4.571 16.963 3.366 20.133 3.166 23.395 C 3.035 26.666 3.877 29.888 5.276 32.741 C 6.643 35.628 8.51 38.198 10.533 40.584 C 12.564 42.973 14.802 45.154 17.141 47.202 C 14.865 45.185 12.664 43.039 10.653 40.676 C 8.658 38.311 6.776 35.774 5.395 32.898 C 4.666 31.482 4.145 29.95 3.715 28.393 C 3.34 26.815 3.144 25.182 3.193 23.536 C 3.347 20.248 4.546 17.015 6.49 14.408 C 7.987 12.279 9.917 10.475 12.058 9.033 C 14.211 7.604 16.607 6.504 19.174 5.977 C 21.731 5.459 24.484 5.578 26.952 6.572 C 29.425 7.557 31.483 9.371 32.971 11.473 C 32.619 11.26 32.281 11.079 32.525 11.667 C 32.525 11.667 33.005 12.282 33.501 13.12 C 34.01 13.948 34.537 14.99 34.841 15.704 C 35.379 17.163 35.611 18.207 35.703 18.883 C 35.8 19.558 35.774 19.861 35.663 19.893 C 35.42 19.965 34.917 18.92 34.203 17.61 C 33.876 16.923 33.444 16.192 32.968 15.393" style="fill-opacity: 1; fill-rule: nonzero; stroke: none; display: inline;" id="path822"/>
    <path d="M 19.857 27.02 L 20.661 26.984 L 20.651 26.974 Z M 19.679 27.167 C 19.679 27.174 19.686 27.177 19.7 27.177 L 19.689 27.167 Z M 16.057 20.9 C 16.039 20.967 16.017 21.032 15.988 21.093 C 15.961 21.154 15.933 21.219 15.909 21.288 L 15.822 21.381 C 15.835 21.381 15.854 21.383 15.876 21.39 C 15.901 21.395 15.919 21.398 15.933 21.398 C 15.96 21.397 15.976 21.38 15.981 21.346 Z M 15.791 21.403 L 15.801 21.382 L 15.744 21.465 L 15.773 21.433 Z M 15.592 21.751 L 15.45 22.038 C 15.489 21.989 15.537 21.92 15.593 21.827 C 15.652 21.734 15.691 21.672 15.709 21.636 Z M 15.39 20.539 C 15.374 20.628 15.349 20.725 15.32 20.834 L 15.519 20.455 C 15.519 20.448 15.52 20.441 15.524 20.439 C 15.527 20.436 15.529 20.43 15.529 20.423 Z M 15.406 21.002 L 15.422 20.851 L 15.289 21.127 Z M 15.042 21.236 C 15.026 21.222 15.006 21.24 14.978 21.288 C 14.947 21.336 14.921 21.391 14.892 21.453 C 14.864 21.513 14.83 21.602 14.795 21.717 L 14.89 21.552 C 14.923 21.498 14.951 21.444 14.982 21.394 C 15.009 21.342 15.028 21.29 15.042 21.236 M 16.203 27.152 C 16.069 27.162 15.894 27.174 15.675 27.189 C 15.459 27.203 15.248 27.216 15.043 27.23 C 14.839 27.243 14.588 27.261 14.294 27.285 L 14.384 27.281 C 14.472 27.278 14.631 27.274 14.862 27.266 C 15.095 27.258 15.421 27.241 15.842 27.214 Z M 13.467 23.011 C 13.541 22.806 13.626 22.592 13.718 22.367 C 13.579 22.627 13.468 22.843 13.387 23.013 C 13.306 23.183 13.265 23.285 13.266 23.319 L 13.267 23.34 C 13.273 23.339 13.295 23.307 13.329 23.246 C 13.364 23.185 13.41 23.106 13.467 23.011 M 14.007 21.642 C 13.951 21.758 13.873 21.912 13.775 22.103 C 13.678 22.295 13.581 22.487 13.487 22.677 C 13.393 22.868 13.279 23.1 13.148 23.373 C 13.185 23.292 13.238 23.189 13.309 23.066 C 13.365 22.956 13.439 22.813 13.53 22.636 C 13.623 22.458 13.733 22.239 13.866 21.98 Z M 15.728 18.533 L 15.699 18.584 C 15.705 18.584 15.708 18.588 15.708 18.595 C 15.709 18.601 15.691 18.647 15.655 18.732 C 15.616 18.817 15.583 18.874 15.558 18.901 L 15.333 19.362 L 15.166 19.821 C 15.317 19.541 15.453 19.288 15.573 19.062 C 15.694 18.837 15.81 18.62 15.919 18.411 C 16.03 18.203 16.144 17.989 16.261 17.77 C 16.377 17.552 16.509 17.305 16.656 17.032 C 16.698 16.936 16.738 16.888 16.771 16.887 C 16.777 16.887 16.782 16.893 16.783 16.907 C 16.783 16.927 16.761 16.981 16.718 17.07 L 16.621 17.244 C 16.616 17.251 16.602 17.286 16.579 17.351 C 16.558 17.416 16.535 17.489 16.506 17.571 C 16.479 17.652 16.451 17.73 16.424 17.806 C 16.397 17.88 16.376 17.931 16.364 17.958 C 16.471 17.76 16.535 17.661 16.555 17.66 C 16.555 17.673 16.538 17.717 16.503 17.792 C 16.47 17.868 16.424 17.966 16.367 18.089 C 16.311 18.211 16.247 18.35 16.175 18.503 C 16.102 18.657 16.029 18.815 15.954 18.979 C 15.986 18.945 16.009 18.927 16.023 18.926 C 16.03 18.926 16.033 18.939 16.034 18.967 C 16.052 18.925 16.06 18.881 16.059 18.834 L 16.196 18.689 C 16.198 18.749 16.179 18.804 16.139 18.852 L 16.025 18.997 C 16.019 19.024 16.01 19.056 15.997 19.093 C 15.985 19.13 15.974 19.169 15.962 19.21 C 16.037 19.067 16.112 18.932 16.184 18.805 C 16.258 18.679 16.321 18.565 16.375 18.467 C 16.429 18.368 16.472 18.289 16.508 18.23 C 16.542 18.172 16.565 18.143 16.572 18.143 C 16.577 18.149 16.523 18.268 16.406 18.501 C 16.291 18.732 16.086 19.132 15.796 19.699 C 15.746 19.829 15.702 19.953 15.662 20.072 C 15.622 20.19 15.591 20.287 15.567 20.361 L 15.679 20.147 L 15.984 19.592 L 16.752 18.126 C 16.784 18.072 16.816 18.02 16.853 17.973 C 16.888 17.924 16.915 17.899 16.934 17.899 L 16.935 17.909 C 16.936 17.942 16.919 17.994 16.88 18.062 C 16.798 18.219 16.727 18.352 16.666 18.462 C 16.607 18.571 16.548 18.676 16.491 18.775 C 16.434 18.873 16.377 18.975 16.32 19.078 C 16.262 19.181 16.196 19.303 16.12 19.446 L 16.123 19.527 L 16.006 19.652 L 15.958 19.745 C 15.965 19.744 15.97 19.748 15.97 19.754 C 15.97 19.768 15.958 19.794 15.937 19.835 C 15.915 19.877 15.89 19.924 15.865 19.98 L 15.601 20.492 C 15.64 20.45 15.689 20.381 15.75 20.285 C 15.811 20.189 15.869 20.09 15.927 19.987 C 15.984 19.885 16.036 19.791 16.088 19.705 C 16.138 19.619 16.176 19.563 16.194 19.535 C 16.231 19.46 16.269 19.387 16.307 19.315 C 16.344 19.244 16.386 19.169 16.43 19.095 L 16.469 19.023 L 16.915 18.192 C 16.958 18.097 16.997 18.048 17.032 18.047 C 17.038 18.046 17.042 18.054 17.042 18.067 C 17.043 18.086 17.02 18.142 16.977 18.229 L 16.882 18.404 C 16.875 18.412 16.861 18.448 16.841 18.511 C 16.818 18.576 16.794 18.649 16.766 18.73 C 16.739 18.812 16.712 18.89 16.683 18.965 C 16.656 19.04 16.635 19.091 16.622 19.118 C 16.719 18.941 16.79 18.813 16.837 18.738 C 16.886 18.664 16.913 18.625 16.92 18.625 C 16.927 18.631 16.905 18.682 16.859 18.778 C 16.812 18.873 16.758 18.986 16.698 19.115 C 16.638 19.246 16.576 19.374 16.514 19.5 C 16.451 19.626 16.408 19.723 16.383 19.791 C 16.448 19.722 16.52 19.621 16.6 19.486 C 16.679 19.353 16.758 19.222 16.833 19.091 C 16.91 18.96 16.976 18.847 17.034 18.747 C 17.092 18.648 17.131 18.598 17.15 18.597 C 17.151 18.618 17.118 18.702 17.053 18.852 C 16.986 19.002 16.869 19.247 16.699 19.589 C 16.713 19.603 16.72 19.615 16.721 19.628 C 16.722 19.689 16.675 19.803 16.575 19.971 C 16.478 20.139 16.31 20.421 16.075 20.818 C 16.121 20.803 16.175 20.768 16.233 20.713 C 16.292 20.657 16.345 20.6 16.398 20.541 C 16.45 20.482 16.497 20.43 16.538 20.385 C 16.581 20.339 16.609 20.317 16.623 20.317 C 16.637 20.316 16.643 20.323 16.643 20.337 C 16.644 20.35 16.622 20.389 16.576 20.455 C 16.532 20.52 16.497 20.59 16.472 20.665 C 16.486 20.657 16.499 20.64 16.512 20.612 L 16.648 20.467 L 16.736 20.415 L 16.572 20.58 C 16.533 20.636 16.499 20.692 16.47 20.75 C 16.443 20.809 16.429 20.875 16.432 20.948 C 16.439 21.156 16.416 21.385 16.364 21.634 C 16.311 21.885 16.238 22.147 16.143 22.418 C 16.048 22.69 15.935 22.969 15.803 23.256 C 15.672 23.541 15.529 23.826 15.378 24.105 C 15.327 24.222 15.272 24.35 15.215 24.489 C 15.155 24.629 15.08 24.789 14.992 24.97 C 14.905 25.15 14.8 25.352 14.68 25.574 C 14.561 25.797 14.417 26.048 14.253 26.329 L 14.254 26.389 C 14.255 26.423 14.253 26.443 14.247 26.45 L 14.267 26.449 C 14.34 26.447 14.429 26.442 14.533 26.436 C 14.636 26.429 14.743 26.423 14.849 26.42 C 15.005 26.416 15.231 26.411 15.529 26.408 C 15.827 26.404 16.163 26.4 16.536 26.394 C 16.909 26.389 17.297 26.384 17.703 26.381 C 18.111 26.378 18.496 26.374 18.863 26.368 C 19.229 26.363 19.555 26.358 19.839 26.356 C 20.125 26.354 20.337 26.35 20.479 26.345 L 22.108 26.292 C 22.143 26.29 22.169 26.293 22.189 26.298 C 22.222 26.284 22.254 26.275 22.285 26.274 C 22.314 26.274 22.344 26.273 22.37 26.272 C 22.418 26.271 22.446 26.273 22.456 26.279 C 22.466 26.284 22.47 26.294 22.471 26.305 C 22.472 26.341 22.389 26.362 22.222 26.368 C 22.021 26.375 21.851 26.378 21.715 26.379 C 21.577 26.381 21.443 26.382 21.311 26.383 C 21.18 26.384 21.037 26.383 20.883 26.382 C 20.728 26.38 20.538 26.383 20.309 26.391 L 20.309 26.4 C 20.309 26.415 20.284 26.422 20.234 26.423 C 20.185 26.425 20.129 26.427 20.068 26.429 L 19.735 26.441 C 19.535 26.474 19.346 26.5 19.165 26.519 C 18.983 26.539 18.86 26.549 18.793 26.551 L 18.763 26.552 C 18.769 26.552 18.772 26.554 18.772 26.557 C 18.772 26.561 18.775 26.563 18.784 26.562 L 20.556 26.554 C 20.831 26.528 21.07 26.506 21.274 26.487 C 21.478 26.469 21.591 26.46 21.611 26.459 C 21.643 26.458 21.693 26.461 21.757 26.468 C 21.822 26.477 21.858 26.494 21.864 26.521 C 21.999 26.516 22.161 26.512 22.353 26.509 C 22.543 26.506 22.729 26.503 22.907 26.502 C 23.084 26.5 23.235 26.5 23.36 26.502 C 23.485 26.503 23.547 26.516 23.548 26.536 C 23.549 26.556 23.489 26.567 23.368 26.572 L 22.109 26.623 C 22.224 26.626 22.281 26.631 22.282 26.638 C 22.282 26.645 22.235 26.651 22.142 26.657 C 22.047 26.664 21.931 26.673 21.795 26.684 C 21.658 26.695 21.507 26.709 21.347 26.724 C 21.188 26.74 21.038 26.753 20.902 26.764 C 20.763 26.775 20.6 26.791 20.414 26.811 L 20.362 26.812 C 20.638 26.823 20.86 26.831 21.029 26.836 C 21.196 26.84 21.349 26.847 21.488 26.856 C 21.626 26.864 21.696 26.876 21.696 26.888 C 21.696 26.896 21.662 26.903 21.595 26.913 C 21.53 26.921 21.415 26.936 21.255 26.954 L 21.527 26.935 C 21.6 26.933 21.667 26.938 21.727 26.948 C 21.787 26.961 21.82 26.972 21.821 26.985 C 21.821 27 21.798 27.008 21.755 27.013 C 21.711 27.018 21.66 27.023 21.605 27.027 C 21.547 27.034 21.488 27.037 21.427 27.039 C 21.367 27.04 21.318 27.042 21.278 27.044 C 21.224 27.046 21.173 27.047 21.127 27.048 C 21.079 27.05 21.031 27.048 20.986 27.043 L 20.944 27.045 C 20.791 27.049 20.63 27.053 20.462 27.056 C 20.294 27.058 20.086 27.063 19.836 27.071 C 19.806 27.139 19.77 27.174 19.731 27.176 C 19.751 27.181 19.789 27.184 19.84 27.182 C 20.109 27.173 20.379 27.162 20.651 27.151 C 20.922 27.138 21.238 27.126 21.603 27.114 C 21.69 27.111 21.733 27.123 21.734 27.15 C 21.735 27.17 21.675 27.182 21.554 27.186 L 21.352 27.193 C 21.346 27.193 21.308 27.199 21.242 27.211 C 21.175 27.224 21.1 27.238 21.017 27.254 C 20.934 27.271 20.853 27.286 20.773 27.302 C 20.692 27.319 20.635 27.327 20.601 27.328 C 20.817 27.335 20.965 27.338 21.051 27.339 C 21.134 27.339 21.176 27.346 21.176 27.359 C 21.029 27.378 20.879 27.396 20.726 27.415 C 20.592 27.433 20.444 27.449 20.284 27.465 C 20.123 27.48 19.965 27.497 19.813 27.516 L 20.036 27.598 C 20.191 27.6 20.314 27.599 20.403 27.596 C 20.495 27.593 20.54 27.595 20.54 27.602 C 20.541 27.609 20.413 27.619 20.159 27.634 C 20.254 27.672 20.332 27.702 20.393 27.728 C 20.455 27.753 20.484 27.772 20.485 27.785 C 20.485 27.792 20.406 27.815 20.246 27.854 C 20.087 27.893 19.901 27.934 19.691 27.978 C 19.481 28.022 19.276 28.062 19.076 28.099 C 18.875 28.135 18.735 28.155 18.654 28.158 C 18.601 28.16 18.491 28.171 18.323 28.189 C 18.157 28.208 17.957 28.235 17.727 28.269 C 17.494 28.304 17.247 28.341 16.979 28.38 C 16.712 28.418 16.45 28.461 16.194 28.506 C 15.936 28.552 15.698 28.596 15.482 28.641 C 15.264 28.685 15.091 28.726 14.957 28.764 C 14.857 28.793 14.753 28.825 14.643 28.86 C 14.534 28.893 14.429 28.928 14.33 28.961 C 14.23 28.994 14.143 29.022 14.07 29.045 C 13.997 29.067 13.95 29.079 13.93 29.08 C 13.815 29.084 13.688 29.029 13.543 28.916 C 13.398 28.803 13.247 28.657 13.093 28.478 C 12.94 28.298 12.79 28.102 12.641 27.888 C 12.493 27.674 12.36 27.467 12.243 27.266 C 12.125 27.067 12.029 26.884 11.954 26.722 C 11.878 26.561 11.834 26.446 11.826 26.379 C 11.822 26.278 11.856 26.13 11.927 25.938 C 11.998 25.744 12.089 25.519 12.202 25.264 C 12.315 25.008 12.443 24.733 12.588 24.439 C 12.732 24.146 12.879 23.849 13.033 23.549 C 13.184 23.247 13.329 22.956 13.471 22.673 C 13.614 22.389 13.733 22.129 13.833 21.89 C 13.902 21.734 13.991 21.547 14.102 21.327 C 14.213 21.109 14.332 20.886 14.459 20.661 C 14.585 20.435 14.709 20.215 14.834 20.003 C 14.958 19.791 15.065 19.609 15.153 19.459 L 15.182 19.407 C 15.208 19.353 15.239 19.285 15.281 19.203 C 15.322 19.121 15.364 19.04 15.409 18.962 C 15.454 18.883 15.493 18.816 15.529 18.761 C 15.563 18.706 15.588 18.675 15.601 18.668 L 15.725 18.433 L 15.723 18.383 L 16.027 17.849 L 16.492 16.967 C 16.524 16.911 16.556 16.86 16.593 16.812 C 16.627 16.763 16.656 16.741 16.676 16.74 L 16.676 16.749 C 16.677 16.783 16.659 16.833 16.619 16.902 C 16.551 17.025 16.491 17.135 16.439 17.23 C 16.389 17.326 16.342 17.413 16.298 17.493 C 16.254 17.571 16.209 17.647 16.164 17.723 C 16.12 17.798 16.075 17.881 16.031 17.969 L 15.864 18.388 Z" style="fill-opacity: 1; fill-rule: nonzero; stroke: none; display: inline;" id="path826"/>
    <path d="M 28.256 17.828 C 28.25 17.828 28.246 17.825 28.246 17.817 L 28.225 17.778 C 28.225 17.765 28.234 17.747 28.253 17.726 C 28.259 17.712 28.269 17.703 28.281 17.695 C 28.378 17.72 28.439 17.737 28.465 17.749 C 28.492 17.763 28.507 17.771 28.507 17.778 C 28.508 17.812 28.476 17.838 28.413 17.857 C 28.35 17.876 28.313 17.886 28.299 17.886 C 28.284 17.887 28.277 17.882 28.277 17.872 C 28.276 17.862 28.271 17.847 28.256 17.828 M 27.916 19.702 C 27.909 19.702 27.905 19.699 27.905 19.692 L 27.883 19.652 C 27.883 19.639 27.893 19.623 27.912 19.602 C 27.919 19.588 27.927 19.577 27.941 19.57 C 28.036 19.594 28.097 19.612 28.124 19.625 C 28.152 19.637 28.166 19.648 28.166 19.654 C 28.167 19.688 28.135 19.714 28.074 19.732 C 28.01 19.751 27.971 19.761 27.959 19.761 C 27.945 19.762 27.938 19.756 27.938 19.747 C 27.938 19.736 27.928 19.721 27.916 19.702 M 29.76 22.865 C 29.822 22.863 29.882 22.859 29.943 22.854 C 30.003 22.848 30.064 22.842 30.124 22.832 L 30.305 22.826 C 30.374 22.455 30.402 22.058 30.387 21.635 C 30.381 21.434 30.357 21.252 30.319 21.089 C 30.279 20.925 30.214 20.785 30.122 20.668 C 30.031 20.549 29.906 20.457 29.745 20.392 C 29.584 20.327 29.383 20.295 29.14 20.297 C 29.147 20.31 29.151 20.33 29.151 20.357 C 29.152 20.383 29.127 20.411 29.073 20.44 C 29.021 20.468 28.972 20.483 28.924 20.485 C 28.842 20.487 28.79 20.459 28.759 20.4 C 28.758 20.393 28.751 20.384 28.734 20.375 C 28.715 20.366 28.707 20.348 28.706 20.32 L 28.706 20.311 C 28.598 20.294 28.508 20.243 28.438 20.158 C 28.412 20.173 28.383 20.187 28.355 20.202 C 28.323 20.215 28.293 20.223 28.258 20.225 C 28.178 20.227 28.123 20.198 28.095 20.14 C 28.094 20.132 28.086 20.125 28.069 20.115 C 28.051 20.106 28.042 20.088 28.041 20.06 C 28.041 20.041 28.058 20.013 28.089 19.979 C 28.102 19.958 28.119 19.941 28.139 19.926 L 28.342 19.98 C 28.318 19.927 28.304 19.874 28.296 19.82 C 28.287 19.767 28.282 19.714 28.28 19.66 C 28.275 19.458 28.316 19.293 28.405 19.162 C 27.79 19.384 27.229 19.672 26.725 20.028 C 26.219 20.384 25.79 20.797 25.436 21.265 C 25.083 21.733 24.814 22.255 24.629 22.827 C 24.443 23.401 24.36 24.014 24.381 24.665 C 24.389 24.913 24.427 25.137 24.491 25.336 C 24.553 25.535 24.658 25.703 24.804 25.839 C 24.948 25.975 25.141 26.079 25.381 26.148 C 25.621 26.217 25.923 26.246 26.285 26.234 C 26.842 26.215 27.343 26.123 27.791 25.958 C 28.237 25.791 28.629 25.565 28.964 25.278 C 29.301 24.992 29.579 24.654 29.799 24.264 C 30.017 23.873 30.176 23.446 30.274 22.979 L 30.073 22.986 C 30.04 22.987 30.008 22.988 29.978 22.989 C 29.947 22.99 29.915 22.988 29.881 22.981 M 33.118 22.874 C 32.937 23.707 32.614 24.459 32.145 25.133 C 31.678 25.807 31.11 26.385 30.442 26.867 C 29.773 27.349 29.029 27.726 28.209 27.998 C 27.39 28.27 26.537 28.422 25.652 28.45 C 25.109 28.469 24.591 28.424 24.097 28.315 C 23.605 28.207 23.169 28.02 22.791 27.754 C 22.414 27.488 22.108 27.133 21.88 26.692 C 21.651 26.249 21.524 25.706 21.503 25.062 C 21.482 24.391 21.559 23.755 21.732 23.156 C 21.908 22.555 22.158 22.001 22.487 21.493 C 22.817 20.986 23.209 20.526 23.661 20.114 C 24.113 19.703 24.606 19.347 25.139 19.042 C 25.673 18.74 26.232 18.496 26.816 18.308 C 27.401 18.121 27.992 17.997 28.587 17.937 C 28.603 17.863 28.646 17.801 28.712 17.751 C 28.777 17.703 28.882 17.676 29.03 17.67 C 29.171 17.666 29.336 17.679 29.525 17.709 C 29.714 17.741 29.9 17.78 30.083 17.827 C 30.264 17.875 30.437 17.925 30.596 17.976 C 30.755 18.028 30.88 18.069 30.968 18.101 L 30.997 18.12 C 31.324 18.216 31.621 18.349 31.891 18.519 C 32.163 18.687 32.397 18.899 32.598 19.155 C 32.796 19.41 32.954 19.711 33.07 20.056 C 33.185 20.401 33.25 20.799 33.266 21.248 C 33.283 21.759 33.242 22.26 33.145 22.753" style="fill-opacity: 1; fill-rule: nonzero; stroke: none; display: inline;" id="path830"/>
    <path d="M 45.499 17.368 L 45.519 17.368 C 45.519 17.374 45.497 17.402 45.45 17.45 C 45.484 17.403 45.499 17.375 45.499 17.368 M 46.205 15.28 L 44.752 16.677 C 44.736 16.677 44.694 16.714 44.619 16.782 C 44.543 16.852 44.463 16.928 44.379 17.012 L 44.047 17.346 L 44.689 16.619 L 44.688 16.599 C 44.688 16.592 44.689 16.586 44.693 16.579 C 44.695 16.572 44.712 16.553 44.739 16.522 C 44.77 16.49 44.819 16.443 44.887 16.38 C 44.957 16.317 45.055 16.232 45.186 16.119 Z M 44.016 17.598 C 44.008 17.592 44.004 17.586 44.004 17.578 C 43.99 17.566 43.981 17.559 43.974 17.56 L 43.977 17.64 Z M 44.462 17.976 C 44.395 17.979 44.36 17.993 44.361 18.02 C 44.362 18.027 44.341 18.06 44.298 18.118 C 44.258 18.177 44.21 18.242 44.155 18.315 C 44.1 18.386 44.052 18.455 44.01 18.52 C 43.968 18.585 43.948 18.624 43.949 18.638 C 43.956 18.632 43.985 18.595 44.036 18.53 C 44.088 18.464 44.144 18.393 44.206 18.318 C 44.267 18.242 44.322 18.171 44.369 18.106 C 44.418 18.04 44.449 17.997 44.462 17.976 M 43.559 17.785 C 43.558 17.772 43.564 17.761 43.577 17.754 C 43.59 17.747 43.598 17.726 43.596 17.693 C 43.588 17.693 43.581 17.686 43.574 17.674 C 43.561 17.66 43.554 17.641 43.553 17.613 C 43.527 17.614 43.505 17.622 43.492 17.636 C 43.481 17.643 43.474 17.65 43.474 17.656 C 43.477 17.751 43.486 17.83 43.502 17.898 C 43.517 17.965 43.53 17.997 43.545 17.997 C 43.559 17.996 43.564 17.926 43.559 17.785 M 43.246 18.974 C 43.224 18.941 43.21 18.923 43.203 18.92 C 43.196 18.917 43.182 18.915 43.163 18.916 C 43.148 18.93 43.142 18.94 43.143 18.947 L 43.143 18.957 C 43.143 18.971 43.15 18.977 43.166 18.977 L 43.185 18.976 Z M 43.061 18.255 C 43.06 18.234 43.046 18.217 43.022 18.2 C 43 18.184 42.974 18.177 42.946 18.178 C 42.905 18.179 42.887 18.193 42.888 18.22 C 42.888 18.233 42.894 18.243 42.903 18.25 C 42.915 18.257 42.947 18.285 43.003 18.337 C 43.01 18.337 43.019 18.333 43.032 18.326 L 43.062 18.295 Z M 42.936 19.396 C 42.923 19.411 42.913 19.423 42.902 19.433 C 42.894 19.444 42.88 19.45 42.867 19.45 C 42.881 19.456 42.893 19.464 42.899 19.474 C 42.906 19.484 42.936 19.488 42.99 19.486 C 43.138 19.319 43.268 19.175 43.378 19.05 C 43.488 18.925 43.606 18.789 43.732 18.64 C 43.858 18.492 43.977 18.352 44.087 18.221 C 44.196 18.089 44.286 17.977 44.358 17.884 C 44.427 17.791 44.464 17.735 44.463 17.715 C 44.32 17.874 44.194 18.014 44.084 18.135 C 43.974 18.257 43.855 18.388 43.73 18.53 C 43.603 18.671 43.484 18.803 43.375 18.924 C 43.264 19.046 43.134 19.189 42.985 19.355 C 42.967 19.369 42.949 19.383 42.936 19.396 M 42.765 18.767 C 42.766 18.802 42.77 18.822 42.776 18.828 C 42.776 18.842 42.78 18.848 42.787 18.848 C 42.814 18.847 42.834 18.84 42.847 18.825 L 42.867 18.804 C 42.853 18.804 42.835 18.791 42.814 18.761 C 42.794 18.732 42.775 18.718 42.763 18.718 Z M 42.647 20.676 C 42.686 20.635 42.717 20.599 42.738 20.567 C 42.761 20.537 42.795 20.497 42.84 20.448 C 42.888 20.446 42.953 20.399 43.037 20.306 C 43.121 20.212 43.21 20.127 43.3 20.05 L 43.878 19.215 C 43.74 19.334 43.605 19.473 43.468 19.632 C 43.333 19.79 43.207 19.944 43.09 20.092 C 42.974 20.241 42.876 20.37 42.796 20.479 C 42.716 20.589 42.666 20.655 42.647 20.676 M 42.134 19.182 C 42.166 19.18 42.183 19.19 42.18 19.21 C 42.177 19.231 42.196 19.24 42.235 19.239 C 42.303 19.237 42.36 19.191 42.409 19.102 C 42.457 19.013 42.478 18.932 42.476 18.859 C 42.461 18.832 42.434 18.819 42.394 18.82 L 42.353 18.822 C 42.354 18.876 42.35 18.909 42.337 18.923 C 42.324 18.937 42.308 18.944 42.287 18.945 C 42.2 18.948 42.158 18.969 42.163 19.01 C 42.167 19.05 42.158 19.107 42.134 19.182 M 42.247 19.551 L 42.257 19.54 C 42.257 19.534 42.257 19.527 42.261 19.519 C 42.264 19.514 42.266 19.503 42.265 19.49 C 42.265 19.476 42.248 19.452 42.217 19.415 C 42.186 19.379 42.16 19.363 42.14 19.363 C 42.113 19.364 42.099 19.371 42.099 19.384 C 42.094 19.391 42.094 19.398 42.1 19.405 C 42.103 19.505 42.152 19.554 42.247 19.551 M 41.841 19.796 C 41.798 19.683 41.762 19.627 41.736 19.628 C 41.695 19.642 41.662 19.661 41.637 19.682 C 41.578 19.717 41.548 19.766 41.55 19.826 C 41.585 19.858 41.609 19.879 41.622 19.889 C 41.636 19.898 41.662 19.903 41.694 19.902 C 41.721 19.887 41.743 19.867 41.762 19.839 C 41.782 19.811 41.809 19.797 41.841 19.796 M 36.949 24.478 C 36.971 24.481 36.994 24.481 37.016 24.475 C 37.105 24.455 37.165 24.373 37.215 24.298 C 37.488 23.896 37.767 23.501 38.047 23.105 C 38.236 22.836 38.428 22.568 38.625 22.299 C 38.82 22.031 39.022 21.776 39.229 21.534 C 39.528 21.189 39.767 20.909 39.952 20.694 C 40.137 20.48 40.286 20.306 40.404 20.171 C 40.519 20.036 40.616 19.927 40.69 19.844 C 40.764 19.761 40.843 19.674 40.927 19.584 C 41.013 19.494 41.112 19.387 41.229 19.262 C 41.347 19.138 41.505 18.968 41.706 18.753 C 41.809 18.641 41.933 18.505 42.075 18.343 C 42.218 18.18 42.373 18.002 42.54 17.808 C 42.709 17.614 42.894 17.412 43.092 17.201 C 43.288 16.989 43.491 16.783 43.7 16.582 C 43.701 16.588 43.724 16.573 43.77 16.533 C 43.814 16.495 43.867 16.453 43.926 16.408 C 43.985 16.362 44.04 16.317 44.092 16.275 C 44.145 16.234 44.177 16.213 44.202 16.222 C 44.203 16.25 44.145 16.328 44.027 16.46 C 43.867 16.647 43.727 16.809 43.606 16.947 C 43.486 17.086 43.356 17.236 43.217 17.399 C 43.079 17.561 42.951 17.711 42.835 17.848 C 42.719 17.987 42.621 18.103 42.543 18.197 C 42.466 18.289 42.432 18.336 42.438 18.336 C 42.464 18.335 42.588 18.243 42.807 18.061 C 43.025 17.88 43.295 17.639 43.619 17.34 C 43.941 17.04 44.29 16.698 44.662 16.313 C 45.037 15.927 45.395 15.535 45.737 15.134 C 45.737 15.141 45.695 15.201 45.607 15.314 C 45.52 15.428 45.411 15.565 45.284 15.729 C 45.155 15.89 45.015 16.067 44.862 16.261 C 44.712 16.454 44.571 16.631 44.443 16.793 C 44.314 16.956 44.207 17.091 44.118 17.202 C 44.031 17.313 43.987 17.371 43.987 17.378 C 43.988 17.391 43.995 17.398 44.009 17.397 C 44.043 17.396 44.105 17.359 44.196 17.285 C 44.288 17.211 44.386 17.132 44.491 17.049 C 44.595 16.965 44.693 16.886 44.78 16.812 C 44.868 16.738 44.929 16.701 44.964 16.7 C 44.97 16.708 44.94 16.754 44.872 16.839 C 44.803 16.926 44.716 17.033 44.605 17.161 C 44.496 17.289 44.375 17.429 44.242 17.581 C 44.109 17.733 43.986 17.873 43.872 18.001 C 43.76 18.129 43.665 18.24 43.591 18.333 C 43.518 18.426 43.481 18.476 43.491 18.502 C 43.519 18.501 43.566 18.473 43.635 18.417 C 43.704 18.362 43.783 18.29 43.874 18.202 C 43.966 18.115 44.061 18.022 44.163 17.921 C 44.263 17.821 44.357 17.726 44.445 17.64 C 44.532 17.552 44.608 17.482 44.67 17.426 C 44.732 17.369 44.774 17.341 44.803 17.351 C 44.805 17.431 44.784 17.551 44.735 17.711 C 44.686 17.87 44.616 18.002 44.527 18.105 C 44.492 18.106 44.466 18.122 44.445 18.153 C 44.427 18.184 44.412 18.22 44.401 18.261 C 44.387 18.302 44.375 18.341 44.364 18.378 C 44.352 18.415 44.339 18.441 44.326 18.454 C 44.286 18.496 44.234 18.551 44.165 18.616 C 44.096 18.681 44.031 18.748 43.969 18.814 C 43.908 18.88 43.854 18.943 43.806 19.006 C 43.756 19.068 43.733 19.116 43.734 19.149 C 43.741 19.149 43.781 19.114 43.857 19.044 C 43.932 18.974 44.025 18.886 44.135 18.779 C 44.246 18.671 44.367 18.553 44.501 18.424 C 44.634 18.295 44.763 18.166 44.886 18.038 C 45.01 17.909 45.121 17.794 45.223 17.69 C 45.322 17.586 45.399 17.507 45.45 17.45 C 45.405 17.512 45.336 17.602 45.243 17.719 C 45.151 17.837 45.047 17.966 44.933 18.107 C 44.821 18.248 44.703 18.395 44.58 18.547 C 44.458 18.699 44.348 18.842 44.247 18.976 C 44.149 19.11 44.065 19.225 44.003 19.321 C 43.939 19.417 43.906 19.479 43.918 19.526 C 44.022 19.415 44.142 19.283 44.278 19.131 C 44.414 18.979 44.549 18.83 44.682 18.684 C 44.813 18.539 44.931 18.412 45.037 18.304 C 45.139 18.198 45.211 18.136 45.252 18.122 C 45.213 18.19 45.15 18.291 45.06 18.426 C 44.971 18.559 44.86 18.713 44.727 18.884 C 44.596 19.056 44.447 19.241 44.284 19.438 C 44.118 19.635 43.941 19.834 43.754 20.035 C 43.501 20.306 43.211 20.67 42.884 21.131 C 42.556 21.592 42.209 22.099 41.84 22.651 C 41.473 23.205 41.09 23.777 40.693 24.366 C 40.297 24.958 39.9 25.52 39.505 26.054 C 39.109 26.587 38.719 27.065 38.339 27.487 C 37.956 27.91 37.594 28.231 37.251 28.45 C 37.206 28.485 37.155 28.504 37.103 28.504 C 36.975 28.509 36.849 28.454 36.724 28.337 C 36.601 28.22 36.468 28.107 36.331 27.997 C 36.13 27.829 35.956 27.634 35.808 27.415 C 35.659 27.194 35.533 26.966 35.426 26.727 C 34.781 25.256 34.834 23.642 34.89 22.07 C 34.923 21.16 34.94 20.238 34.78 19.337 C 34.701 18.893 34.591 18.405 34.376 18.005 C 34.161 17.606 33.948 17.175 34.173 16.722 C 34.29 16.485 34.563 16.315 34.822 16.373 C 35.257 16.472 35.471 17.056 35.613 17.423 C 35.842 18.017 36.028 18.629 36.185 19.245 C 36.585 20.828 36.672 22.385 36.701 24.009 C 36.703 24.116 36.706 24.229 36.754 24.326 C 36.792 24.403 36.867 24.466 36.949 24.478" style="fill-opacity: 1; fill-rule: nonzero; stroke: none; display: inline;" id="path834"/>
    <path d="M 53.329 25.372 C 53.296 25.38 53.259 25.386 53.22 25.39 C 53.179 25.395 53.142 25.398 53.108 25.399 C 53.04 25.402 52.993 25.393 52.966 25.373 C 52.997 25.34 53.039 25.316 53.09 25.304 C 53.14 25.293 53.188 25.286 53.235 25.284 C 53.309 25.281 53.346 25.298 53.348 25.331 C 53.348 25.344 53.342 25.358 53.329 25.372 M 52.477 21.259 C 52.475 21.199 52.453 21.159 52.409 21.14 C 52.363 21.121 52.307 21.111 52.236 21.106 C 52.166 21.102 52.089 21.103 52.009 21.109 C 51.928 21.115 51.851 21.113 51.778 21.101 C 51.846 21.166 51.894 21.219 51.918 21.258 C 51.943 21.297 51.96 21.328 51.972 21.352 C 51.983 21.375 51.998 21.39 52.018 21.395 C 52.039 21.401 52.078 21.404 52.139 21.401 C 52.146 21.401 52.167 21.399 52.205 21.394 C 52.241 21.39 52.28 21.382 52.321 21.37 C 52.359 21.359 52.396 21.345 52.43 21.327 C 52.463 21.308 52.478 21.286 52.477 21.259 M 50.641 21.148 C 50.634 21.149 50.625 21.152 50.614 21.155 C 50.605 21.159 50.591 21.16 50.57 21.161 C 50.678 21.185 50.763 21.206 50.824 21.228 C 50.884 21.25 50.937 21.27 50.977 21.289 C 51.018 21.307 51.054 21.324 51.085 21.336 C 51.115 21.348 51.161 21.353 51.221 21.351 C 51.254 21.35 51.296 21.362 51.344 21.388 C 51.391 21.413 51.451 21.424 51.525 21.422 C 51.532 21.421 51.538 21.405 51.545 21.371 C 51.551 21.337 51.552 21.297 51.552 21.249 C 51.551 21.223 51.543 21.198 51.527 21.175 C 51.513 21.152 51.483 21.141 51.436 21.142 Z M 50.586 26.167 C 50.585 26.155 50.62 26.143 50.694 26.134 C 50.767 26.125 50.842 26.119 50.915 26.116 C 50.988 26.115 51.038 26.115 51.061 26.122 C 51.086 26.128 51.097 26.137 51.098 26.151 C 51.098 26.164 51.087 26.173 51.063 26.177 C 51.04 26.181 50.991 26.185 50.918 26.187 C 50.843 26.189 50.769 26.19 50.695 26.189 C 50.622 26.188 50.586 26.181 50.586 26.167 M 49.546 26.141 C 49.547 26.162 49.555 26.185 49.569 26.211 C 49.623 26.209 49.67 26.204 49.714 26.197 C 49.758 26.188 49.778 26.167 49.777 26.134 Z M 48.058 21.305 L 48.077 21.304 C 47.948 21.288 47.84 21.276 47.748 21.269 C 47.658 21.263 47.561 21.254 47.46 21.244 C 47.359 21.234 47.267 21.223 47.186 21.213 L 47.188 21.273 C 47.19 21.333 47.205 21.363 47.232 21.362 C 47.259 21.361 47.275 21.357 47.283 21.35 L 47.303 21.329 C 47.415 21.326 47.523 21.327 47.623 21.334 C 47.726 21.341 47.84 21.342 47.966 21.337 C 48.007 21.336 48.037 21.326 48.058 21.305 M 48.424 22.058 C 48.291 22.07 48.117 22.08 47.906 22.091 C 47.695 22.101 47.485 22.113 47.277 22.126 C 47.069 22.141 46.82 22.155 46.523 22.171 L 46.795 22.163 C 46.923 22.158 47.127 22.157 47.41 22.157 C 47.692 22.158 48.03 22.125 48.424 22.058 M 45.193 25.469 C 45.266 25.467 45.35 25.463 45.443 25.456 C 45.538 25.45 45.632 25.446 45.724 25.442 C 45.88 25.437 46.097 25.433 46.375 25.43 C 46.654 25.427 46.963 25.425 47.306 25.419 C 47.648 25.415 48.004 25.412 48.374 25.409 C 48.742 25.407 49.095 25.404 49.43 25.4 C 49.767 25.395 50.068 25.392 50.337 25.39 C 50.605 25.388 50.81 25.384 50.951 25.38 C 50.958 25.38 50.885 25.39 50.736 25.412 C 50.586 25.434 50.409 25.458 50.208 25.485 C 50.009 25.511 49.815 25.536 49.628 25.56 C 49.44 25.583 49.317 25.594 49.256 25.596 L 49.237 25.597 C 49.264 25.624 49.35 25.638 49.494 25.639 C 49.638 25.641 49.815 25.639 50.024 25.632 C 50.232 25.625 50.452 25.614 50.686 25.6 C 50.923 25.586 51.139 25.571 51.341 25.558 C 51.54 25.545 51.711 25.532 51.847 25.522 C 51.986 25.51 52.064 25.504 52.083 25.504 C 52.124 25.502 52.177 25.506 52.241 25.513 C 52.304 25.522 52.337 25.539 52.338 25.566 C 52.339 25.592 52.312 25.608 52.259 25.61 C 52.232 25.611 52.198 25.61 52.157 25.607 C 52.118 25.605 52.08 25.604 52.047 25.606 C 51.993 25.607 51.95 25.617 51.917 25.634 C 51.883 25.653 51.868 25.689 51.87 25.742 C 51.871 25.763 51.815 25.776 51.706 25.783 C 51.594 25.79 51.473 25.796 51.343 25.8 C 51.213 25.804 51.092 25.81 50.98 25.817 C 50.871 25.823 50.815 25.831 50.816 25.838 C 50.817 25.865 50.844 25.882 50.903 25.889 C 50.961 25.899 51.025 25.905 51.094 25.908 C 51.165 25.913 51.232 25.919 51.292 25.923 C 51.353 25.927 51.383 25.936 51.384 25.949 C 51.384 25.964 51.374 25.973 51.355 25.981 C 51.266 25.984 51.186 25.982 51.113 25.974 C 51.038 25.967 50.977 25.963 50.931 25.965 C 50.897 25.966 50.87 25.947 50.847 25.907 C 50.826 25.868 50.809 25.848 50.797 25.848 L 50.797 25.858 L 50.799 25.898 L 50.8 25.928 C 50.8 25.936 50.803 25.943 50.809 25.948 C 50.782 25.977 50.737 25.991 50.67 25.993 C 50.615 25.995 50.56 25.992 50.502 25.985 C 50.445 25.975 50.397 25.972 50.356 25.973 C 50.336 25.974 50.309 25.997 50.273 26.042 C 50.238 26.087 50.183 26.111 50.11 26.113 C 50.096 26.114 50.086 26.112 50.079 26.109 C 50.072 26.106 50.062 26.105 50.048 26.105 C 50.142 26.115 50.218 26.122 50.276 26.127 C 50.333 26.133 50.387 26.139 50.438 26.147 C 50.487 26.156 50.518 26.163 50.525 26.17 C 50.525 26.183 50.494 26.19 50.434 26.192 C 50.375 26.195 50.315 26.197 50.254 26.198 C 50.213 26.199 50.178 26.201 50.147 26.202 C 50.118 26.203 50.099 26.2 50.09 26.194 C 50.058 26.195 50.027 26.198 49.996 26.202 C 49.967 26.207 49.951 26.226 49.952 26.26 C 49.953 26.272 49.992 26.282 50.069 26.285 C 50.147 26.289 50.246 26.291 50.361 26.29 C 50.48 26.29 50.607 26.287 50.745 26.283 C 50.883 26.279 51.01 26.274 51.126 26.27 C 51.244 26.266 51.343 26.267 51.424 26.271 C 51.506 26.275 51.545 26.283 51.546 26.298 C 51.319 26.318 51.094 26.342 50.874 26.369 C 50.68 26.389 50.479 26.411 50.271 26.434 C 50.064 26.459 49.882 26.48 49.73 26.498 C 49.723 26.512 49.68 26.545 49.601 26.597 C 49.523 26.651 49.405 26.679 49.252 26.684 C 49.197 26.686 49.094 26.71 48.941 26.756 C 48.788 26.801 48.608 26.858 48.398 26.924 C 48.189 26.993 47.962 27.068 47.716 27.154 C 47.469 27.239 47.229 27.323 46.995 27.405 C 46.758 27.486 46.539 27.56 46.336 27.628 C 46.134 27.695 45.966 27.747 45.833 27.786 C 45.674 27.831 45.515 27.871 45.363 27.907 C 45.21 27.942 45.077 27.989 44.964 28.045 C 44.912 28.087 44.86 28.11 44.805 28.112 C 44.691 28.116 44.565 28.06 44.424 27.948 C 44.282 27.835 44.134 27.688 43.979 27.509 C 43.826 27.329 43.675 27.131 43.526 26.915 C 43.379 26.698 43.246 26.489 43.125 26.287 C 43.003 26.088 42.904 25.906 42.829 25.743 C 42.753 25.582 42.71 25.468 42.701 25.401 C 42.697 25.3 42.731 25.153 42.803 24.959 C 42.874 24.765 42.965 24.54 43.078 24.285 C 43.191 24.029 43.319 23.754 43.463 23.461 C 43.608 23.167 43.755 22.871 43.908 22.57 C 44.058 22.269 44.204 21.977 44.346 21.694 C 44.489 21.411 44.609 21.15 44.709 20.911 C 44.771 20.768 44.851 20.601 44.95 20.41 C 45.047 20.219 45.152 20.022 45.261 19.821 C 45.373 19.619 45.486 19.419 45.6 19.22 C 45.714 19.022 45.82 18.841 45.914 18.68 C 46.011 18.52 46.09 18.386 46.153 18.279 C 46.218 18.173 46.255 18.11 46.269 18.089 C 46.338 17.966 46.399 17.885 46.451 17.847 C 46.504 17.808 46.556 17.789 46.611 17.787 C 46.643 17.786 46.681 17.789 46.721 17.797 C 46.763 17.806 46.808 17.81 46.863 17.808 C 46.943 17.805 47.019 17.786 47.094 17.751 C 47.106 17.743 47.182 17.731 47.318 17.712 C 47.456 17.695 47.623 17.674 47.82 17.65 C 48.018 17.627 48.228 17.602 48.452 17.574 C 48.676 17.547 48.887 17.523 49.085 17.503 C 49.282 17.482 49.447 17.465 49.581 17.452 C 49.715 17.437 49.788 17.429 49.802 17.429 C 49.97 17.423 50.207 17.412 50.512 17.396 C 50.817 17.379 51.153 17.359 51.517 17.337 C 51.882 17.315 52.26 17.293 52.647 17.269 C 53.036 17.247 53.398 17.225 53.734 17.204 C 54.069 17.182 54.357 17.164 54.598 17.149 C 54.84 17.135 54.994 17.126 55.061 17.125 L 55.1 17.123 C 55.101 17.129 55.095 17.133 55.082 17.134 C 55.107 17.133 55.136 17.13 55.162 17.126 C 55.189 17.122 55.215 17.12 55.242 17.119 C 55.29 17.117 55.343 17.114 55.403 17.107 C 55.463 17.102 55.522 17.103 55.579 17.107 C 55.636 17.112 55.686 17.121 55.726 17.132 C 55.768 17.145 55.788 17.171 55.789 17.211 C 55.79 17.23 55.783 17.242 55.771 17.242 C 55.757 17.242 55.721 17.231 55.663 17.21 C 55.607 17.188 55.55 17.179 55.496 17.181 L 55.398 17.213 C 55.398 17.228 55.403 17.251 55.415 17.283 C 55.425 17.317 55.437 17.355 55.447 17.394 C 55.458 17.434 55.469 17.475 55.482 17.519 C 55.494 17.562 55.5 17.593 55.501 17.613 C 55.501 17.634 55.482 17.645 55.441 17.646 C 55.407 17.647 55.359 17.644 55.295 17.635 C 55.231 17.627 55.181 17.624 55.148 17.625 C 54.807 17.857 54.485 18.055 54.186 18.215 C 53.884 18.377 53.581 18.513 53.272 18.624 C 52.963 18.735 52.639 18.83 52.299 18.908 C 51.96 18.986 51.577 19.058 51.153 19.122 C 50.728 19.186 50.248 19.255 49.713 19.325 C 49.179 19.397 48.564 19.482 47.869 19.578 C 47.811 19.647 47.743 19.75 47.667 19.887 C 47.591 20.024 47.521 20.173 47.456 20.332 C 47.391 20.492 47.333 20.647 47.285 20.796 C 47.235 20.946 47.204 21.071 47.185 21.173 C 47.327 21.168 47.509 21.161 47.734 21.155 C 47.958 21.147 48.198 21.14 48.449 21.136 C 48.7 21.131 48.957 21.127 49.213 21.125 C 49.473 21.124 49.705 21.122 49.914 21.122 C 50.229 21.092 50.487 21.07 50.687 21.056 C 50.888 21.043 51.051 21.035 51.175 21.031 C 51.3 21.027 51.401 21.025 51.478 21.026 C 51.555 21.026 51.628 21.026 51.695 21.023 C 51.756 21.021 51.857 21.019 52 21.018 C 52.145 21.017 52.309 21.016 52.49 21.017 C 52.672 21.018 52.857 21.02 53.049 21.024 C 53.241 21.027 53.416 21.031 53.579 21.032 C 53.74 21.033 53.872 21.037 53.977 21.044 C 54.081 21.051 54.134 21.06 54.135 21.075 C 54.135 21.08 54.07 21.088 53.943 21.096 C 53.815 21.102 53.669 21.111 53.507 21.119 C 53.341 21.129 53.183 21.14 53.029 21.156 C 52.874 21.171 52.774 21.193 52.729 21.222 C 52.757 21.294 52.792 21.34 52.833 21.359 C 52.875 21.377 52.914 21.389 52.955 21.39 C 52.995 21.392 53.031 21.399 53.062 21.411 C 53.093 21.424 53.109 21.457 53.11 21.511 C 53.111 21.524 53.106 21.551 53.094 21.592 L 53.096 21.652 C 53.1 21.746 53.078 21.841 53.035 21.935 L 53.727 21.913 C 53.801 21.911 53.868 21.915 53.93 21.927 C 53.99 21.938 54.022 21.951 54.023 21.964 C 54.023 21.984 53.963 21.996 53.842 22 C 53.654 22.007 53.495 22.012 53.364 22.016 C 53.232 22.02 53.108 22.021 52.987 22.018 C 52.98 22.032 52.974 22.045 52.968 22.059 C 52.96 22.073 52.951 22.087 52.938 22.101 C 52.998 22.099 53.084 22.096 53.195 22.092 C 53.306 22.089 53.417 22.086 53.528 22.086 C 53.638 22.086 53.733 22.087 53.815 22.091 C 53.896 22.096 53.936 22.108 53.936 22.128 C 53.937 22.148 53.876 22.16 53.757 22.164 L 53.546 22.171 C 53.539 22.171 53.507 22.178 53.45 22.189 C 53.394 22.201 53.33 22.213 53.261 22.226 C 53.19 22.238 53.117 22.252 53.038 22.268 C 52.962 22.285 52.901 22.292 52.854 22.294 C 53.041 22.295 53.176 22.296 53.258 22.296 C 53.339 22.297 53.378 22.301 53.378 22.308 C 53.378 22.314 53.355 22.32 53.309 22.326 C 53.263 22.33 53.2 22.335 53.123 22.341 C 53.045 22.348 52.959 22.353 52.867 22.359 C 52.773 22.366 52.679 22.374 52.586 22.385 C 52.598 22.404 52.613 22.427 52.627 22.454 C 52.736 22.456 52.844 22.459 52.951 22.462 C 53.058 22.466 53.155 22.47 53.243 22.474 C 53.329 22.477 53.403 22.481 53.459 22.486 C 53.517 22.491 53.547 22.497 53.547 22.503 C 53.547 22.517 53.48 22.529 53.347 22.54 C 53.212 22.551 52.98 22.566 52.653 22.583 C 52.64 22.631 52.604 22.665 52.545 22.683 C 52.484 22.702 52.421 22.726 52.354 22.754 C 52.361 22.754 52.288 22.765 52.135 22.788 C 51.981 22.809 51.774 22.834 51.512 22.863 C 51.253 22.892 50.949 22.926 50.605 22.963 C 50.259 23.001 49.901 23.041 49.531 23.08 C 49.16 23.118 48.791 23.156 48.426 23.191 C 48.062 23.228 47.724 23.26 47.413 23.291 C 47.1 23.321 46.832 23.347 46.608 23.367 C 46.385 23.389 46.229 23.4 46.141 23.403 C 46.062 23.642 45.975 23.852 45.879 24.037 C 45.786 24.221 45.691 24.39 45.599 24.545 C 45.509 24.698 45.419 24.84 45.337 24.971 C 45.254 25.101 45.184 25.228 45.128 25.35 L 45.13 25.411 C 45.131 25.445 45.128 25.465 45.121 25.471 Z" style="fill-opacity: 1; fill-rule: nonzero; stroke: none; display: inline;" id="path838"/>
    <path d="M 18.276 41.016 C 18.228 41.083 18.177 41.153 18.12 41.227 C 18.063 41.301 18.008 41.377 17.953 41.458 C 18.049 41.413 18.115 41.341 18.155 41.247 C 18.196 41.153 18.254 41.07 18.327 40.996 Z M 17.924 42.284 C 17.889 42.332 17.859 42.376 17.828 42.421 C 17.798 42.464 17.766 42.511 17.732 42.566 Z M 17.732 41.892 C 17.745 41.845 17.761 41.807 17.779 41.781 C 17.794 41.754 17.816 41.72 17.844 41.679 C 17.809 41.694 17.782 41.722 17.763 41.766 C 17.741 41.809 17.732 41.851 17.732 41.892 M 17.571 42.124 C 17.597 42.089 17.622 42.054 17.642 42.017 C 17.661 41.981 17.684 41.945 17.712 41.912 L 17.693 41.902 C 17.677 41.902 17.652 41.928 17.611 41.983 C 17.571 42.037 17.543 42.079 17.53 42.113 Z M 17.27 41.951 C 17.27 41.892 17.291 41.841 17.334 41.8 C 17.379 41.761 17.411 41.708 17.43 41.64 C 17.43 41.713 17.414 41.775 17.38 41.827 C 17.346 41.876 17.309 41.919 17.27 41.951 M 17.188 42.656 C 17.222 42.617 17.251 42.581 17.275 42.551 C 17.299 42.522 17.325 42.495 17.36 42.476 C 17.305 42.488 17.27 42.51 17.254 42.542 C 17.237 42.57 17.216 42.61 17.188 42.656 M 17.158 42.697 C 17.145 42.738 17.126 42.771 17.103 42.797 C 17.08 42.825 17.062 42.862 17.047 42.908 C 17.068 42.876 17.091 42.837 17.117 42.792 C 17.145 42.749 17.158 42.716 17.158 42.697 M 16.877 42.597 C 16.849 42.604 16.832 42.62 16.825 42.646 C 16.82 42.646 16.817 42.643 16.817 42.636 C 16.81 42.636 16.806 42.634 16.806 42.632 C 16.806 42.628 16.802 42.627 16.796 42.627 L 16.786 42.627 C 16.813 42.592 16.83 42.566 16.84 42.547 C 16.852 42.527 16.87 42.506 16.897 42.485 L 16.966 42.547 C 16.966 42.566 16.96 42.583 16.946 42.597 Z M 16.927 42.847 C 16.852 42.983 16.77 43.115 16.68 43.246 C 16.589 43.377 16.486 43.499 16.374 43.614 C 16.374 43.62 16.377 43.626 16.383 43.633 C 16.396 43.648 16.409 43.655 16.423 43.655 L 16.434 43.655 L 16.352 43.785 C 16.466 43.63 16.577 43.475 16.68 43.321 C 16.785 43.167 16.883 43.002 16.977 42.828 Z M 16.545 41.67 C 16.531 41.684 16.51 41.706 16.484 41.734 C 16.457 41.766 16.432 41.797 16.408 41.832 C 16.385 41.864 16.365 41.898 16.347 41.927 C 16.331 41.956 16.322 41.976 16.322 41.983 C 16.329 41.969 16.365 41.927 16.427 41.857 C 16.491 41.786 16.531 41.724 16.545 41.67 M 16 42.597 L 16.03 42.566 L 16.03 42.586 C 16.044 42.566 16.066 42.536 16.097 42.495 C 16.126 42.456 16.157 42.412 16.187 42.364 C 16.216 42.318 16.246 42.273 16.272 42.229 C 16.3 42.186 16.316 42.152 16.322 42.133 L 16.281 42.152 L 16.272 42.163 L 16.242 42.104 C 16.235 42.117 16.229 42.127 16.223 42.133 C 16.216 42.14 16.208 42.15 16.201 42.163 L 16.182 42.204 L 16.192 42.245 L 16.151 42.264 C 16.158 42.277 16.165 42.284 16.171 42.284 C 16.179 42.284 16.186 42.291 16.192 42.304 C 16.171 42.345 16.149 42.381 16.121 42.415 C 16.102 42.447 16.084 42.479 16.066 42.506 C 16.049 42.533 16.037 42.552 16.03 42.566 L 16.03 42.556 Z M 15.941 44.551 C 15.941 44.515 15.944 44.49 15.95 44.469 C 15.957 44.449 15.967 44.416 15.981 44.368 C 15.981 44.375 15.983 44.378 15.989 44.378 L 16.03 44.378 C 15.996 44.413 15.979 44.441 15.975 44.464 C 15.972 44.489 15.961 44.515 15.941 44.551 M 15.879 44.439 L 15.89 44.419 C 15.883 44.426 15.879 44.432 15.879 44.439 M 15.849 43.12 C 15.883 43.093 15.911 43.061 15.935 43.025 C 15.959 42.987 15.987 42.952 16.022 42.919 C 15.954 42.945 15.916 42.979 15.91 43.02 C 15.903 43.059 15.883 43.093 15.849 43.12 M 15.798 45.445 C 15.798 45.358 15.833 45.307 15.9 45.294 C 15.846 45.362 15.819 45.419 15.819 45.467 L 15.819 45.486 Z M 16.192 43.029 C 16.138 43.043 16.067 43.091 15.981 43.171 C 15.894 43.251 15.842 43.342 15.83 43.443 L 15.83 43.462 C 15.83 43.475 15.819 43.491 15.798 43.513 C 15.778 43.532 15.769 43.559 15.769 43.593 C 15.842 43.499 15.91 43.411 15.97 43.331 C 16.03 43.251 16.11 43.157 16.212 43.05 C 16.212 43.056 16.21 43.058 16.206 43.054 C 16.203 43.05 16.201 43.046 16.201 43.04 L 16.201 43.029 Z M 16.141 41.983 C 16.121 42.003 16.09 42.045 16.045 42.109 C 16.002 42.171 15.961 42.238 15.92 42.308 C 15.879 42.38 15.844 42.446 15.815 42.51 C 15.784 42.574 15.769 42.613 15.769 42.627 L 15.769 42.636 C 15.782 42.604 15.805 42.572 15.834 42.547 C 15.864 42.519 15.887 42.483 15.9 42.435 L 15.9 42.425 C 15.9 42.405 15.922 42.368 15.97 42.315 C 16.018 42.261 16.069 42.2 16.131 42.133 C 16.192 42.067 16.246 42.003 16.294 41.942 C 16.339 41.88 16.363 41.832 16.363 41.791 L 16.363 41.772 L 16.294 41.761 C 16.272 41.788 16.253 41.809 16.233 41.827 C 16.212 41.843 16.201 41.864 16.201 41.892 C 16.216 41.905 16.223 41.915 16.223 41.921 C 16.223 41.955 16.212 41.983 16.196 42.003 C 16.18 42.022 16.158 42.049 16.131 42.083 C 16.138 42.076 16.141 42.063 16.141 42.044 Z M 15.608 42.828 L 15.608 42.847 L 15.637 42.847 Z M 15.516 44.279 L 15.516 44.288 C 15.516 44.302 15.51 44.316 15.497 44.333 C 15.483 44.35 15.473 44.368 15.467 44.388 Z M 15.709 42.828 C 15.654 42.847 15.605 42.908 15.557 43.008 C 15.51 43.11 15.471 43.19 15.436 43.251 C 15.49 43.177 15.536 43.11 15.572 43.05 C 15.609 42.988 15.654 42.915 15.709 42.828 M 15.95 42.607 C 15.936 42.653 15.926 42.687 15.92 42.707 C 15.913 42.726 15.905 42.743 15.895 42.753 C 15.885 42.763 15.873 42.773 15.859 42.782 C 15.846 42.792 15.826 42.819 15.798 42.858 C 15.786 42.885 15.758 42.929 15.717 42.993 C 15.678 43.058 15.637 43.125 15.598 43.196 C 15.557 43.265 15.521 43.333 15.486 43.397 C 15.454 43.461 15.436 43.503 15.436 43.523 L 15.436 43.532 C 15.544 43.372 15.643 43.217 15.734 43.069 C 15.825 42.922 15.92 42.774 16.022 42.627 C 16.015 42.627 16.011 42.624 16.011 42.617 C 16.011 42.61 16.009 42.607 16.004 42.607 C 16.002 42.607 16 42.604 16 42.597 L 15.989 42.597 C 15.983 42.597 15.977 42.599 15.97 42.602 C 15.963 42.606 15.957 42.607 15.95 42.607 M 15.336 45.063 C 15.369 44.969 15.423 44.889 15.497 44.821 L 15.365 45.073 L 15.356 45.083 C 15.35 45.083 15.346 45.079 15.346 45.073 Z M 14.753 44.51 L 14.753 44.519 C 14.753 44.539 14.743 44.565 14.727 44.595 C 14.71 44.626 14.688 44.647 14.661 44.66 C 14.674 44.628 14.69 44.597 14.707 44.571 C 14.723 44.542 14.734 44.513 14.741 44.48 C 14.741 44.487 14.743 44.492 14.747 44.495 C 14.751 44.498 14.753 44.503 14.753 44.51 M 14.651 44.66 L 14.661 44.66 L 14.632 44.701 Z M 14.632 43.985 C 14.638 43.959 14.654 43.918 14.682 43.865 C 14.708 43.811 14.738 43.756 14.772 43.698 C 14.805 43.642 14.837 43.592 14.868 43.548 C 14.898 43.505 14.923 43.482 14.943 43.482 C 14.89 43.556 14.837 43.635 14.788 43.719 C 14.736 43.803 14.699 43.885 14.671 43.966 L 14.671 43.985 Z M 22.727 36.383 C 22.626 36.499 22.527 36.615 22.429 36.736 C 22.332 36.858 22.226 36.974 22.113 37.089 L 22.103 37.069 L 20.723 38.861 C 20.54 39.082 20.357 39.304 20.168 39.521 C 19.98 39.739 19.794 39.956 19.605 40.17 C 19.579 40.189 19.512 40.275 19.404 40.427 C 19.295 40.579 19.166 40.76 19.011 40.975 C 18.856 41.189 18.689 41.422 18.507 41.67 C 18.327 41.919 18.153 42.151 17.989 42.369 C 17.823 42.587 17.679 42.776 17.556 42.933 C 17.432 43.091 17.346 43.187 17.3 43.221 C 17.245 43.287 17.199 43.349 17.158 43.406 C 17.117 43.464 17.071 43.523 17.018 43.583 L 16.998 43.573 C 17.111 43.392 17.213 43.237 17.3 43.105 C 17.385 42.974 17.473 42.844 17.562 42.716 C 17.649 42.589 17.739 42.451 17.839 42.304 C 17.936 42.156 18.055 41.983 18.196 41.781 C 18.369 41.532 18.543 41.297 18.714 41.076 C 18.886 40.855 19.041 40.625 19.182 40.392 C 19.289 40.216 19.404 40.045 19.525 39.878 C 19.645 39.709 19.766 39.542 19.887 39.375 C 19.881 39.361 19.868 39.354 19.847 39.354 C 19.82 39.354 19.787 39.364 19.746 39.385 C 19.705 39.405 19.672 39.443 19.645 39.495 L 19.665 39.485 C 19.679 39.485 19.688 39.49 19.695 39.5 C 19.702 39.51 19.72 39.517 19.746 39.517 C 19.705 39.556 19.667 39.59 19.63 39.616 C 19.594 39.642 19.561 39.673 19.535 39.706 C 19.548 39.721 19.555 39.73 19.555 39.738 C 19.555 39.757 19.536 39.785 19.498 39.823 C 19.462 39.859 19.42 39.903 19.373 39.954 C 19.327 40.004 19.285 40.056 19.248 40.109 C 19.21 40.164 19.192 40.212 19.192 40.26 C 19.016 40.381 18.889 40.513 18.804 40.653 C 18.721 40.794 18.641 40.961 18.568 41.156 C 18.44 41.256 18.346 41.359 18.286 41.463 C 18.225 41.568 18.161 41.667 18.095 41.761 C 18.068 41.814 18.029 41.859 17.979 41.898 C 17.928 41.933 17.886 41.979 17.854 42.033 C 17.786 42.2 17.686 42.369 17.556 42.542 C 17.426 42.712 17.293 42.885 17.158 43.059 C 16.984 43.328 16.815 43.593 16.651 43.856 C 16.485 44.116 16.313 44.391 16.131 44.68 C 16.131 44.754 16.105 44.85 16.05 44.969 C 15.996 45.085 15.944 45.167 15.89 45.214 C 15.89 45.167 15.894 45.134 15.9 45.114 C 15.907 45.093 15.916 45.07 15.929 45.044 C 15.89 45.063 15.849 45.104 15.81 45.168 C 15.769 45.232 15.734 45.296 15.704 45.36 C 15.673 45.424 15.643 45.483 15.613 45.537 C 15.582 45.589 15.557 45.618 15.538 45.618 C 15.524 45.618 15.516 45.611 15.516 45.598 L 15.516 45.567 L 15.446 45.608 C 15.446 45.627 15.421 45.686 15.371 45.783 C 15.321 45.879 15.263 45.986 15.194 46.101 C 15.127 46.214 15.058 46.32 14.984 46.417 C 14.911 46.516 14.849 46.569 14.801 46.584 C 14.801 46.543 14.822 46.498 14.857 46.448 C 14.896 46.397 14.926 46.348 14.953 46.303 C 14.953 46.255 14.962 46.215 14.979 46.185 C 14.995 46.155 15.017 46.125 15.044 46.096 C 15.071 46.065 15.102 46.03 15.134 45.989 C 15.168 45.95 15.205 45.899 15.246 45.838 C 15.246 45.819 15.266 45.776 15.305 45.712 C 15.346 45.648 15.392 45.579 15.44 45.506 C 15.492 45.432 15.538 45.357 15.577 45.28 C 15.618 45.203 15.637 45.137 15.637 45.083 C 15.637 45.07 15.628 45.054 15.608 45.032 C 15.628 44.993 15.65 44.951 15.678 44.908 C 15.705 44.864 15.728 44.825 15.75 44.791 C 15.75 44.798 15.752 44.801 15.758 44.801 C 15.765 44.807 15.778 44.811 15.798 44.811 L 15.717 44.942 C 15.765 44.903 15.819 44.846 15.879 44.772 C 15.941 44.698 15.996 44.615 16.05 44.524 C 16.105 44.434 16.155 44.343 16.201 44.247 C 16.249 44.154 16.29 44.071 16.322 43.997 C 16.316 43.989 16.309 43.985 16.303 43.985 C 16.29 43.985 16.262 44.019 16.223 44.087 C 16.182 44.154 16.155 44.201 16.141 44.228 C 16.128 44.215 16.121 44.19 16.121 44.158 C 16.121 44.103 16.143 44.036 16.187 43.956 C 16.231 43.875 16.278 43.795 16.333 43.715 L 16.303 43.724 C 16.249 43.818 16.194 43.903 16.141 43.98 C 16.088 44.057 16.041 44.144 16 44.238 L 15.97 44.238 C 15.97 44.224 15.974 44.217 15.981 44.213 C 15.987 44.21 15.989 44.201 15.989 44.187 C 15.989 44.18 15.983 44.17 15.97 44.158 L 15.879 44.339 L 15.961 44.339 L 15.89 44.419 L 15.89 44.409 L 15.879 44.398 C 15.866 44.385 15.856 44.378 15.849 44.378 C 15.823 44.385 15.801 44.428 15.784 44.505 C 15.767 44.581 15.758 44.638 15.758 44.67 C 15.732 44.624 15.709 44.599 15.689 44.599 C 15.663 44.599 15.641 44.608 15.628 44.626 C 15.615 44.642 15.602 44.66 15.587 44.68 C 15.641 44.567 15.704 44.454 15.774 44.344 C 15.844 44.233 15.916 44.119 15.989 44.007 C 16.078 43.872 16.153 43.736 16.216 43.598 C 16.28 43.461 16.352 43.335 16.434 43.221 C 16.447 43.2 16.465 43.169 16.488 43.125 C 16.512 43.081 16.536 43.038 16.558 42.993 C 16.584 42.951 16.61 42.908 16.64 42.867 C 16.67 42.828 16.698 42.8 16.726 42.787 L 16.786 42.787 C 16.745 42.828 16.715 42.874 16.694 42.924 C 16.674 42.974 16.655 43.027 16.633 43.081 L 16.705 43.081 C 16.726 43.059 16.76 43.013 16.811 42.938 C 16.862 42.864 16.916 42.78 16.977 42.687 C 17.037 42.592 17.096 42.497 17.154 42.401 C 17.211 42.302 17.256 42.22 17.29 42.152 C 17.37 42.086 17.433 42.017 17.481 41.946 C 17.528 41.876 17.57 41.8 17.606 41.72 C 17.644 41.64 17.681 41.556 17.722 41.468 C 17.763 41.381 17.819 41.288 17.893 41.186 L 17.883 41.176 C 17.837 41.243 17.787 41.311 17.738 41.377 C 17.686 41.445 17.645 41.512 17.611 41.579 L 17.571 41.56 C 17.578 41.538 17.593 41.511 17.616 41.474 C 17.64 41.437 17.652 41.413 17.652 41.398 C 17.773 41.231 17.88 41.085 17.975 40.959 C 18.068 40.835 18.138 40.693 18.186 40.532 C 18.172 40.519 18.107 40.586 17.994 40.734 C 17.88 40.881 17.741 41.083 17.581 41.338 C 17.547 41.391 17.509 41.453 17.465 41.524 C 17.422 41.594 17.375 41.665 17.324 41.734 C 17.275 41.806 17.225 41.868 17.178 41.921 C 17.133 41.976 17.085 42.012 17.037 42.033 L 17.057 42.083 L 16.986 42.072 C 16.912 42.188 16.849 42.289 16.796 42.38 C 16.742 42.471 16.692 42.552 16.646 42.627 C 16.598 42.7 16.548 42.774 16.498 42.847 C 16.449 42.922 16.389 42.999 16.322 43.081 C 16.316 43.133 16.307 43.177 16.294 43.21 C 16.278 43.244 16.246 43.267 16.192 43.28 C 16.117 43.422 16.039 43.544 15.955 43.649 C 15.872 43.753 15.816 43.847 15.789 43.936 C 15.782 43.929 15.778 43.921 15.778 43.915 L 15.769 43.905 C 15.762 43.905 15.752 43.911 15.739 43.926 L 15.9 43.614 C 15.866 43.614 15.83 43.642 15.789 43.698 C 15.75 43.756 15.704 43.823 15.652 43.9 C 15.603 43.977 15.551 44.057 15.497 44.142 C 15.442 44.226 15.391 44.298 15.336 44.359 L 15.346 44.247 L 15.467 43.997 L 15.516 43.895 L 15.467 43.936 C 15.365 44.103 15.271 44.262 15.181 44.414 C 15.088 44.565 14.984 44.721 14.863 44.882 C 14.756 44.99 14.666 45.101 14.596 45.219 C 14.524 45.337 14.453 45.463 14.379 45.598 C 14.373 45.589 14.369 45.579 14.369 45.567 L 14.369 45.526 C 14.369 45.432 14.401 45.342 14.464 45.255 C 14.528 45.167 14.571 45.118 14.591 45.102 C 14.61 45.044 14.639 44.976 14.676 44.903 C 14.714 44.827 14.751 44.755 14.788 44.685 C 14.825 44.615 14.856 44.551 14.882 44.495 C 14.911 44.437 14.923 44.391 14.923 44.359 C 14.923 44.352 14.917 44.327 14.903 44.288 L 15.134 43.763 C 15.175 43.763 15.194 43.738 15.194 43.683 L 15.194 43.664 C 15.182 43.683 15.166 43.698 15.149 43.71 C 15.133 43.719 15.125 43.728 15.125 43.735 L 15.125 43.744 C 15.09 43.799 15.06 43.847 15.028 43.895 C 14.998 43.943 14.98 43.991 14.974 44.046 C 14.953 44.067 14.928 44.095 14.898 44.133 C 14.868 44.169 14.846 44.215 14.834 44.267 C 14.82 44.254 14.805 44.247 14.792 44.247 L 14.762 44.247 C 14.863 44.032 14.982 43.82 15.12 43.608 C 15.257 43.397 15.369 43.183 15.458 42.969 C 15.356 43.123 15.266 43.264 15.186 43.392 C 15.105 43.52 15.038 43.644 14.984 43.763 L 14.943 43.785 C 14.943 43.777 14.946 43.772 14.953 43.769 C 14.96 43.765 14.964 43.758 14.964 43.744 C 14.964 43.731 14.96 43.721 14.953 43.715 L 15.234 43.008 C 15.256 42.976 15.276 42.933 15.3 42.884 C 15.324 42.833 15.353 42.784 15.387 42.738 L 15.376 42.738 C 15.362 42.764 15.346 42.789 15.326 42.814 C 15.305 42.837 15.289 42.858 15.275 42.879 L 15.266 42.879 C 15.548 42.315 15.885 41.732 16.276 41.132 C 16.67 40.531 17.088 39.931 17.53 39.334 C 17.975 38.736 18.431 38.151 18.905 37.577 C 19.379 37.003 19.836 36.458 20.281 35.942 C 19.916 36.095 19.592 36.172 19.304 36.172 C 18.699 36.172 18.243 35.859 17.938 35.231 C 17.634 34.604 17.481 33.625 17.481 32.297 C 17.481 32.181 17.489 32.041 17.506 31.873 C 17.522 31.706 17.549 31.531 17.586 31.349 C 17.623 31.168 17.673 30.988 17.738 30.811 C 17.801 30.633 17.881 30.472 17.979 30.327 C 18.076 30.183 18.193 30.068 18.327 29.981 C 18.461 29.893 18.618 29.85 18.799 29.85 C 18.813 29.85 18.842 29.853 18.886 29.859 C 18.929 29.866 18.975 29.873 19.027 29.88 C 19.076 29.886 19.123 29.893 19.168 29.9 C 19.21 29.906 19.24 29.914 19.252 29.921 C 19.332 29.961 19.395 30.055 19.44 30.202 C 19.482 30.35 19.516 30.529 19.539 30.74 C 19.563 30.952 19.582 31.189 19.596 31.45 C 19.608 31.712 19.623 31.975 19.64 32.241 C 19.658 32.506 19.683 32.763 19.717 33.011 C 19.749 33.26 19.801 33.481 19.868 33.676 C 19.934 33.871 20.019 34.026 20.123 34.144 C 20.227 34.261 20.361 34.319 20.521 34.319 C 20.628 34.319 20.782 34.268 20.98 34.164 C 21.177 34.06 21.395 33.927 21.634 33.767 C 21.872 33.605 22.124 33.424 22.39 33.223 C 22.653 33.021 22.91 32.822 23.159 32.623 C 23.407 32.426 23.638 32.24 23.85 32.065 C 24.061 31.889 24.233 31.749 24.367 31.642 C 24.609 31.44 24.866 31.234 25.138 31.022 C 25.411 30.811 25.674 30.62 25.928 30.448 C 26.183 30.277 26.419 30.137 26.639 30.026 C 26.856 29.915 27.032 29.859 27.167 29.859 C 27.327 29.859 27.409 29.95 27.409 30.131 C 27.409 30.313 27.322 30.579 27.152 30.932 C 26.979 31.284 26.716 31.712 26.355 32.216 C 25.996 32.72 25.545 33.289 25.002 33.927 C 24.458 34.565 23.814 35.259 23.068 36.011 L 23.049 36.031 Z" style="fill-opacity: 1; fill-rule: nonzero; stroke: none; display: inline;" id="path842"/>
    <path d="M 32.09 30.444 C 32.083 30.444 32.079 30.441 32.079 30.433 L 32.06 30.393 C 32.06 30.38 32.07 30.363 32.09 30.344 C 32.096 30.329 32.106 30.32 32.118 30.313 C 32.214 30.34 32.274 30.36 32.302 30.373 C 32.327 30.387 32.342 30.396 32.342 30.403 C 32.342 30.437 32.308 30.462 32.245 30.479 C 32.181 30.495 32.144 30.503 32.131 30.503 C 32.115 30.503 32.11 30.499 32.11 30.489 C 32.11 30.479 32.103 30.464 32.09 30.444 M 31.686 32.307 C 31.679 32.307 31.676 32.303 31.676 32.296 L 31.656 32.255 C 31.656 32.243 31.667 32.226 31.686 32.206 C 31.693 32.192 31.703 32.182 31.717 32.175 C 31.811 32.202 31.871 32.223 31.898 32.236 C 31.925 32.25 31.939 32.26 31.939 32.267 C 31.939 32.3 31.906 32.325 31.843 32.341 C 31.779 32.358 31.74 32.367 31.727 32.367 C 31.714 32.367 31.708 32.361 31.708 32.352 C 31.708 32.341 31.699 32.326 31.686 32.307 M 33.973 35.508 C 34.053 35.138 34.094 34.743 34.094 34.32 C 34.094 34.119 34.076 33.936 34.043 33.772 C 34.009 33.607 33.948 33.464 33.861 33.344 C 33.774 33.223 33.651 33.127 33.493 33.056 C 33.333 32.985 33.134 32.947 32.891 32.94 C 32.898 32.955 32.901 32.974 32.901 33.002 C 32.901 33.028 32.874 33.054 32.821 33.082 C 32.766 33.108 32.717 33.122 32.669 33.122 C 32.587 33.122 32.535 33.091 32.507 33.031 C 32.507 33.025 32.499 33.016 32.483 33.006 C 32.465 32.996 32.457 32.978 32.457 32.95 L 32.457 32.94 C 32.349 32.92 32.261 32.867 32.194 32.779 C 32.168 32.793 32.138 32.806 32.11 32.82 C 32.077 32.833 32.047 32.839 32.012 32.839 C 31.932 32.839 31.878 32.81 31.852 32.75 C 31.852 32.742 31.843 32.734 31.827 32.725 C 31.809 32.714 31.8 32.695 31.8 32.668 C 31.8 32.649 31.82 32.622 31.852 32.588 C 31.865 32.568 31.883 32.551 31.903 32.538 L 32.105 32.598 C 32.083 32.544 32.07 32.491 32.064 32.438 C 32.057 32.383 32.053 32.331 32.053 32.276 C 32.053 32.074 32.101 31.911 32.194 31.783 C 31.571 31.984 31.001 32.253 30.484 32.593 C 29.968 32.932 29.526 33.33 29.158 33.786 C 28.789 34.242 28.502 34.755 28.299 35.322 C 28.094 35.888 27.991 36.498 27.991 37.149 C 27.991 37.398 28.02 37.623 28.078 37.823 C 28.133 38.025 28.233 38.197 28.373 38.337 C 28.514 38.479 28.704 38.587 28.941 38.664 C 29.179 38.741 29.479 38.78 29.841 38.78 C 30.399 38.78 30.903 38.705 31.355 38.554 C 31.807 38.403 32.206 38.19 32.552 37.915 C 32.898 37.64 33.185 37.31 33.419 36.928 C 33.65 36.545 33.821 36.122 33.936 35.659 M 34.819 30.827 C 35.143 30.933 35.436 31.077 35.699 31.254 C 35.965 31.433 36.193 31.652 36.384 31.914 C 36.574 32.175 36.722 32.48 36.827 32.83 C 36.93 33.179 36.983 33.578 36.983 34.027 C 36.983 34.539 36.925 35.038 36.812 35.529 L 37.386 35.538 C 37.419 35.538 37.44 35.539 37.446 35.543 C 37.453 35.547 37.458 35.551 37.462 35.553 C 37.465 35.556 37.469 35.56 37.477 35.563 C 37.483 35.567 37.503 35.569 37.537 35.569 C 37.569 35.569 37.594 35.565 37.607 35.558 C 37.648 35.558 37.677 35.562 37.697 35.569 L 37.617 35.569 C 37.611 35.569 37.607 35.57 37.607 35.574 C 37.607 35.577 37.604 35.578 37.597 35.578 L 37.617 35.578 C 37.624 35.578 37.627 35.58 37.627 35.584 C 37.627 35.587 37.631 35.589 37.636 35.589 C 37.617 35.589 37.597 35.591 37.578 35.594 C 37.557 35.596 37.537 35.598 37.517 35.598 L 37.486 35.598 C 37.453 35.605 37.369 35.613 37.235 35.619 C 37.101 35.626 36.95 35.636 36.781 35.649 C 36.573 36.474 36.226 37.216 35.735 37.874 C 35.246 38.533 34.659 39.092 33.976 39.55 C 33.291 40.011 32.535 40.363 31.706 40.608 C 30.878 40.853 30.022 40.975 29.136 40.975 C 28.592 40.975 28.076 40.912 27.586 40.789 C 27.098 40.665 26.668 40.464 26.3 40.185 C 25.931 39.906 25.637 39.543 25.424 39.092 C 25.21 38.643 25.102 38.096 25.102 37.452 C 25.102 36.781 25.199 36.148 25.393 35.553 C 25.589 34.959 25.858 34.414 26.203 33.918 C 26.549 33.421 26.955 32.974 27.42 32.579 C 27.886 32.182 28.391 31.842 28.935 31.556 C 29.478 31.27 30.043 31.044 30.634 30.876 C 31.226 30.708 31.82 30.604 32.416 30.564 C 32.435 30.491 32.479 30.43 32.547 30.384 C 32.614 30.337 32.72 30.313 32.867 30.313 C 33.009 30.313 33.173 30.33 33.361 30.368 C 33.549 30.405 33.733 30.451 33.915 30.503 C 34.096 30.557 34.266 30.614 34.423 30.67 C 34.579 30.727 34.703 30.772 34.79 30.806 Z" style="fill-opacity: 1; fill-rule: nonzero; stroke: none; display: inline;" id="path846"/>
    <path d="M 46.427 28.46 L 46.398 28.309 L 46.709 27.343 L 46.548 28.279 Z M 46.306 30.605 C 46.299 30.618 46.296 30.628 46.296 30.635 Z M 46.407 30.262 C 46.401 30.336 46.391 30.407 46.378 30.473 C 46.363 30.541 46.35 30.611 46.337 30.685 L 46.276 30.796 C 46.289 30.796 46.3 30.798 46.313 30.801 C 46.322 30.805 46.334 30.806 46.347 30.806 C 46.401 30.806 46.427 30.79 46.427 30.755 L 46.427 30.735 Z M 46.235 30.866 L 46.226 30.856 C 46.226 30.849 46.229 30.843 46.235 30.836 L 46.247 30.815 L 46.165 30.937 C 46.179 30.93 46.192 30.92 46.201 30.906 C 46.211 30.893 46.222 30.879 46.235 30.866 M 46.055 29.024 L 46.036 28.923 L 46.135 28.752 L 46.165 28.832 Z M 45.995 31.611 C 46.008 31.598 46.03 31.534 46.065 31.42 C 46.097 31.306 46.135 31.212 46.176 31.138 L 46.116 31.229 C 46.075 31.29 46.049 31.326 46.036 31.339 Z M 45.742 30.514 C 45.735 30.46 45.732 30.409 45.732 30.357 L 45.732 30.202 L 45.732 29.899 L 45.622 30.051 L 45.622 30.454 L 45.622 30.574 C 45.622 30.614 45.628 30.655 45.643 30.695 Z M 45.531 27.906 L 45.501 27.765 L 45.572 27.372 L 45.643 27.725 Z M 45.412 30.846 L 45.401 30.846 C 45.379 30.846 45.362 30.875 45.345 30.932 C 45.328 30.988 45.313 31.051 45.299 31.118 C 45.287 31.185 45.273 31.275 45.26 31.39 L 45.331 31.198 C 45.344 31.138 45.36 31.078 45.379 31.018 C 45.401 30.957 45.412 30.9 45.412 30.846 M 46.82 30.211 L 46.82 30.283 C 46.82 30.303 46.822 30.329 46.825 30.363 C 46.829 30.396 46.83 30.433 46.83 30.473 C 46.83 30.662 46.817 30.944 46.789 31.32 C 46.763 31.696 46.7 32.155 46.605 32.698 C 46.506 33.243 46.365 33.864 46.181 34.561 C 45.996 35.26 45.745 36.024 45.431 36.857 C 45.215 37.415 44.897 37.946 44.478 38.452 C 44.06 38.961 43.571 39.409 43.014 39.803 C 42.456 40.195 41.846 40.508 41.181 40.739 C 40.518 40.97 39.837 41.086 39.138 41.086 C 38.715 41.086 38.348 41.024 38.035 40.899 C 37.724 40.775 37.464 40.599 37.26 40.371 C 37.056 40.142 36.903 39.868 36.803 39.546 C 36.702 39.222 36.65 38.863 36.65 38.469 C 36.65 38.025 36.71 37.543 36.831 37.019 C 36.953 36.495 37.131 35.942 37.367 35.362 C 37.601 34.782 37.89 34.179 38.231 33.555 C 38.574 32.931 38.971 32.297 39.42 31.651 C 39.452 31.598 39.497 31.527 39.551 31.441 C 39.606 31.354 39.659 31.269 39.716 31.189 C 39.774 31.108 39.83 31.038 39.884 30.978 C 39.936 30.917 39.984 30.886 40.025 30.886 C 40.07 30.886 40.098 30.934 40.105 31.027 C 40.159 30.913 40.214 30.821 40.276 30.751 C 40.336 30.68 40.397 30.645 40.457 30.645 C 40.591 30.645 40.688 30.803 40.749 31.118 C 40.79 31.051 40.863 31.018 40.969 31.018 C 41.044 31.018 41.122 31.036 41.207 31.073 C 41.291 31.109 41.369 31.16 41.444 31.224 C 41.517 31.288 41.58 31.366 41.631 31.461 C 41.679 31.554 41.706 31.658 41.706 31.773 C 41.706 31.914 41.661 32.061 41.574 32.215 C 41.574 32.222 41.565 32.249 41.544 32.297 C 41.524 32.343 41.501 32.396 41.473 32.452 C 41.447 32.509 41.419 32.566 41.388 32.623 C 41.358 32.68 41.328 32.726 41.302 32.759 C 40.893 33.397 40.528 34.018 40.204 34.622 C 40.064 34.884 39.927 35.152 39.796 35.427 C 39.667 35.703 39.551 35.977 39.449 36.249 C 39.349 36.52 39.267 36.78 39.204 37.028 C 39.139 37.276 39.108 37.505 39.108 37.713 C 39.108 37.995 39.173 38.218 39.308 38.382 C 39.443 38.548 39.675 38.63 40.004 38.63 C 40.325 38.63 40.669 38.49 41.03 38.212 C 41.393 37.933 41.749 37.551 42.097 37.064 C 42.447 36.577 42.778 36.007 43.089 35.352 C 43.402 34.698 43.668 33.994 43.891 33.243 L 45.148 28.933 C 45.175 28.846 45.211 28.725 45.254 28.571 C 45.297 28.417 45.337 28.295 45.371 28.208 C 45.364 28.201 45.36 28.191 45.36 28.179 C 45.36 28.144 45.375 28.116 45.406 28.092 C 45.436 28.069 45.46 28.037 45.482 27.997 L 45.482 28.057 C 45.482 28.151 45.449 28.309 45.384 28.531 C 45.321 28.752 45.251 28.989 45.174 29.24 C 45.096 29.492 45.025 29.728 44.962 29.95 C 44.897 30.171 44.867 30.329 44.867 30.423 C 44.867 30.43 44.869 30.438 44.872 30.444 C 44.875 30.45 44.876 30.457 44.876 30.463 C 44.876 30.47 44.885 30.444 44.901 30.383 C 44.919 30.323 44.937 30.255 44.958 30.182 C 44.984 30.102 45.012 30.004 45.038 29.89 C 45.059 29.883 45.092 29.806 45.139 29.658 C 45.185 29.511 45.237 29.346 45.294 29.164 C 45.352 28.983 45.41 28.818 45.465 28.666 C 45.523 28.515 45.572 28.433 45.612 28.42 L 45.632 28.5 C 45.639 28.527 45.643 28.555 45.643 28.58 L 45.047 30.786 L 45.047 30.806 C 45.056 30.806 45.079 30.751 45.12 30.645 C 45.159 30.537 45.209 30.399 45.265 30.232 C 45.321 30.064 45.383 29.879 45.451 29.679 C 45.518 29.476 45.583 29.282 45.648 29.095 C 45.711 28.907 45.769 28.736 45.818 28.58 C 45.868 28.427 45.907 28.316 45.934 28.248 L 45.934 28.299 C 45.947 28.245 45.954 28.212 45.954 28.198 C 45.954 28.184 45.952 28.175 45.948 28.167 C 45.945 28.161 45.943 28.151 45.943 28.138 L 46.055 27.956 C 46.062 27.976 46.065 28.003 46.065 28.037 C 46.065 28.051 46.058 28.084 46.046 28.138 L 45.954 28.259 C 45.947 28.292 45.935 28.374 45.92 28.505 C 45.902 28.637 45.883 28.782 45.863 28.943 C 45.844 29.104 45.824 29.266 45.803 29.426 C 45.783 29.587 45.771 29.719 45.764 29.819 L 45.844 29.568 L 46.004 29.355 L 45.943 29.456 L 45.883 29.658 L 45.773 29.839 C 45.76 29.873 45.753 29.898 45.753 29.915 L 45.753 29.96 L 45.753 29.996 C 45.753 29.999 45.764 30 45.783 30 C 45.816 29.994 45.859 29.929 45.909 29.804 C 45.961 29.68 46.008 29.544 46.055 29.396 C 46.103 29.249 46.145 29.115 46.186 28.994 C 46.226 28.873 46.253 28.809 46.267 28.803 C 46.28 28.803 46.306 28.843 46.347 28.923 C 46.388 29.003 46.407 29.064 46.407 29.104 L 46.407 29.144 C 46.455 29.084 46.503 29.025 46.553 28.968 C 46.605 28.912 46.652 28.859 46.699 28.812 C 46.713 28.745 46.724 28.68 46.735 28.616 C 46.745 28.553 46.757 28.491 46.769 28.43 L 46.901 28.238 L 46.86 28.319 C 46.846 28.393 46.836 28.468 46.825 28.545 C 46.816 28.623 46.796 28.699 46.769 28.772 C 46.804 28.772 46.82 28.796 46.82 28.843 C 46.82 28.903 46.788 29.037 46.724 29.245 C 46.66 29.454 46.542 29.766 46.367 30.182 C 46.421 30.168 46.473 30.126 46.525 30.055 C 46.572 29.985 46.622 29.912 46.67 29.834 C 46.716 29.757 46.757 29.686 46.789 29.623 C 46.823 29.559 46.849 29.523 46.871 29.517 L 46.882 29.517 C 46.894 29.517 46.901 29.527 46.901 29.547 C 46.901 29.574 46.884 29.62 46.849 29.684 C 46.817 29.748 46.801 29.826 46.801 29.92 L 46.942 29.679 L 47.022 29.598 L 46.911 29.779 L 46.871 29.809 C 46.849 29.863 46.834 29.908 46.82 29.945 C 46.807 29.981 46.801 30.024 46.801 30.071 L 46.801 30.137 C 46.801 30.161 46.807 30.185 46.82 30.211" style="fill-opacity: 1; fill-rule: nonzero; stroke: none; display: inline;" id="path850"/>
    <path d="M 32.341 10.8 C 32.341 10.8 36.054 15.098 36.65 18.257 C 37.248 21.417 37.367 25.284 37.367 25.284 L 36.293 25.399 L 35.697 22.367 L 34.938 16.739 L 31.939 11.199 Z" style="fill-opacity: 1; fill-rule: nonzero; stroke: none; display: inline;" id="path854"/>
    <path d="M 32.774 15.134 C 32.774 15.134 34.383 16.144 34.861 23.374 L 35.578 24.22 L 36.185 19.245 L 34.076 15.28 Z" style="fill-opacity: 1; fill-rule: nonzero; stroke: none; display: inline;" id="path858"/>
  </g>
</svg>