<?xml version="1.0" encoding="utf-8"?>
<svg viewBox="0 0 64 64" xmlns="http://www.w3.org/2000/svg">
  <g transform="matrix(1.755634, 0, 0, 1.755634, -29.733356, -45.519142)">
    <path id="path874" style="fill-opacity: 1; fill-rule: nonzero; stroke: none;" d="M 23 44.723 C 23 44.723 25.078 43.931 26.012 36.397 C 26.012 36.397 23.772 40.136 23 44.723"/>
    <path id="path878" style="fill-opacity: 1; fill-rule: nonzero; stroke: none;" d="M 24.69 44.581 C 24.69 44.581 27.355 40.131 27.733 36.117 C 27.733 36.117 23.987 42.28 24.69 44.581"/>
    <path id="path882" style="fill-opacity: 1; fill-rule: nonzero; stroke: none;" d="M 26.211 44.454 C 26.211 44.454 28.366 43.366 29.531 36.247 C 29.531 36.247 26.289 41.73 26.211 44.454"/>
    <path id="path886" style="fill-opacity: 1; fill-rule: nonzero; stroke: none;" d="M 27.783 44.322 C 27.783 44.322 29.979 43.511 31.331 36.3 C 31.331 36.3 29.033 39.738 27.783 44.322"/>
    <path id="path890" style="fill-opacity: 1; fill-rule: nonzero; stroke: none;" d="M 29.456 44.164 C 29.456 44.164 31.159 42.876 32.637 37.059 C 32.637 37.059 29.5 41.323 29.456 44.164"/>
    <path id="path894" style="fill-opacity: 1; fill-rule: nonzero; stroke: none;" d="M 30.974 44.009 C 30.974 44.009 32.947 42.879 34.072 36.811 C 34.072 36.811 30.919 41.812 30.974 44.009"/>
    <path id="path898" style="fill-opacity: 1; fill-rule: nonzero; stroke: none;" d="M 32.418 43.855 C 32.418 43.855 34.181 43.287 35.796 36.666 C 35.796 36.666 32.399 41.776 32.418 43.855"/>
    <path id="path902" style="fill-opacity: 1; fill-rule: nonzero; stroke: none;" d="M 33.987 43.682 C 33.987 43.682 36.171 42.354 37.097 36.353 C 37.097 36.353 34.403 41.013 33.987 43.682"/>
    <path id="path906" style="fill-opacity: 1; fill-rule: nonzero; stroke: none;" d="M 35.503 43.508 C 35.503 43.508 37.706 41.791 38.686 36.424 C 38.686 36.424 35.643 40.893 35.503 43.508"/>
    <path id="path910" style="fill-opacity: 1; fill-rule: nonzero; stroke: none;" d="M 37.037 43.245 C 37.037 43.245 39.187 41.794 40.587 36.264 C 40.587 36.264 37.715 40.066 37.037 43.245"/>
    <path id="path914" style="fill-opacity: 1; fill-rule: nonzero; stroke: none;" d="M 38.453 43.082 C 38.453 43.082 40.461 41.764 42.235 36.127 C 42.235 36.127 39.313 39.641 38.453 43.082"/>
    <path id="path918" style="fill-opacity: 1; fill-rule: nonzero; stroke: none;" d="M 40.161 42.872 C 40.161 42.872 42.194 41.85 43.9 36.321 C 43.9 36.321 40.399 40.538 40.161 42.872"/>
    <path id="path922" style="fill-opacity: 1; fill-rule: nonzero; stroke: none;" d="M 41.581 42.753 C 41.581 42.753 43.567 41.786 46.797 36.767 C 46.797 36.767 42.705 39.425 41.581 42.753"/>
    <path id="path926" style="fill-opacity: 1; fill-rule: nonzero; stroke: none;" d="M 43.156 42.542 C 43.156 42.542 45.563 41.413 48.889 37.228 C 48.889 37.228 44.338 39.592 43.156 42.542"/>
    <path id="path930" style="fill-opacity: 1; fill-rule: nonzero; stroke: none;" d="M 44.567 42.296 C 44.567 42.296 46.442 42.131 51.464 38.897 C 51.464 38.897 47.269 39.21 44.567 42.296"/>
    <path id="path934" style="fill-opacity: 1; fill-rule: nonzero; stroke: none;" d="M 22.709 44.752 C 22.709 44.752 24.917 45.018 27.648 52.101 C 27.648 52.101 24.569 49.015 22.709 44.752"/>
    <path id="path938" style="fill-opacity: 1; fill-rule: nonzero; stroke: none;" d="M 24.562 44.619 C 24.562 44.619 28.152 48.362 29.417 52.192 C 29.417 52.192 24.39 47.019 24.562 44.619"/>
    <path id="path942" style="fill-opacity: 1; fill-rule: nonzero; stroke: none;" d="M 25.894 44.513 C 25.894 44.513 28.237 45.096 30.952 51.779 C 30.952 51.779 26.575 47.152 25.894 44.513"/>
    <path id="path946" style="fill-opacity: 1; fill-rule: nonzero; stroke: none;" d="M 27.464 44.393 C 27.464 44.393 29.785 44.691 32.72 51.415 C 32.72 51.415 29.709 48.58 27.464 44.393"/>
    <path id="path950" style="fill-opacity: 1; fill-rule: nonzero; stroke: none;" d="M 29.281 44.234 C 29.281 44.234 31.225 45.117 33.943 50.468 C 33.943 50.468 29.947 46.997 29.281 44.234"/>
    <path id="path954" style="fill-opacity: 1; fill-rule: nonzero; stroke: none;" d="M 30.874 44.081 C 30.874 44.081 33.03 44.799 35.329 50.528 C 35.329 50.528 31.252 46.246 30.874 44.081"/>
    <path id="path958" style="fill-opacity: 1; fill-rule: nonzero; stroke: none;" d="M 32.373 43.929 C 32.373 43.929 34.206 44.196 36.901 50.454 C 36.901 50.454 32.701 45.982 32.373 43.929"/>
    <path id="path962" style="fill-opacity: 1; fill-rule: nonzero; stroke: none;" d="M 33.67 43.731 C 33.67 43.731 36.123 44.452 38.562 50.012 C 38.562 50.012 34.76 46.202 33.67 43.731"/>
    <path id="path966" style="fill-opacity: 1; fill-rule: nonzero; stroke: none;" d="M 35.636 43.477 C 35.636 43.477 38.159 44.677 40.276 49.705 C 40.276 49.705 36.338 46 35.636 43.477"/>
    <path id="path970" style="fill-opacity: 1; fill-rule: nonzero; stroke: none;" d="M 37.196 43.314 C 37.196 43.314 39.558 44.385 41.859 49.605 C 41.859 49.605 38.394 46.334 37.196 43.314"/>
    <path id="path974" style="fill-opacity: 1; fill-rule: nonzero; stroke: none;" d="M 38.572 43.096 C 38.572 43.096 40.795 44.008 43.609 49.205 C 43.609 49.205 40.071 46.311 38.572 43.096"/>
    <path id="path978" style="fill-opacity: 1; fill-rule: nonzero; stroke: none;" d="M 39.983 42.978 C 39.983 42.978 42.212 43.436 45.298 48.331 C 45.298 48.331 40.82 45.17 39.983 42.978"/>
    <path id="path982" style="fill-opacity: 1; fill-rule: nonzero; stroke: none;" d="M 41.568 42.796 C 41.568 42.796 43.662 43.501 47.505 48.068 C 47.505 48.068 43.108 45.954 41.568 42.796"/>
    <path id="path986" style="fill-opacity: 1; fill-rule: nonzero; stroke: none;" d="M 43.153 42.613 C 43.153 42.613 45.658 43.505 49.372 47.35 C 49.372 47.35 44.614 45.435 43.153 42.613"/>
    <path id="path990" style="fill-opacity: 1; fill-rule: nonzero; stroke: none;" d="M 44.499 42.406 C 44.499 42.406 46.379 42.506 51.511 45.563 C 51.511 45.563 47.307 45.396 44.499 42.406"/>
    <path id="path994" style="fill-opacity: 1; fill-rule: nonzero; stroke: none;" d="M 45.912 42.193 C 45.912 42.193 49.299 42.193 51.734 43.64 C 51.734 43.64 50.354 44.395 45.912 42.193"/>
    <path id="path998" style="fill-opacity: 1; fill-rule: nonzero; stroke: none;" d="M 45.806 42.18 C 45.806 42.18 47.621 41.704 49.449 40.972 C 51.278 40.239 52.377 40.369 52.377 40.369 C 52.377 40.369 49.301 42.653 45.806 42.18"/>
    <path id="path1002" style="fill-opacity: 1; fill-rule: nonzero; stroke: none;" d="M 23 44.723 C 23 44.723 23.083 44.616 23.2 44.408 C 23.259 44.304 23.327 44.176 23.402 44.028 C 23.475 43.879 23.56 43.711 23.641 43.525 C 23.725 43.339 23.812 43.136 23.903 42.92 C 23.995 42.704 24.084 42.475 24.178 42.237 C 24.267 41.998 24.358 41.75 24.452 41.5 C 24.541 41.247 24.633 40.991 24.724 40.735 C 24.81 40.476 24.896 40.219 24.98 39.965 C 25.062 39.709 25.142 39.459 25.219 39.215 C 25.299 38.973 25.368 38.736 25.434 38.512 C 25.5 38.288 25.564 38.076 25.621 37.881 C 25.735 37.489 25.822 37.16 25.887 36.931 C 25.948 36.702 25.984 36.57 25.984 36.57 C 25.984 36.57 25.942 36.699 25.868 36.926 C 25.795 37.152 25.691 37.475 25.566 37.864 C 25.44 38.251 25.293 38.703 25.135 39.189 C 25.055 39.43 24.974 39.68 24.89 39.934 C 24.803 40.188 24.716 40.445 24.628 40.702 C 24.539 40.958 24.45 41.215 24.363 41.468 C 24.272 41.719 24.182 41.966 24.095 42.205 C 24.002 42.443 23.921 42.675 23.834 42.892 C 23.749 43.109 23.668 43.314 23.588 43.502 C 23.511 43.69 23.434 43.86 23.368 44.011 C 23.299 44.162 23.237 44.292 23.183 44.398 C 23.128 44.504 23.084 44.586 23.051 44.641 C 23.019 44.695 23 44.723 23 44.723"/>
    <path id="path1006" style="fill-opacity: 1; fill-rule: nonzero; stroke: none;" d="M 24.715 44.472 C 24.715 44.472 24.767 44.345 24.858 44.125 C 24.947 43.903 25.077 43.588 25.226 43.207 C 25.375 42.826 25.553 42.382 25.733 41.904 C 25.914 41.426 26.107 40.916 26.301 40.406 C 26.486 39.892 26.673 39.38 26.847 38.899 C 27.02 38.417 27.172 37.964 27.303 37.578 C 27.435 37.189 27.534 36.863 27.603 36.634 C 27.669 36.405 27.704 36.273 27.704 36.273 C 27.704 36.273 27.661 36.402 27.585 36.629 C 27.544 36.741 27.496 36.877 27.441 37.034 C 27.384 37.19 27.32 37.367 27.249 37.558 C 26.964 38.325 26.585 39.348 26.205 40.37 C 26.016 40.882 25.828 41.394 25.652 41.873 C 25.477 42.354 25.313 42.802 25.173 43.187 C 25.035 43.572 24.92 43.893 24.839 44.118 C 24.76 44.343 24.715 44.472 24.715 44.472"/>
    <path id="path1010" style="fill-opacity: 1; fill-rule: nonzero; stroke: none;" d="M 26.529 44.184 C 26.529 44.184 26.585 44.068 26.682 43.867 C 26.777 43.664 26.914 43.375 27.069 43.024 C 27.224 42.673 27.406 42.264 27.591 41.821 C 27.774 41.378 27.967 40.904 28.154 40.428 C 28.338 39.95 28.516 39.471 28.677 39.019 C 28.759 38.793 28.835 38.574 28.903 38.365 C 28.972 38.157 29.04 37.96 29.098 37.777 C 29.216 37.411 29.305 37.104 29.367 36.889 C 29.428 36.674 29.463 36.551 29.463 36.551 C 29.463 36.551 29.421 36.671 29.348 36.883 C 29.312 36.989 29.268 37.117 29.218 37.265 C 29.165 37.411 29.107 37.577 29.043 37.758 C 28.982 37.94 28.908 38.134 28.834 38.34 C 28.758 38.546 28.677 38.764 28.595 38.988 C 28.43 39.438 28.247 39.915 28.059 40.391 C 27.877 40.868 27.688 41.343 27.509 41.788 C 27.329 42.232 27.161 42.646 27.016 43.001 C 26.724 43.711 26.529 44.184 26.529 44.184"/>
    <path id="path1014" style="fill-opacity: 1; fill-rule: nonzero; stroke: none;" d="M 27.825 44.211 C 27.825 44.211 27.898 44.1 28.02 43.902 C 28.138 43.703 28.311 43.42 28.501 43.071 C 28.599 42.897 28.699 42.707 28.807 42.506 C 28.911 42.302 29.026 42.091 29.134 41.867 C 29.243 41.644 29.356 41.413 29.466 41.176 C 29.579 40.94 29.686 40.697 29.795 40.456 C 29.904 40.214 30.002 39.967 30.105 39.726 C 30.206 39.486 30.297 39.245 30.39 39.015 C 30.484 38.784 30.56 38.556 30.639 38.342 C 30.718 38.129 30.787 37.924 30.85 37.736 C 30.914 37.547 30.972 37.375 31.019 37.22 C 31.066 37.065 31.107 36.93 31.14 36.819 C 31.206 36.597 31.243 36.469 31.243 36.469 C 31.243 36.469 31.199 36.595 31.121 36.813 C 31.083 36.923 31.036 37.056 30.983 37.208 C 30.93 37.36 30.863 37.529 30.796 37.717 C 30.728 37.903 30.654 38.106 30.57 38.317 C 30.485 38.528 30.401 38.753 30.307 38.982 C 30.213 39.212 30.12 39.451 30.017 39.69 C 29.913 39.929 29.813 40.174 29.703 40.415 C 29.596 40.657 29.49 40.9 29.38 41.136 C 29.272 41.373 29.162 41.605 29.054 41.828 C 28.945 42.051 28.841 42.267 28.741 42.472 C 28.638 42.675 28.544 42.868 28.451 43.044 C 28.269 43.397 28.114 43.689 28.002 43.892 C 27.889 44.095 27.825 44.211 27.825 44.211"/>
    <path id="path1018" style="fill-opacity: 1; fill-rule: nonzero; stroke: none;" d="M 29.467 43.903 C 29.467 43.903 29.517 43.8 29.604 43.621 C 29.691 43.441 29.814 43.184 29.961 42.874 C 30.107 42.564 30.275 42.203 30.457 41.816 C 30.636 41.427 30.827 41.012 31.018 40.598 C 31.394 39.766 31.77 38.935 32.052 38.311 C 32.194 38.001 32.308 37.739 32.396 37.56 C 32.439 37.47 32.47 37.398 32.497 37.353 C 32.523 37.305 32.537 37.28 32.537 37.28 C 32.537 37.28 32.521 37.304 32.492 37.349 C 32.462 37.393 32.426 37.463 32.378 37.551 C 32.329 37.638 32.274 37.746 32.21 37.87 C 32.145 37.993 32.075 38.133 31.999 38.287 C 31.849 38.594 31.672 38.953 31.491 39.341 C 31.31 39.728 31.118 40.143 30.926 40.556 C 30.739 40.972 30.552 41.389 30.377 41.779 C 30.202 42.169 30.046 42.538 29.909 42.851 C 29.773 43.165 29.664 43.429 29.587 43.613 C 29.511 43.797 29.467 43.903 29.467 43.903"/>
    <path id="path1022" style="fill-opacity: 1; fill-rule: nonzero; stroke: none;" d="M 30.982 43.822 C 30.982 43.822 31.05 43.729 31.16 43.562 C 31.267 43.393 31.422 43.152 31.592 42.854 C 31.678 42.704 31.767 42.541 31.862 42.368 C 31.954 42.194 32.054 42.012 32.146 41.819 C 32.193 41.722 32.241 41.624 32.29 41.525 C 32.337 41.425 32.384 41.323 32.432 41.221 C 32.529 41.018 32.618 40.807 32.711 40.597 C 32.801 40.386 32.882 40.172 32.967 39.963 C 33.049 39.753 33.123 39.543 33.198 39.342 C 33.273 39.141 33.333 38.942 33.396 38.755 C 33.459 38.569 33.51 38.39 33.558 38.226 C 33.607 38.06 33.654 37.91 33.687 37.775 C 33.721 37.639 33.751 37.521 33.776 37.424 C 33.823 37.23 33.851 37.119 33.851 37.119 C 33.851 37.119 33.816 37.228 33.757 37.419 C 33.727 37.514 33.691 37.631 33.65 37.764 C 33.611 37.897 33.556 38.045 33.504 38.208 C 33.45 38.37 33.395 38.548 33.326 38.732 C 33.258 38.917 33.188 39.111 33.116 39.312 C 33.038 39.512 32.963 39.72 32.879 39.928 C 32.792 40.135 32.709 40.348 32.617 40.557 C 32.527 40.766 32.44 40.978 32.345 41.182 C 32.299 41.284 32.253 41.385 32.208 41.486 C 32.16 41.585 32.113 41.684 32.067 41.78 C 31.882 42.166 31.704 42.523 31.542 42.826 C 31.382 43.129 31.243 43.378 31.142 43.551 C 31.042 43.724 30.982 43.822 30.982 43.822"/>
    <path id="path1026" style="fill-opacity: 1; fill-rule: nonzero; stroke: none;" d="M 32.45 43.755 C 32.45 43.755 32.51 43.652 32.617 43.473 C 32.72 43.292 32.872 43.035 33.044 42.722 C 33.217 42.409 33.42 42.045 33.628 41.65 C 33.837 41.255 34.055 40.832 34.27 40.406 C 34.375 40.192 34.479 39.977 34.582 39.766 C 34.68 39.553 34.779 39.344 34.873 39.142 C 34.965 38.938 35.054 38.741 35.132 38.552 C 35.21 38.362 35.288 38.184 35.35 38.016 C 35.412 37.848 35.475 37.697 35.516 37.558 C 35.56 37.419 35.602 37.299 35.629 37.198 C 35.676 36.995 35.702 36.878 35.702 36.878 C 35.702 36.878 35.669 36.993 35.61 37.192 C 35.577 37.291 35.531 37.408 35.481 37.545 C 35.432 37.681 35.363 37.83 35.298 37.995 C 35.231 38.161 35.147 38.335 35.065 38.522 C 34.978 38.707 34.888 38.903 34.794 39.105 C 34.697 39.306 34.597 39.514 34.497 39.725 C 34.392 39.934 34.286 40.147 34.179 40.361 C 33.968 40.787 33.754 41.213 33.55 41.61 C 33.347 42.006 33.156 42.378 32.994 42.695 C 32.668 43.331 32.45 43.755 32.45 43.755"/>
    <path id="path1030" style="fill-opacity: 1; fill-rule: nonzero; stroke: none;" d="M 34.013 43.522 C 34.013 43.522 34.074 43.422 34.175 43.244 C 34.275 43.066 34.42 42.813 34.585 42.504 C 34.667 42.349 34.756 42.181 34.85 42.004 C 34.942 41.826 35.042 41.639 35.137 41.442 C 35.333 41.05 35.536 40.63 35.732 40.205 C 35.831 39.994 35.921 39.778 36.014 39.568 C 36.107 39.358 36.191 39.147 36.276 38.946 C 36.36 38.743 36.433 38.544 36.505 38.357 C 36.571 38.167 36.635 37.988 36.693 37.823 C 36.752 37.657 36.795 37.502 36.838 37.367 C 36.882 37.231 36.912 37.11 36.937 37.011 C 36.987 36.813 37.016 36.701 37.016 36.701 C 37.016 36.701 36.98 36.811 36.918 37.006 C 36.888 37.103 36.851 37.222 36.802 37.355 C 36.752 37.488 36.701 37.64 36.64 37.804 C 36.576 37.967 36.508 38.143 36.436 38.33 C 36.36 38.514 36.278 38.71 36.195 38.912 C 36.108 39.112 36.022 39.32 35.928 39.53 C 35.833 39.739 35.74 39.953 35.641 40.163 C 35.448 40.589 35.249 41.01 35.058 41.403 C 34.867 41.797 34.691 42.165 34.535 42.478 C 34.222 43.104 34.013 43.522 34.013 43.522"/>
    <path id="path1034" style="fill-opacity: 1; fill-rule: nonzero; stroke: none;" d="M 35.537 43.428 C 35.537 43.428 35.594 43.326 35.694 43.148 C 35.791 42.969 35.932 42.714 36.093 42.404 C 36.254 42.094 36.444 41.732 36.637 41.34 C 36.831 40.948 37.034 40.529 37.233 40.107 C 37.428 39.683 37.617 39.257 37.79 38.855 C 37.879 38.656 37.955 38.458 38.03 38.272 C 38.106 38.087 38.17 37.908 38.232 37.745 C 38.297 37.582 38.346 37.429 38.392 37.295 C 38.438 37.16 38.476 37.043 38.504 36.944 C 38.56 36.748 38.593 36.636 38.593 36.636 C 38.593 36.636 38.553 36.746 38.485 36.938 C 38.453 37.034 38.408 37.15 38.356 37.282 C 38.303 37.414 38.247 37.563 38.179 37.724 C 38.112 37.885 38.042 38.061 37.961 38.244 C 37.881 38.427 37.796 38.62 37.708 38.82 C 37.533 39.22 37.34 39.643 37.14 40.064 C 36.947 40.487 36.747 40.908 36.559 41.302 C 36.369 41.695 36.193 42.063 36.042 42.378 C 35.739 43.008 35.537 43.428 35.537 43.428"/>
    <path id="path1038" style="fill-opacity: 1; fill-rule: nonzero; stroke: none;" d="M 37.097 43.023 C 37.097 43.023 37.165 42.929 37.279 42.76 C 37.391 42.59 37.554 42.347 37.736 42.048 C 37.918 41.75 38.13 41.401 38.344 41.019 C 38.451 40.828 38.56 40.63 38.668 40.428 C 38.78 40.227 38.885 40.019 38.995 39.813 C 39.206 39.397 39.41 38.977 39.596 38.582 C 39.691 38.385 39.774 38.19 39.857 38.007 C 39.939 37.825 40.012 37.65 40.081 37.489 C 40.149 37.328 40.213 37.181 40.264 37.048 C 40.315 36.916 40.361 36.801 40.398 36.705 C 40.472 36.516 40.514 36.407 40.514 36.407 C 40.514 36.407 40.465 36.513 40.38 36.698 C 40.338 36.791 40.287 36.904 40.228 37.033 C 40.169 37.162 40.102 37.308 40.028 37.466 C 39.954 37.624 39.877 37.797 39.789 37.977 C 39.702 38.157 39.611 38.347 39.516 38.544 C 39.326 38.937 39.119 39.353 38.905 39.767 C 38.797 39.973 38.694 40.182 38.585 40.383 C 38.478 40.586 38.372 40.785 38.267 40.976 C 38.058 41.359 37.861 41.717 37.687 42.019 C 37.512 42.322 37.367 42.575 37.262 42.749 C 37.157 42.923 37.097 43.023 37.097 43.023"/>
    <path id="path1042" style="fill-opacity: 1; fill-rule: nonzero; stroke: none;" d="M 38.533 42.819 C 38.533 42.819 38.61 42.733 38.735 42.573 C 38.799 42.493 38.872 42.394 38.956 42.281 C 39.039 42.165 39.133 42.036 39.229 41.891 C 39.328 41.748 39.429 41.589 39.538 41.422 C 39.644 41.252 39.759 41.076 39.868 40.888 C 39.979 40.7 40.094 40.507 40.205 40.308 C 40.319 40.11 40.432 39.907 40.543 39.703 C 40.654 39.499 40.761 39.293 40.864 39.09 C 40.97 38.887 41.072 38.686 41.167 38.491 C 41.363 38.103 41.53 37.732 41.678 37.417 C 41.825 37.102 41.934 36.834 42.018 36.649 C 42.098 36.462 42.143 36.355 42.143 36.355 C 42.143 36.355 41.937 36.77 41.626 37.392 C 41.548 37.548 41.464 37.716 41.374 37.894 C 41.283 38.071 41.187 38.258 41.089 38.452 C 40.991 38.645 40.887 38.844 40.78 39.046 C 40.674 39.248 40.566 39.452 40.454 39.655 C 40.345 39.859 40.235 40.063 40.123 40.261 C 40.014 40.461 39.9 40.655 39.792 40.843 C 39.683 41.031 39.576 41.211 39.475 41.383 C 39.371 41.552 39.275 41.714 39.181 41.86 C 38.997 42.154 38.837 42.396 38.72 42.562 C 38.604 42.728 38.533 42.819 38.533 42.819"/>
    <path id="path1046" style="fill-opacity: 1; fill-rule: nonzero; stroke: none;" d="M 40.198 42.577 C 40.198 42.577 40.269 42.496 40.387 42.346 C 40.503 42.196 40.668 41.979 40.856 41.713 C 41.044 41.447 41.259 41.133 41.48 40.791 C 41.588 40.619 41.701 40.44 41.814 40.259 C 41.925 40.075 42.04 39.891 42.15 39.704 C 42.258 39.515 42.369 39.329 42.472 39.141 C 42.576 38.954 42.681 38.772 42.778 38.592 C 42.973 38.235 43.146 37.896 43.293 37.605 C 43.443 37.316 43.555 37.068 43.639 36.898 C 43.72 36.726 43.766 36.627 43.766 36.627 C 43.766 36.627 43.557 37.008 43.243 37.578 C 43.164 37.721 43.079 37.875 42.988 38.038 C 42.897 38.2 42.8 38.372 42.7 38.549 C 42.602 38.727 42.495 38.908 42.391 39.094 C 42.285 39.28 42.172 39.465 42.063 39.652 C 41.955 39.841 41.841 40.025 41.733 40.209 C 41.621 40.391 41.512 40.571 41.406 40.743 C 41.297 40.916 41.193 41.082 41.094 41.24 C 40.994 41.397 40.899 41.546 40.809 41.681 C 40.63 41.952 40.481 42.179 40.37 42.334 C 40.262 42.49 40.198 42.577 40.198 42.577"/>
    <path id="path1050" style="fill-opacity: 1; fill-rule: nonzero; stroke: none;" d="M 41.73 42.381 C 41.73 42.381 41.808 42.297 41.946 42.15 C 42.082 42.003 42.277 41.792 42.51 41.539 C 42.742 41.285 43.013 40.988 43.303 40.67 C 43.591 40.35 43.898 40.009 44.206 39.668 C 44.818 38.984 45.429 38.3 45.889 37.786 C 46.12 37.532 46.311 37.318 46.449 37.173 C 46.517 37.098 46.574 37.043 46.611 37.005 C 46.65 36.967 46.67 36.946 46.67 36.946 C 46.67 36.946 46.648 36.965 46.608 37 C 46.568 37.038 46.507 37.087 46.436 37.158 C 46.291 37.298 46.085 37.499 45.846 37.747 C 45.609 37.997 45.33 38.286 45.039 38.603 C 44.749 38.922 44.44 39.261 44.13 39.6 C 43.826 39.944 43.522 40.288 43.237 40.611 C 42.952 40.934 42.693 41.241 42.468 41.502 C 42.243 41.762 42.061 41.984 41.931 42.137 C 41.803 42.293 41.73 42.381 41.73 42.381"/>
    <path id="path1054" style="fill-opacity: 1; fill-rule: nonzero; stroke: none;" d="M 43.272 42.303 C 43.272 42.303 43.617 41.988 44.135 41.515 C 44.649 41.04 45.336 40.407 46.023 39.774 C 46.366 39.456 46.709 39.14 47.034 38.847 C 47.197 38.7 47.354 38.559 47.503 38.425 C 47.653 38.292 47.793 38.164 47.926 38.051 C 48.06 37.937 48.179 37.83 48.288 37.739 C 48.398 37.649 48.493 37.57 48.573 37.504 C 48.734 37.38 48.827 37.309 48.827 37.309 C 48.827 37.309 48.73 37.374 48.561 37.489 C 48.479 37.55 48.379 37.624 48.265 37.71 C 48.15 37.795 48.026 37.896 47.889 38.007 C 47.752 38.117 47.609 38.24 47.454 38.369 C 47.3 38.498 47.14 38.637 46.975 38.781 C 46.647 39.072 46.3 39.384 45.954 39.699 C 45.614 40.019 45.273 40.34 44.955 40.64 C 44.636 40.941 44.346 41.229 44.095 41.474 C 43.845 41.718 43.641 41.928 43.496 42.073 C 43.353 42.219 43.272 42.303 43.272 42.303"/>
    <path id="path1058" style="fill-opacity: 1; fill-rule: nonzero; stroke: none;" d="M 44.86 41.965 C 44.86 41.965 44.959 41.911 45.129 41.817 C 45.299 41.721 45.546 41.59 45.84 41.432 C 45.987 41.352 46.148 41.268 46.318 41.18 C 46.489 41.092 46.668 41 46.854 40.904 C 47.041 40.811 47.234 40.713 47.43 40.615 C 47.627 40.52 47.827 40.42 48.029 40.327 C 48.23 40.231 48.431 40.133 48.631 40.044 C 48.83 39.953 49.027 39.863 49.219 39.782 C 49.41 39.698 49.595 39.616 49.772 39.543 C 49.949 39.469 50.114 39.397 50.271 39.338 C 50.427 39.276 50.569 39.22 50.696 39.169 C 50.823 39.123 50.934 39.081 51.025 39.047 C 51.208 38.979 51.312 38.939 51.312 38.939 C 51.312 38.939 51.206 38.971 51.019 39.029 C 50.926 39.057 50.813 39.093 50.682 39.134 C 50.554 39.179 50.409 39.229 50.251 39.284 C 50.092 39.338 49.924 39.406 49.745 39.474 C 49.565 39.542 49.377 39.617 49.184 39.7 C 48.99 39.78 48.792 39.868 48.591 39.958 C 48.39 40.046 48.188 40.141 47.986 40.235 C 47.783 40.331 47.585 40.433 47.388 40.53 C 47.192 40.632 46.999 40.731 46.813 40.826 C 46.443 41.022 46.103 41.214 45.813 41.382 C 45.522 41.549 45.285 41.697 45.119 41.799 C 44.954 41.903 44.86 41.965 44.86 41.965"/>
    <path id="path1062" style="fill-opacity: 1; fill-rule: nonzero; stroke: none;" d="M 52.377 40.369 C 52.377 40.369 51.988 40.5 51.404 40.697 C 51.111 40.795 50.77 40.904 50.403 41.021 C 50.037 41.14 49.644 41.26 49.25 41.374 C 49.054 41.435 48.856 41.488 48.662 41.545 C 48.468 41.6 48.275 41.649 48.089 41.699 L 47.551 41.834 C 47.38 41.872 47.217 41.909 47.067 41.943 C 46.917 41.973 46.777 42 46.655 42.025 C 46.533 42.051 46.425 42.066 46.336 42.079 C 46.159 42.108 46.057 42.124 46.057 42.124 C 46.057 42.124 46.159 42.115 46.339 42.099 C 46.428 42.09 46.537 42.082 46.661 42.062 C 46.785 42.044 46.926 42.027 47.078 41.999 C 47.229 41.97 47.394 41.939 47.568 41.906 C 47.741 41.868 47.924 41.83 48.111 41.785 C 48.298 41.737 48.491 41.689 48.687 41.637 C 48.883 41.582 49.081 41.531 49.279 41.472 C 49.672 41.353 50.065 41.229 50.43 41.105 C 50.796 40.984 51.133 40.857 51.423 40.751 C 51.711 40.643 51.95 40.545 52.117 40.478 C 52.283 40.41 52.377 40.369 52.377 40.369"/>
    <path id="path1066" style="fill-opacity: 1; fill-rule: nonzero; stroke: none;" d="M 51.499 43.693 C 51.499 43.693 51.417 43.665 51.274 43.614 C 51.129 43.566 50.923 43.494 50.675 43.416 C 50.426 43.338 50.137 43.245 49.824 43.153 C 49.51 43.062 49.176 42.966 48.842 42.871 C 48.505 42.781 48.169 42.694 47.852 42.617 C 47.693 42.576 47.54 42.542 47.393 42.51 C 47.248 42.478 47.11 42.449 46.981 42.424 C 46.854 42.397 46.736 42.375 46.631 42.36 C 46.526 42.343 46.435 42.326 46.36 42.317 C 46.208 42.299 46.122 42.289 46.122 42.289 C 46.122 42.289 46.207 42.307 46.356 42.337 C 46.43 42.35 46.52 42.374 46.623 42.397 C 46.727 42.421 46.843 42.449 46.969 42.48 C 47.223 42.539 47.515 42.62 47.831 42.702 C 48.146 42.783 48.48 42.876 48.815 42.968 C 49.485 43.151 50.156 43.334 50.659 43.471 C 50.91 43.538 51.121 43.594 51.267 43.634 C 51.415 43.672 51.499 43.693 51.499 43.693"/>
    <path id="path1070" style="fill-opacity: 1; fill-rule: nonzero; stroke: none;" d="M 51.336 45.507 C 51.336 45.507 50.912 45.321 50.274 45.042 C 49.636 44.766 48.785 44.399 47.934 44.031 C 47.507 43.85 47.082 43.667 46.685 43.489 C 46.487 43.402 46.296 43.316 46.113 43.236 C 45.93 43.156 45.76 43.075 45.603 43.003 C 45.444 42.932 45.303 42.859 45.175 42.8 C 45.046 42.741 44.941 42.678 44.851 42.632 C 44.76 42.586 44.696 42.538 44.65 42.51 C 44.604 42.481 44.579 42.465 44.579 42.465 C 44.579 42.465 44.602 42.482 44.646 42.515 C 44.691 42.546 44.751 42.6 44.841 42.649 C 44.928 42.699 45.032 42.768 45.158 42.833 C 45.282 42.899 45.421 42.979 45.578 43.054 C 45.734 43.132 45.902 43.218 46.082 43.303 C 46.262 43.39 46.45 43.482 46.649 43.57 C 47.044 43.751 47.468 43.939 47.893 44.125 C 48.32 44.307 48.748 44.486 49.149 44.652 C 49.551 44.819 49.93 44.966 50.253 45.094 C 50.576 45.223 50.848 45.323 51.037 45.396 C 51.227 45.467 51.336 45.507 51.336 45.507"/>
    <path id="path1074" style="fill-opacity: 1; fill-rule: nonzero; stroke: none;" d="M 49.164 47.204 C 49.164 47.204 49.071 47.131 48.909 47.005 C 48.747 46.88 48.515 46.7 48.236 46.485 C 47.956 46.272 47.63 46.023 47.279 45.757 C 46.928 45.492 46.554 45.21 46.179 44.927 C 45.428 44.366 44.676 43.805 44.113 43.383 C 43.972 43.278 43.843 43.18 43.729 43.094 C 43.616 43.007 43.518 42.931 43.436 42.869 C 43.276 42.741 43.184 42.668 43.184 42.668 C 43.184 42.668 43.205 42.687 43.246 42.724 C 43.286 42.761 43.345 42.817 43.424 42.884 C 43.579 43.017 43.802 43.209 44.077 43.429 C 44.352 43.647 44.672 43.906 45.021 44.174 C 45.372 44.44 45.745 44.724 46.119 45.008 C 46.496 45.288 46.874 45.566 47.227 45.828 C 47.582 46.089 47.917 46.325 48.202 46.531 C 48.488 46.737 48.73 46.903 48.898 47.021 C 49.067 47.137 49.164 47.204 49.164 47.204"/>
    <path id="path1078" style="fill-opacity: 1; fill-rule: nonzero; stroke: none;" d="M 47.176 47.762 C 47.176 47.762 47.093 47.681 46.947 47.539 C 46.799 47.399 46.591 47.196 46.334 46.957 C 46.078 46.72 45.782 46.44 45.459 46.146 C 45.135 45.853 44.79 45.54 44.444 45.228 C 44.095 44.92 43.745 44.613 43.416 44.325 C 43.087 44.038 42.773 43.778 42.504 43.555 C 42.37 43.442 42.245 43.343 42.133 43.256 C 42.021 43.167 41.922 43.092 41.84 43.033 C 41.799 43.002 41.762 42.975 41.73 42.951 C 41.696 42.931 41.667 42.913 41.644 42.898 C 41.599 42.869 41.573 42.854 41.573 42.854 C 41.573 42.854 41.598 42.871 41.642 42.903 C 41.664 42.918 41.69 42.938 41.723 42.962 C 41.753 42.987 41.788 43.015 41.828 43.048 C 41.987 43.175 42.204 43.368 42.466 43.599 C 42.73 43.828 43.031 44.102 43.358 44.391 C 43.684 44.683 44.03 44.993 44.378 45.304 C 44.725 45.612 45.073 45.922 45.4 46.212 C 45.728 46.5 46.034 46.769 46.296 47 C 46.56 47.229 46.779 47.42 46.933 47.553 C 47.088 47.687 47.176 47.762 47.176 47.762"/>
    <path id="path1082" style="fill-opacity: 1; fill-rule: nonzero; stroke: none;" d="M 45.083 48.057 C 45.083 48.057 45.009 47.971 44.883 47.819 C 44.754 47.67 44.572 47.454 44.348 47.202 C 44.123 46.95 43.863 46.653 43.575 46.343 C 43.289 46.033 42.98 45.703 42.669 45.377 C 42.355 45.053 42.037 44.734 41.736 44.438 C 41.584 44.29 41.434 44.151 41.293 44.018 C 41.149 43.888 41.012 43.765 40.886 43.652 C 40.757 43.543 40.639 43.442 40.531 43.357 C 40.421 43.273 40.325 43.202 40.247 43.142 C 40.164 43.088 40.097 43.049 40.052 43.02 C 40.007 42.993 39.984 42.978 39.984 42.978 C 39.984 42.978 40.074 43.044 40.235 43.158 C 40.311 43.221 40.402 43.298 40.507 43.385 C 40.609 43.478 40.723 43.581 40.848 43.695 C 40.971 43.812 41.102 43.938 41.241 44.072 C 41.379 44.208 41.524 44.352 41.673 44.5 C 41.971 44.799 42.286 45.122 42.596 45.448 C 42.911 45.77 43.221 46.096 43.511 46.403 C 43.802 46.709 44.073 46.995 44.306 47.241 C 44.771 47.73 45.083 48.057 45.083 48.057"/>
    <path id="path1086" style="fill-opacity: 1; fill-rule: nonzero; stroke: none;" d="M 43.482 49.059 C 43.482 49.059 43.416 48.959 43.3 48.785 C 43.182 48.612 43.017 48.364 42.809 48.071 C 42.704 47.926 42.592 47.768 42.473 47.601 C 42.351 47.435 42.226 47.258 42.09 47.08 C 41.82 46.722 41.53 46.341 41.232 45.967 C 41.084 45.78 40.93 45.596 40.78 45.415 C 40.631 45.232 40.478 45.058 40.333 44.887 C 40.189 44.716 40.039 44.558 39.902 44.405 C 39.764 44.253 39.627 44.115 39.504 43.984 C 39.382 43.853 39.259 43.743 39.156 43.641 C 39.103 43.59 39.054 43.543 39.009 43.499 C 38.96 43.458 38.917 43.42 38.878 43.384 C 38.72 43.247 38.63 43.168 38.63 43.168 C 38.63 43.168 38.715 43.252 38.864 43.399 C 38.902 43.435 38.943 43.476 38.988 43.519 C 39.032 43.565 39.078 43.615 39.129 43.667 C 39.227 43.775 39.344 43.89 39.462 44.024 C 39.581 44.157 39.714 44.299 39.848 44.455 C 39.98 44.61 40.12 44.775 40.267 44.945 C 40.41 45.116 40.56 45.291 40.708 45.475 C 40.855 45.658 41.006 45.843 41.153 46.03 C 41.454 46.401 41.746 46.778 42.02 47.133 C 42.292 47.489 42.548 47.818 42.762 48.105 C 43.194 48.677 43.482 49.059 43.482 49.059"/>
    <path id="path1090" style="fill-opacity: 1; fill-rule: nonzero; stroke: none;" d="M 41.672 49.398 C 41.672 49.398 41.612 49.3 41.506 49.128 C 41.398 48.956 41.247 48.711 41.057 48.422 C 40.867 48.132 40.648 47.794 40.402 47.438 C 40.157 47.081 39.893 46.703 39.624 46.328 C 39.353 45.955 39.076 45.585 38.811 45.243 C 38.68 45.07 38.547 44.91 38.421 44.755 C 38.298 44.6 38.173 44.46 38.061 44.328 C 37.951 44.194 37.842 44.078 37.746 43.974 C 37.652 43.87 37.568 43.781 37.497 43.71 C 37.352 43.568 37.27 43.487 37.27 43.487 C 37.27 43.487 37.347 43.573 37.481 43.724 C 37.55 43.797 37.629 43.891 37.718 44 C 37.808 44.107 37.911 44.228 38.018 44.363 C 38.125 44.499 38.244 44.643 38.363 44.802 C 38.483 44.959 38.609 45.125 38.74 45.297 C 39.001 45.641 39.274 46.012 39.541 46.388 C 39.814 46.759 40.081 47.135 40.33 47.488 C 40.579 47.841 40.811 48.171 41.01 48.454 C 41.407 49.02 41.672 49.398 41.672 49.398"/>
    <path id="path1094" style="fill-opacity: 1; fill-rule: nonzero; stroke: none;" d="M 40.063 49.499 C 40.063 49.499 39.866 49.082 39.525 48.48 C 39.438 48.33 39.346 48.166 39.243 47.997 C 39.142 47.826 39.034 47.646 38.916 47.465 C 38.802 47.281 38.676 47.096 38.552 46.906 C 38.425 46.718 38.291 46.529 38.16 46.339 C 38.021 46.154 37.885 45.968 37.746 45.788 C 37.603 45.611 37.468 45.432 37.327 45.268 C 37.186 45.103 37.054 44.941 36.916 44.798 C 36.779 44.654 36.654 44.514 36.531 44.392 C 36.406 44.271 36.291 44.162 36.19 44.065 C 36.089 43.966 35.991 43.892 35.916 43.825 C 35.761 43.695 35.673 43.621 35.673 43.621 C 35.673 43.621 35.756 43.7 35.902 43.839 C 35.975 43.91 36.068 43.989 36.164 44.091 C 36.26 44.192 36.37 44.307 36.489 44.431 C 36.608 44.557 36.728 44.7 36.861 44.847 C 36.993 44.994 37.118 45.161 37.259 45.324 C 37.397 45.489 37.53 45.669 37.67 45.846 C 37.807 46.026 37.941 46.214 38.077 46.398 C 38.21 46.586 38.346 46.772 38.473 46.959 C 38.6 47.147 38.727 47.331 38.842 47.513 C 38.96 47.694 39.075 47.868 39.18 48.035 C 39.288 48.201 39.384 48.362 39.475 48.508 C 39.655 48.803 39.805 49.05 39.905 49.225 C 40.006 49.399 40.063 49.499 40.063 49.499"/>
    <path id="path1098" style="fill-opacity: 1; fill-rule: nonzero; stroke: none;" d="M 38.39 49.843 C 38.39 49.843 38.333 49.738 38.228 49.556 C 38.123 49.375 37.974 49.113 37.786 48.808 C 37.597 48.501 37.377 48.143 37.129 47.768 C 36.881 47.392 36.611 46.995 36.332 46.604 C 36.191 46.41 36.048 46.217 35.904 46.029 C 35.761 45.841 35.617 45.658 35.474 45.484 C 35.19 45.133 34.906 44.823 34.652 44.566 C 34.525 44.439 34.403 44.326 34.292 44.231 C 34.237 44.182 34.182 44.141 34.132 44.101 C 34.083 44.061 34.037 44.026 33.994 43.996 C 33.95 43.966 33.912 43.939 33.878 43.916 C 33.844 43.895 33.814 43.877 33.789 43.863 C 33.74 43.834 33.715 43.819 33.715 43.819 C 33.715 43.819 33.74 43.836 33.786 43.867 C 33.809 43.884 33.838 43.903 33.872 43.926 C 33.903 43.951 33.941 43.98 33.981 44.012 C 34.024 44.043 34.068 44.08 34.115 44.123 C 34.162 44.164 34.215 44.208 34.266 44.26 C 34.372 44.359 34.487 44.477 34.611 44.607 C 34.858 44.866 35.126 45.189 35.406 45.539 C 35.685 45.89 35.972 46.273 36.25 46.663 C 36.532 47.051 36.804 47.445 37.056 47.816 C 37.306 48.189 37.542 48.536 37.738 48.838 C 37.933 49.139 38.097 49.391 38.212 49.566 C 38.325 49.743 38.39 49.843 38.39 49.843"/>
    <path id="path1102" style="fill-opacity: 1; fill-rule: nonzero; stroke: none;" d="M 36.755 50.236 C 36.755 50.236 36.699 50.13 36.603 49.944 C 36.502 49.76 36.363 49.496 36.185 49.184 C 36.008 48.872 35.802 48.507 35.569 48.123 C 35.336 47.739 35.084 47.332 34.825 46.929 C 34.562 46.528 34.291 46.132 34.029 45.768 C 33.898 45.585 33.767 45.413 33.639 45.251 C 33.511 45.089 33.388 44.938 33.271 44.802 C 33.154 44.665 33.042 44.543 32.938 44.44 C 32.836 44.335 32.742 44.25 32.663 44.18 C 32.583 44.112 32.518 44.061 32.471 44.03 C 32.425 43.998 32.401 43.981 32.401 43.981 C 32.401 43.981 32.424 43.999 32.467 44.034 C 32.513 44.068 32.573 44.123 32.649 44.195 C 32.724 44.268 32.814 44.357 32.91 44.466 C 32.959 44.52 33.011 44.578 33.062 44.641 C 33.115 44.703 33.171 44.768 33.226 44.838 C 33.34 44.977 33.458 45.131 33.58 45.296 C 33.703 45.461 33.827 45.637 33.958 45.819 C 34.215 46.185 34.481 46.582 34.739 46.984 C 35.003 47.383 35.257 47.788 35.494 48.169 C 35.729 48.55 35.951 48.905 36.136 49.212 C 36.507 49.827 36.755 50.236 36.755 50.236"/>
    <path id="path1106" style="fill-opacity: 1; fill-rule: nonzero; stroke: none;" d="M 35.183 50.368 C 35.183 50.368 35.124 50.266 35.019 50.088 C 34.911 49.91 34.762 49.656 34.574 49.354 C 34.387 49.053 34.172 48.7 33.931 48.328 C 33.692 47.955 33.434 47.558 33.173 47.164 C 32.91 46.772 32.642 46.381 32.387 46.018 C 32.263 45.836 32.133 45.664 32.014 45.5 C 31.894 45.335 31.776 45.183 31.669 45.042 C 31.563 44.9 31.457 44.776 31.366 44.664 C 31.274 44.553 31.187 44.461 31.119 44.384 C 31.052 44.305 30.985 44.255 30.946 44.216 C 30.906 44.178 30.884 44.159 30.884 44.159 C 30.884 44.159 30.905 44.18 30.943 44.22 C 30.98 44.262 31.04 44.315 31.104 44.397 C 31.169 44.478 31.25 44.572 31.337 44.687 C 31.422 44.804 31.519 44.933 31.624 45.076 C 31.726 45.221 31.839 45.375 31.954 45.543 C 32.069 45.71 32.19 45.886 32.315 46.069 C 32.566 46.434 32.829 46.826 33.089 47.22 C 33.353 47.612 33.614 48.006 33.857 48.376 C 34.102 48.746 34.331 49.09 34.526 49.385 C 34.92 49.975 35.183 50.368 35.183 50.368"/>
    <path id="path1110" style="fill-opacity: 1; fill-rule: nonzero; stroke: none;" d="M 32.562 51.183 C 32.562 51.183 32.489 51.073 32.361 50.878 C 32.231 50.686 32.049 50.408 31.823 50.08 C 31.596 49.752 31.336 49.367 31.047 48.961 C 30.757 48.556 30.448 48.124 30.139 47.692 C 29.825 47.264 29.507 46.837 29.206 46.441 C 29.058 46.241 28.906 46.053 28.765 45.873 C 28.626 45.692 28.488 45.527 28.363 45.371 C 28.239 45.215 28.117 45.079 28.012 44.955 C 27.906 44.832 27.807 44.731 27.729 44.644 C 27.69 44.601 27.654 44.565 27.619 44.535 C 27.585 44.504 27.557 44.479 27.534 44.457 C 27.488 44.415 27.463 44.393 27.463 44.393 C 27.463 44.393 27.487 44.417 27.53 44.461 C 27.572 44.508 27.641 44.568 27.715 44.658 C 27.789 44.748 27.883 44.852 27.982 44.979 C 28.081 45.107 28.197 45.248 28.318 45.407 C 28.438 45.565 28.572 45.734 28.707 45.918 C 28.843 46.101 28.987 46.294 29.136 46.493 C 29.433 46.892 29.746 47.322 30.057 47.752 C 30.682 48.611 31.307 49.469 31.776 50.113 C 32.248 50.755 32.562 51.183 32.562 51.183"/>
    <path id="path1114" style="fill-opacity: 1; fill-rule: nonzero; stroke: none;" d="M 30.795 51.621 C 30.795 51.621 30.725 51.505 30.602 51.304 C 30.477 51.103 30.301 50.814 30.084 50.473 C 29.867 50.132 29.615 49.731 29.338 49.308 C 29.059 48.885 28.762 48.434 28.464 47.983 C 28.162 47.535 27.857 47.09 27.567 46.675 C 27.424 46.465 27.28 46.268 27.144 46.079 C 27.01 45.89 26.876 45.715 26.757 45.552 C 26.638 45.388 26.52 45.244 26.42 45.114 C 26.319 44.983 26.223 44.875 26.148 44.784 C 26.075 44.691 26.004 44.629 25.962 44.583 C 25.918 44.537 25.894 44.513 25.894 44.513 C 25.894 44.513 25.917 44.539 25.958 44.587 C 25.998 44.636 26.064 44.701 26.133 44.796 C 26.204 44.891 26.294 45.002 26.39 45.137 C 26.484 45.271 26.595 45.419 26.711 45.585 C 26.826 45.752 26.954 45.93 27.083 46.122 C 27.214 46.314 27.352 46.515 27.494 46.725 C 27.78 47.142 28.081 47.59 28.38 48.04 C 28.982 48.936 29.584 49.832 30.036 50.504 C 30.492 51.174 30.795 51.621 30.795 51.621"/>
    <path id="path1118" style="fill-opacity: 1; fill-rule: nonzero; stroke: none;" d="M 29.284 52.071 C 29.284 52.071 29.212 51.953 29.087 51.747 C 28.96 51.542 28.778 51.248 28.561 50.897 C 28.341 50.546 28.085 50.138 27.81 49.7 C 27.533 49.264 27.238 48.798 26.943 48.333 C 26.346 47.405 25.75 46.477 25.303 45.782 C 25.08 45.434 24.894 45.144 24.764 44.941 C 24.635 44.736 24.562 44.619 24.562 44.619 C 24.562 44.619 24.629 44.74 24.747 44.951 C 24.868 45.16 25.039 45.459 25.254 45.812 C 25.47 46.165 25.718 46.579 25.994 47.016 C 26.269 47.454 26.563 47.921 26.857 48.387 C 27.156 48.85 27.455 49.313 27.736 49.748 C 28.016 50.182 28.286 50.582 28.513 50.928 C 28.741 51.274 28.936 51.558 29.07 51.758 C 29.207 51.957 29.284 52.071 29.284 52.071"/>
    <path id="path1122" style="fill-opacity: 1; fill-rule: nonzero; stroke: none;" d="M 27.494 51.885 C 27.494 51.885 27.438 51.762 27.334 51.55 C 27.231 51.338 27.081 51.035 26.893 50.677 C 26.704 50.319 26.482 49.902 26.23 49.462 C 26.102 49.244 25.975 49.016 25.836 48.79 C 25.7 48.562 25.56 48.33 25.415 48.102 C 25.342 47.988 25.27 47.875 25.197 47.761 C 25.122 47.65 25.047 47.538 24.973 47.428 C 24.828 47.205 24.674 46.993 24.528 46.787 C 24.384 46.578 24.228 46.388 24.087 46.204 C 23.948 46.018 23.798 45.856 23.669 45.7 C 23.542 45.542 23.407 45.413 23.294 45.294 C 23.236 45.235 23.183 45.179 23.134 45.128 C 23.081 45.08 23.032 45.037 22.988 44.997 C 22.81 44.841 22.709 44.752 22.709 44.752 C 22.709 44.752 22.805 44.846 22.974 45.012 C 23.016 45.053 23.064 45.097 23.114 45.148 C 23.16 45.201 23.212 45.258 23.266 45.32 C 23.373 45.444 23.502 45.577 23.625 45.737 C 23.75 45.896 23.895 46.06 24.028 46.25 C 24.164 46.437 24.313 46.629 24.456 46.838 C 24.6 47.045 24.751 47.257 24.894 47.481 C 24.967 47.591 25.041 47.703 25.115 47.815 C 25.186 47.929 25.258 48.042 25.329 48.157 C 25.476 48.382 25.616 48.612 25.755 48.839 C 25.895 49.063 26.025 49.29 26.154 49.507 C 26.282 49.725 26.405 49.936 26.521 50.136 C 26.635 50.338 26.743 50.528 26.843 50.704 C 27.04 51.057 27.206 51.351 27.317 51.559 C 27.43 51.766 27.494 51.885 27.494 51.885"/>
    <path id="path1126" style="fill-opacity: 1; fill-rule: nonzero; stroke: none;" d="M 33.772 50.278 L 33.072 49.344 C 32.65 48.786 32.086 48.043 31.521 47.3 C 31.238 46.93 30.956 46.559 30.694 46.209 C 30.562 46.033 30.436 45.865 30.315 45.704 C 30.197 45.543 30.082 45.392 29.98 45.25 C 29.879 45.108 29.781 44.98 29.7 44.863 C 29.619 44.747 29.548 44.646 29.489 44.562 C 29.377 44.392 29.313 44.295 29.313 44.295 C 29.313 44.295 29.371 44.396 29.473 44.573 C 29.527 44.659 29.593 44.764 29.67 44.885 C 29.745 45.006 29.835 45.138 29.933 45.283 C 30.031 45.429 30.141 45.583 30.255 45.748 C 30.37 45.913 30.494 46.084 30.623 46.261 C 30.881 46.614 31.16 46.989 31.44 47.362 C 31.727 47.73 32.012 48.099 32.281 48.445 C 32.55 48.79 32.808 49.106 33.027 49.379 C 33.247 49.652 33.435 49.874 33.565 50.032 C 33.697 50.189 33.772 50.278 33.772 50.278"/>
    <path id="path1130" style="fill-opacity: 1; fill-rule: nonzero; stroke: none;" d="M 46.27 42.124 C 46.27 42.124 45.828 42.174 45.054 42.262 C 44.28 42.351 43.175 42.479 41.849 42.632 C 40.523 42.782 38.976 42.96 37.318 43.149 C 36.49 43.242 35.633 43.337 34.763 43.436 C 34.328 43.484 33.889 43.533 33.449 43.583 C 33.009 43.63 32.566 43.677 32.124 43.724 C 31.241 43.824 30.356 43.915 29.484 44.005 C 28.614 44.093 27.757 44.179 26.927 44.263 C 26.096 44.342 25.294 44.419 24.533 44.491 C 23.772 44.565 23.052 44.617 22.387 44.674 C 22.221 44.688 22.058 44.702 21.899 44.715 C 21.74 44.726 21.585 44.737 21.432 44.747 C 21.129 44.77 20.842 44.791 20.572 44.811 C 20.301 44.831 20.049 44.85 19.815 44.867 C 19.58 44.879 19.365 44.891 19.171 44.901 C 18.393 44.946 17.949 44.971 17.949 44.971 C 17.949 44.971 18.394 44.967 19.173 44.96 C 19.368 44.957 19.583 44.954 19.818 44.951 C 20.053 44.943 20.306 44.934 20.578 44.924 C 21.119 44.903 21.732 44.892 22.399 44.846 C 23.065 44.804 23.788 44.769 24.551 44.713 C 25.314 44.657 26.12 44.608 26.951 44.531 C 27.782 44.456 28.642 44.39 29.514 44.298 C 30.386 44.212 31.272 44.125 32.157 44.028 C 32.599 43.978 33.042 43.929 33.482 43.881 C 33.923 43.83 34.362 43.779 34.797 43.728 C 35.668 43.629 36.523 43.517 37.35 43.415 C 38.179 43.314 38.978 43.2 39.735 43.099 C 40.493 42.993 41.21 42.893 41.871 42.801 C 42.532 42.709 43.138 42.618 43.673 42.535 C 44.209 42.452 44.677 42.38 45.061 42.321 C 45.447 42.262 45.748 42.21 45.954 42.177 C 46.16 42.142 46.27 42.124 46.27 42.124"/>
  </g>
</svg>