<?xml version="1.0" encoding="utf-8"?>
<svg viewBox="0 0 64 64" xmlns="http://www.w3.org/2000/svg">
  <g transform="matrix(1, 0, 0, 1, 0.169502, 0.638)">
    <path d="M 19.206 36.818 L 21.177 34.847 L 20.015 33.685 C 19.635 34.591 19.313 35.586 19.064 36.675 Z" style="fill: rgb(235, 233, 100); fill-opacity: 1; fill-rule: nonzero; stroke: none; display: inline;" id="path342"/>
    <path d="M 21.177 43.993 L 19.206 42.022 L 18.452 42.775 C 18.441 43.621 18.45 44.443 18.482 45.239 L 19.206 45.964 Z" style="fill: rgb(235, 233, 100); fill-opacity: 1; fill-rule: nonzero; stroke: none; display: inline;" id="path346"/>
    <path d="M 34.895 34.848 L 32.924 32.877 L 30.953 34.848 L 32.924 36.819 Z" style="fill: rgb(235, 233, 100); fill-opacity: 1; fill-rule: nonzero; stroke: none; display: inline;" id="path350"/>
    <path d="M 25.75 48.565 L 23.779 46.594 L 21.809 48.565 L 23.779 50.536 Z" style="fill: rgb(235, 233, 100); fill-opacity: 1; fill-rule: nonzero; stroke: none; display: inline;" id="path354"/>
    <path d="M 23.463 46.279 L 21.492 44.308 L 19.522 46.279 L 21.492 48.25 Z" style="fill: rgb(235, 233, 100); fill-opacity: 1; fill-rule: nonzero; stroke: none; display: inline;" id="path358"/>
    <path d="M 28.036 27.988 L 26.584 26.537 C 25.771 26.932 24.955 27.437 24.171 28.064 L 26.065 29.96 Z" style="fill: rgb(235, 233, 100); fill-opacity: 1; fill-rule: nonzero; stroke: none; display: inline;" id="path362"/>
    <path d="M 35.21 26.018 L 33.239 27.989 L 35.21 29.959 L 37.182 27.989 Z" style="fill: rgb(235, 233, 100); fill-opacity: 1; fill-rule: nonzero; stroke: none; display: inline;" id="path366"/>
    <path d="M 21.493 34.532 L 23.464 32.561 L 21.645 30.743 C 21.114 31.485 20.63 32.316 20.207 33.247 Z" style="fill: rgb(235, 233, 100); fill-opacity: 1; fill-rule: nonzero; stroke: none; display: inline;" id="path370"/>
    <path d="M 37.181 32.561 L 35.21 30.59 L 33.239 32.561 L 35.21 34.532 Z" style="fill: rgb(235, 233, 100); fill-opacity: 1; fill-rule: nonzero; stroke: none; display: inline;" id="path374"/>
    <path d="M 32.924 27.673 L 34.821 25.777 C 33.791 25.481 32.685 25.321 31.502 25.321 C 31.446 25.321 31.389 25.322 31.332 25.324 L 30.953 25.702 Z" style="fill: rgb(235, 233, 100); fill-opacity: 1; fill-rule: nonzero; stroke: none; display: inline;" id="path378"/>
    <path d="M 28.351 27.673 L 30.322 25.702 L 30.056 25.437 C 29.11 25.581 28.07 25.869 27.014 26.336 Z" style="fill: rgb(235, 233, 100); fill-opacity: 1; fill-rule: nonzero; stroke: none; display: inline;" id="path382"/>
    <path d="M 18.514 45.902 C 18.528 46.14 18.543 46.377 18.56 46.61 L 18.891 46.279 Z" style="fill: rgb(235, 233, 100); fill-opacity: 1; fill-rule: nonzero; stroke: none; display: inline;" id="path386"/>
    <path d="M 39.468 34.848 L 37.496 32.877 L 35.526 34.848 L 37.496 36.819 Z" style="fill: rgb(235, 233, 100); fill-opacity: 1; fill-rule: nonzero; stroke: none; display: inline;" id="path390"/>
    <path d="M 36.019 26.196 L 37.496 27.673 L 37.946 27.224 C 37.341 26.823 36.699 26.478 36.019 26.196" style="fill: rgb(235, 233, 100); fill-opacity: 1; fill-rule: nonzero; stroke: none; display: inline;" id="path394"/>
    <path d="M 35.526 30.275 L 37.497 32.246 L 39.467 30.275 L 37.497 28.304 Z" style="fill: rgb(235, 233, 100); fill-opacity: 1; fill-rule: nonzero; stroke: none; display: inline;" id="path398"/>
    <path d="M 25.75 53.138 L 23.779 51.166 L 21.809 53.138 L 23.779 55.109 Z" style="fill: rgb(235, 233, 100); fill-opacity: 1; fill-rule: nonzero; stroke: none; display: inline;" id="path402"/>
    <path d="M 28.036 50.851 L 26.065 48.88 L 24.095 50.851 L 26.065 52.822 Z" style="fill: rgb(235, 233, 100); fill-opacity: 1; fill-rule: nonzero; stroke: none; display: inline;" id="path406"/>
    <path d="M 23.463 50.851 L 21.492 48.88 L 19.522 50.851 L 21.492 52.822 Z" style="fill: rgb(235, 233, 100); fill-opacity: 1; fill-rule: nonzero; stroke: none; display: inline;" id="path410"/>
    <path d="M 30.322 43.993 L 28.351 42.022 L 26.381 43.993 L 28.351 45.964 Z" style="fill: rgb(235, 233, 100); fill-opacity: 1; fill-rule: nonzero; stroke: none; display: inline;" id="path414"/>
    <path d="M 26.065 44.308 L 24.094 46.279 L 26.065 48.249 L 28.036 46.279 Z" style="fill: rgb(235, 233, 100); fill-opacity: 1; fill-rule: nonzero; stroke: none; display: inline;" id="path418"/>
    <path d="M 34.895 39.42 L 32.924 37.449 L 30.953 39.42 L 32.924 41.391 Z" style="fill: rgb(235, 233, 100); fill-opacity: 1; fill-rule: nonzero; stroke: none; display: inline;" id="path422"/>
    <path d="M 32.609 41.706 L 30.638 39.735 L 28.667 41.706 L 30.638 43.677 Z" style="fill: rgb(235, 233, 100); fill-opacity: 1; fill-rule: nonzero; stroke: none; display: inline;" id="path426"/>
    <path d="M 37.181 37.134 L 35.21 35.163 L 33.239 37.134 L 35.21 39.105 Z" style="fill: rgb(235, 233, 100); fill-opacity: 1; fill-rule: nonzero; stroke: none; display: inline;" id="path430"/>
    <path d="M 30.323 34.848 L 28.352 32.877 L 26.381 34.848 L 28.352 36.819 Z" style="fill: rgb(235, 233, 100); fill-opacity: 1; fill-rule: nonzero; stroke: none; display: inline;" id="path434"/>
    <path d="M 30.638 29.959 L 32.609 27.988 L 30.638 26.018 L 28.667 27.988 Z" style="fill: rgb(235, 233, 100); fill-opacity: 1; fill-rule: nonzero; stroke: none; display: inline;" id="path438"/>
    <path d="M 21.177 39.42 L 19.206 37.449 L 18.835 37.821 C 18.68 38.721 18.572 39.681 18.519 40.703 L 19.206 41.391 Z" style="fill: rgb(235, 233, 100); fill-opacity: 1; fill-rule: nonzero; stroke: none; display: inline;" id="path442"/>
    <path d="M 30.617 25.366 L 30.637 25.387 L 30.663 25.361 C 30.648 25.363 30.633 25.365 30.617 25.366" style="fill: rgb(235, 233, 100); fill-opacity: 1; fill-rule: nonzero; stroke: none; display: inline;" id="path446"/>
    <path d="M 28.036 37.134 L 26.065 35.163 L 24.095 37.134 L 26.065 39.105 Z" style="fill: rgb(235, 233, 100); fill-opacity: 1; fill-rule: nonzero; stroke: none; display: inline;" id="path450"/>
    <path d="M 18.491 41.307 C 18.48 41.584 18.472 41.859 18.465 42.133 L 18.89 41.706 Z" style="fill: rgb(235, 233, 100); fill-opacity: 1; fill-rule: nonzero; stroke: none; display: inline;" id="path454"/>
    <path d="M 42.3 32.015 C 41.82 31.182 41.281 30.402 40.682 29.691 L 40.099 30.275 L 42.07 32.245 Z" style="fill: rgb(235, 233, 100); fill-opacity: 1; fill-rule: nonzero; stroke: none; display: inline;" id="path458"/>
    <path d="M 42.526 32.419 L 42.385 32.561 L 42.834 33.01 C 42.735 32.811 42.632 32.614 42.526 32.419" style="fill: rgb(235, 233, 100); fill-opacity: 1; fill-rule: nonzero; stroke: none; display: inline;" id="path462"/>
    <path d="M 19.206 46.594 L 18.609 47.192 C 18.713 48.328 18.871 49.404 19.085 50.415 L 19.206 50.535 L 21.177 48.565 Z" style="fill: rgb(235, 233, 100); fill-opacity: 1; fill-rule: nonzero; stroke: none; display: inline;" id="path466"/>
    <path d="M 25.75 30.275 L 23.825 28.35 C 23.153 28.928 22.508 29.6 21.913 30.379 L 23.779 32.246 Z" style="fill: rgb(235, 233, 100); fill-opacity: 1; fill-rule: nonzero; stroke: none; display: inline;" id="path470"/>
    <path d="M 21.808 39.42 L 23.779 41.391 L 25.749 39.42 L 23.779 37.449 Z" style="fill: rgb(235, 233, 100); fill-opacity: 1; fill-rule: nonzero; stroke: none; display: inline;" id="path474"/>
    <path d="M 37.812 32.561 L 39.783 34.532 L 41.753 32.561 L 39.783 30.59 Z" style="fill: rgb(235, 233, 100); fill-opacity: 1; fill-rule: nonzero; stroke: none; display: inline;" id="path478"/>
    <path d="M 23.463 41.706 L 21.492 39.735 L 19.522 41.706 L 21.492 43.677 Z" style="fill: rgb(235, 233, 100); fill-opacity: 1; fill-rule: nonzero; stroke: none; display: inline;" id="path482"/>
    <path d="M 25.75 43.993 L 23.779 42.022 L 21.809 43.993 L 23.779 45.964 Z" style="fill: rgb(235, 233, 100); fill-opacity: 1; fill-rule: nonzero; stroke: none; display: inline;" id="path486"/>
    <path d="M 32.609 37.134 L 30.638 35.163 L 28.667 37.134 L 30.638 39.105 Z" style="fill: rgb(235, 233, 100); fill-opacity: 1; fill-rule: nonzero; stroke: none; display: inline;" id="path490"/>
    <path d="M 19.522 37.134 L 21.493 39.105 L 23.463 37.134 L 21.493 35.163 Z" style="fill: rgb(235, 233, 100); fill-opacity: 1; fill-rule: nonzero; stroke: none; display: inline;" id="path494"/>
    <path d="M 28.036 41.706 L 26.065 39.735 L 24.095 41.706 L 26.065 43.677 Z" style="fill: rgb(235, 233, 100); fill-opacity: 1; fill-rule: nonzero; stroke: none; display: inline;" id="path498"/>
    <path d="M 32.609 32.561 L 30.638 30.59 L 28.667 32.561 L 30.638 34.532 Z" style="fill: rgb(235, 233, 100); fill-opacity: 1; fill-rule: nonzero; stroke: none; display: inline;" id="path502"/>
    <path d="M 30.322 39.42 L 28.351 37.449 L 26.381 39.42 L 28.351 41.391 Z" style="fill: rgb(235, 233, 100); fill-opacity: 1; fill-rule: nonzero; stroke: none; display: inline;" id="path506"/>
    <path d="M 26.381 30.275 L 28.352 32.246 L 30.322 30.275 L 28.352 28.304 Z" style="fill: rgb(235, 233, 100); fill-opacity: 1; fill-rule: nonzero; stroke: none; display: inline;" id="path510"/>
    <path d="M 34.895 30.275 L 32.924 28.304 L 30.953 30.275 L 32.924 32.246 Z" style="fill: rgb(235, 233, 100); fill-opacity: 1; fill-rule: nonzero; stroke: none; display: inline;" id="path514"/>
    <path d="M 21.808 34.848 L 23.779 36.819 L 25.749 34.848 L 23.779 32.877 Z" style="fill: rgb(235, 233, 100); fill-opacity: 1; fill-rule: nonzero; stroke: none; display: inline;" id="path518"/>
    <path d="M 24.094 32.561 L 26.065 34.532 L 28.035 32.561 L 26.065 30.59 Z" style="fill: rgb(235, 233, 100); fill-opacity: 1; fill-rule: nonzero; stroke: none; display: inline;" id="path522"/>
    <path d="M 24.446 59.014 L 25.75 57.71 L 23.779 55.739 L 22.283 57.235 C 22.915 57.926 23.634 58.521 24.446 59.014" style="fill: rgb(235, 233, 100); fill-opacity: 1; fill-rule: nonzero; stroke: none; display: inline;" id="path526"/>
    <path d="M 44.04 43.993 L 42.069 42.022 L 40.099 43.993 L 42.069 45.964 Z" style="fill: rgb(235, 233, 100); fill-opacity: 1; fill-rule: nonzero; stroke: none; display: inline;" id="path530"/>
    <path d="M 41.754 46.279 L 39.783 44.308 L 37.813 46.279 L 39.783 48.25 Z" style="fill: rgb(235, 233, 100); fill-opacity: 1; fill-rule: nonzero; stroke: none; display: inline;" id="path534"/>
    <path d="M 45.202 42.83 C 45.173 42.012 45.107 41.195 45.002 40.382 L 44.355 39.735 L 42.385 41.706 L 44.355 43.677 Z" style="fill: rgb(235, 233, 100); fill-opacity: 1; fill-rule: nonzero; stroke: none; display: inline;" id="path538"/>
    <path d="M 32.924 60.312 L 32.532 60.704 C 32.78 60.691 33.022 60.673 33.261 60.649 Z" style="fill: rgb(235, 233, 100); fill-opacity: 1; fill-rule: nonzero; stroke: none; display: inline;" id="path542"/>
    <path d="M 45.217 43.446 L 44.671 43.992 L 45.212 44.533 C 45.217 44.283 45.22 44.032 45.22 43.78 C 45.22 43.668 45.218 43.558 45.217 43.446" style="fill: rgb(235, 233, 100); fill-opacity: 1; fill-rule: nonzero; stroke: none; display: inline;" id="path546"/>
    <path d="M 32.924 51.167 L 30.953 53.138 L 32.924 55.109 L 34.895 53.138 Z" style="fill: rgb(235, 233, 100); fill-opacity: 1; fill-rule: nonzero; stroke: none; display: inline;" id="path550"/>
    <path d="M 30.638 58.026 L 28.667 59.997 L 29.27 60.6 C 29.974 60.687 30.717 60.731 31.502 60.731 C 31.629 60.731 31.754 60.729 31.878 60.728 L 32.609 59.997 Z" style="fill: rgb(235, 233, 100); fill-opacity: 1; fill-rule: nonzero; stroke: none; display: inline;" id="path554"/>
    <path d="M 39.468 48.565 L 37.496 46.594 L 35.526 48.565 L 37.496 50.536 Z" style="fill: rgb(235, 233, 100); fill-opacity: 1; fill-rule: nonzero; stroke: none; display: inline;" id="path558"/>
    <path d="M 34.895 57.71 L 32.924 55.739 L 30.953 57.71 L 32.924 59.681 Z" style="fill: rgb(235, 233, 100); fill-opacity: 1; fill-rule: nonzero; stroke: none; display: inline;" id="path562"/>
    <path d="M 35.21 58.026 L 33.239 59.997 L 33.829 60.586 C 34.983 60.434 36.033 60.169 36.987 59.802 Z" style="fill: rgb(235, 233, 100); fill-opacity: 1; fill-rule: nonzero; stroke: none; display: inline;" id="path566"/>
    <path d="M 37.181 50.851 L 35.21 48.88 L 33.239 50.851 L 35.21 52.822 Z" style="fill: rgb(235, 233, 100); fill-opacity: 1; fill-rule: nonzero; stroke: none; display: inline;" id="path570"/>
    <path d="M 28.036 55.424 L 26.065 53.453 L 24.095 55.424 L 26.065 57.395 Z" style="fill: rgb(235, 233, 100); fill-opacity: 1; fill-rule: nonzero; stroke: none; display: inline;" id="path574"/>
    <path d="M 37.497 55.739 L 35.526 57.71 L 37.434 59.618 C 37.509 59.585 37.585 59.552 37.659 59.519 L 39.468 57.71 Z" style="fill: rgb(235, 233, 100); fill-opacity: 1; fill-rule: nonzero; stroke: none; display: inline;" id="path578"/>
    <path d="M 39.783 58.026 L 39.05 58.759 C 39.347 58.567 39.632 58.365 39.905 58.149 Z" style="fill: rgb(235, 233, 100); fill-opacity: 1; fill-rule: nonzero; stroke: none; display: inline;" id="path582"/>
    <path d="M 39.783 53.453 L 37.812 55.424 L 39.783 57.395 L 41.754 55.424 Z" style="fill: rgb(235, 233, 100); fill-opacity: 1; fill-rule: nonzero; stroke: none; display: inline;" id="path586"/>
    <path d="M 42.127 55.797 L 42.07 55.74 L 40.099 57.711 L 40.251 57.863 C 40.962 57.254 41.584 56.56 42.127 55.797" style="fill: rgb(235, 233, 100); fill-opacity: 1; fill-rule: nonzero; stroke: none; display: inline;" id="path590"/>
    <path d="M 35.21 53.453 L 33.239 55.424 L 35.21 57.395 L 37.182 55.424 Z" style="fill: rgb(235, 233, 100); fill-opacity: 1; fill-rule: nonzero; stroke: none; display: inline;" id="path594"/>
    <path d="M 43.217 53.961 C 43.4 53.592 43.568 53.211 43.723 52.82 L 42.069 51.166 L 40.098 53.137 L 42.069 55.108 Z" style="fill: rgb(235, 233, 100); fill-opacity: 1; fill-rule: nonzero; stroke: none; display: inline;" id="path598"/>
    <path d="M 44.671 48.565 L 44.834 48.729 C 44.855 48.6 44.876 48.47 44.897 48.339 Z" style="fill: rgb(235, 233, 100); fill-opacity: 1; fill-rule: nonzero; stroke: none; display: inline;" id="path602"/>
    <path d="M 39.468 53.138 L 37.496 51.166 L 35.526 53.138 L 37.496 55.109 Z" style="fill: rgb(235, 233, 100); fill-opacity: 1; fill-rule: nonzero; stroke: none; display: inline;" id="path606"/>
    <path d="M 41.754 50.851 L 39.783 48.88 L 37.813 50.851 L 39.783 52.822 Z" style="fill: rgb(235, 233, 100); fill-opacity: 1; fill-rule: nonzero; stroke: none; display: inline;" id="path610"/>
    <path d="M 44.04 48.565 L 42.069 46.594 L 40.099 48.565 L 42.069 50.536 Z" style="fill: rgb(235, 233, 100); fill-opacity: 1; fill-rule: nonzero; stroke: none; display: inline;" id="path614"/>
    <path d="M 44.738 49.263 L 44.356 48.881 L 42.385 50.851 L 43.897 52.364 C 44.253 51.383 44.53 50.344 44.738 49.263" style="fill: rgb(235, 233, 100); fill-opacity: 1; fill-rule: nonzero; stroke: none; display: inline;" id="path618"/>
    <path d="M 44.996 47.609 C 45.095 46.804 45.16 45.981 45.193 45.146 L 44.356 44.308 L 42.385 46.279 L 44.356 48.25 Z" style="fill: rgb(235, 233, 100); fill-opacity: 1; fill-rule: nonzero; stroke: none; display: inline;" id="path622"/>
    <path d="M 39.468 39.42 L 37.496 37.449 L 35.526 39.42 L 37.496 41.391 Z" style="fill: rgb(235, 233, 100); fill-opacity: 1; fill-rule: nonzero; stroke: none; display: inline;" id="path626"/>
    <path d="M 41.754 37.134 L 39.783 35.163 L 37.813 37.134 L 39.783 39.105 Z" style="fill: rgb(235, 233, 100); fill-opacity: 1; fill-rule: nonzero; stroke: none; display: inline;" id="path630"/>
    <path d="M 43.746 35.141 C 43.628 34.814 43.5 34.492 43.366 34.174 L 42.07 32.876 L 40.099 34.848 L 42.07 36.818 Z" style="fill: rgb(235, 233, 100); fill-opacity: 1; fill-rule: nonzero; stroke: none; display: inline;" id="path634"/>
    <path d="M 44.734 38.725 C 44.526 37.66 44.252 36.616 43.91 35.609 L 42.385 37.134 L 44.355 39.105 Z" style="fill: rgb(235, 233, 100); fill-opacity: 1; fill-rule: nonzero; stroke: none; display: inline;" id="path638"/>
    <path d="M 44.832 39.259 L 44.671 39.42 L 44.896 39.645 C 44.876 39.516 44.854 39.387 44.832 39.259" style="fill: rgb(235, 233, 100); fill-opacity: 1; fill-rule: nonzero; stroke: none; display: inline;" id="path642"/>
    <path d="M 32.609 46.279 L 30.638 44.308 L 28.667 46.279 L 30.638 48.25 Z" style="fill: rgb(235, 233, 100); fill-opacity: 1; fill-rule: nonzero; stroke: none; display: inline;" id="path646"/>
    <path d="M 37.181 41.706 L 35.21 39.735 L 33.239 41.706 L 35.21 43.677 Z" style="fill: rgb(235, 233, 100); fill-opacity: 1; fill-rule: nonzero; stroke: none; display: inline;" id="path650"/>
    <path d="M 30.322 53.138 L 28.351 51.166 L 26.381 53.138 L 28.351 55.109 Z" style="fill: rgb(235, 233, 100); fill-opacity: 1; fill-rule: nonzero; stroke: none; display: inline;" id="path654"/>
    <path d="M 28.351 46.594 L 26.38 48.565 L 28.351 50.535 L 30.322 48.565 Z" style="fill: rgb(235, 233, 100); fill-opacity: 1; fill-rule: nonzero; stroke: none; display: inline;" id="path658"/>
    <path d="M 39.783 29.959 L 40.39 29.353 C 39.761 28.651 39.07 28.022 38.319 27.482 L 37.812 27.988 Z" style="fill: rgb(235, 233, 100); fill-opacity: 1; fill-rule: nonzero; stroke: none; display: inline;" id="path662"/>
    <path d="M 34.895 43.993 L 32.924 42.022 L 30.953 43.993 L 32.924 45.964 Z" style="fill: rgb(235, 233, 100); fill-opacity: 1; fill-rule: nonzero; stroke: none; display: inline;" id="path666"/>
    <path d="M 28.351 55.739 L 26.38 57.71 L 28.351 59.681 L 30.322 57.71 Z" style="fill: rgb(235, 233, 100); fill-opacity: 1; fill-rule: nonzero; stroke: none; display: inline;" id="path670"/>
    <path d="M 37.181 46.279 L 35.21 44.308 L 33.239 46.279 L 35.21 48.25 Z" style="fill: rgb(235, 233, 100); fill-opacity: 1; fill-rule: nonzero; stroke: none; display: inline;" id="path674"/>
    <path d="M 30.638 48.88 L 28.667 50.852 L 30.638 52.822 L 32.609 50.852 Z" style="fill: rgb(235, 233, 100); fill-opacity: 1; fill-rule: nonzero; stroke: none; display: inline;" id="path678"/>
    <path d="M 34.895 48.565 L 32.924 46.594 L 30.953 48.565 L 32.924 50.536 Z" style="fill: rgb(235, 233, 100); fill-opacity: 1; fill-rule: nonzero; stroke: none; display: inline;" id="path682"/>
    <path d="M 41.754 41.706 L 39.783 39.735 L 37.813 41.706 L 39.783 43.677 Z" style="fill: rgb(235, 233, 100); fill-opacity: 1; fill-rule: nonzero; stroke: none; display: inline;" id="path686"/>
    <path d="M 39.468 43.993 L 37.496 42.022 L 35.526 43.993 L 37.496 45.964 Z" style="fill: rgb(235, 233, 100); fill-opacity: 1; fill-rule: nonzero; stroke: none; display: inline;" id="path690"/>
    <path d="M 32.609 55.424 L 30.638 53.453 L 28.667 55.424 L 30.638 57.395 Z" style="fill: rgb(235, 233, 100); fill-opacity: 1; fill-rule: nonzero; stroke: none; display: inline;" id="path694"/>
    <path d="M 26.065 58.026 L 24.847 59.245 C 25.701 59.711 26.654 60.073 27.71 60.323 L 28.036 59.997 Z" style="fill: rgb(235, 233, 100); fill-opacity: 1; fill-rule: nonzero; stroke: none; display: inline;" id="path698"/>
    <path d="M 23.463 55.424 L 21.492 53.453 L 20.446 54.5 C 20.881 55.387 21.393 56.19 21.988 56.9 Z" style="fill: rgb(235, 233, 100); fill-opacity: 1; fill-rule: nonzero; stroke: none; display: inline;" id="path702"/>
    <path d="M 44.04 39.42 L 42.069 37.449 L 40.099 39.42 L 42.069 41.391 Z" style="fill: rgb(235, 233, 100); fill-opacity: 1; fill-rule: nonzero; stroke: none; display: inline;" id="path706"/>
    <path d="M 28.529 60.49 L 28.352 60.312 L 28.229 60.434 C 28.328 60.454 28.428 60.472 28.529 60.49" style="fill: rgb(235, 233, 100); fill-opacity: 1; fill-rule: nonzero; stroke: none; display: inline;" id="path710"/>
    <path d="M 19.276 51.236 C 19.534 52.255 19.854 53.201 20.245 54.071 L 21.178 53.138 Z" style="fill: rgb(235, 233, 100); fill-opacity: 1; fill-rule: nonzero; stroke: none; display: inline;" id="path714"/>
    <path d="M 37.078 18.976 C 38.528 14.781 45.22 10.842 45.22 10.842 C 39.867 11.354 36.799 14.167 36.799 14.167 C 37.022 9.564 40.369 3.783 40.369 3.783 C 34.792 6.699 33.343 13.144 33.343 13.144 C 32.952 9.41 33.343 1.993 33.343 1.993 C 29.941 4.653 29.718 12.48 29.718 12.48 C 27.208 5.472 21.13 3.681 21.13 3.681 C 24.81 6.955 28.992 18.822 28.992 18.822 C 26.037 13.758 20.349 13.656 20.349 13.656 C 23.974 15.804 27.822 23.221 27.822 23.221 C 25.312 20.919 21.464 22.25 21.464 22.25 C 24.29 23.202 26.247 25.007 27.062 25.865 C 27.531 25.621 31.397 23.758 36.438 25.89 C 36.439 25.89 36.439 25.89 36.439 25.891 C 38.185 24.33 41.205 24.142 41.205 24.142 C 39.477 22.812 36.911 23.272 36.911 23.272 C 38.64 19.487 43.826 19.999 43.826 19.999 C 40.424 17.697 37.078 18.976 37.078 18.976" style="fill: rgb(95, 168, 168); fill-opacity: 1; fill-rule: nonzero; stroke: none; display: inline;" id="path718"/>
  </g>
</svg>