<?xml version="1.0" encoding="utf-8"?>
<svg viewBox="0 0 64 64" xmlns="http://www.w3.org/2000/svg">
  <g transform="matrix(1.317319, 0, 0, 1.317319, -5.634486, -10.048821)">
    <path id="path2410" style="fill:#c2e6fb;fill-opacity:1;fill-rule:nonzero;stroke:none" d="M 14.503 28.052 L 39.728 54.995 C 39.971 55.254 40.405 55.123 40.463 54.773 L 46.751 17.047 L 29.067 17.666 Z"/>
    <path id="path2414" style="fill:#000000;fill-opacity:1;fill-rule:nonzero;stroke:none" d="M 14.771 28.078 L 39.857 54.874 C 39.924 54.945 40.021 54.971 40.114 54.942 C 40.207 54.914 40.272 54.84 40.288 54.744 L 46.54 17.233 L 29.126 17.84 Z M 40.039 55.308 C 39.875 55.308 39.715 55.241 39.598 55.116 L 14.235 28.025 L 29.007 17.49 L 29.06 17.488 L 46.962 16.863 L 46.926 17.077 L 40.638 54.802 C 40.6 55.031 40.439 55.214 40.217 55.282 C 40.158 55.3 40.098 55.308 40.039 55.308"/>
    <path id="path2418" style="fill:#facec1;fill-opacity:1;fill-rule:nonzero;stroke:none" d="M 10.443 20.191 C 20.613 12.815 33.572 9.072 45.44 8.726 C 46.74 8.689 47.761 9.83 47.581 11.117 L 46.751 17.048 C 32.637 18.479 26.616 19.434 14.503 28.052 L 10.136 23.31 C 9.288 22.387 9.428 20.927 10.443 20.191"/>
    <path id="path2422" style="fill:#000000;fill-opacity:1;fill-rule:nonzero;stroke:none" d="M 45.502 8.903 C 45.484 8.903 45.465 8.903 45.446 8.903 C 32.775 9.273 20.054 13.439 10.548 20.335 C 10.106 20.655 9.823 21.149 9.768 21.693 C 9.713 22.24 9.895 22.785 10.267 23.19 L 14.527 27.816 C 26.63 19.23 32.785 18.288 46.594 16.885 L 47.405 11.092 C 47.484 10.53 47.311 9.965 46.933 9.542 C 46.567 9.134 46.048 8.903 45.502 8.903 M 14.478 28.287 L 10.006 23.43 C 9.566 22.951 9.35 22.305 9.415 21.658 C 9.479 21.014 9.816 20.427 10.339 20.048 C 19.902 13.112 32.695 8.92 45.436 8.549 C 46.104 8.532 46.748 8.805 47.197 9.305 C 47.645 9.807 47.85 10.476 47.757 11.142 L 46.907 17.21 L 46.769 17.224 C 32.88 18.633 26.759 19.549 14.606 28.196 Z"/>
    <path id="path2426" style="fill:#b21e4c;fill-opacity:1;fill-rule:nonzero;stroke:none" d="M 41.323 29.936 C 42.08 32.155 40.895 34.567 38.677 35.324 C 36.458 36.081 34.046 34.896 33.289 32.677 C 32.532 30.459 33.716 28.047 35.935 27.29 C 38.154 26.533 40.566 27.718 41.323 29.936"/>
    <path id="path2430" style="fill:#000000;fill-opacity:1;fill-rule:nonzero;stroke:none" d="M 37.302 27.24 C 36.867 27.24 36.426 27.31 35.992 27.458 C 34.964 27.808 34.134 28.539 33.655 29.514 C 33.177 30.489 33.106 31.592 33.457 32.62 C 33.808 33.648 34.538 34.479 35.513 34.957 C 36.488 35.436 37.591 35.506 38.619 35.156 C 40.742 34.432 41.879 32.115 41.156 29.993 C 40.579 28.305 38.995 27.24 37.302 27.24 M 37.31 35.729 C 35.47 35.729 33.747 34.571 33.121 32.735 C 32.74 31.617 32.816 30.418 33.337 29.358 C 33.858 28.297 34.76 27.503 35.878 27.122 C 38.184 26.337 40.703 27.571 41.491 29.879 C 42.279 32.186 41.041 34.704 38.734 35.492 C 38.262 35.652 37.782 35.729 37.31 35.729"/>
    <path id="path2434" style="fill:#b21e4c;fill-opacity:1;fill-rule:nonzero;stroke:none" d="M 41.665 47.814 C 40 47.487 38.625 46.173 38.305 44.402 C 37.889 42.095 39.42 39.888 41.727 39.471 C 42.18 39.389 42.628 39.382 43.061 39.442"/>
    <path id="path2438" style="fill:#000000;fill-opacity:1;fill-rule:nonzero;stroke:none" d="M 41.632 47.988 C 39.831 47.635 38.456 46.239 38.131 44.434 C 37.697 42.034 39.297 39.73 41.695 39.297 C 42.157 39.212 42.624 39.202 43.085 39.266 L 43.036 39.617 C 42.614 39.559 42.184 39.569 41.758 39.645 C 39.552 40.044 38.081 42.164 38.48 44.371 C 38.78 46.032 40.044 47.315 41.7 47.641 Z"/>
    <path id="path2442" style="fill:#b21e4c;fill-opacity:1;fill-rule:nonzero;stroke:none" d="M 45.181 26.687 C 43.516 26.36 42.141 25.046 41.821 23.274 C 41.404 20.968 42.937 18.76 45.244 18.343 C 45.696 18.262 46.144 18.255 46.577 18.314"/>
    <path id="path2446" style="fill:#000000;fill-opacity:1;fill-rule:nonzero;stroke:none" d="M 45.147 26.86 C 43.347 26.507 41.973 25.112 41.646 23.306 C 41.437 22.144 41.692 20.969 42.365 19.999 C 43.038 19.029 44.05 18.379 45.212 18.169 C 45.674 18.085 46.141 18.075 46.602 18.139 L 46.553 18.49 C 46.13 18.432 45.7 18.441 45.276 18.518 C 44.206 18.711 43.276 19.309 42.656 20.201 C 42.037 21.094 41.802 22.175 41.996 23.243 C 42.296 24.904 43.56 26.188 45.215 26.513 Z"/>
    <path id="path2450" style="fill:#b21e4c;fill-opacity:1;fill-rule:nonzero;stroke:none" d="M 29.703 27.241 C 30.46 29.46 29.275 31.872 27.056 32.629 C 24.838 33.386 22.426 32.201 21.669 29.983 C 20.912 27.765 22.096 25.352 24.315 24.595 C 26.534 23.838 28.946 25.023 29.703 27.241"/>
    <path id="path2454" style="fill:#000000;fill-opacity:1;fill-rule:nonzero;stroke:none" d="M 25.682 24.544 C 25.248 24.544 24.806 24.615 24.372 24.763 C 22.249 25.487 21.112 27.803 21.837 29.926 C 22.188 30.954 22.918 31.784 23.893 32.263 C 24.868 32.741 25.971 32.813 26.999 32.461 C 29.122 31.737 30.26 29.421 29.535 27.299 C 28.959 25.609 27.375 24.544 25.682 24.544 M 25.682 33.036 C 25.016 33.036 24.353 32.883 23.736 32.581 C 22.676 32.06 21.883 31.158 21.501 30.04 C 20.714 27.733 21.95 25.214 24.258 24.427 C 26.566 23.64 29.084 24.877 29.871 27.184 C 30.252 28.302 30.175 29.501 29.655 30.561 C 29.134 31.621 28.231 32.415 27.114 32.797 C 26.645 32.956 26.163 33.036 25.682 33.036"/>
    <path id="path2458" style="fill:#b21e4c;fill-opacity:1;fill-rule:nonzero;stroke:none" d="M 25.489 39.599 C 25.983 38.948 26.669 38.431 27.501 38.147 C 29.72 37.39 32.132 38.575 32.889 40.793 C 33.523 42.652 32.794 44.647 31.236 45.69"/>
    <path id="path2462" style="fill:#000000;fill-opacity:1;fill-rule:nonzero;stroke:none" d="M 31.335 45.837 L 31.137 45.543 C 32.664 44.52 33.314 42.591 32.721 40.85 C 32.37 39.823 31.64 38.992 30.665 38.514 C 29.69 38.034 28.587 37.963 27.558 38.315 C 26.786 38.578 26.12 39.059 25.631 39.706 L 25.348 39.492 C 25.88 38.789 26.605 38.265 27.444 37.979 C 28.562 37.597 29.76 37.675 30.821 38.195 C 31.881 38.716 32.675 39.618 33.056 40.736 C 33.702 42.629 32.995 44.726 31.335 45.837"/>
    <path id="path2466" style="fill:#ffffff;fill-opacity:1;fill-rule:nonzero;stroke:none" d="M 32.843 24.964 L 33.87 23.788"/>
    <path id="path2470" style="fill:#02642e;fill-opacity:1;fill-rule:nonzero;stroke:none" d="M 32.843 25.141 C 32.801 25.141 32.76 25.126 32.726 25.097 C 32.652 25.033 32.645 24.921 32.71 24.847 L 33.736 23.672 C 33.801 23.598 33.914 23.591 33.986 23.655 C 34.06 23.72 34.067 23.832 34.003 23.905 L 32.976 25.081 C 32.941 25.121 32.892 25.141 32.843 25.141"/>
    <path id="path2474" style="fill:#ffffff;fill-opacity:1;fill-rule:nonzero;stroke:none" d="M 28.003 22.172 L 29.51 22.581"/>
    <path id="path2478" style="fill:#02642e;fill-opacity:1;fill-rule:nonzero;stroke:none" d="M 29.51 22.758 C 29.495 22.758 29.479 22.756 29.463 22.751 L 27.957 22.343 C 27.862 22.317 27.807 22.22 27.833 22.125 C 27.858 22.031 27.954 21.977 28.05 22 L 29.556 22.41 C 29.651 22.435 29.706 22.532 29.68 22.627 C 29.659 22.706 29.588 22.758 29.51 22.758"/>
    <path id="path2482" style="fill:#ffffff;fill-opacity:1;fill-rule:nonzero;stroke:none" d="M 26.252 35.079 L 27.758 35.488"/>
    <path id="path2486" style="fill:#02642e;fill-opacity:1;fill-rule:nonzero;stroke:none" d="M 27.758 35.665 C 27.743 35.665 27.728 35.663 27.712 35.659 L 26.206 35.25 C 26.111 35.224 26.056 35.127 26.081 35.032 C 26.107 34.938 26.204 34.884 26.298 34.908 L 27.804 35.317 C 27.899 35.342 27.955 35.44 27.929 35.534 C 27.908 35.613 27.836 35.665 27.758 35.665"/>
    <path id="path2490" style="fill:#ffffff;fill-opacity:1;fill-rule:nonzero;stroke:none" d="M 31.676 32.935 L 31.543 34.49"/>
    <path id="path2494" style="fill:#02642e;fill-opacity:1;fill-rule:nonzero;stroke:none" d="M 31.543 34.667 C 31.538 34.667 31.532 34.667 31.527 34.666 C 31.43 34.658 31.358 34.572 31.366 34.475 L 31.499 32.919 C 31.508 32.821 31.595 32.751 31.691 32.758 C 31.788 32.766 31.861 32.852 31.853 32.95 L 31.72 34.505 C 31.711 34.598 31.634 34.667 31.543 34.667"/>
    <path id="path2498" style="fill:#ffffff;fill-opacity:1;fill-rule:nonzero;stroke:none" d="M 34.445 37.807 L 32.884 37.771"/>
    <path id="path2502" style="fill:#02642e;fill-opacity:1;fill-rule:nonzero;stroke:none" d="M 34.445 37.985 L 34.441 37.985 L 32.88 37.948 C 32.782 37.945 32.705 37.864 32.707 37.766 C 32.71 37.669 32.791 37.586 32.888 37.593 L 34.449 37.63 C 34.547 37.632 34.624 37.714 34.622 37.812 C 34.62 37.908 34.541 37.985 34.445 37.985"/>
    <path id="path2506" style="fill:#ffffff;fill-opacity:1;fill-rule:nonzero;stroke:none" d="M 38.949 39.219 L 37.389 39.182"/>
    <path id="path2510" style="fill:#02642e;fill-opacity:1;fill-rule:nonzero;stroke:none" d="M 38.949 39.396 L 38.945 39.396 L 37.384 39.359 C 37.287 39.357 37.209 39.275 37.211 39.177 C 37.214 39.079 37.306 39.014 37.393 39.004 L 38.953 39.042 C 39.051 39.044 39.128 39.126 39.126 39.223 C 39.124 39.32 39.045 39.396 38.949 39.396"/>
    <path id="path2514" style="fill:#ffffff;fill-opacity:1;fill-rule:nonzero;stroke:none" d="M 21.498 31.649 L 19.937 31.612"/>
    <path id="path2518" style="fill:#02642e;fill-opacity:1;fill-rule:nonzero;stroke:none" d="M 21.498 31.826 L 21.493 31.826 L 19.933 31.789 C 19.835 31.786 19.757 31.706 19.76 31.608 C 19.762 31.51 19.851 31.433 19.941 31.435 L 21.502 31.472 C 21.6 31.474 21.677 31.555 21.675 31.653 C 21.673 31.75 21.593 31.826 21.498 31.826"/>
    <path id="path2522" style="fill:#ffffff;fill-opacity:1;fill-rule:nonzero;stroke:none" d="M 39.739 19.231 L 39.606 20.786"/>
    <path id="path2526" style="fill:#02642e;fill-opacity:1;fill-rule:nonzero;stroke:none" d="M 39.605 20.963 C 39.6 20.963 39.595 20.963 39.59 20.962 C 39.493 20.954 39.42 20.868 39.429 20.771 L 39.562 19.216 C 39.571 19.118 39.644 19.049 39.754 19.054 C 39.852 19.063 39.924 19.149 39.915 19.246 L 39.782 20.801 C 39.774 20.894 39.697 20.963 39.605 20.963"/>
    <path id="path2530" style="fill:#ffffff;fill-opacity:1;fill-rule:nonzero;stroke:none" d="M 19.063 26.783 L 18.93 28.338"/>
    <path id="path2534" style="fill:#02642e;fill-opacity:1;fill-rule:nonzero;stroke:none" d="M 18.93 28.515 C 18.925 28.515 18.92 28.515 18.915 28.514 C 18.817 28.506 18.745 28.42 18.753 28.323 L 18.886 26.768 C 18.895 26.67 18.985 26.604 19.078 26.606 C 19.175 26.615 19.248 26.7 19.24 26.798 L 19.107 28.353 C 19.098 28.446 19.021 28.515 18.93 28.515"/>
    <path id="path2538" style="fill:#ffffff;fill-opacity:1;fill-rule:nonzero;stroke:none" d="M 35.981 42.825 L 35.848 44.38"/>
    <path id="path2542" style="fill:#02642e;fill-opacity:1;fill-rule:nonzero;stroke:none" d="M 35.847 44.557 C 35.842 44.557 35.837 44.557 35.832 44.556 C 35.734 44.548 35.662 44.462 35.671 44.365 L 35.804 42.81 C 35.812 42.712 35.89 42.645 35.996 42.648 C 36.094 42.657 36.166 42.743 36.157 42.84 L 36.024 44.395 C 36.016 44.488 35.939 44.557 35.847 44.557"/>
    <path id="path2546" style="fill:#ffffff;fill-opacity:1;fill-rule:nonzero;stroke:none" d="M 41.991 36.123 L 40.461 36.432"/>
    <path id="path2550" style="fill:#02642e;fill-opacity:1;fill-rule:nonzero;stroke:none" d="M 40.461 36.609 C 40.378 36.609 40.305 36.551 40.287 36.467 C 40.268 36.371 40.33 36.277 40.426 36.258 L 41.955 35.949 C 42.05 35.929 42.145 35.992 42.164 36.088 C 42.184 36.184 42.122 36.277 42.026 36.297 L 40.497 36.606 C 40.485 36.608 40.473 36.609 40.461 36.609"/>
    <path id="path2554" style="fill:#ffffff;fill-opacity:1;fill-rule:nonzero;stroke:none" d="M 39.353 24.162 L 37.823 24.471"/>
    <path id="path2558" style="fill:#02642e;fill-opacity:1;fill-rule:nonzero;stroke:none" d="M 37.823 24.648 C 37.74 24.648 37.666 24.59 37.649 24.505 C 37.63 24.41 37.692 24.316 37.787 24.297 L 39.317 23.988 C 39.411 23.967 39.506 24.031 39.526 24.127 C 39.546 24.223 39.484 24.317 39.388 24.336 L 37.858 24.644 C 37.846 24.647 37.835 24.648 37.823 24.648"/>
    <path id="path2562" style="fill:#ffffff;fill-opacity:1;fill-rule:nonzero;stroke:none" d="M 38.864 48.877 L 37.334 49.185"/>
    <path id="path2566" style="fill:#02642e;fill-opacity:1;fill-rule:nonzero;stroke:none" d="M 37.334 49.363 C 37.251 49.363 37.177 49.305 37.16 49.22 C 37.141 49.124 37.203 49.031 37.298 49.012 L 38.828 48.703 C 38.922 48.683 39.017 48.746 39.037 48.842 C 39.057 48.938 38.995 49.032 38.899 49.051 L 37.369 49.359 C 37.357 49.362 37.346 49.363 37.334 49.363"/>
    <path id="path2570" style="fill:#f3944e;fill-opacity:1;fill-rule:nonzero;stroke:none" d="M 26.101 26.657 C 26.23 27.036 26.028 27.448 25.649 27.578 C 25.27 27.707 24.858 27.505 24.728 27.125 C 24.599 26.746 24.801 26.334 25.181 26.205 C 25.559 26.076 25.971 26.278 26.101 26.657"/>
    <path id="path2574" style="fill:#000000;fill-opacity:1;fill-rule:nonzero;stroke:none" d="M 25.415 26.343 C 25.356 26.343 25.296 26.353 25.238 26.373 C 25.1 26.42 24.988 26.518 24.923 26.649 C 24.859 26.781 24.849 26.93 24.896 27.068 C 24.944 27.207 25.042 27.318 25.173 27.383 C 25.305 27.447 25.454 27.457 25.592 27.41 C 25.878 27.312 26.031 27 25.933 26.714 C 25.886 26.576 25.788 26.464 25.656 26.4 C 25.58 26.362 25.498 26.343 25.415 26.343 M 25.414 27.794 C 25.278 27.794 25.143 27.763 25.017 27.701 C 24.8 27.595 24.639 27.41 24.561 27.183 C 24.483 26.954 24.498 26.71 24.605 26.493 C 24.711 26.277 24.895 26.115 25.123 26.037 C 25.352 25.96 25.597 25.975 25.813 26.081 C 26.029 26.188 26.191 26.372 26.269 26.6 C 26.429 27.071 26.177 27.584 25.706 27.746 C 25.61 27.778 25.512 27.794 25.414 27.794"/>
    <path id="path2578" style="fill:#f3944e;fill-opacity:1;fill-rule:nonzero;stroke:none" d="M 25.948 30.698 C 26.077 31.077 25.875 31.489 25.495 31.618 C 25.117 31.747 24.705 31.545 24.575 31.167 C 24.446 30.787 24.648 30.375 25.027 30.246 C 25.406 30.116 25.818 30.319 25.948 30.698"/>
    <path id="path2582" style="fill:#000000;fill-opacity:1;fill-rule:nonzero;stroke:none" d="M 25.262 30.384 C 25.203 30.384 25.143 30.394 25.085 30.414 C 24.946 30.461 24.834 30.559 24.77 30.69 C 24.705 30.822 24.696 30.971 24.743 31.109 C 24.79 31.248 24.889 31.359 25.02 31.424 C 25.152 31.488 25.3 31.498 25.439 31.451 C 25.724 31.353 25.878 31.041 25.78 30.755 C 25.733 30.617 25.634 30.505 25.503 30.441 C 25.427 30.403 25.345 30.384 25.262 30.384 M 25.261 31.835 C 25.125 31.835 24.989 31.804 24.864 31.742 C 24.647 31.636 24.485 31.451 24.407 31.224 C 24.33 30.995 24.345 30.751 24.452 30.534 C 24.558 30.318 24.742 30.156 24.97 30.078 C 25.199 30 25.443 30.016 25.659 30.122 C 25.876 30.228 26.037 30.412 26.115 30.64 L 26.116 30.641 C 26.276 31.112 26.024 31.625 25.553 31.787 C 25.457 31.819 25.359 31.835 25.261 31.835"/>
    <path id="path2586" style="fill:#f3944e;fill-opacity:1;fill-rule:nonzero;stroke:none" d="M 28.432 28.998 C 28.561 29.377 28.359 29.789 27.98 29.918 C 27.601 30.047 27.189 29.845 27.059 29.466 C 26.93 29.087 27.132 28.675 27.512 28.546 C 27.89 28.416 28.302 28.619 28.432 28.998"/>
    <path id="path2590" style="fill:#000000;fill-opacity:1;fill-rule:nonzero;stroke:none" d="M 27.745 28.684 C 27.687 28.684 27.627 28.694 27.569 28.714 C 27.431 28.761 27.319 28.859 27.254 28.99 C 27.19 29.122 27.18 29.27 27.228 29.409 C 27.275 29.547 27.373 29.659 27.504 29.724 C 27.636 29.789 27.785 29.798 27.923 29.751 C 28.061 29.703 28.173 29.604 28.238 29.473 C 28.302 29.342 28.311 29.193 28.264 29.055 C 28.187 28.828 27.973 28.684 27.745 28.684 M 27.745 30.135 C 27.609 30.135 27.474 30.104 27.348 30.042 C 27.132 29.936 26.97 29.751 26.892 29.524 C 26.814 29.295 26.829 29.051 26.936 28.834 C 27.042 28.618 27.226 28.456 27.455 28.378 C 27.684 28.3 27.928 28.316 28.144 28.422 C 28.36 28.528 28.522 28.712 28.6 28.94 L 28.6 28.941 C 28.677 29.169 28.662 29.414 28.556 29.629 C 28.45 29.846 28.265 30.008 28.037 30.086 C 27.941 30.119 27.843 30.135 27.745 30.135"/>
    <path id="path2594" style="fill:#f3944e;fill-opacity:1;fill-rule:nonzero;stroke:none" d="M 39.681 29.087 C 39.81 29.467 39.607 29.879 39.228 30.008 C 38.849 30.137 38.437 29.935 38.308 29.556 C 38.179 29.177 38.381 28.765 38.76 28.636 C 39.139 28.506 39.551 28.709 39.681 29.087"/>
    <path id="path2598" style="fill:#000000;fill-opacity:1;fill-rule:nonzero;stroke:none" d="M 38.994 28.774 C 38.935 28.774 38.875 28.783 38.817 28.804 C 38.679 28.851 38.567 28.949 38.503 29.08 C 38.439 29.212 38.429 29.36 38.476 29.499 C 38.523 29.637 38.622 29.749 38.752 29.813 C 38.884 29.878 39.032 29.888 39.171 29.84 C 39.457 29.743 39.61 29.431 39.513 29.144 C 39.435 28.917 39.221 28.774 38.994 28.774 M 38.993 30.224 C 38.857 30.224 38.722 30.193 38.595 30.131 C 38.38 30.025 38.218 29.841 38.141 29.613 C 38.063 29.385 38.078 29.141 38.184 28.924 C 38.29 28.707 38.475 28.546 38.702 28.468 C 39.173 28.308 39.688 28.56 39.848 29.03 L 39.848 29.03 C 40.009 29.502 39.756 30.015 39.286 30.176 C 39.19 30.208 39.092 30.224 38.993 30.224"/>
    <path id="path2602" style="fill:#f3944e;fill-opacity:1;fill-rule:nonzero;stroke:none" d="M 36.356 30.01 C 36.486 30.389 36.283 30.801 35.904 30.931 C 35.525 31.06 35.113 30.857 34.983 30.478 C 34.854 30.099 35.057 29.687 35.436 29.558 C 35.814 29.429 36.226 29.631 36.356 30.01"/>
    <path id="path2606" style="fill:#000000;fill-opacity:1;fill-rule:nonzero;stroke:none" d="M 35.669 29.696 C 35.611 29.696 35.551 29.706 35.493 29.726 C 35.355 29.773 35.242 29.872 35.178 30.003 C 35.114 30.134 35.104 30.283 35.152 30.42 C 35.199 30.559 35.298 30.671 35.428 30.736 C 35.561 30.801 35.708 30.81 35.846 30.763 C 35.985 30.715 36.097 30.617 36.161 30.486 C 36.226 30.355 36.236 30.206 36.188 30.067 L 36.188 30.067 C 36.111 29.84 35.897 29.696 35.669 29.696 M 35.669 31.147 C 35.533 31.147 35.398 31.116 35.272 31.054 C 35.056 30.948 34.893 30.764 34.816 30.535 C 34.738 30.308 34.754 30.063 34.86 29.846 C 34.966 29.631 35.151 29.468 35.378 29.39 C 35.847 29.23 36.363 29.481 36.524 29.952 C 36.602 30.181 36.586 30.426 36.48 30.642 C 36.373 30.859 36.189 31.02 35.961 31.098 C 35.866 31.131 35.767 31.147 35.669 31.147"/>
    <path id="path2610" style="fill:#f3944e;fill-opacity:1;fill-rule:nonzero;stroke:none" d="M 38.752 33.3 C 38.882 33.679 38.679 34.091 38.3 34.22 C 37.921 34.349 37.509 34.147 37.379 33.769 C 37.251 33.389 37.453 32.977 37.832 32.848 C 38.21 32.718 38.622 32.921 38.752 33.3"/>
    <path id="path2614" style="fill:#000000;fill-opacity:1;fill-rule:nonzero;stroke:none" d="M 38.067 32.986 C 38.007 32.986 37.947 32.996 37.889 33.016 C 37.604 33.113 37.45 33.425 37.548 33.711 C 37.645 33.997 37.957 34.15 38.242 34.053 C 38.381 34.005 38.493 33.907 38.557 33.775 C 38.622 33.644 38.632 33.496 38.584 33.357 C 38.537 33.219 38.438 33.107 38.308 33.043 C 38.231 33.005 38.149 32.986 38.067 32.986 M 38.067 34.436 C 37.691 34.436 37.34 34.2 37.212 33.826 C 37.052 33.354 37.304 32.841 37.774 32.68 C 38.003 32.602 38.249 32.618 38.464 32.724 C 38.68 32.83 38.842 33.014 38.92 33.242 L 38.92 33.243 C 38.998 33.471 38.982 33.716 38.876 33.932 C 38.769 34.148 38.585 34.311 38.357 34.389 C 38.261 34.421 38.163 34.436 38.067 34.436"/>
    <path id="path2618" style="fill:#f3944e;fill-opacity:1;fill-rule:nonzero;stroke:none" d="M 44.467 21.156 C 44.596 21.535 44.393 21.947 44.014 22.076 C 43.635 22.206 43.223 22.003 43.094 21.625 C 42.965 21.245 43.167 20.833 43.546 20.704 C 43.925 20.575 44.337 20.777 44.467 21.156"/>
    <path id="path2622" style="fill:#000000;fill-opacity:1;fill-rule:nonzero;stroke:none" d="M 43.78 20.842 C 43.721 20.842 43.662 20.852 43.604 20.872 C 43.465 20.919 43.353 21.018 43.289 21.149 C 43.224 21.28 43.214 21.429 43.262 21.567 C 43.36 21.853 43.67 22.008 43.957 21.909 C 44.243 21.811 44.396 21.499 44.299 21.213 C 44.221 20.986 44.007 20.842 43.78 20.842 M 43.782 22.292 C 43.406 22.292 43.055 22.056 42.926 21.682 C 42.848 21.454 42.864 21.209 42.97 20.992 C 43.077 20.776 43.261 20.614 43.49 20.536 C 43.717 20.458 43.963 20.474 44.178 20.58 C 44.394 20.686 44.557 20.871 44.634 21.098 L 44.634 21.099 C 44.795 21.569 44.543 22.083 44.072 22.244 C 43.975 22.277 43.878 22.292 43.782 22.292"/>
    <path id="path2626" style="fill:#f3944e;fill-opacity:1;fill-rule:nonzero;stroke:none" d="M 41.879 42.464 C 42.009 42.843 41.806 43.255 41.427 43.384 C 41.048 43.513 40.636 43.311 40.507 42.932 C 40.378 42.553 40.58 42.141 40.959 42.012 C 41.338 41.882 41.75 42.085 41.879 42.464"/>
    <path id="path2630" style="fill:#000000;fill-opacity:1;fill-rule:nonzero;stroke:none" d="M 41.193 42.15 C 41.134 42.15 41.075 42.16 41.017 42.18 C 40.878 42.227 40.766 42.325 40.702 42.456 C 40.637 42.588 40.627 42.737 40.675 42.875 C 40.772 43.161 41.085 43.314 41.37 43.217 C 41.655 43.119 41.809 42.807 41.711 42.521 C 41.633 42.294 41.42 42.15 41.193 42.15 M 41.194 43.6 C 40.819 43.6 40.468 43.364 40.339 42.99 C 40.261 42.761 40.277 42.517 40.383 42.3 C 40.49 42.084 40.674 41.922 40.902 41.844 C 41.131 41.766 41.376 41.782 41.591 41.888 C 41.807 41.994 41.97 42.178 42.047 42.406 L 42.047 42.407 C 42.208 42.877 41.955 43.391 41.485 43.552 C 41.388 43.585 41.291 43.6 41.194 43.6"/>
    <path id="path2634" style="fill:#f3944e;fill-opacity:1;fill-rule:nonzero;stroke:none" d="M 30.978 40.434 C 31.107 40.812 30.905 41.225 30.526 41.354 C 30.147 41.483 29.735 41.281 29.605 40.902 C 29.476 40.523 29.679 40.111 30.058 39.981 C 30.437 39.852 30.849 40.054 30.978 40.434"/>
    <path id="path2638" style="fill:#000000;fill-opacity:1;fill-rule:nonzero;stroke:none" d="M 30.291 40.12 C 30.232 40.12 30.173 40.129 30.115 40.15 C 29.829 40.247 29.676 40.559 29.773 40.844 C 29.821 40.983 29.919 41.095 30.051 41.16 C 30.182 41.225 30.331 41.234 30.468 41.187 C 30.607 41.139 30.719 41.041 30.784 40.909 C 30.848 40.778 30.858 40.629 30.81 40.491 C 30.733 40.264 30.519 40.12 30.291 40.12 M 30.291 41.571 C 30.156 41.571 30.02 41.54 29.894 41.478 C 29.678 41.372 29.516 41.187 29.438 40.959 C 29.36 40.731 29.376 40.487 29.482 40.27 C 29.588 40.054 29.773 39.892 30 39.814 C 30.472 39.652 30.985 39.906 31.146 40.377 C 31.224 40.604 31.208 40.849 31.102 41.065 C 30.996 41.282 30.812 41.444 30.583 41.522 C 30.487 41.555 30.39 41.571 30.291 41.571"/>
    <path id="path2642" style="fill:#f3944e;fill-opacity:1;fill-rule:nonzero;stroke:none" d="M 31.446 43.247 C 31.575 43.625 31.373 44.038 30.993 44.167 C 30.615 44.296 30.203 44.094 30.073 43.715 C 29.944 43.336 30.146 42.924 30.525 42.794 C 30.904 42.665 31.316 42.867 31.446 43.247"/>
    <path id="path2646" style="fill:#000000;fill-opacity:1;fill-rule:nonzero;stroke:none" d="M 30.759 42.933 C 30.7 42.933 30.641 42.942 30.582 42.963 C 30.297 43.06 30.143 43.372 30.241 43.658 C 30.288 43.796 30.387 43.908 30.518 43.972 C 30.65 44.038 30.798 44.047 30.936 43.999 C 31.075 43.952 31.187 43.853 31.251 43.722 C 31.315 43.591 31.325 43.442 31.278 43.304 C 31.201 43.076 30.987 42.933 30.759 42.933 M 30.759 44.384 C 30.623 44.384 30.487 44.353 30.362 44.291 C 30.145 44.185 29.984 44 29.905 43.772 C 29.745 43.302 29.997 42.788 30.468 42.627 C 30.937 42.467 31.453 42.718 31.614 43.19 C 31.691 43.417 31.676 43.662 31.569 43.878 C 31.463 44.095 31.279 44.257 31.051 44.335 C 30.955 44.367 30.857 44.384 30.759 44.384"/>
    <path id="path2650" style="fill:#f3944e;fill-opacity:1;fill-rule:nonzero;stroke:none" d="M 44.592 23.768 C 44.722 24.148 44.518 24.56 44.139 24.689 C 43.761 24.818 43.349 24.616 43.219 24.237 C 43.09 23.858 43.292 23.446 43.671 23.316 C 44.05 23.187 44.462 23.389 44.592 23.768"/>
    <path id="path2654" style="fill:#000000;fill-opacity:1;fill-rule:nonzero;stroke:none" d="M 43.905 23.455 C 43.847 23.455 43.787 23.464 43.729 23.485 C 43.59 23.531 43.478 23.63 43.414 23.761 C 43.35 23.892 43.34 24.041 43.387 24.179 C 43.486 24.465 43.8 24.616 44.082 24.521 C 44.22 24.474 44.333 24.375 44.397 24.244 C 44.462 24.113 44.471 23.964 44.424 23.826 C 44.347 23.598 44.133 23.455 43.905 23.455 M 43.905 24.906 C 43.769 24.906 43.633 24.874 43.508 24.813 C 43.292 24.706 43.129 24.522 43.052 24.294 C 42.974 24.066 42.989 23.821 43.095 23.604 C 43.202 23.389 43.387 23.226 43.614 23.148 C 44.086 22.988 44.598 23.24 44.759 23.711 C 44.837 23.939 44.822 24.184 44.715 24.401 C 44.609 24.617 44.425 24.779 44.197 24.857 C 44.101 24.889 44.003 24.906 43.905 24.906"/>
    <path id="path2658" style="fill:#b21e4c;fill-opacity:1;fill-rule:nonzero;stroke:none" d="M 38.887 18.076 C 39.033 19.767 37.846 21.244 36.234 22.041 C 34.132 23.079 31.586 22.217 30.548 20.115 L 30.363 19.706 C 30.363 19.706 32.704 18.912 35.948 18.41 C 39.191 17.908 38.887 18.076 38.887 18.076"/>
    <path id="path2662" style="fill:#000000;fill-opacity:1;fill-rule:nonzero;stroke:none" d="M 30.606 19.814 L 30.71 20.043 C 31.7 22.047 34.141 22.874 36.155 21.882 C 37.809 21.065 38.78 19.674 38.719 18.227 C 38.487 18.237 37.828 18.298 35.975 18.585 C 33.301 19 31.221 19.62 30.606 19.814 M 34.361 22.657 C 32.73 22.657 31.159 21.752 30.389 20.194 L 30.121 19.601 L 30.307 19.538 C 30.33 19.53 32.7 18.734 35.921 18.235 C 38.977 17.761 39.004 17.838 39.063 18.008 L 39.11 18.148 L 39.072 18.172 C 39.158 19.776 38.11 21.311 36.312 22.2 C 35.684 22.51 35.018 22.657 34.361 22.657"/>
    <path id="path2666" style="fill:#f3944e;fill-opacity:1;fill-rule:nonzero;stroke:none" d="M 33.466 19.837 C 33.795 19.608 34.246 19.688 34.475 20.017 C 34.705 20.345 34.624 20.797 34.295 21.026 C 33.967 21.255 33.515 21.175 33.286 20.846 C 33.057 20.517 33.137 20.066 33.466 19.837"/>
    <path id="path2670" style="fill:#000000;fill-opacity:1;fill-rule:nonzero;stroke:none" d="M 33.567 19.982 C 33.319 20.155 33.258 20.497 33.431 20.744 C 33.515 20.865 33.641 20.945 33.785 20.97 C 33.927 20.997 34.074 20.964 34.194 20.88 C 34.314 20.797 34.394 20.672 34.42 20.528 C 34.445 20.383 34.413 20.238 34.33 20.118 C 34.157 19.871 33.816 19.809 33.567 19.982 M 33.882 21.334 C 33.829 21.334 33.776 21.329 33.722 21.319 C 33.485 21.278 33.278 21.145 33.14 20.947 C 32.856 20.539 32.956 19.976 33.365 19.691 C 33.772 19.407 34.336 19.508 34.621 19.915 C 34.759 20.113 34.811 20.352 34.769 20.59 C 34.727 20.827 34.594 21.034 34.396 21.171 C 34.243 21.278 34.065 21.334 33.882 21.334"/>
    <path id="path2674" style="fill:#f3944e;fill-opacity:1;fill-rule:nonzero;stroke:none" d="M 35.942 18.994 C 36.27 18.765 36.723 18.846 36.951 19.174 C 37.18 19.502 37.1 19.954 36.771 20.184 C 36.443 20.412 35.99 20.332 35.762 20.004 C 35.533 19.675 35.613 19.223 35.942 18.994"/>
    <path id="path2678" style="fill:#000000;fill-opacity:1;fill-rule:nonzero;stroke:none" d="M 36.355 19.041 C 36.245 19.041 36.136 19.074 36.043 19.139 C 35.924 19.223 35.843 19.349 35.817 19.493 C 35.792 19.637 35.824 19.782 35.907 19.902 C 35.99 20.022 36.116 20.102 36.26 20.128 C 36.404 20.153 36.548 20.122 36.67 20.038 C 36.789 19.954 36.87 19.829 36.896 19.685 C 36.921 19.541 36.889 19.395 36.806 19.276 C 36.722 19.155 36.597 19.075 36.453 19.049 C 36.421 19.044 36.387 19.041 36.355 19.041 M 36.358 20.491 C 36.305 20.491 36.251 20.487 36.197 20.477 C 35.96 20.434 35.753 20.302 35.617 20.105 C 35.479 19.907 35.426 19.668 35.468 19.43 C 35.511 19.193 35.643 18.986 35.841 18.849 C 36.038 18.71 36.277 18.657 36.515 18.701 C 36.753 18.743 36.959 18.875 37.096 19.072 C 37.234 19.27 37.286 19.51 37.245 19.747 C 37.202 19.985 37.07 20.191 36.872 20.329 C 36.719 20.436 36.541 20.491 36.358 20.491"/>
    <path id="path2682" style="fill:#f3944e;fill-opacity:1;fill-rule:nonzero;stroke:none" d="M 28.612 39.994 C 28.742 40.373 28.539 40.785 28.161 40.914 C 27.781 41.043 27.369 40.841 27.24 40.463 C 27.111 40.083 27.313 39.671 27.692 39.542 C 28.071 39.413 28.483 39.615 28.612 39.994"/>
    <path id="path2686" style="fill:#000000;fill-opacity:1;fill-rule:nonzero;stroke:none" d="M 27.927 39.68 C 27.867 39.68 27.808 39.69 27.75 39.71 C 27.611 39.757 27.499 39.856 27.435 39.987 C 27.37 40.118 27.361 40.267 27.409 40.405 C 27.455 40.544 27.554 40.655 27.685 40.72 C 27.816 40.785 27.965 40.794 28.103 40.747 C 28.389 40.649 28.542 40.337 28.445 40.051 C 28.398 39.913 28.299 39.801 28.168 39.737 C 28.091 39.699 28.01 39.68 27.927 39.68 M 27.925 41.131 C 27.789 41.131 27.655 41.1 27.528 41.038 C 27.312 40.932 27.15 40.748 27.072 40.52 C 26.994 40.292 27.01 40.047 27.116 39.831 C 27.223 39.614 27.407 39.452 27.635 39.374 C 27.864 39.297 28.108 39.313 28.324 39.418 C 28.54 39.524 28.703 39.709 28.781 39.937 C 28.941 40.407 28.688 40.921 28.218 41.082 C 28.122 41.115 28.024 41.131 27.925 41.131"/>
  </g>
</svg>