<?xml version="1.0" encoding="utf-8"?>
<svg viewBox="0 0 64 64" xmlns="http://www.w3.org/2000/svg">
  <path id="path204" style="fill: rgb(255, 255, 255); fill-opacity: 1; fill-rule: nonzero; stroke: none; display: inline;" d="M 31.047 29.979 C 42.826 25.158 53.517 22.816 58.045 23.78 C 58.707 22.792 58.957 21.925 58.677 21.241 C 57.302 17.881 44.238 20.048 29.499 26.081 C 14.76 32.114 3.927 39.728 5.302 43.088 C 5.579 43.762 6.344 44.204 7.483 44.447 C 10.073 40.584 19.31 34.783 31.047 29.979"/>
  <path id="path208" style="fill: rgb(0, 42, 108); fill-opacity: 1; fill-rule: nonzero; stroke: none; display: inline;" d="M 46.712 25.905 C 50.077 34.471 45.863 44.144 37.298 47.509 C 28.732 50.876 19.06 46.661 15.693 38.095 C 12.327 29.529 16.542 19.857 25.107 16.491 C 33.673 13.124 43.346 17.34 46.712 25.905"/>
  <path id="path212" style="fill: rgb(255, 255, 255); fill-opacity: 1; fill-rule: nonzero; stroke: none; display: inline;" d="M 32.953 34.599 C 21.174 39.42 10.484 41.763 5.956 40.798 C 5.294 41.786 5.044 42.654 5.324 43.338 C 6.699 46.697 19.762 44.531 34.501 38.497 C 49.24 32.465 60.073 24.85 58.698 21.491 C 58.422 20.816 57.657 20.375 56.518 20.132 C 53.928 23.995 44.691 29.795 32.953 34.599"/>
</svg>