<?xml version="1.0" encoding="utf-8"?>
<svg viewBox="0 0 64 64" xmlns="http://www.w3.org/2000/svg">
  <g transform="matrix(1, 0, 0, 1, -0.119499, 2.516498)">
    <path id="path26" style="fill:#ffffff;fill-opacity:1;fill-rule:nonzero;stroke:none" d="M 59.279 41.004 C 59.762 37.043 58.022 11.539 32.711 11.539 C 5.274 11.539 4.695 41.004 4.695 41.004 L 12.279 41.004 L 18.382 30.839 L 30.344 26.271 L 42.469 27.865 L 50.343 39.41 L 51.405 41.758 Z"/>
    <path id="path30" style="fill:#181210;fill-opacity:1;fill-rule:nonzero;stroke:none" d="M 59.278 41.004 L 59.286 41.004 Z M 30.345 25.982 C 30.357 25.982 30.37 25.983 30.382 25.984 L 42.507 27.579 C 42.589 27.589 42.663 27.634 42.709 27.702 L 50.582 39.247 L 51.583 41.45 L 59.012 40.738 C 59.196 38.275 58.678 27.375 51.837 19.648 C 47.244 14.459 40.809 11.828 32.711 11.828 C 7.339 11.828 5.164 37.641 4.997 40.715 L 12.115 40.715 L 18.134 30.691 C 18.166 30.635 18.217 30.593 18.278 30.569 L 30.241 26 C 30.274 25.988 30.309 25.982 30.345 25.982 M 51.406 42.049 C 51.292 42.049 51.188 41.982 51.141 41.879 L 50.079 39.53 L 42.303 28.136 L 30.379 26.569 L 18.579 31.075 L 12.527 41.154 C 12.475 41.24 12.381 41.294 12.279 41.294 L 4.695 41.294 C 4.617 41.294 4.542 41.263 4.487 41.207 C 4.433 41.151 4.403 41.076 4.405 40.998 C 4.411 40.701 5.308 11.248 32.711 11.248 C 40.983 11.248 47.563 13.946 52.272 19.263 C 58.946 26.802 59.954 37.863 59.567 41.04 C 59.55 41.174 59.442 41.279 59.306 41.293 L 51.432 42.047 C 51.424 42.049 51.414 42.049 51.406 42.049"/>
    <path id="path34" style="fill:#f9e01a;fill-opacity:1;fill-rule:nonzero;stroke:none" d="M 56.518 41.758 C 56.953 38.187 55.385 15.187 32.56 15.187 C 7.817 15.187 7.295 40.974 7.295 40.974 L 13.1 41.004 L 20.756 26.271 L 39.281 24.387 L 50.295 37.623 Z"/>
    <path id="path38" style="fill:#181210;fill-opacity:1;fill-rule:nonzero;stroke:none" d="M 50.49 37.405 L 56.265 41.243 C 56.372 38.583 55.722 29.223 49.784 22.518 C 45.648 17.845 39.853 15.476 32.559 15.476 C 9.804 15.476 7.765 37.841 7.599 40.686 L 12.923 40.714 L 20.497 26.137 C 20.543 26.051 20.629 25.994 20.725 25.984 L 39.25 24.099 C 39.347 24.083 39.442 24.128 39.503 24.201 Z M 56.517 42.049 C 56.461 42.049 56.405 42.032 56.358 41.999 L 50.134 37.863 C 50.11 37.849 50.09 37.83 50.071 37.808 L 39.156 24.691 L 20.94 26.544 L 13.357 41.138 C 13.307 41.233 13.207 41.294 13.099 41.294 L 13.098 41.294 L 7.293 41.264 C 7.216 41.264 7.141 41.232 7.088 41.177 C 7.033 41.122 7.004 41.046 7.006 40.969 C 7.011 40.707 7.82 14.897 32.559 14.897 C 40.025 14.897 45.968 17.331 50.219 22.133 C 56.244 28.938 57.155 38.926 56.805 41.794 C 56.793 41.893 56.729 41.98 56.639 42.021 C 56.6 42.039 56.559 42.049 56.517 42.049"/>
    <path id="path42" style="fill:#fabab1;fill-opacity:1;fill-rule:nonzero;stroke:none" d="M 52.662 41.004 C 53.029 37.994 51.708 18.61 32.471 18.61 C 11.619 18.61 11.178 40.344 11.178 40.344 L 16.017 40.157 L 23.63 28.059 L 39.812 28.059 L 48.7 41.004 Z"/>
    <path id="path46" style="fill:#181210;fill-opacity:1;fill-rule:nonzero;stroke:none" d="M 48.849 40.72 L 52.402 40.72 C 52.523 38.716 52.073 30.592 46.956 24.813 C 43.478 20.886 38.604 18.894 32.471 18.894 C 13.477 18.894 11.641 37.439 11.477 40.048 L 15.856 39.879 L 23.39 27.908 C 23.442 27.825 23.533 27.775 23.63 27.775 L 39.812 27.775 C 39.905 27.775 39.994 27.821 40.046 27.898 Z M 52.662 41.288 L 48.699 41.288 C 48.607 41.288 48.518 41.242 48.466 41.165 L 39.663 28.343 L 23.787 28.343 L 16.257 40.308 C 16.208 40.388 16.122 40.437 16.029 40.441 L 11.189 40.628 C 11.116 40.628 11.034 40.601 10.979 40.547 C 10.924 40.491 10.893 40.416 10.894 40.338 C 10.899 40.117 11.582 18.326 32.471 18.326 C 38.774 18.326 43.791 20.382 47.382 24.436 C 52.469 30.181 53.239 38.616 52.945 41.039 C 52.928 41.18 52.806 41.288 52.662 41.288"/>
    <path id="path50" style="fill:#57c8e9;fill-opacity:1;fill-rule:nonzero;stroke:none" d="M 49.983 41.004 C 50.295 38.446 49.172 21.972 32.823 21.972 C 15.1 21.972 14.725 40.442 14.725 40.442 L 20.926 39.072 L 24.161 31.488 L 30.875 28.059 L 39.813 30.04 L 42.71 34.58 L 44.207 38.734 L 44.643 41.246 Z"/>
    <path id="path54" style="fill:#181210;fill-opacity:1;fill-rule:nonzero;stroke:none" d="M 30.876 27.775 C 30.896 27.775 30.917 27.777 30.938 27.781 L 39.873 29.761 C 39.948 29.778 40.011 29.823 40.051 29.887 L 42.95 34.427 L 44.475 38.637 L 44.88 40.95 L 49.72 40.732 C 49.819 38.988 49.42 32.148 45.103 27.273 C 42.156 23.944 38.024 22.255 32.822 22.255 C 16.951 22.255 15.209 37.514 15.03 40.085 L 20.721 38.827 L 23.9 31.376 C 23.926 31.315 23.974 31.265 24.033 31.235 L 30.746 27.805 C 30.787 27.785 30.831 27.775 30.876 27.775 M 49.983 41.004 L 49.99 41.004 Z M 44.643 41.529 C 44.505 41.529 44.386 41.431 44.363 41.294 L 43.928 38.783 L 42.443 34.676 L 39.636 30.291 L 30.914 28.359 L 24.383 31.694 L 21.187 39.183 C 21.15 39.268 21.076 39.33 20.986 39.35 L 14.787 40.72 C 14.705 40.743 14.613 40.719 14.546 40.662 C 14.478 40.607 14.44 40.525 14.441 40.437 C 14.445 40.249 15.028 21.688 32.822 21.688 C 38.193 21.688 42.468 23.44 45.528 26.896 C 49.862 31.79 50.517 38.975 50.264 41.039 C 50.248 41.177 50.135 41.282 49.996 41.288 L 44.656 41.529 Z"/>
    <path id="path58" style="fill:#d4b3de;fill-opacity:1;fill-rule:nonzero;stroke:none" d="M 41.757 40.597 C 41.924 39.224 41.321 29.241 32.544 29.241 C 23.03 29.241 22.829 41.004 22.829 41.004 L 18.381 40.157 C 18.381 40.157 18.674 25.682 32.563 25.682 C 45.376 25.682 46.256 38.592 46.012 40.597 L 41.757 40.597"/>
    <path id="path62" style="fill:#181210;fill-opacity:1;fill-rule:nonzero;stroke:none" d="M 18.678 39.924 L 22.562 40.664 C 22.692 38.715 23.786 28.957 32.544 28.957 C 35.277 28.957 37.497 29.898 39.143 31.758 C 41.728 34.678 42.083 38.966 42.058 40.313 L 45.749 40.313 C 45.812 38.857 45.46 33.624 42.141 29.877 C 39.843 27.282 36.621 25.966 32.563 25.966 C 20.082 25.966 18.801 38.061 18.678 39.924 M 22.829 41.288 C 22.812 41.288 22.794 41.286 22.776 41.283 L 18.329 40.436 C 18.193 40.41 18.094 40.289 18.098 40.151 C 18.101 40.003 18.558 25.397 32.563 25.397 C 36.791 25.397 40.156 26.777 42.566 29.499 C 46.241 33.648 46.441 39.424 46.295 40.632 C 46.278 40.774 46.156 40.881 46.012 40.881 L 41.757 40.881 C 41.675 40.881 41.598 40.847 41.544 40.785 C 41.49 40.724 41.465 40.644 41.475 40.562 C 41.563 39.837 41.431 35.199 38.717 32.135 C 37.185 30.404 35.108 29.525 32.544 29.525 C 28.729 29.525 25.984 31.441 24.387 35.218 C 23.178 38.076 23.114 40.98 23.113 41.009 C 23.112 41.093 23.074 41.172 23.009 41.225 C 22.957 41.266 22.893 41.288 22.829 41.288"/>
    <path id="path66" style="fill:#fddee8;fill-opacity:1;fill-rule:nonzero;stroke:none" d="M 4.695 47.187 L 2.473 47.187"/>
    <path id="path70" style="fill:#ffffff;fill-opacity:1;fill-rule:nonzero;stroke:none" d="M 5.274 47.187 C 5.274 47.187 2.472 46.801 2.472 43.612 C 2.472 40.424 6.143 40.597 6.143 40.597 C 6.143 40.597 6.434 36.802 9.525 35.98 C 12.616 35.159 14.066 37.527 14.066 37.527 C 14.066 37.527 15.926 34.73 19.572 36.319 C 22.567 37.623 21.553 41.005 21.553 41.005 C 21.553 41.005 25.611 40.473 25.852 44.096 C 26.094 47.719 20.104 47.187 20.104 47.187 Z"/>
    <path id="path74" style="fill:#181210;fill-opacity:1;fill-rule:nonzero;stroke:none" d="M 5.297 46.897 L 20.104 46.897 C 20.162 46.9 23.55 47.183 24.965 45.797 C 25.414 45.358 25.609 44.807 25.563 44.114 C 25.502 43.205 25.177 42.5 24.595 42.023 C 23.435 41.066 21.607 41.287 21.591 41.292 C 21.486 41.306 21.396 41.266 21.333 41.192 C 21.27 41.118 21.248 41.014 21.276 40.922 C 21.314 40.793 22.175 37.768 19.457 36.584 C 16.069 35.108 14.325 37.661 14.307 37.686 C 14.252 37.769 14.18 37.824 14.061 37.816 C 13.963 37.815 13.872 37.762 13.819 37.678 C 13.763 37.59 12.434 35.507 9.599 36.26 C 6.74 37.02 6.435 40.583 6.433 40.619 C 6.422 40.775 6.278 40.879 6.131 40.887 C 6.113 40.887 4.452 40.822 3.476 41.756 C 3.003 42.208 2.762 42.832 2.762 43.613 C 2.762 46.404 5.05 46.857 5.297 46.897 M 20.9 47.506 C 20.434 47.506 20.12 47.479 20.078 47.476 L 5.275 47.476 C 5.261 47.476 5.248 47.476 5.235 47.474 C 5.205 47.47 2.183 47.013 2.183 43.613 C 2.183 42.667 2.483 41.901 3.077 41.334 C 3.985 40.468 5.316 40.327 5.886 40.308 C 6.018 39.393 6.653 36.443 9.451 35.701 C 11.994 35.025 13.519 36.406 14.074 37.06 C 14.722 36.342 16.627 34.718 19.688 36.053 C 22.248 37.168 22.089 39.706 21.918 40.689 C 22.574 40.669 23.952 40.743 24.961 41.573 C 25.673 42.156 26.07 42.998 26.141 44.076 C 26.199 44.935 25.939 45.655 25.37 46.211 C 24.219 47.337 22.078 47.506 20.9 47.506"/>
    <path id="path78" style="fill:#ffffff;fill-opacity:1;fill-rule:nonzero;stroke:none" d="M 41.132 47.187 C 41.132 47.187 38.33 46.801 38.33 43.612 C 38.33 40.424 42.001 40.597 42.001 40.597 C 42.001 40.597 42.291 36.802 45.383 35.98 C 48.474 35.159 49.923 37.527 49.923 37.527 C 49.923 37.527 51.783 34.73 55.43 36.319 C 58.425 37.623 57.411 41.005 57.411 41.005 C 57.411 41.005 61.468 40.473 61.71 44.096 C 61.951 47.719 55.961 47.187 55.961 47.187 Z"/>
    <path id="path82" style="fill:#181210;fill-opacity:1;fill-rule:nonzero;stroke:none" d="M 41.154 46.897 L 55.961 46.897 C 56.021 46.9 59.408 47.183 60.823 45.796 C 61.271 45.358 61.467 44.807 61.42 44.114 C 61.36 43.205 61.034 42.5 60.452 42.023 C 59.292 41.066 57.465 41.287 57.447 41.292 C 57.344 41.306 57.252 41.266 57.19 41.192 C 57.127 41.118 57.105 41.014 57.133 40.922 C 57.171 40.793 58.033 37.768 55.314 36.584 C 51.928 35.108 50.183 37.661 50.165 37.686 C 50.11 37.769 50.035 37.824 49.918 37.816 C 49.821 37.815 49.729 37.762 49.676 37.678 C 49.62 37.59 48.292 35.507 45.457 36.26 C 42.597 37.02 42.293 40.583 42.29 40.619 C 42.279 40.775 42.152 40.879 41.988 40.887 C 41.968 40.887 40.31 40.822 39.333 41.756 C 38.86 42.208 38.62 42.832 38.62 43.613 C 38.62 46.404 40.907 46.857 41.154 46.897 M 56.757 47.506 C 56.292 47.506 55.978 47.479 55.936 47.476 L 41.132 47.476 C 41.119 47.476 41.106 47.476 41.092 47.474 C 41.062 47.47 38.041 47.013 38.041 43.613 C 38.041 42.667 38.341 41.901 38.935 41.334 C 39.842 40.468 41.174 40.327 41.744 40.308 C 41.875 39.393 42.51 36.443 45.309 35.701 C 47.853 35.025 49.376 36.406 49.931 37.06 C 50.579 36.342 52.484 34.718 55.546 36.053 C 58.105 37.168 57.945 39.706 57.776 40.689 C 58.434 40.669 59.809 40.743 60.818 41.573 C 61.53 42.156 61.926 42.998 61.999 44.076 C 62.056 44.935 61.797 45.655 61.227 46.211 C 60.077 47.337 57.934 47.506 56.757 47.506"/>
  </g>
</svg>