<?xml version="1.0" encoding="utf-8"?>
<svg viewBox="0 0 64 64" xmlns="http://www.w3.org/2000/svg">
  <g transform="matrix(0.960538, 0, 0, 0.960538, -1.785977, -0.821151)">
    <path id="path172" style="fill: rgb(136, 211, 122); fill-opacity: 1; fill-rule: nonzero; stroke: none; display: inline;" d="M 23.555 23.045 C 23.555 23.045 14.573 25.989 18.764 38.003 C 22.955 50.016 22.558 47.302 23.005 47.099 C 23.451 46.896 21.917 37.863 26.925 34.536 C 31.934 31.209 23.555 23.045 23.555 23.045" transform="matrix(0.950182, 0.311696, -0.311696, 0.950182, 12.144515, -5.438454)"/>
    <path id="path176" style="fill: rgb(136, 211, 122); fill-opacity: 1; fill-rule: nonzero; stroke: none; display: inline;" d="M 37.551 25.67 C 37.551 25.67 46.075 21.587 51.355 33.163 C 56.634 44.74 55.044 42.504 54.581 42.666 C 54.119 42.828 48.981 35.242 43.062 36.302 C 37.143 37.362 37.551 25.67 37.551 25.67" transform="matrix(0.950182, 0.311696, -0.311696, 0.950182, 12.86226, -12.762542)"/>
    <path id="path180" style="fill: rgb(167, 225, 247); fill-opacity: 1; fill-rule: nonzero; stroke: none; display: inline;" d="M 33.64 51.222 C 33.64 51.222 18.303 8.38 27.18 5.403 C 33.051 3.434 42.748 21.263 49.802 46.113 C 49.802 46.113 45.402 51.505 33.64 51.222" transform="matrix(0.950182, 0.311696, -0.311696, 0.950182, 10.652105, -10.159526)"/>
    <path id="path184" style="fill: rgb(255, 255, 255); fill-opacity: 1; fill-rule: nonzero; stroke: none; display: inline;" d="M 37.803 20.613 C 37.877 22.219 36.634 23.581 35.027 23.654 C 33.421 23.727 32.06 22.485 31.987 20.878 C 31.913 19.272 33.156 17.91 34.763 17.837 C 36.369 17.764 37.73 19.007 37.803 20.613" transform="matrix(0.950182, 0.311696, -0.311696, 0.950182, 8.204695, -9.843127)"/>
    <path id="path188" style="fill: rgb(255, 255, 255); fill-opacity: 1; fill-rule: nonzero; stroke: none; display: inline;" d="M 39.747 33.7 C 39.863 36.238 37.899 38.389 35.36 38.506 C 32.822 38.621 30.67 36.657 30.554 34.119 C 30.439 31.58 32.404 29.429 34.941 29.313 C 37.479 29.197 39.631 31.162 39.747 33.7" transform="matrix(0.950182, 0.311696, -0.311696, 0.950182, 12.32057, -9.266973)"/>
    <path id="path192" style="fill: rgb(252, 202, 23); fill-opacity: 1; fill-rule: nonzero; stroke: none; display: inline;" d="M 26.225 53.803 C 26.225 53.803 33.143 53.848 39.438 49.719 L 42.729 58.693 L 35.882 56.004 L 35.916 62.006 L 32.196 56.773 L 30.879 67.399 Z" transform="matrix(0.950182, 0.311696, -0.311696, 0.950182, 19.970191, -7.82904)"/>
  </g>
</svg>