<?xml version="1.0" encoding="utf-8"?>
<svg viewBox="0 0 64 64" xmlns="http://www.w3.org/2000/svg">
  <g id="g214" transform="matrix(0.580535, 0, 0, -0.580535, 18.67277, 7.884128)" style="display: inline;">
    <path d="m 0,0 c 0,-0.897 -0.728,-1.625 -1.625,-1.625 -0.897,0 -1.625,0.728 -1.625,1.625 0,0.897 0.728,1.625 1.625,1.625 C -0.728,1.625 0,0.897 0,0" style="fill-opacity: 1; fill-rule: nonzero; stroke: none;" id="path216"/>
  </g>
  <g id="g218" transform="matrix(0.580535, 0, 0, -0.580535, 15.334474, 12.115433)" style="display: inline;">
    <path d="m 0,0 c 0,-0.897 -0.728,-1.625 -1.625,-1.625 -0.897,0 -1.625,0.728 -1.625,1.625 0,0.897 0.728,1.625 1.625,1.625 C -0.728,1.625 0,0.897 0,0" style="fill-opacity: 1; fill-rule: nonzero; stroke: none;" id="path220"/>
  </g>
  <g id="g222" transform="matrix(0.580535, 0, 0, -0.580535, 18.67277, 14.971367)" style="display: inline;">
    <path d="m 0,0 c 0,-0.897 -0.728,-1.625 -1.625,-1.625 -0.897,0 -1.625,0.728 -1.625,1.625 0,0.897 0.728,1.625 1.625,1.625 C -0.728,1.625 0,0.897 0,0" style="fill-opacity: 1; fill-rule: nonzero; stroke: none;" id="path224"/>
  </g>
  <g id="g226" transform="matrix(0.580535, 0, 0, -0.580535, 62.055889, 33.580528)" style="display: inline;">
    <path d="m 0,0 c -0.455,-0.773 -1.451,-1.032 -2.225,-0.577 -0.773,0.455 -1.032,1.451 -0.577,2.225 0.455,0.773 1.451,1.032 2.225,0.577 C 0.196,1.77 0.455,0.773 0,0" style="fill-opacity: 1; fill-rule: nonzero; stroke: none;" id="path228"/>
  </g>
  <g id="g230" transform="matrix(0.580535, 0, 0, -0.580535, 5.980945, 21.928968)" style="display: inline;">
    <path d="m 0,0 c -0.455,-0.773 -1.451,-1.032 -2.225,-0.577 -0.773,0.455 -1.031,1.451 -0.576,2.225 0.455,0.773 1.45,1.032 2.224,0.577 C 0.197,1.77 0.455,0.774 0,0" style="fill-opacity: 1; fill-rule: nonzero; stroke: none;" id="path232"/>
  </g>
  <g id="g234" transform="matrix(0.580535, 0, 0, -0.580535, 13.253535, 27.311678)" style="display: inline;">
    <path d="M 0,0 C -0.455,-0.773 -1.451,-1.032 -2.224,-0.577 -2.998,-0.122 -3.256,0.874 -2.801,1.648 -2.346,2.421 -1.35,2.68 -0.577,2.225 0.197,1.77 0.455,0.773 0,0" style="fill-opacity: 1; fill-rule: nonzero; stroke: none;" id="path236"/>
  </g>
  <g id="g238" transform="matrix(0.580535, 0, 0, -0.580535, 63.129135, 38.223072)" style="display: inline;">
    <path d="m 0,0 c 0,-0.897 -0.728,-1.625 -1.625,-1.625 -0.897,0 -1.625,0.728 -1.625,1.625 0,0.897 0.728,1.625 1.625,1.625 C -0.728,1.625 0,0.897 0,0" style="fill-opacity: 1; fill-rule: nonzero; stroke: none;" id="path240"/>
  </g>
  <g id="g242" transform="matrix(0.580535, 0, 0, -0.580535, 59.481506, 19.717943)" style="display: inline;">
    <path d="m 0,0 c 0,-0.897 -0.728,-1.625 -1.625,-1.625 -0.897,0 -1.625,0.728 -1.625,1.625 0,0.897 0.728,1.625 1.625,1.625 C -0.728,1.625 0,0.897 0,0" style="fill-opacity: 1; fill-rule: nonzero; stroke: none;" id="path244"/>
  </g>
  <g id="g246" transform="matrix(0.580535, 0, 0, -0.580535, 59.481506, 42.896263)" style="display: inline;">
    <path d="m 0,0 c 0,-0.897 -0.728,-1.625 -1.625,-1.625 -0.897,0 -1.625,0.728 -1.625,1.625 0,0.897 0.728,1.625 1.625,1.625 C -0.728,1.625 0,0.897 0,0" style="fill-opacity: 1; fill-rule: nonzero; stroke: none;" id="path248"/>
  </g>
  <g id="g250" transform="matrix(0.580535, 0, 0, -0.580535, 52.576283, 33.488117)" style="display: inline;">
    <path d="m 0,0 c 0,-0.897 -0.728,-1.625 -1.625,-1.625 -0.897,0 -1.625,0.728 -1.625,1.625 0,0.897 0.728,1.625 1.625,1.625 C -0.728,1.625 0,0.897 0,0" style="fill-opacity: 1; fill-rule: nonzero; stroke: none;" id="path252"/>
  </g>
  <g id="g254" transform="matrix(0.580535, 0, 0, -0.580535, 32.383404, 48.597862)" style="display: inline;">
    <path d="m 0,0 c 0,-0.897 -0.728,-1.625 -1.625,-1.625 -0.897,0 -1.625,0.728 -1.625,1.625 0,0.897 0.728,1.625 1.625,1.625 C -0.728,1.625 0,0.897 0,0" style="fill-opacity: 1; fill-rule: nonzero; stroke: none;" id="path256"/>
  </g>
  <g id="g258" transform="matrix(0.580535, 0, 0, -0.580535, 18.273138, 52.76651)" style="display: inline;">
    <path d="m 0,0 c 0,-0.897 -0.728,-1.625 -1.625,-1.625 -0.897,0 -1.625,0.728 -1.625,1.625 0,0.897 0.728,1.625 1.625,1.625 C -0.728,1.625 0,0.897 0,0" style="fill-opacity: 1; fill-rule: nonzero; stroke: none;" id="path260"/>
  </g>
  <g id="g262" transform="matrix(0.580535, 0, 0, -0.580535, 11.646557, 54.700283)" style="display: inline;">
    <path d="m 0,0 c 0,-0.897 -0.728,-1.625 -1.625,-1.625 -0.897,0 -1.625,0.728 -1.625,1.625 0,0.897 0.728,1.625 1.625,1.625 C -0.728,1.625 0,0.897 0,0" style="fill-opacity: 1; fill-rule: nonzero; stroke: none;" id="path264"/>
  </g>
  <g id="g266" transform="matrix(0.580535, 0, 0, -0.580535, 25.234459, 4.799822)" style="display: inline;">
    <path d="m 0,0 2.104,-1.954 2.508,1.396 -1.208,-2.604 2.103,-1.954 -2.85,0.345 -1.209,-2.605 -0.553,2.817 -2.85,0.345 2.508,1.397 z" style="fill-opacity: 1; fill-rule: nonzero; stroke: none;" id="path268"/>
  </g>
  <g id="g270" transform="matrix(0.580535, 0, 0, -0.580535, 30.389256, 9.974107)" style="display: inline;">
    <path d="m 0,0 2.103,-1.955 2.509,1.397 -1.208,-2.604 2.103,-1.955 -2.85,0.345 -1.209,-2.604 -0.553,2.817 -2.851,0.345 2.509,1.396 z" style="fill-opacity: 1; fill-rule: nonzero; stroke: none;" id="path272"/>
  </g>
  <g id="g274" transform="matrix(0.580535, 0, 0, -0.580535, 25.866009, 56.738136)" style="display: inline;">
    <path d="M 0,0 0.433,-2.839 3.266,-3.305 0.7,-4.593 l 0.432,-2.839 -2.018,2.043 -2.566,-1.289 1.319,2.551 -2.019,2.042 2.834,-0.466 z" style="fill-opacity: 1; fill-rule: nonzero; stroke: none;" id="path276"/>
  </g>
  <g id="g278" transform="matrix(0.580535, 0, 0, -0.580535, 43.711788, 55.762424)" style="display: inline;">
    <path d="m 0,0 2.101,-3.976 4.43,0.769 -3.132,-3.226 2.101,-3.976 -4.037,1.982 -3.132,-3.227 0.638,4.451 -4.036,1.982 4.429,0.769 z" style="fill-opacity: 1; fill-rule: nonzero; stroke: none;" id="path280"/>
  </g>
  <g id="g282" transform="matrix(0.580535, 0, 0, -0.580535, 45.0662, 39.513718)" style="display: inline;">
    <path d="m 0,0 2.101,-3.976 4.43,0.769 -3.132,-3.226 2.101,-3.976 -4.037,1.982 -3.132,-3.226 0.638,4.451 -4.036,1.982 4.429,0.769 z" style="fill-opacity: 1; fill-rule: nonzero; stroke: none;" id="path284"/>
  </g>
  <g id="g286" transform="matrix(0.580535, 0, 0, -0.580535, 48.399155, 9.944702)" style="display: inline;">
    <path d="m 0,0 -0.29,-2.856 2.628,-1.159 -2.807,-0.607 -0.29,-2.857 -1.444,2.482 -2.807,-0.607 1.914,2.141 -1.444,2.481 2.627,-1.159 z" style="fill-opacity: 1; fill-rule: nonzero; stroke: none;" id="path288"/>
  </g>
  <g id="g290" transform="matrix(0.580535, 0, 0, -0.580535, 1.626719, 27.38534)" style="display: inline;">
    <path d="m 0,0 3.916,-2.118 3.225,3.069 -0.805,-4.379 3.915,-2.118 -4.413,-0.588 -0.805,-4.378 -1.922,4.015 -4.413,-0.588 3.225,3.07 z" style="fill-opacity: 1; fill-rule: nonzero; stroke: none;" id="path292"/>
  </g>
  <g id="g294" transform="matrix(0.580535, 0, 0, -0.580535, 38.172325, 2.024104)" style="display: inline;">
    <path d="M 0,0 3.915,-2.119 7.141,0.951 6.335,-3.428 10.251,-5.547 5.838,-6.134 5.033,-10.513 3.11,-6.498 -1.303,-7.085 1.923,-4.016 Z" style="fill-opacity: 1; fill-rule: nonzero; stroke: none;" id="path296"/>
  </g>
  <g id="g-1" transform="matrix(0.5805349946022034, 0, 0, -0.5805349946022034, 25.60250286288221, 27.215693590291814)" style="display: inline;">
    <path d="m 0,0 c 0,-0.897 -0.728,-1.625 -1.625,-1.625 -0.897,0 -1.625,0.728 -1.625,1.625 0,0.897 0.728,1.625 1.625,1.625 C -0.728,1.625 0,0.897 0,0" style="fill-opacity: 1; fill-rule: nonzero; stroke: none;" id="path-1"/>
  </g>
  <g id="g-2" transform="matrix(0.5805349946022034, 0, 0, -0.5805349946022034, 39.44978627439345, 25.90934609863981)" style="display: inline;">
    <path d="m 0,0 c 0,-0.897 -0.728,-1.625 -1.625,-1.625 -0.897,0 -1.625,0.728 -1.625,1.625 0,0.897 0.728,1.625 1.625,1.625 C -0.728,1.625 0,0.897 0,0" style="fill-opacity: 1; fill-rule: nonzero; stroke: none;" id="path-2"/>
  </g>
  <g id="g-3" transform="matrix(0.5805349946022034, 0, 0, -0.5805349946022034, 27.692658849525415, 37.92774302183825)" style="display: inline;">
    <path d="m 0,0 c 0,-0.897 -0.728,-1.625 -1.625,-1.625 -0.897,0 -1.625,0.728 -1.625,1.625 0,0.897 0.728,1.625 1.625,1.625 C -0.728,1.625 0,0.897 0,0" style="fill-opacity: 1; fill-rule: nonzero; stroke: none;" id="path-3"/>
  </g>
  <g id="g-4" transform="matrix(0.5805349946022034, 0, 0, -0.5805349946022034, 37.35963028775025, 41.84678549679426)" style="display: inline;">
    <path d="m 0,0 c 0,-0.897 -0.728,-1.625 -1.625,-1.625 -0.897,0 -1.625,0.728 -1.625,1.625 0,0.897 0.728,1.625 1.625,1.625 C -0.728,1.625 0,0.897 0,0" style="fill-opacity: 1; fill-rule: nonzero; stroke: none;" id="path-4"/>
  </g>
  <g id="g-5" transform="matrix(0.5805349946022034, 0, 0, -0.5805349946022034, 10.648169706850638, 37.15795069783154)" style="display: inline;">
    <path d="m 0,0 2.101,-3.976 4.43,0.769 -3.132,-3.226 2.101,-3.976 -4.037,1.982 -3.132,-3.226 0.638,4.451 -4.036,1.982 4.429,0.769 z" style="fill-opacity: 1; fill-rule: nonzero; stroke: none;" id="path-5"/>
  </g>
  <g id="g-7" transform="matrix(0.580535, 0, 0, -0.580535, 30.243382, 18.085278)" style="display: inline;">
    <path d="m 0,0 2.101,-3.976 4.43,0.769 -3.132,-3.226 2.101,-3.976 -4.037,1.982 -3.132,-3.226 0.638,4.451 -4.036,1.982 4.429,0.769 z" style="fill-opacity: 1; fill-rule: nonzero; stroke: none;" id="path-7"/>
  </g>
  <g id="g-8" transform="matrix(0.5805349946022034, 0, 0, -0.5805349946022034, 22.56488602896117, 42.040945625810814)" style="display: inline;">
    <path d="M 0,0 0.433,-2.839 3.266,-3.305 0.7,-4.593 l 0.432,-2.839 -2.018,2.043 -2.566,-1.289 1.319,2.551 -2.019,2.042 2.834,-0.466 z" style="fill-opacity: 1; fill-rule: nonzero; stroke: none;" id="path-8"/>
  </g>
  <g id="g-9" transform="matrix(0.580535, 0, 0, -0.580535, 47.38549, 20.355577)" style="display: inline;">
    <path d="M 0,0 0.433,-2.839 3.266,-3.305 0.7,-4.593 l 0.432,-2.839 -2.018,2.043 -2.566,-1.289 1.319,2.551 -2.019,2.042 2.834,-0.466 z" style="fill-opacity: 1; fill-rule: nonzero; stroke: none;" id="path-9"/>
  </g>
  <g id="g-6" transform="matrix(0.5805349946022034, 0, 0, -0.5805349946022034, 5.223481993110937, 8.92682870716375)" style="display: inline;">
    <path d="m 0,0 c 0,-0.897 -0.728,-1.625 -1.625,-1.625 -0.897,0 -1.625,0.728 -1.625,1.625 0,0.897 0.728,1.625 1.625,1.625 C -0.728,1.625 0,0.897 0,0" style="fill-opacity: 1; fill-rule: nonzero; stroke: none;" id="path-6"/>
  </g>
  <g id="g-10" transform="matrix(0.5805349946022034, 0, 0, -0.5805349946022034, 12.016488949701362, 1.8725522522429259)" style="display: inline;">
    <path d="m 0,0 c 0,-0.897 -0.728,-1.625 -1.625,-1.625 -0.897,0 -1.625,0.728 -1.625,1.625 0,0.897 0.728,1.625 1.625,1.625 C -0.728,1.625 0,0.897 0,0" style="fill-opacity: 1; fill-rule: nonzero; stroke: none;" id="path-10"/>
  </g>
  <g id="g-11" transform="matrix(0.5805349946022034, 0, 0, -0.5805349946022034, 9.142524468066952, 12.323332185458966)" style="display: inline;">
    <path d="m 0,0 c 0,-0.897 -0.728,-1.625 -1.625,-1.625 -0.897,0 -1.625,0.728 -1.625,1.625 0,0.897 0.728,1.625 1.625,1.625 C -0.728,1.625 0,0.897 0,0" style="fill-opacity: 1; fill-rule: nonzero; stroke: none;" id="path-11"/>
  </g>
  <g id="g-12" transform="matrix(0.5805349946022034, 0, 0, -0.5805349946022034, 56.43230366586951, 5.269055730538142)" style="display: inline;">
    <path d="m 0,0 c 0,-0.897 -0.728,-1.625 -1.625,-1.625 -0.897,0 -1.625,0.728 -1.625,1.625 0,0.897 0.728,1.625 1.625,1.625 C -0.728,1.625 0,0.897 0,0" style="fill-opacity: 1; fill-rule: nonzero; stroke: none;" id="path-12"/>
  </g>
  <g id="g-13" transform="matrix(0.5805349946022034, 0, 0, -0.5805349946022034, 57.73865115752152, 53.3426434233319)" style="display: inline;">
    <path d="m 0,0 c 0,-0.897 -0.728,-1.625 -1.625,-1.625 -0.897,0 -1.625,0.728 -1.625,1.625 0,0.897 0.728,1.625 1.625,1.625 C -0.728,1.625 0,0.897 0,0" style="fill-opacity: 1; fill-rule: nonzero; stroke: none;" id="path-13"/>
  </g>
  <g id="g-14" transform="matrix(0.5805349946022034, 0, 0, -0.5805349946022034, 2.708404155850701, 10.427336327832307)" style="display: inline;">
    <path d="M 0,0 0.433,-2.839 3.266,-3.305 0.7,-4.593 l 0.432,-2.839 -2.018,2.043 -2.566,-1.289 1.319,2.551 -2.019,2.042 2.834,-0.466 z" style="fill-opacity: 1; fill-rule: nonzero; stroke: none;" id="path-14"/>
  </g>
  <g id="g-15" transform="matrix(0.5805349946022034, 0, 0, -0.5805349946022034, 14.726801079049139, 1.544173384598679)" style="display: inline;">
    <path d="M 0,0 0.433,-2.839 3.266,-3.305 0.7,-4.593 l 0.432,-2.839 -2.018,2.043 -2.566,-1.289 1.319,2.551 -2.019,2.042 2.834,-0.466 z" style="fill-opacity: 1; fill-rule: nonzero; stroke: none;" id="path-15"/>
  </g>
  <g id="g-16" transform="matrix(0.5805349946022034, 0, 0, -0.5805349946022034, 55.48484281859167, 8.337180341189097)" style="display: inline;">
    <path d="M 0,0 0.433,-2.839 3.266,-3.305 0.7,-4.593 l 0.432,-2.839 -2.018,2.043 -2.566,-1.289 1.319,2.551 -2.019,2.042 2.834,-0.466 z" style="fill-opacity: 1; fill-rule: nonzero; stroke: none;" id="path-16"/>
  </g>
  <g id="g-17" transform="matrix(0.5805349946022034, 0, 0, -0.5805349946022034, 62.8003887718429, 46.74379659575803)" style="display: inline;">
    <path d="M 0,0 0.433,-2.839 3.266,-3.305 0.7,-4.593 l 0.432,-2.839 -2.018,2.043 -2.566,-1.289 1.319,2.551 -2.019,2.042 2.834,-0.466 z" style="fill-opacity: 1; fill-rule: nonzero; stroke: none;" id="path-17"/>
  </g>
  <g id="g-18" transform="matrix(0.5805349946022034, 0, 0, -0.5805349946022034, 55.48484281859167, 58.239654522295666)" style="display: inline;">
    <path d="M 0,0 0.433,-2.839 3.266,-3.305 0.7,-4.593 l 0.432,-2.839 -2.018,2.043 -2.566,-1.289 1.319,2.551 -2.019,2.042 2.834,-0.466 z" style="fill-opacity: 1; fill-rule: nonzero; stroke: none;" id="path-18"/>
  </g>
  <g id="g-19" transform="matrix(0.5805349946022034, 0, 0, -0.5805349946022034, 12.897914590736335, 57.97838502396527)" style="display: inline;">
    <path d="M 0,0 0.433,-2.839 3.266,-3.305 0.7,-4.593 l 0.432,-2.839 -2.018,2.043 -2.566,-1.289 1.319,2.551 -2.019,2.042 2.834,-0.466 z" style="fill-opacity: 1; fill-rule: nonzero; stroke: none;" id="path-19"/>
  </g>
  <g id="g-20" transform="matrix(0.5805349946022034, 0, 0, -0.5805349946022034, 2.9696736541810935, 46.74379659575803)" style="display: inline;">
    <path d="M 0,0 0.433,-2.839 3.266,-3.305 0.7,-4.593 l 0.432,-2.839 -2.018,2.043 -2.566,-1.289 1.319,2.551 -2.019,2.042 2.834,-0.466 z" style="fill-opacity: 1; fill-rule: nonzero; stroke: none;" id="path-20"/>
  </g>
  <g id="g-21" transform="matrix(0.5805349946022034, 0, 0, -0.5805349946022034, 3.071353673882456, 57.01443280860277)" style="display: inline;">
    <path d="m 0,0 2.101,-3.976 4.43,0.769 -3.132,-3.226 2.101,-3.976 -4.037,1.982 -3.132,-3.226 0.638,4.451 -4.036,1.982 4.429,0.769 z" style="fill-opacity: 1; fill-rule: nonzero; stroke: none;" id="path-21"/>
  </g>
  <g id="g-22" transform="matrix(0.5805349946022034, 0, 0, -0.5805349946022034, 61.07318230323144, 12.33734859410422)" style="display: inline;">
    <path d="m 0,0 2.101,-3.976 4.43,0.769 -3.132,-3.226 2.101,-3.976 -4.037,1.982 -3.132,-3.226 0.638,4.451 -4.036,1.982 4.429,0.769 z" style="fill-opacity: 1; fill-rule: nonzero; stroke: none;" id="path-22"/>
  </g>
  <g id="g-23" transform="matrix(0.5805349946022034, 0, 0, -0.5805349946022034, 24.296155371230206, 0.04366510340593521)" style="display: inline;">
    <path d="m 0,0 c 0,-0.897 -0.728,-1.625 -1.625,-1.625 -0.897,0 -1.625,0.728 -1.625,1.625 0,0.897 0.728,1.625 1.625,1.625 C -0.728,1.625 0,0.897 0,0" style="fill-opacity: 1; fill-rule: nonzero; stroke: none;" id="path-23"/>
  </g>
</svg>