<?xml version="1.0" encoding="utf-8"?>
<svg viewBox="0 0 64 64" xmlns="http://www.w3.org/2000/svg">
  <g transform="matrix(1, 0, 0, 1, -1.436501, -11.877499)">
    <path id="path850" style="fill-opacity: 1; fill-rule: nonzero; stroke: none;" d="M 5.767 49.197 C 5.227 49.208 4.695 48.35 4.377 47.188 C 5.088 46.104 5.751 45.022 6.32 44.065 C 6.383 44.734 6.425 45.53 6.442 46.324 C 6.476 47.94 6.282 49.185 5.767 49.197 M 50.607 43.652 C 51.568 41.619 53.204 40.142 53.653 40.481 C 53.901 40.674 53.364 41.904 52.698 42.813 C 52.22 43.494 51.574 44.228 50.937 44.241 C 50.766 44.245 50.593 44.2 50.395 44.103 C 50.442 43.978 50.488 43.877 50.607 43.652 M 64.313 44.829 C 64.057 44.288 63.69 44.394 63.48 44.871 C 62.781 46.626 61.416 48.17 60.534 48.189 C 60.191 48.196 59.988 47.778 59.974 47.133 C 59.968 46.834 60.03 46.387 60.121 46.062 C 60.536 44.785 61.702 43.07 62.729 41.806 C 63.016 41.477 63.131 41.15 63.125 40.852 C 63.111 40.231 62.683 39.569 62.354 39.153 C 62.052 38.762 61.714 38.944 61.325 39.2 C 60.529 39.739 59.898 40.102 59.214 40.289 C 59.467 39.463 59.648 38.715 59.638 38.193 C 59.626 37.647 59.422 37.328 58.908 37.338 C 58.075 37.381 56.472 39.229 56.5 40.545 C 56.51 40.992 56.762 41.359 57.209 41.625 C 55.973 44.682 53.5 48.313 51.049 48.365 C 50.362 48.38 49.906 47.644 49.883 46.5 C 49.873 46.054 49.935 45.531 50.071 45.031 C 50.643 45.415 51.236 45.553 51.825 45.54 C 52.902 45.517 53.818 44.877 54.512 43.967 C 55.154 43.084 55.502 42.057 55.486 41.337 C 55.48 41.039 55.376 40.743 55.247 40.521 C 54.846 40.033 54.372 39.671 53.7 39.261 C 53.453 39.117 53.184 39.074 52.865 39.081 C 51.467 39.11 49.486 40.544 48.265 43.106 C 47.945 43.791 47.748 44.47 47.655 45.111 C 47.638 45.137 47.62 45.152 47.603 45.182 C 46.727 46.717 45.564 48.48 44.803 48.497 C 44.413 48.505 44.159 48.113 44.147 47.542 C 44.127 46.673 44.741 45.566 45.405 44.483 C 46.378 42.897 46.867 41.743 46.85 40.898 C 46.832 40.078 46.426 39.415 45.715 39.406 C 44.929 39.398 43.65 40.27 42.566 41.287 C 42.545 40.243 42.011 39.359 41.226 39.376 C 40.441 39.393 39.09 40.365 38.057 41.431 C 38.102 41.181 38.121 40.958 38.118 40.759 C 38.11 40.361 37.978 39.942 37.75 39.574 C 37.495 39.132 37.127 39.115 36.819 39.594 C 35.739 41.342 34.523 43.728 33.775 45.451 C 33.769 45.461 33.764 45.464 33.759 45.474 C 32.885 47.009 31.719 48.773 30.961 48.79 C 30.568 48.798 30.314 48.405 30.303 47.834 C 30.284 46.965 30.898 45.858 31.561 44.775 C 32.534 43.189 33.024 42.035 33.005 41.19 C 32.989 40.37 32.582 39.707 31.872 39.698 C 31.087 39.69 29.806 40.561 28.723 41.579 C 28.7 40.535 28.167 39.651 27.383 39.668 C 26.6 39.685 25.246 40.657 24.214 41.723 C 24.259 41.474 24.278 41.251 24.273 41.052 C 24.265 40.654 24.135 40.234 23.906 39.866 C 23.651 39.425 23.283 39.408 22.975 39.886 C 21.575 42.154 19.955 45.479 19.414 47.053 C 18.69 48.176 17.881 49.115 17.288 49.128 C 16.97 49.135 16.816 48.888 16.807 48.442 C 16.787 47.473 17.708 45.763 18.392 44.58 C 19.22 43.122 19.711 42.017 19.694 41.173 C 19.682 40.626 19.551 40.231 19.298 39.889 C 18.996 39.474 18.605 39.581 18.272 40.061 C 17.415 41.222 16.813 42.924 15.417 45.339 C 14.209 47.354 12.947 49.07 12.309 49.083 C 11.769 49.094 11.824 48.174 12.245 47.171 C 13.061 45.24 14.79 42.321 14.769 41.303 C 14.76 40.93 14.653 40.509 14.376 40.166 C 14.074 39.8 13.633 39.76 13.323 40.188 C 11.849 42.383 10.651 44.892 10.144 46.47 C 10.112 46.565 10.1 46.654 10.074 46.748 C 9.67 47.479 9.133 48.058 8.427 48.57 C 8.686 48.017 8.793 47.318 8.804 46.696 C 8.825 45.354 8.472 43.747 8.434 41.983 C 8.427 41.659 8.443 41.237 8.462 40.938 C 9.195 39.655 9.036 39.111 8.373 39.125 C 8.007 39.133 7.568 39.317 7.184 39.673 C 6.63 40.156 6.348 40.734 6.269 41.631 C 5.654 42.713 4.824 44.024 4.041 45.206 C 3.954 44.612 3.583 44.496 3.102 44.928 C 2.572 45.411 2.344 46.138 2.359 46.884 C 2.372 47.454 2.531 48.047 2.81 48.514 C 3.676 50.06 5.155 50.427 6.624 50.346 C 7.877 50.27 9.056 49.78 9.968 48.925 C 10.174 49.651 10.696 50.186 11.645 50.167 C 12.896 50.14 13.982 49.345 14.796 48.386 C 14.916 49.5 15.668 50.206 17.114 50.174 C 17.868 50.159 18.632 49.83 19.295 49.327 C 19.405 49.544 19.555 49.727 19.728 49.871 C 20.152 50.235 20.419 50.08 20.582 49.679 C 21.49 47.374 22.569 45.088 23.91 43.57 C 25.346 41.899 26.291 41.332 26.487 41.328 C 26.707 41.323 26.042 42.283 25.403 43.414 C 24.763 44.47 23.982 45.829 23.659 46.733 C 23.426 47.358 23.246 48.157 23.256 48.579 C 23.269 49.224 23.448 49.568 23.824 49.933 C 24.224 50.324 24.565 50.241 24.801 49.764 C 25.782 47.434 26.91 45.047 28.779 43.07 C 30.195 41.573 30.704 41.313 30.9 41.309 C 31.097 41.306 30.523 42.063 30.002 42.894 C 29.458 43.8 28.676 45.159 28.302 46.012 C 28.045 46.639 27.96 47.188 27.968 47.634 C 27.996 48.976 28.923 49.877 30.59 49.84 C 31.426 49.824 32.316 49.42 33.062 48.824 C 33.168 49.134 33.346 49.391 33.572 49.579 C 33.995 49.943 34.264 49.788 34.427 49.387 C 35.335 47.082 36.413 44.796 37.754 43.278 C 39.19 41.607 40.135 41.04 40.329 41.035 C 40.551 41.031 39.885 41.99 39.245 43.122 C 38.607 44.178 37.827 45.537 37.502 46.439 C 37.269 47.066 37.09 47.865 37.1 48.287 C 37.114 48.932 37.292 49.276 37.667 49.641 C 38.069 50.031 38.408 49.949 38.646 49.472 C 39.626 47.141 40.752 44.754 42.623 42.777 C 44.04 41.281 44.548 41.021 44.743 41.017 C 44.939 41.013 44.368 41.771 43.845 42.602 C 43.302 43.508 42.519 44.868 42.144 45.72 C 41.888 46.347 41.803 46.896 41.812 47.342 C 41.84 48.683 42.766 49.584 44.434 49.549 C 45.705 49.522 47.107 48.617 47.916 47.469 C 48.429 48.629 49.54 49.384 51.167 49.332 C 54.156 49.219 56.716 46.133 58.634 41.843 C 59.173 41.806 59.785 41.694 60.44 41.381 C 59.485 42.57 58.556 43.957 58.169 45.307 C 58.008 45.832 57.945 46.28 57.953 46.679 C 57.983 48.143 58.865 49.218 60.408 49.186 C 61.855 49.155 63.645 48.049 64.226 46.497 C 64.529 45.794 64.442 45.099 64.313 44.829"/>
  </g>
</svg>