<?xml version="1.0" encoding="utf-8"?>
<svg viewBox="0 0 64 64" xmlns="http://www.w3.org/2000/svg">
  <g transform="matrix(1, 0, 0, 1, 0.083496, -1.116998)">
    <path d="M 20.861 17.447 L 20.266 11.836 C 20.214 11.426 20.653 11.132 21.013 11.337 L 23.623 12.818" style="fill: rgb(255, 255, 255); fill-opacity: 1; fill-rule: nonzero; stroke: rgb(35, 31, 32); stroke-width: 0.75; stroke-linecap: round; stroke-linejoin: round; stroke-miterlimit: 10; stroke-dasharray: none; stroke-opacity: 1; display: inline;" id="path2242"/>
    <path id="path2246" style="fill: rgb(246, 247, 147); fill-opacity: 1; fill-rule: nonzero; stroke: none; display: inline;" d="M 38.337 16.841 C 38.337 16.841 35.376 16.433 35.376 13.062 C 35.376 9.693 39.257 9.874 39.257 9.874 C 39.257 9.874 39.563 5.863 42.832 4.994 C 46.099 4.127 47.632 6.628 47.632 6.628 C 47.632 6.628 49.597 3.673 53.453 5.351 C 56.619 6.73 55.546 10.306 55.546 10.306 C 55.546 10.306 59.836 9.743 60.091 13.574 C 60.347 17.402 54.015 16.841 54.015 16.841 Z"/>
    <path d="M 38.362 16.535 L 54.014 16.535 C 54.078 16.537 57.659 16.835 59.154 15.37 C 59.628 14.907 59.835 14.325 59.785 13.593 C 59.721 12.631 59.378 11.887 58.762 11.382 C 57.535 10.371 55.604 10.605 55.586 10.608 C 55.476 10.625 55.38 10.582 55.314 10.503 C 55.246 10.425 55.223 10.317 55.253 10.218 C 55.293 10.081 56.204 6.884 53.331 5.633 C 49.75 4.072 47.906 6.771 47.886 6.798 C 47.828 6.885 47.749 6.943 47.626 6.935 C 47.522 6.933 47.425 6.878 47.371 6.789 C 47.311 6.696 45.908 4.494 42.909 5.29 C 39.887 6.094 39.565 9.86 39.563 9.899 C 39.55 10.062 39.417 10.173 39.243 10.181 C 39.221 10.181 37.469 10.113 36.436 11.1 C 35.937 11.578 35.682 12.238 35.682 13.063 C 35.682 16.013 38.101 16.492 38.362 16.535 M 54.856 17.177 C 54.364 17.177 54.032 17.15 53.987 17.147 L 38.338 17.148 C 38.323 17.148 38.31 17.147 38.297 17.145 C 38.263 17.14 35.07 16.657 35.07 13.063 C 35.07 12.064 35.388 11.253 36.015 10.654 C 36.975 9.739 38.382 9.589 38.984 9.569 C 39.124 8.601 39.795 5.483 42.753 4.698 C 45.442 3.985 47.054 5.444 47.64 6.134 C 48.324 5.377 50.338 3.66 53.575 5.071 C 56.281 6.249 56.112 8.932 55.932 9.972 C 56.629 9.951 58.082 10.03 59.149 10.906 C 59.901 11.523 60.321 12.413 60.396 13.552 C 60.458 14.462 60.183 15.221 59.581 15.809 C 58.365 17 56.101 17.177 54.856 17.177" style="fill: rgb(5, 6, 6); fill-opacity: 1; fill-rule: nonzero; stroke: none; display: inline;" id="path2250"/>
    <path id="path2254" style="fill: rgb(255, 255, 255); fill-opacity: 1; fill-rule: nonzero; stroke: none; display: inline;" d="M 20.33 35.526 C 20.33 35.526 16.096 34.211 16.554 32.423 C 17.011 30.634 18.614 30.874 18.614 30.874 L 22.991 31.578 C 22.991 31.578 22.521 33.21 22.571 33.323 C 22.619 33.438 21.16 35.526 21.16 35.526 Z"/>
    <path id="path2258" style="fill: none; stroke: rgb(35, 31, 32); stroke-width: 0.75; stroke-linecap: round; stroke-linejoin: round; stroke-miterlimit: 10; stroke-dasharray: none; stroke-opacity: 1; display: inline;" d="M 20.33 35.526 C 20.33 35.526 16.096 34.211 16.554 32.423 C 17.011 30.634 18.614 30.874 18.614 30.874 L 22.991 31.578 C 22.991 31.578 22.521 33.21 22.571 33.323 C 22.619 33.438 21.16 35.526 21.16 35.526 Z"/>
    <path d="M 18.006 28.726 C 17.982 28.615 18.006 24.58 18.006 24.58 L 20.187 18.242 L 23.623 12.818 L 29.173 12.543 L 33.915 13.261 L 40.872 9.084 L 40.844 17.326 L 44.455 24.734 L 45.318 29.512 L 45.318 32.587 C 45.318 32.587 45.284 35.92 44.851 35.92 C 44.419 35.92 36.18 35.348 35.437 35.405 C 34.692 35.462 27.515 35.348 26.955 35.348 C 26.396 35.348 20.958 33.224 20.958 33.224 L 21.333 30.181 Z" style="fill: rgb(255, 255, 255); fill-opacity: 1; fill-rule: nonzero; stroke: none; display: inline;" id="path2262"/>
    <path id="path2266" style="fill: rgb(251, 207, 233); fill-opacity: 1; fill-rule: nonzero; stroke: none; display: inline;" d="M 26.955 10.185 C 27.215 9.926 32.784 5.129 35.312 5.232 L 34.126 7.915 C 34.126 7.915 38.872 5.8 42.069 8.483 C 45.267 11.165 46.863 14.105 50.37 14.053 C 50.37 14.053 49.167 15.893 45.989 15.807 C 45.989 15.807 47.485 20.863 53.52 21.223 C 53.52 21.223 51.8 24.362 47.331 22.874 C 47.331 22.874 48.826 26.136 52.602 26.88 C 52.602 26.88 49.167 29.741 45.318 28.341 C 43.978 20.965 41.176 18.178 39.955 15.859 C 39.735 15.444 39.936 13.292 40.124 11.687 C 40.198 11.065 39.466 10.684 39.001 11.101 C 37.701 12.262 35.926 13.817 35.827 13.729 C 35.673 13.59 29.689 12.278 28.194 12.572 Z"/>
    <path d="M 26.955 10.185 C 27.215 9.927 32.784 5.129 35.312 5.233 L 34.126 7.915 C 34.126 7.915 38.872 5.8 42.069 8.483 C 45.267 11.165 46.863 14.105 50.37 14.053 C 50.37 14.053 49.167 15.893 45.989 15.807 C 45.989 15.807 47.485 20.863 53.52 21.223 C 53.52 21.223 51.8 24.362 47.331 22.874 C 47.331 22.874 48.826 26.136 52.602 26.88 C 52.602 26.88 49.167 29.741 45.318 28.341 C 43.978 20.965 41.176 18.178 39.955 15.859 C 39.735 15.444 39.936 13.292 40.124 11.687 C 40.198 11.065 39.466 10.684 39.001 11.101 C 37.701 12.263 35.926 13.817 35.827 13.729 C 35.673 13.59 29.689 12.278 28.194 12.572 Z" style="fill: none; stroke: rgb(35, 31, 32); stroke-width: 0.75; stroke-linecap: round; stroke-linejoin: round; stroke-miterlimit: 10; stroke-dasharray: none; stroke-opacity: 1; display: inline;" id="path2270"/>
    <path id="path2274" style="fill: rgb(247, 247, 149); fill-opacity: 1; fill-rule: nonzero; stroke: none; display: inline;" d="M 23.418 5.112 L 23.895 16.065 C 23.895 16.065 24.531 17.636 26.955 16.85 C 29.38 16.065 28.193 12.572 28.193 12.572 L 23.895 4.614 C 23.624 4.614 23.406 4.84 23.418 5.112"/>
    <path d="M 23.418 5.112 L 23.895 16.065 C 23.895 16.065 24.531 17.636 26.955 16.85 C 29.38 16.065 28.193 12.572 28.193 12.572 L 23.895 4.614 C 23.624 4.614 23.406 4.84 23.418 5.112 Z" style="fill: none; stroke: rgb(35, 31, 32); stroke-width: 0.75; stroke-linecap: round; stroke-linejoin: round; stroke-miterlimit: 10; stroke-dasharray: none; stroke-opacity: 1; display: inline;" id="path2278"/>
    <path d="M 23.861 14.053 C 23.861 14.053 26.988 14.834 27.617 11.503" style="fill: none; stroke: rgb(35, 31, 32); stroke-width: 0.75; stroke-linecap: round; stroke-linejoin: round; stroke-miterlimit: 10; stroke-dasharray: none; stroke-opacity: 1; display: inline;" id="path2282"/>
    <path id="path2286" style="fill: rgb(170, 227, 240); fill-opacity: 1; fill-rule: nonzero; stroke: rgb(35, 31, 32); stroke-width: 0.75; stroke-linecap: round; stroke-linejoin: round; stroke-miterlimit: 10; stroke-dasharray: none; stroke-opacity: 1; display: inline;" d="M 45.318 28.341 L 45.318 30.181"/>
    <path id="path2290" style="fill: rgb(255, 255, 255); fill-opacity: 1; fill-rule: nonzero; stroke: rgb(35, 31, 32); stroke-width: 0.75; stroke-linecap: round; stroke-linejoin: round; stroke-miterlimit: 10; stroke-dasharray: none; stroke-opacity: 1; display: inline;" d="M 42.121 32.659 C 42.121 32.659 44.597 29.356 46.935 30.593 C 49.273 31.832 44.528 34.858 44.528 34.858"/>
    <path d="M 49.168 49.094 C 49.479 49.438 51.267 52.602 53.055 53.22 C 53.055 53.22 51.267 53.427 50.786 53.22 C 50.786 53.22 52.024 55.697 54.913 55.904 C 54.913 55.904 52.23 56.109 51.474 55.904 C 51.474 55.904 51.022 56.863 53.52 58.064 C 53.52 58.064 48.714 58.338 46.663 56.982" style="fill: rgb(251, 206, 233); fill-opacity: 1; fill-rule: nonzero; stroke: rgb(35, 31, 32); stroke-width: 0.75; stroke-linecap: round; stroke-linejoin: round; stroke-miterlimit: 10; stroke-dasharray: none; stroke-opacity: 1; display: inline;" id="path2294"/>
    <path d="M 21.516 32.355 C 21.516 32.355 19.7 34.927 19.63 45.243 C 19.563 55.559 21.557 62.574 25.34 59.48 C 29.122 56.385 27.816 54.734 32.904 55.009 C 37.993 55.284 38.613 54.803 40.951 57.279 C 43.29 59.754 44.734 60.58 45.835 58.654 C 46.935 56.729 49.479 50.658 49.136 46.438 C 48.792 42.217 46.056 33.706 46.056 33.706" style="fill: rgb(255, 255, 255); fill-opacity: 1; fill-rule: nonzero; stroke: rgb(35, 31, 32); stroke-width: 0.75; stroke-linecap: round; stroke-linejoin: round; stroke-miterlimit: 10; stroke-dasharray: none; stroke-opacity: 1; display: inline;" id="path2298"/>
    <path id="path2302" style="fill: rgb(223, 157, 212); fill-opacity: 1; fill-rule: nonzero; stroke: none; display: inline;" d="M 18.12 28.757 C 17.959 28.108 18.243 27.416 18.826 27.088 C 20.242 26.292 23.528 25.102 29.328 26.399 C 31.338 26.847 32.421 27.468 33.001 27.98 C 33.65 28.552 33.715 29.518 33.142 30.167 C 32.32 31.096 30.232 32.259 24.958 32.618 C 24.913 32.622 24.873 32.623 24.828 32.622 C 24.186 32.614 19.027 32.434 18.12 28.757"/>
    <path d="M 18.12 28.757 C 17.959 28.108 18.243 27.416 18.825 27.088 C 20.242 26.292 23.528 25.102 29.328 26.399 C 31.338 26.847 32.421 27.468 33.001 27.98 C 33.649 28.552 33.715 29.518 33.142 30.167 C 32.32 31.096 30.232 32.258 24.958 32.618 C 24.913 32.622 24.872 32.623 24.828 32.622 C 24.186 32.614 19.027 32.434 18.12 28.757 Z" style="fill: none; stroke: rgb(35, 31, 32); stroke-width: 0.75; stroke-linecap: round; stroke-linejoin: round; stroke-miterlimit: 10; stroke-dasharray: none; stroke-opacity: 1; display: inline;" id="path2306"/>
    <path id="path2310" style="fill: none; stroke: rgb(35, 31, 32); stroke-width: 0.75; stroke-linecap: round; stroke-linejoin: round; stroke-miterlimit: 10; stroke-dasharray: none; stroke-opacity: 1; display: inline;" d="M 17.998 28.341 C 17.998 28.341 17.496 18.441 23.623 14.879"/>
    <path d="M 23.895 11.681 C 23.895 11.681 25.823 10.524 25.95 8.42" style="fill: none; stroke: rgb(35, 31, 32); stroke-width: 0.75; stroke-linecap: round; stroke-linejoin: round; stroke-miterlimit: 10; stroke-dasharray: none; stroke-opacity: 1; display: inline;" id="path2314"/>
    <path d="M 6.642 49.18 C 6.642 49.18 3.679 48.772 3.679 45.401 C 3.679 42.031 7.561 42.213 7.561 42.213 C 7.561 42.213 7.867 38.201 11.135 37.333 C 14.403 36.465 15.936 38.967 15.936 38.967 C 15.936 38.967 17.901 36.012 21.757 37.691 C 24.923 39.069 23.85 42.644 23.85 42.644 C 23.85 42.644 28.14 42.082 28.395 45.912 C 28.652 49.742 22.32 49.18 22.32 49.18 Z" style="fill: rgb(251, 207, 233); fill-opacity: 1; fill-rule: nonzero; stroke: none; display: inline;" id="path2318"/>
    <path id="path2322" style="fill: rgb(5, 6, 6); fill-opacity: 1; fill-rule: nonzero; stroke: none; display: inline;" d="M 6.666 48.874 L 22.318 48.874 C 22.381 48.876 25.963 49.175 27.458 47.71 C 27.932 47.246 28.138 46.664 28.09 45.931 C 28.026 44.97 27.682 44.226 27.067 43.721 C 25.84 42.71 23.908 42.943 23.89 42.947 C 23.78 42.963 23.684 42.92 23.618 42.842 C 23.551 42.763 23.528 42.655 23.557 42.557 C 23.597 42.42 24.509 39.223 21.634 37.972 C 18.054 36.41 16.209 39.11 16.191 39.137 C 16.132 39.224 16.053 39.282 15.93 39.273 C 15.826 39.271 15.73 39.217 15.675 39.128 C 15.615 39.034 14.211 36.833 11.214 37.629 C 8.191 38.433 7.869 42.199 7.866 42.238 C 7.854 42.401 7.721 42.512 7.547 42.52 C 7.526 42.52 5.773 42.452 4.74 43.439 C 4.241 43.917 3.987 44.576 3.987 45.402 C 3.987 48.352 6.405 48.831 6.666 48.874 M 23.16 49.516 C 22.668 49.516 22.336 49.489 22.291 49.486 L 6.642 49.487 C 6.628 49.487 6.613 49.486 6.6 49.484 C 6.567 49.479 3.375 48.996 3.375 45.402 C 3.375 44.402 3.692 43.592 4.319 42.993 C 5.279 42.078 6.686 41.928 7.288 41.908 C 7.427 40.94 8.099 37.822 11.057 37.037 C 13.747 36.323 15.357 37.783 15.944 38.474 C 16.629 37.716 18.642 35.998 21.879 37.41 C 24.585 38.588 24.416 41.271 24.236 42.31 C 24.933 42.29 26.387 42.369 27.453 43.245 C 28.204 43.862 28.625 44.751 28.701 45.891 C 28.762 46.801 28.487 47.56 27.885 48.149 C 26.67 49.338 24.405 49.516 23.16 49.516"/>
    <path id="path2326" style="fill: rgb(35, 31, 32); fill-opacity: 1; fill-rule: nonzero; stroke: none; display: inline;" d="M 22.09 22.655 C 22.09 23.089 21.802 23.44 21.445 23.44 C 21.088 23.44 20.798 23.089 20.798 22.655 C 20.798 22.221 21.088 21.869 21.445 21.869 C 21.802 21.869 22.09 22.221 22.09 22.655"/>
    <path id="path2330" style="fill: rgb(35, 31, 32); fill-opacity: 1; fill-rule: nonzero; stroke: none; display: inline;" d="M 31.843 22.655 C 31.843 23.089 31.554 23.44 31.197 23.44 C 30.841 23.44 30.551 23.089 30.551 22.655 C 30.551 22.221 30.841 21.869 31.197 21.869 C 31.554 21.869 31.843 22.221 31.843 22.655"/>
  </g>
</svg>