<?xml version="1.0" encoding="utf-8"?>
<svg viewBox="0 0 64 64" xmlns="http://www.w3.org/2000/svg">
  <g transform="matrix(1, 0, 0, 1, -0.202498, -0.743501)">
    <path id="path620" style="fill:#7ec5b0;fill-opacity:1;fill-rule:nonzero;stroke:none" d="M 1.851 35.094 C 1.851 35.094 2.671 24.424 11.797 17.562 L 13.592 19.403 L 8.26 24.573 L 4.516 35.094 Z"/>
    <path id="path624" style="fill:#f9adaf;fill-opacity:1;fill-rule:nonzero;stroke:none" d="M 6.311 35.094 C 6.311 35.094 6.311 26.776 14.566 20.148 L 28.101 35.857 Z"/>
    <path id="path628" style="fill:#a6dac8;fill-opacity:1;fill-rule:nonzero;stroke:none" d="M 3.132 35.094 C 3.132 35.094 3.594 30.588 6.465 25.517 C 9.336 20.446 12.617 18.458 12.617 18.458 L 14.053 19.85 C 14.053 19.85 6.15 24.853 5.432 35.094 Z"/>
    <path id="path632" style="fill:#181210;fill-opacity:1;fill-rule:nonzero;stroke:none" d="M 12.197 31.879 C 11.786 31.874 11.459 31.586 11.464 31.238 C 11.469 30.891 11.805 30.612 12.216 30.618 C 12.625 30.624 13.588 31.267 13.588 31.267 C 13.588 31.267 12.607 31.885 12.197 31.879"/>
    <path id="path636" style="fill:#181210;fill-opacity:1;fill-rule:nonzero;stroke:none" d="M 17.411 31.413 C 17.058 31.315 16.843 30.994 16.932 30.694 C 17.019 30.395 17.377 30.23 17.73 30.328 C 18.083 30.427 18.759 31.199 18.759 31.199 C 18.759 31.199 17.764 31.511 17.411 31.413"/>
    <path id="path640" style="fill:#181210;fill-opacity:1;fill-rule:nonzero;stroke:none" d="M 13.616 27.61 C 13.252 27.401 13.11 26.983 13.298 26.674 C 13.487 26.365 13.934 26.284 14.298 26.492 C 14.66 26.701 15.181 27.753 15.181 27.753 C 15.181 27.753 13.98 27.818 13.616 27.61"/>
    <path id="path644" style="fill:#7ec5b0;fill-opacity:1;fill-rule:nonzero;stroke:none" d="M 36.063 3.315 C 36.063 3.315 46.968 4.954 53.297 14.32 L 51.264 15.909 L 46.371 10.344 L 35.852 5.892 Z"/>
    <path id="path648" style="fill:#f9adaf;fill-opacity:1;fill-rule:nonzero;stroke:none" d="M 35.709 7.626 C 35.709 7.626 44.261 8.286 50.42 16.79 L 33.195 28.627 Z"/>
    <path id="path652" style="fill:#a6dac8;fill-opacity:1;fill-rule:nonzero;stroke:none" d="M 35.962 4.554 C 35.962 4.554 40.557 5.358 45.543 8.535 C 50.528 11.712 52.312 15.041 52.312 15.041 L 50.767 16.318 C 50.767 16.318 46.251 8.283 35.779 6.776 Z"/>
    <path id="path656" style="fill:#181210;fill-opacity:1;fill-rule:nonzero;stroke:none" d="M 38.547 13.57 C 38.586 13.174 38.907 12.879 39.265 12.912 C 39.622 12.944 39.88 13.292 39.842 13.688 C 39.805 14.084 39.066 14.963 39.066 14.963 C 39.066 14.963 38.509 13.966 38.547 13.57"/>
    <path id="path660" style="fill:#181210;fill-opacity:1;fill-rule:nonzero;stroke:none" d="M 38.613 18.647 C 38.741 18.314 39.09 18.132 39.39 18.241 C 39.691 18.349 39.831 18.708 39.702 19.041 C 39.575 19.374 38.726 19.967 38.726 19.967 C 38.726 19.967 38.485 18.98 38.613 18.647"/>
    <path id="path664" style="fill:#181210;fill-opacity:1;fill-rule:nonzero;stroke:none" d="M 42.824 15.28 C 43.067 14.946 43.509 14.842 43.811 15.048 C 44.113 15.254 44.162 15.693 43.919 16.027 C 43.676 16.363 42.553 16.783 42.553 16.783 C 42.553 16.783 42.581 15.616 42.824 15.28"/>
    <path id="path668" style="fill:#f9adaf;fill-opacity:1;fill-rule:nonzero;stroke:none" d="M 17.163 47.59 L 30.972 43.945 L 56.881 33.869 C 56.881 33.869 59 39.237 54.762 45.402 C 50.523 51.568 40.543 54.947 35.484 56.274 C 30.425 57.599 22.086 57.4 17.163 47.59"/>
    <path id="path672" style="fill:#a6dac8;fill-opacity:1;fill-rule:nonzero;stroke:none" d="M 14.976 48.054 L 16.685 48.054 C 16.685 48.054 22.427 60.289 35.484 56.856 C 48.541 53.423 51.207 49.91 52.369 48.783 C 53.531 47.656 59.923 41.558 57.411 33.869 L 59.342 32.742 C 59.342 32.742 62.554 41.956 55.035 49.711 C 47.515 57.466 33.16 62.172 24.819 58.328 C 16.479 54.484 14.976 48.054 14.976 48.054"/>
    <path id="path676" style="fill:#7ec5b0;fill-opacity:1;fill-rule:nonzero;stroke:none" d="M 14.976 48.054 L 13.745 48.054 C 13.745 48.054 14.668 56.637 24.871 59.273 C 35.073 61.908 45.419 57.903 47.994 56.856 C 50.568 55.809 58.108 51.586 60.023 45.362 C 61.939 39.138 60.023 32.527 60.023 32.527 L 58.658 33.074 C 58.658 33.074 60.914 38.99 59.068 43.414 C 57.222 47.839 53.645 51.865 48.518 54.5 C 43.391 57.135 32.613 59.521 27.486 58.328 C 22.359 57.135 18.104 55.478 14.976 48.054"/>
    <path id="path680" style="fill:#181210;fill-opacity:1;fill-rule:nonzero;stroke:none" d="M 31.717 50.9 C 31.605 51.283 31.233 51.516 30.888 51.421 C 30.543 51.325 30.354 50.939 30.465 50.555 C 30.578 50.173 31.469 49.438 31.469 49.438 C 31.469 49.438 31.829 50.518 31.717 50.9"/>
    <path id="path684" style="fill:#181210;fill-opacity:1;fill-rule:nonzero;stroke:none" d="M 25.33 49.207 C 25.446 49.59 25.26 49.978 24.915 50.076 C 24.571 50.174 24.197 49.944 24.082 49.563 C 23.966 49.181 24.317 48.099 24.317 48.099 C 24.317 48.099 25.215 48.825 25.33 49.207"/>
    <path id="path688" style="fill:#181210;fill-opacity:1;fill-rule:nonzero;stroke:none" d="M 38.784 46.678 C 38.672 47.061 38.3 47.295 37.955 47.199 C 37.609 47.103 37.42 46.717 37.532 46.334 C 37.644 45.951 38.535 45.217 38.535 45.217 C 38.535 45.217 38.895 46.296 38.784 46.678"/>
    <path id="path692" style="fill:#181210;fill-opacity:1;fill-rule:nonzero;stroke:none" d="M 38.683 51.276 C 39.008 51.519 39.093 51.939 38.873 52.216 C 38.654 52.491 38.213 52.517 37.888 52.275 C 37.563 52.031 37.191 50.956 37.191 50.956 C 37.191 50.956 38.358 51.033 38.683 51.276"/>
    <path id="path696" style="fill:#181210;fill-opacity:1;fill-rule:nonzero;stroke:none" d="M 49.082 45.979 C 49.373 46.26 49.404 46.687 49.151 46.934 C 48.897 47.182 48.456 47.155 48.165 46.873 C 47.874 46.593 47.643 45.481 47.643 45.481 C 47.643 45.481 48.791 45.699 49.082 45.979"/>
    <path id="path700" style="fill:#181210;fill-opacity:1;fill-rule:nonzero;stroke:none" d="M 27.208 53.237 C 27.351 53.61 27.195 54.011 26.858 54.132 C 26.522 54.254 26.133 54.05 25.989 53.678 C 25.846 53.305 26.115 52.202 26.115 52.202 C 26.115 52.202 27.064 52.864 27.208 53.237"/>
    <path id="path704" style="fill:#181210;fill-opacity:1;fill-rule:nonzero;stroke:none" d="M 44.686 41.713 C 44.977 41.993 45.007 42.421 44.754 42.669 C 44.5 42.915 44.06 42.888 43.769 42.608 C 43.478 42.328 43.247 41.216 43.247 41.216 C 43.247 41.216 44.395 41.432 44.686 41.713"/>
    <path id="path708" style="fill:#181210;fill-opacity:1;fill-rule:nonzero;stroke:none" d="M 52.604 42.752 C 52.895 43.034 52.926 43.461 52.673 43.708 C 52.419 43.955 51.978 43.927 51.687 43.647 C 51.396 43.367 51.165 42.255 51.165 42.255 C 51.165 42.255 52.313 42.472 52.604 42.752"/>
    <path id="path712" style="fill:#181210;fill-opacity:1;fill-rule:nonzero;stroke:none" d="M 53.049 37.896 C 53.34 38.176 53.371 38.604 53.118 38.851 C 52.865 39.099 52.423 39.071 52.132 38.79 C 51.841 38.51 51.61 37.398 51.61 37.398 C 51.61 37.398 52.758 37.616 53.049 37.896"/>
  </g>
</svg>