<?xml version="1.0" encoding="utf-8"?>
<svg viewBox="0 0 64 64" xmlns="http://www.w3.org/2000/svg">
  <g transform="matrix(1, 0, 0, 1, 0, -0.000002)">
    <path d="M 19.716 57.385 C 20.682 55.416 20.47 53.376 20.147 51.206 C 19.026 53.289 19.014 55.316 19.716 57.385 M 35.226 29.823 C 35.262 29.803 35.297 29.783 35.332 29.764 C 35.151 29.157 35.022 28.529 34.776 27.95 C 34.337 26.916 33.877 25.886 33.331 24.907 C 32.99 24.295 32.48 24.308 31.768 24.786 C 31.227 25.149 31.16 25.423 31.512 26.041 C 32.416 27.629 33.668 28.879 35.226 29.823 M 31.781 32.589 C 31.751 32.611 31.722 32.634 31.692 32.655 C 31.833 33.632 31.932 34.618 32.126 35.585 C 32.335 36.618 32.596 37.645 32.908 38.652 C 33.074 39.191 33.297 39.263 33.816 39.055 C 34.133 38.927 34.455 38.74 34.695 38.499 C 35.707 37.48 35.801 36.157 35.891 34.825 C 34.309 34.421 32.924 33.728 31.781 32.589 M 16.382 39.735 C 16.318 41.64 16.033 43.441 15.277 45.142 C 14.883 46.028 14.381 46.844 13.671 47.515 C 11.956 49.136 9.95 49.003 8.453 47.173 C 7.521 46.033 6.985 44.696 6.651 43.29 C 5.973 40.438 5.551 37.54 5.307 34.621 C 5.153 32.763 5.082 30.898 5.476 29.056 C 5.63 28.335 5.851 27.63 6.4 27.093 C 7.206 26.303 8.135 26.373 8.767 27.3 C 9.504 28.382 9.779 29.638 9.901 30.902 C 10.205 34.052 10.412 37.21 10.707 40.359 C 10.819 41.566 11.048 42.761 11.256 43.957 C 11.323 44.346 11.475 44.78 11.933 44.836 C 12.386 44.889 12.676 44.519 12.812 44.153 C 13.093 43.39 13.373 42.614 13.521 41.817 C 13.981 39.342 14.031 36.83 14.033 34.32 C 14.034 32.571 13.979 30.821 13.936 29.072 C 13.88 26.742 15.995 25.131 18.045 25.956 C 18.657 26.202 19.092 26.618 19.234 27.285 C 19.425 28.184 19.584 29.092 19.799 29.985 C 20.471 32.774 21.161 35.561 21.852 38.345 C 22.039 39.1 22.255 39.847 22.46 40.597 C 22.487 40.7 22.523 40.801 22.587 41.004 C 22.838 40.507 23.062 40.105 23.249 39.687 C 24.156 37.65 25.044 35.605 25.96 33.572 C 26.238 32.954 26.108 32.323 26.111 31.697 C 26.126 29.527 26.361 27.392 27.079 25.337 C 26.322 24.614 26.379 23.984 27.281 23.441 C 28.415 22.757 29.705 22.524 30.976 22.268 C 32.446 21.972 33.868 22.188 35.226 22.815 C 36.778 23.532 37.854 24.727 38.614 26.235 C 39.402 27.803 39.708 29.494 39.933 31.273 C 40.163 31.278 40.409 31.295 40.653 31.287 C 42.959 31.215 44.886 29.622 45.384 27.379 C 45.452 27.077 45.496 26.769 45.581 26.471 C 45.641 26.257 45.711 26.017 45.855 25.863 C 45.989 25.721 46.251 25.583 46.417 25.62 C 46.578 25.657 46.799 25.916 46.802 26.08 C 46.813 26.738 46.858 27.425 46.693 28.05 C 45.989 30.714 44.629 32.932 42.104 34.255 C 41.573 34.533 40.982 34.714 40.402 34.878 C 40.081 34.969 39.998 35.12 39.969 35.427 C 39.783 37.326 39.241 39.107 38.136 40.684 C 37.463 41.644 36.621 42.421 35.582 42.987 C 34.512 43.569 33.398 43.495 32.286 43.214 C 29.709 42.56 28.085 40.859 27.147 38.43 C 27.113 38.344 27.07 38.263 26.998 38.108 C 26.839 38.547 26.711 38.916 26.574 39.282 C 25.832 41.256 24.923 43.152 23.895 44.992 C 23.811 45.144 23.777 45.375 23.823 45.542 C 24.298 47.316 24.821 49.078 25.278 50.858 C 25.859 53.117 25.955 55.36 24.735 57.473 C 23.839 59.027 22.451 59.914 20.711 60.233 C 19.175 60.513 17.971 59.789 17.283 58.366 C 16.651 57.058 16.799 55.723 17.01 54.383 C 17.368 52.12 18.204 50.008 19.135 47.93 C 19.257 47.659 19.283 47.425 19.196 47.13 C 18.468 44.648 17.543 42.24 16.518 39.867 C 16.504 39.833 16.463 39.812 16.382 39.735" style="fill-opacity: 1; fill-rule: nonzero; stroke: none; display: inline;" id="path330"/>
    <path d="M 52.416 28.216 C 51.873 24.237 51.438 20.771 50.916 17.317 C 50.548 14.886 50.078 12.469 49.625 10.051 C 49.369 8.685 49.124 7.328 49.405 5.937 C 49.661 4.673 50.487 4.009 51.697 3.743 C 52.871 3.487 53.847 3.813 54.616 4.734 C 55.383 5.653 55.784 6.752 56.106 7.884 C 56.787 10.295 56.953 12.781 57.157 15.26 C 57.327 17.33 57.526 19.397 57.674 21.468 C 57.93 25.042 58.269 28.618 57.933 32.204 C 57.863 32.968 57.698 33.744 57.434 34.463 C 56.893 35.937 55.507 36.183 54.506 34.962 C 54.029 34.379 53.637 33.649 53.445 32.924 C 52.99 31.206 52.679 29.45 52.416 28.216" style="fill-opacity: 1; fill-rule: nonzero; stroke: none; display: inline;" id="path334"/>
    <path d="M 56.677 44.709 C 55.28 44.919 53.882 43.814 53.793 42.413 C 53.742 41.602 54.485 40.751 55.446 40.521 C 56.371 40.3 57.651 40.778 58.206 41.552 C 58.918 42.545 58.524 43.889 57.347 44.459 C 57.134 44.563 56.902 44.626 56.677 44.709" style="fill-opacity: 1; fill-rule: nonzero; stroke: none; display: inline;" id="path338"/>
  </g>
</svg>