<?xml version="1.0" encoding="utf-8"?>
<svg viewBox="0 0 64 64" xmlns="http://www.w3.org/2000/svg">
  <g id="g8777" transform="matrix(1.041155, 0, 0, -1.041155, -77.496445, 558.086792)" style="display: inline;">
    <path d="m 99.3524,532.9232 -3.846,-4.333 -2.213,-19.978 6.268,1.288 -1.943,-19.679 7.664,2.1 2.819,-11.545 3.813,-3.997" style="fill:#ffffff;fill-opacity:1;fill-rule:nonzero;stroke:none" id="path30"/>
    <path d="m 112.1175,475.8719 -4.369,4.673 -2.755,11.285 -7.828,-2.145 1.948,19.717 -6.275,-1.289 2.287,20.647 3.929,4.427 0.596,-0.527 -3.762,-4.239 -2.139,-19.309 6.261,1.287 -1.939,-19.641 7.501,2.055 2.881,-11.805 3.581,-3.889 z" style="fill:#050606;fill-opacity:1;fill-rule:nonzero;stroke:none" id="path34"/>
    <path d="m 99.3524,532.9232 -2.168,-19.989 6.278,1.906 -1.39,-19.961 5.735,2.024 4.285,-19.102 4.876,24.737 -4.976,-1.925 0.998,21.159 -6.467,-0.439 2.133,12.908 z" style="fill:#f8e11a;fill-opacity:1;fill-rule:nonzero;stroke:none" id="path38"/>
    <path d="m 108.097,497.4281 3.971,-17.698 4.371,22.177 -4.873,-1.885 1.006,21.323 -6.522,-0.442 2.125,12.868 -8.461,-1.198 -2.07,-19.084 6.255,1.899 -1.388,-19.933 z m 4.021,-21.556 -4.601,20.507 -5.884,-2.077 1.392,19.99 -6.302,-1.914 2.268,20.896 10.146,1.437 -2.139,-12.947 6.411,0.435 -0.991,-20.995 5.08,1.965 z" style="fill:#050606;fill-opacity:1;fill-rule:nonzero;stroke:none" id="path42"/>
  </g>
</svg>